<svg width="675" height="267" viewBox="0 0 675 267" fill="none" xmlns="http://www.w3.org/2000/svg">
<path fill-rule="evenodd" clip-rule="evenodd" d="M335 0C268.739 0 214.073 54.4277 214.073 121.225C214.073 188.023 267.911 242.451 335 242.451C344.939 242.451 354.879 240.801 363.989 239.152L387.181 251.522L415.342 266.366L416.17 234.204L416.998 209.464C441.018 187.198 455.927 155.861 455.927 121.225C455.927 54.4277 401.261 0 335 0ZM335 181.865C301.869 181.865 274.537 155.036 274.537 121.225C274.537 87.4142 301.869 60.2855 335 60.2855C368.131 60.2855 395.463 87.4142 395.463 121.225C395.463 155.036 368.131 181.865 335 181.865Z" fill="url(#paint0_radial)"/>
<path d="M194.463 193.925V202.096H202.634V193.925H194.463ZM161.862 193.925V185.754H153.691V193.925H161.862ZM161.862 235.963V244.134H170.033V235.963H161.862ZM116.678 235.963H108.507V244.134H116.678V235.963ZM116.678 193.925H124.849V185.754H116.678V193.925ZM8.86525 193.925H0.694513V202.096H8.86525V193.925ZM8.86525 162.754L2.30745 157.88L0.694513 160.05V162.754H8.86525ZM103.237 35.7804V27.6097H99.1297L96.6794 30.9064L103.237 35.7804ZM151.853 35.7804L158.462 40.5843L167.893 27.6097H151.853V35.7804ZM64.3445 156.176L57.7352 151.372L48.3047 164.347H64.3445V156.176ZM118.108 156.176V164.347H126.279V156.176H118.108ZM118.108 118.713V110.543H109.937V118.713H118.108ZM161.862 118.713H170.033V110.543H161.862V118.713ZM161.862 156.176H153.691V164.347H161.862V156.176ZM194.463 156.176H202.634V148.005H194.463V156.176ZM194.463 185.754H161.862V202.096H194.463V185.754ZM153.691 193.925V235.963H170.033V193.925H153.691ZM161.862 227.793H116.678V244.134H161.862V227.793ZM124.849 235.963V193.925H108.507V235.963H124.849ZM116.678 185.754H8.86525V202.096H116.678V185.754ZM17.036 193.925V162.754H0.694513V193.925H17.036ZM15.423 167.628L109.795 40.6544L96.6794 30.9064L2.30745 157.88L15.423 167.628ZM103.237 43.9511H151.853V27.6097H103.237V43.9511ZM145.244 30.9765L57.7352 151.372L70.9538 160.98L158.462 40.5843L145.244 30.9765ZM64.3445 164.347H118.108V148.005H64.3445V164.347ZM126.279 156.176V118.713H109.937V156.176H126.279ZM118.108 126.884H161.862V110.543H118.108V126.884ZM153.691 118.713V156.176H170.033V118.713H153.691ZM161.862 164.347H194.463V148.005H161.862V164.347ZM186.293 156.176V193.925H202.634V156.176H186.293Z" fill="#98D7DC"/>
<path d="M666.732 193.925V202.096H674.903V193.925H666.732ZM634.131 193.925V185.754H625.96V193.925H634.131ZM634.131 235.963V244.134H642.302V235.963H634.131ZM588.947 235.963H580.776V244.134H588.947V235.963ZM588.947 193.925H597.117V185.754H588.947V193.925ZM481.134 193.925H472.963V202.096H481.134V193.925ZM481.134 162.754L474.576 157.88L472.963 160.05V162.754H481.134ZM575.506 35.7804V27.6097H571.398L568.948 30.9064L575.506 35.7804ZM624.122 35.7804L630.731 40.5843L640.161 27.6097H624.122V35.7804ZM536.613 156.176L530.004 151.372L520.573 164.347H536.613V156.176ZM590.377 156.176V164.347H598.547V156.176H590.377ZM590.377 118.713V110.543H582.206V118.713H590.377ZM634.131 118.713H642.302V110.543H634.131V118.713ZM634.131 156.176H625.96V164.347H634.131V156.176ZM666.732 156.176H674.903V148.005H666.732V156.176ZM666.732 185.754H634.131V202.096H666.732V185.754ZM625.96 193.925V235.963H642.302V193.925H625.96ZM634.131 227.793H588.947V244.134H634.131V227.793ZM597.117 235.963V193.925H580.776V235.963H597.117ZM588.947 185.754H481.134V202.096H588.947V185.754ZM489.305 193.925V162.754H472.963V193.925H489.305ZM487.692 167.628L582.064 40.6544L568.948 30.9064L474.576 157.88L487.692 167.628ZM575.506 43.9511H624.122V27.6097H575.506V43.9511ZM617.512 30.9765L530.004 151.372L543.222 160.98L630.731 40.5843L617.512 30.9765ZM536.613 164.347H590.377V148.005H536.613V164.347ZM598.547 156.176V118.713H582.206V156.176H598.547ZM590.377 126.884H634.131V110.543H590.377V126.884ZM625.96 118.713V156.176H642.302V118.713H625.96ZM634.131 164.347H666.732V148.005H634.131V164.347ZM658.561 156.176V193.925H674.903V156.176H658.561Z" fill="#98D7DC"/>
<defs>
<radialGradient id="paint0_radial" cx="0" cy="0" r="1" gradientUnits="userSpaceOnUse" gradientTransform="translate(335 121.58) rotate(90) scale(88.2841 80.1598)">
<stop stop-color="#70A9AD"/>
<stop offset="1" stop-color="#98D7DC"/>
</radialGradient>
</defs>
</svg>
