<svg width="16" height="16" viewBox="0 0 16 16" fill="none" xmlns="http://www.w3.org/2000/svg">
<path d="M9.88968 5.39757L9.77337 5.16177L8.00039 1.5674C7.9997 1.56765 7.99928 1.56794 7.99917 1.56803C7.99916 1.56803 7.99916 1.56803 7.99916 1.56804C7.99914 1.56805 7.99914 1.56806 7.99915 1.56805L9.88968 5.39757ZM9.88968 5.39757L10.1499 5.43538M9.88968 5.39757L10.1499 5.43538M8.44834 1.34527C8.39991 1.24683 8.32022 1.16714 8.22178 1.11871L8.44834 1.34527ZM8.44834 1.34527L10.2218 4.94058L8.44834 1.34527ZM8.00086 1.56725C8.00095 1.56723 8.00103 1.56721 8.0011 1.56719C8.00147 1.56712 8.00155 1.56715 8.00128 1.56713C8.00123 1.56713 8.00118 1.56713 8.00113 1.56712C8.00086 1.5671 8.00062 1.56704 8.00047 1.56701C8.00044 1.567 8.00042 1.56699 8.0004 1.56699C8.00024 1.56695 8.00023 1.56694 8.00045 1.56705L8.00086 1.56725M8.00086 1.56725L8.00086 1.56725M8.00086 1.56725C8.00092 1.56728 8.00097 1.56731 8.00103 1.56734L8.00086 1.56725M8.00086 1.56725L8.00086 1.56725M10.1499 5.43538L14.1155 6.01172L14.1155 6.01172L14.1161 6.01186L14.116 6.01274L14.1156 6.01316M10.1499 5.43538L1.88315 6.01189L1.88329 6.01223L1.88332 6.01226L4.75364 8.8107L4.94185 8.9942L4.89739 9.25327L4.21942 13.2039L7.76723 11.3386L7.99991 11.2163L8.23259 11.3386L11.7804 13.2039L11.1024 9.25327L11.058 8.9942L11.2462 8.8107L14.1156 6.01316M14.1156 6.01316L14.1159 6.01362L14.1159 6.01349L14.1156 6.01316ZM11.7809 13.2042C11.7809 13.2041 11.7809 13.2041 11.7809 13.204M11.7809 13.2042L11.7807 13.2041C11.7808 13.2041 11.7808 13.2041 11.7809 13.204M11.7809 13.2042L11.7808 13.2042M11.7809 13.2042L11.7808 13.2041M11.7809 13.204C11.7812 13.204 11.7813 13.2039 11.7813 13.204C11.7813 13.204 11.7811 13.204 11.7808 13.2042M11.7809 13.204C11.7809 13.204 11.7809 13.2039 11.781 13.2039C11.781 13.2038 11.781 13.2038 11.7809 13.204C11.7808 13.2041 11.7808 13.2041 11.7808 13.2041M11.7808 13.2042L11.7808 13.2041M11.7808 13.2042C11.7808 13.2042 11.7808 13.2042 11.7808 13.2042C11.7807 13.2043 11.7806 13.2043 11.7806 13.2043C11.7806 13.2043 11.7807 13.2043 11.7808 13.2041M7.99876 1.56874L7.99988 1.56646L7.55147 1.34527L7.99868 1.56888L7.99876 1.56874ZM1.88156 6.01212L1.88169 6.0121L1.88201 6.01242L1.88156 6.01212Z" stroke="#FFB800"/>
<rect x="0.5" y="0.5" width="15" height="15" stroke="white"/>
</svg>
