<svg width="17" height="16" viewBox="0 0 17 16" fill="none" xmlns="http://www.w3.org/2000/svg">
<path d="M14.6891 5.51714L10.7219 4.94058L8.94844 1.34527C8.9 1.24683 8.82031 1.16714 8.72187 1.11871C8.475 0.996832 8.175 1.09839 8.05156 1.34527L6.27812 4.94058L2.31094 5.51714C2.20156 5.53277 2.10156 5.58433 2.025 5.66246C1.93244 5.75759 1.88143 5.88558 1.88319 6.0183C1.88495 6.15103 1.93933 6.27762 2.03437 6.37027L4.90469 9.16871L4.22656 13.1203C4.21066 13.2122 4.22083 13.3067 4.25592 13.3932C4.29102 13.4796 4.34963 13.5545 4.42511 13.6093C4.50059 13.6641 4.58992 13.6967 4.68297 13.7033C4.77602 13.71 4.86907 13.6904 4.95156 13.6468L8.5 11.7812L12.0484 13.6468C12.1453 13.6984 12.2578 13.7156 12.3656 13.6968C12.6375 13.65 12.8203 13.3921 12.7734 13.1203L12.0953 9.16871L14.9656 6.37027C15.0437 6.29371 15.0953 6.19371 15.1109 6.08433C15.1531 5.81089 14.9625 5.55777 14.6891 5.51714Z" fill="#FFB800"/>
</svg>
