<svg width="48" height="48" viewBox="0 0 48 48" fill="none" xmlns="http://www.w3.org/2000/svg">
<path fill-rule="evenodd" clip-rule="evenodd" d="M24 45C29.5695 45 34.911 42.7875 38.8492 38.8492C42.7875 34.911 45 29.5695 45 24C45 18.4305 42.7875 13.089 38.8492 9.15076C34.911 5.21249 29.5695 3 24 3C18.4305 3 13.089 5.21249 9.15076 9.15076C5.21249 13.089 3 18.4305 3 24C3 29.5695 5.21249 34.911 9.15076 38.8492C13.089 42.7875 18.4305 45 24 45ZM24 48C30.3652 48 36.4697 45.4714 40.9706 40.9706C45.4714 36.4697 48 30.3652 48 24C48 17.6348 45.4714 11.5303 40.9706 7.02944C36.4697 2.52856 30.3652 0 24 0C17.6348 0 11.5303 2.52856 7.02944 7.02944C2.52856 11.5303 0 17.6348 0 24C0 30.3652 2.52856 36.4697 7.02944 40.9706C11.5303 45.4714 17.6348 48 24 48Z" fill="black"/>
<path fill-rule="evenodd" clip-rule="evenodd" d="M25.0618 34.0619C25.2014 33.9226 25.3123 33.7571 25.3879 33.5748C25.4635 33.3926 25.5024 33.1972 25.5024 32.9999C25.5024 32.8026 25.4635 32.6073 25.3879 32.425C25.3123 32.2428 25.2014 32.0773 25.0618 31.9379L17.1208 23.9999L25.0618 16.0619C25.2012 15.9225 25.3118 15.7569 25.3873 15.5747C25.4628 15.3925 25.5016 15.1972 25.5016 14.9999C25.5016 14.8027 25.4628 14.6074 25.3873 14.4252C25.3118 14.243 25.2012 14.0774 25.0618 13.9379C24.9223 13.7985 24.7567 13.6878 24.5745 13.6124C24.3923 13.5369 24.197 13.498 23.9998 13.498C23.8025 13.498 23.6072 13.5369 23.425 13.6124C23.2428 13.6878 23.0772 13.7985 22.9378 13.9379L13.9378 22.9379C13.7981 23.0773 13.6872 23.2428 13.6116 23.425C13.536 23.6073 13.4971 23.8026 13.4971 23.9999C13.4971 24.1972 13.536 24.3926 13.6116 24.5748C13.6872 24.7571 13.7981 24.9226 13.9378 25.0619L22.9378 34.0619C23.0771 34.2016 23.2426 34.3125 23.4249 34.3881C23.6071 34.4637 23.8024 34.5026 23.9998 34.5026C24.1971 34.5026 24.3924 34.4637 24.5747 34.3881C24.7569 34.3125 24.9224 34.2016 25.0618 34.0619Z" fill="black"/>
<path fill-rule="evenodd" clip-rule="evenodd" d="M34.5 24C34.5 23.6022 34.342 23.2206 34.0607 22.9393C33.7794 22.658 33.3978 22.5 33 22.5H18C17.6022 22.5 17.2206 22.658 16.9393 22.9393C16.658 23.2206 16.5 23.6022 16.5 24C16.5 24.3978 16.658 24.7794 16.9393 25.0607C17.2206 25.342 17.6022 25.5 18 25.5H33C33.3978 25.5 33.7794 25.342 34.0607 25.0607C34.342 24.7794 34.5 24.3978 34.5 24Z" fill="black"/>
</svg>
