<svg width="24" height="24" viewBox="0 0 24 24" fill="none" xmlns="http://www.w3.org/2000/svg">
<path d="M18.464 21.886C18.3022 21.9702 18.1206 22.0087 17.9386 21.9974C17.7566 21.9861 17.5811 21.9255 17.431 21.822L4.43099 12.822C4.29816 12.73 4.1896 12.6071 4.11462 12.464C4.03965 12.3208 4.00048 12.1616 4.00048 12C4.00048 11.8384 4.03965 11.6792 4.11462 11.5361C4.1896 11.3929 4.29816 11.2701 4.43099 11.178L17.431 2.17803C17.5809 2.07348 17.7565 2.01209 17.9389 2.00053C18.1213 1.98898 18.3033 2.02771 18.4651 2.11251C18.627 2.19731 18.7625 2.32491 18.8568 2.48141C18.9511 2.63791 19.0006 2.8173 19 3.00003V21C19 21.1826 18.9501 21.3616 18.8556 21.5178C18.7611 21.674 18.6257 21.8013 18.464 21.886ZM17 4.90903L6.75699 12L17 19.091V4.90903Z" fill="black"/>
</svg>
