<svg width="35" height="35" viewBox="0 0 35 35" fill="none" xmlns="http://www.w3.org/2000/svg">
<path d="M17.5 2.91667C9.5944 2.91667 2.91669 9.59438 2.91669 17.5C2.91669 22.1506 5.23835 26.3638 8.75002 29.0558V29.1667H8.89877C11.3313 30.9823 14.3106 32.0833 17.5 32.0833C20.6894 32.0833 23.6688 30.9823 26.1013 29.1667H26.25V29.0558C29.7617 26.3638 32.0834 22.1521 32.0834 17.5C32.0834 9.59438 25.4056 2.91667 17.5 2.91667ZM11.7746 27.6019C11.9895 26.6297 12.5294 25.7599 13.3051 25.1358C14.0808 24.5117 15.0461 24.1707 16.0417 24.169H18.9584C19.9539 24.171 20.919 24.5121 21.6947 25.1361C22.4704 25.7602 23.0103 26.6299 23.2254 27.6019C21.5221 28.5892 19.565 29.1667 17.5 29.1667C15.435 29.1667 13.4779 28.5892 11.7746 27.6019ZM25.6813 25.7265C25.125 24.4021 24.1905 23.2712 22.9946 22.4754C21.7988 21.6796 20.3948 21.2541 18.9584 21.2523H16.0417C14.6052 21.2541 13.2012 21.6796 12.0054 22.4754C10.8096 23.2712 9.87504 24.4021 9.31877 25.7265C7.1794 23.5988 5.83335 20.6733 5.83335 17.5C5.83335 11.1752 11.1752 5.83333 17.5 5.83333C23.8248 5.83333 29.1667 11.1752 29.1667 17.5C29.1667 20.6733 27.8206 23.5988 25.6813 25.7265Z" fill="#98D7DC"/>
<path d="M17.5 8.75C14.175 8.75 11.6667 11.2583 11.6667 14.5833C11.6667 17.9083 14.175 20.4167 17.5 20.4167C20.825 20.4167 23.3334 17.9083 23.3334 14.5833C23.3334 11.2583 20.825 8.75 17.5 8.75ZM17.5 17.5C15.7821 17.5 14.5834 16.3012 14.5834 14.5833C14.5834 12.8654 15.7821 11.6667 17.5 11.6667C19.2179 11.6667 20.4167 12.8654 20.4167 14.5833C20.4167 16.3012 19.2179 17.5 17.5 17.5Z" fill="#98D7DC"/>
</svg>
