<svg width="16" height="14" viewBox="0 0 16 14" fill="none" xmlns="http://www.w3.org/2000/svg">
<path d="M7.52043 11.4153C7.57395 11.493 7.64555 11.5565 7.72909 11.6004C7.81262 11.6444 7.90557 11.6673 7.99993 11.6673C8.0943 11.6673 8.18725 11.6444 8.27078 11.6004C8.35431 11.5565 8.42592 11.493 8.47943 11.4153L13.7294 3.83194C13.7902 3.74447 13.8258 3.64202 13.8325 3.53572C13.8391 3.42943 13.8165 3.32334 13.767 3.229C13.7176 3.13466 13.6433 3.05567 13.5521 3.0006C13.461 2.94554 13.3564 2.91652 13.2499 2.91669H2.74993C2.64367 2.91713 2.53955 2.94652 2.44875 3.00172C2.35795 3.05691 2.28391 3.13581 2.2346 3.22993C2.18529 3.32406 2.16257 3.42984 2.16888 3.53591C2.17519 3.64199 2.2103 3.74433 2.27043 3.83194L7.52043 11.4153Z" fill="#98D7DC" stroke="black" stroke-width="2"/>
</svg>
