<svg width="32" height="32" viewBox="0 0 32 32" fill="none" xmlns="http://www.w3.org/2000/svg">
<path d="M15.9999 6.12666C14.5471 4.7908 12.6455 4.04939 10.6719 4.04933C9.62728 4.05042 8.59319 4.25808 7.62914 4.66036C6.66509 5.06263 5.79011 5.65159 5.05456 6.39333C1.91723 9.544 1.91856 14.472 5.05723 17.6093L14.8332 27.3853C15.0599 27.784 15.4972 28.0413 15.9999 28.0413C16.2063 28.0393 16.4093 27.9889 16.5927 27.8942C16.7761 27.7995 16.9348 27.6631 17.0559 27.496L26.9426 17.6093C30.0812 14.4707 30.0812 9.544 26.9399 6.388C26.2047 5.64762 25.3304 5.05986 24.3673 4.65851C23.4042 4.25716 22.3713 4.05013 21.3279 4.04933C19.3543 4.04965 17.4528 4.79103 15.9999 6.12666ZM25.0546 8.27333C27.1386 10.368 27.1399 13.64 25.0572 15.724L15.9999 24.7813L6.94256 15.724C4.85989 13.64 4.86123 10.368 6.93989 8.27867C7.95323 7.27067 9.27856 6.716 10.6719 6.716C12.0652 6.716 13.3852 7.27066 14.3906 8.276L15.0572 8.94267C15.1809 9.06659 15.3279 9.16491 15.4896 9.23199C15.6514 9.29907 15.8248 9.3336 15.9999 9.3336C16.175 9.3336 16.3484 9.29907 16.5102 9.23199C16.6719 9.16491 16.8188 9.06659 16.9426 8.94267L17.6092 8.276C19.6252 6.264 23.0412 6.26933 25.0546 8.27333Z" fill="#FF6262"/>
</svg>
