<svg width="35" height="35" viewBox="0 0 35 35" fill="none" xmlns="http://www.w3.org/2000/svg">
<path d="M17 3C8.8685 3 2 9.8685 2 18C2 22.7835 4.388 27.117 8 29.886V30H8.153C10.655 31.8675 13.7195 33 17 33C20.2805 33 23.345 31.8675 25.847 30H26V29.886C29.612 27.117 32 22.785 32 18C32 9.8685 25.1315 3 17 3ZM11.111 28.3905C11.332 27.3906 11.8873 26.4959 12.6852 25.854C13.4831 25.2121 14.4759 24.8613 15.5 24.8595H18.5C19.524 24.8616 20.5167 25.2124 21.3145 25.8543C22.1124 26.4962 22.6677 27.3907 22.889 28.3905C21.137 29.406 19.124 30 17 30C14.876 30 12.863 29.406 11.111 28.3905ZM25.415 26.4615C24.8428 25.0993 23.8816 23.9361 22.6516 23.1175C21.4216 22.299 19.9775 21.8614 18.5 21.8595H15.5C14.0225 21.8614 12.5784 22.299 11.3484 23.1175C10.1184 23.9361 9.15717 25.0993 8.585 26.4615C6.3845 24.273 5 21.264 5 18C5 11.4945 10.4945 6 17 6C23.5055 6 29 11.4945 29 18C29 21.264 27.6155 24.273 25.415 26.4615Z" fill="#98D7DC"/>
<path d="M16.8333 8.75C13.5083 8.75 11 11.2583 11 14.5833C11 17.9083 13.5083 20.4167 16.8333 20.4167C20.1583 20.4167 22.6667 17.9083 22.6667 14.5833C22.6667 11.2583 20.1583 8.75 16.8333 8.75ZM16.8333 17.5C15.1154 17.5 13.9167 16.3012 13.9167 14.5833C13.9167 12.8654 15.1154 11.6667 16.8333 11.6667C18.5512 11.6667 19.75 12.8654 19.75 14.5833C19.75 16.3012 18.5512 17.5 16.8333 17.5Z" fill="#98D7DC"/>
</svg>
