<svg width="26" height="26" viewBox="0 0 26 26" fill="none" xmlns="http://www.w3.org/2000/svg">
<path d="M14.9396 16.097C15.5807 16.097 16.1004 15.5771 16.1004 14.9357C16.1004 14.2943 15.5807 13.7744 14.9396 13.7744C14.2985 13.7744 13.7788 14.2943 13.7788 14.9357C13.7788 15.5771 14.2985 16.097 14.9396 16.097Z" stroke="black" stroke-width="1.5" stroke-miterlimit="10" stroke-linecap="round" stroke-linejoin="round"/>
<path d="M14.9395 11.8389C13.0822 11.8389 11.5732 13.5034 11.8828 15.4389C12.1149 16.9486 13.5079 18.0324 15.017 18.0324C17.416 18.0324 22.4074 18.0324 24.226 18.0324C24.6517 18.0324 24.9999 17.684 24.9999 17.2582V12.6131C24.9999 12.1873 24.6517 11.8389 24.226 11.8389H14.9395Z" stroke="black" stroke-width="1.5" stroke-miterlimit="10" stroke-linecap="round" stroke-linejoin="round"/>
<path d="M22.6783 19.9678V23.4517C22.6783 24.3033 21.9818 25.0001 21.1305 25.0001H3.33139C2.0545 25.0001 1.00977 23.9549 1.00977 22.6775V2.93555" stroke="black" stroke-width="1.5" stroke-miterlimit="10" stroke-linejoin="round"/>
<path d="M21.1306 3.70968V2.54839C21.1306 1.69677 20.4341 1 19.5828 1H3.02198C2.01594 1 1.12591 1.73548 1.00982 2.74194C0.893743 3.90323 1.82239 4.87097 2.94451 4.87097H21.1306C21.9818 4.87097 22.6783 5.56774 22.6783 6.41936V9.90323" stroke="black" stroke-width="1.5" stroke-miterlimit="10" stroke-linejoin="round"/>
</svg>
