<svg width="131" height="47" viewBox="0 0 131 47" fill="none" xmlns="http://www.w3.org/2000/svg">
<rect width="131" height="38" rx="5" fill="#323232"/>
<path d="M19 26.9839C23.4094 26.9839 26.9839 23.4094 26.9839 19C26.9839 14.5906 23.4094 11.0161 19 11.0161C14.5906 11.0161 11.0161 14.5906 11.0161 19C11.0161 23.4094 14.5906 26.9839 19 26.9839Z" fill="white" stroke="#FA0303" stroke-width="2" stroke-miterlimit="10" stroke-linecap="round" stroke-linejoin="round"/>
<path d="M23.5329 16.0382L16.0383 23.5328C16.8882 24.0994 17.9184 24.4342 19.0001 24.4342C21.9876 24.4342 24.4085 22.0133 24.4085 19.0257C24.4085 17.8926 24.0995 16.8881 23.5329 16.0382Z" fill="#FA0303"/>
<path d="M19 13.5916C16.0125 13.5916 13.5916 16.0125 13.5916 19C13.5916 20.1074 13.9264 21.1118 14.493 21.9617L21.9875 14.4672C21.1376 13.9263 20.1074 13.5916 19 13.5916Z" fill="#FA0303"/>
<path d="M41.328 23.578C41.1807 23.578 41.0073 23.5693 40.808 23.552C40.6173 23.5433 40.418 23.526 40.21 23.5C40.0107 23.4827 39.82 23.461 39.638 23.435C39.456 23.4003 39.3 23.3657 39.17 23.331V14.66C39.326 14.6167 39.4993 14.582 39.69 14.556C39.8807 14.5213 40.0757 14.4953 40.275 14.478C40.483 14.452 40.6823 14.4347 40.873 14.426C41.0723 14.4173 41.2543 14.413 41.419 14.413C41.9043 14.413 42.3637 14.452 42.797 14.53C43.239 14.608 43.6247 14.738 43.954 14.92C44.2833 15.102 44.5433 15.3447 44.734 15.648C44.9333 15.9427 45.033 16.311 45.033 16.753C45.033 17.2383 44.9073 17.6543 44.656 18.001C44.4133 18.339 44.084 18.573 43.668 18.703C43.928 18.7637 44.1663 18.8503 44.383 18.963C44.5997 19.0757 44.7903 19.223 44.955 19.405C45.1197 19.5783 45.2453 19.795 45.332 20.055C45.4273 20.3063 45.475 20.6097 45.475 20.965C45.475 21.8143 45.137 22.4643 44.461 22.915C43.785 23.357 42.7407 23.578 41.328 23.578ZM40.054 19.184V22.733C40.184 22.7503 40.379 22.772 40.639 22.798C40.899 22.8153 41.1633 22.824 41.432 22.824C41.8307 22.824 42.2163 22.798 42.589 22.746C42.9703 22.694 43.304 22.5987 43.59 22.46C43.876 22.3213 44.1057 22.1307 44.279 21.888C44.4523 21.6453 44.539 21.3333 44.539 20.952C44.539 20.6053 44.4783 20.3193 44.357 20.094C44.2357 19.86 44.0623 19.678 43.837 19.548C43.6117 19.4093 43.3343 19.314 43.005 19.262C42.6843 19.21 42.3247 19.184 41.926 19.184H40.054ZM40.054 18.43H41.77C42.0907 18.43 42.394 18.4083 42.68 18.365C42.966 18.313 43.213 18.2263 43.421 18.105C43.6377 17.975 43.8067 17.806 43.928 17.598C44.0493 17.3813 44.11 17.1083 44.11 16.779C44.11 16.4843 44.045 16.2373 43.915 16.038C43.785 15.83 43.5987 15.661 43.356 15.531C43.122 15.401 42.8403 15.31 42.511 15.258C42.1817 15.1973 41.8177 15.167 41.419 15.167C41.0983 15.167 40.8253 15.1757 40.6 15.193C40.3833 15.2103 40.2013 15.232 40.054 15.258V18.43ZM48.1515 22.291C48.2295 22.3517 48.3248 22.4167 48.4375 22.486C48.5588 22.5553 48.6975 22.6203 48.8535 22.681C49.0095 22.7417 49.1785 22.7937 49.3605 22.837C49.5425 22.8717 49.7331 22.889 49.9325 22.889C50.3485 22.889 50.6951 22.8197 50.9725 22.681C51.2585 22.5337 51.4881 22.3387 51.6615 22.096C51.8348 21.8447 51.9605 21.5543 52.0385 21.225C52.1165 20.887 52.1555 20.5317 52.1555 20.159C52.1555 19.275 51.9345 18.599 51.4925 18.131C51.0505 17.6543 50.4655 17.416 49.7375 17.416C49.3215 17.416 48.9835 17.4377 48.7235 17.481C48.4721 17.5157 48.2815 17.5547 48.1515 17.598V22.291ZM48.1515 25.905H47.3065V17.013C47.5578 16.9263 47.8785 16.844 48.2685 16.766C48.6585 16.688 49.1525 16.649 49.7505 16.649C50.2445 16.649 50.6908 16.7313 51.0895 16.896C51.4968 17.052 51.8435 17.2817 52.1295 17.585C52.4241 17.8883 52.6495 18.2567 52.8055 18.69C52.9701 19.1233 53.0525 19.613 53.0525 20.159C53.0525 20.6703 52.9831 21.1427 52.8445 21.576C52.7145 22.0007 52.5195 22.369 52.2595 22.681C51.9995 22.9843 51.6788 23.2227 51.2975 23.396C50.9248 23.5693 50.4958 23.656 50.0105 23.656C49.5685 23.656 49.1828 23.5953 48.8535 23.474C48.5328 23.344 48.2988 23.2227 48.1515 23.11V25.905ZM54.4826 20.133C54.4826 19.5437 54.5649 19.0323 54.7296 18.599C54.9029 18.157 55.1239 17.7887 55.3926 17.494C55.6699 17.1993 55.9819 16.9827 56.3286 16.844C56.6839 16.6967 57.0479 16.623 57.4206 16.623C58.2439 16.623 58.8982 16.8917 59.3836 17.429C59.8776 17.9663 60.1246 18.794 60.1246 19.912C60.1246 19.9813 60.1202 20.0507 60.1116 20.12C60.1116 20.1893 60.1072 20.2543 60.0986 20.315H55.3796C55.4056 21.1383 55.6092 21.771 55.9906 22.213C56.3719 22.655 56.9786 22.876 57.8106 22.876C58.2699 22.876 58.6339 22.8327 58.9026 22.746C59.1712 22.6593 59.3662 22.5857 59.4876 22.525L59.6436 23.253C59.5222 23.3223 59.2926 23.4047 58.9546 23.5C58.6252 23.5953 58.2352 23.643 57.7846 23.643C57.1952 23.643 56.6926 23.5563 56.2766 23.383C55.8606 23.2097 55.5182 22.967 55.2496 22.655C54.9809 22.343 54.7859 21.9747 54.6646 21.55C54.5432 21.1167 54.4826 20.6443 54.4826 20.133ZM59.2536 19.6C59.2362 18.898 59.0716 18.352 58.7596 17.962C58.4476 17.572 58.0056 17.377 57.4336 17.377C57.1302 17.377 56.8572 17.4377 56.6146 17.559C56.3806 17.6803 56.1726 17.845 55.9906 18.053C55.8172 18.2523 55.6786 18.4863 55.5746 18.755C55.4792 19.0237 55.4229 19.3053 55.4056 19.6H59.2536ZM65.1926 22.564C65.1406 22.434 65.0626 22.2563 64.9586 22.031C64.8546 21.797 64.7376 21.5413 64.6076 21.264C64.4863 20.978 64.352 20.679 64.2046 20.367C64.0573 20.0463 63.91 19.7387 63.7626 19.444C63.624 19.1493 63.4896 18.872 63.3596 18.612C63.2296 18.352 63.117 18.1397 63.0216 17.975C62.909 18.9717 62.8266 19.9207 62.7746 20.822C62.7226 21.7147 62.6793 22.6073 62.6446 23.5H61.8516C61.8863 22.382 61.9426 21.2553 62.0206 20.12C62.1073 18.9847 62.2156 17.871 62.3456 16.779H63.2166C63.3293 16.961 63.4723 17.221 63.6456 17.559C63.8276 17.897 64.0226 18.2827 64.2306 18.716C64.4473 19.1407 64.6683 19.6043 64.8936 20.107C65.1276 20.601 65.3616 21.1037 65.5956 21.615C65.8296 21.1037 66.0593 20.601 66.2846 20.107C66.5186 19.6043 66.7396 19.1407 66.9476 18.716C67.1643 18.2827 67.3593 17.897 67.5326 17.559C67.706 17.221 67.8533 16.961 67.9746 16.779H68.8326C68.9626 17.871 69.0666 18.9847 69.1446 20.12C69.2313 21.2553 69.292 22.382 69.3266 23.5H68.5206C68.486 22.6073 68.4426 21.7147 68.3906 20.822C68.3386 19.9207 68.2563 18.9717 68.1436 17.975C68.0483 18.1483 67.9356 18.365 67.8056 18.625C67.6756 18.8763 67.537 19.1493 67.3896 19.444C67.251 19.7387 67.108 20.0463 66.9606 20.367C66.8133 20.679 66.6746 20.978 66.5446 21.264C66.4233 21.5413 66.3106 21.797 66.2066 22.031C66.1026 22.2563 66.0246 22.434 65.9726 22.564H65.1926ZM73.1442 20.757C73.0142 20.9563 72.8712 21.173 72.7152 21.407C72.5678 21.641 72.4205 21.8793 72.2732 22.122C72.1345 22.3647 72.0002 22.6073 71.8702 22.85C71.7402 23.084 71.6318 23.3007 71.5452 23.5H70.6742C70.8995 22.9887 71.1725 22.473 71.4932 21.953C71.8138 21.433 72.1128 20.978 72.3902 20.588C72.2168 20.536 72.0478 20.4623 71.8832 20.367C71.7272 20.2717 71.5842 20.1503 71.4542 20.003C71.3328 19.8557 71.2332 19.6823 71.1552 19.483C71.0772 19.275 71.0382 19.041 71.0382 18.781C71.0382 18.4083 71.1075 18.0877 71.2462 17.819C71.3935 17.5503 71.5885 17.3293 71.8312 17.156C72.0825 16.9827 72.3772 16.8527 72.7152 16.766C73.0618 16.6793 73.4302 16.636 73.8202 16.636C73.9935 16.636 74.1842 16.6447 74.3922 16.662C74.6088 16.6793 74.8212 16.7053 75.0292 16.74C75.2458 16.766 75.4452 16.7963 75.6272 16.831C75.8092 16.8657 75.9608 16.9003 76.0822 16.935V23.5H75.2372V20.796H74.0282C73.8375 20.796 73.6642 20.796 73.5082 20.796C73.3608 20.7873 73.2395 20.7743 73.1442 20.757ZM75.2372 17.507C75.1332 17.481 74.9642 17.455 74.7302 17.429C74.4962 17.3943 74.1972 17.377 73.8332 17.377C73.5905 17.377 73.3522 17.403 73.1182 17.455C72.8928 17.4983 72.6892 17.5763 72.5072 17.689C72.3252 17.8017 72.1778 17.949 72.0652 18.131C71.9612 18.3043 71.9092 18.521 71.9092 18.781C71.9092 19.0323 71.9568 19.2447 72.0522 19.418C72.1475 19.5827 72.2818 19.717 72.4552 19.821C72.6285 19.9163 72.8365 19.9857 73.0792 20.029C73.3305 20.0723 73.6078 20.094 73.9112 20.094H75.2372V17.507ZM82.8391 22.889C83.4458 22.889 83.9225 22.7893 84.2691 22.59C84.6158 22.382 84.7891 22.0743 84.7891 21.667C84.7891 21.3723 84.7241 21.1383 84.5941 20.965C84.4641 20.7917 84.2995 20.6573 84.1001 20.562C83.9095 20.4667 83.7015 20.406 83.4761 20.38C83.2595 20.3453 83.0601 20.328 82.8781 20.328H81.9421V19.613H82.8131C82.9691 19.613 83.1468 19.6 83.3461 19.574C83.5541 19.548 83.7448 19.496 83.9181 19.418C84.0915 19.34 84.2388 19.2317 84.3601 19.093C84.4815 18.9457 84.5421 18.755 84.5421 18.521C84.5421 18.2957 84.4901 18.1093 84.3861 17.962C84.2908 17.8147 84.1608 17.6977 83.9961 17.611C83.8315 17.5243 83.6408 17.4637 83.4241 17.429C83.2161 17.3943 83.0038 17.377 82.7871 17.377C82.2931 17.377 81.9031 17.429 81.6171 17.533C81.3311 17.6283 81.1361 17.702 81.0321 17.754L80.8371 17C80.9585 16.9393 81.1881 16.8657 81.5261 16.779C81.8641 16.6837 82.2845 16.636 82.7871 16.636C83.6451 16.636 84.2951 16.792 84.7371 17.104C85.1791 17.416 85.4001 17.8797 85.4001 18.495C85.4001 18.8763 85.2875 19.1883 85.0621 19.431C84.8368 19.665 84.5725 19.8297 84.2691 19.925C84.6938 20.0463 85.0318 20.25 85.2831 20.536C85.5345 20.822 85.6601 21.199 85.6601 21.667C85.6601 22.3343 85.4218 22.8327 84.9451 23.162C84.4685 23.4913 83.7708 23.656 82.8521 23.656C82.2368 23.656 81.7428 23.604 81.3701 23.5C80.9975 23.396 80.7591 23.318 80.6551 23.266L80.8761 22.499C80.9021 22.5163 80.9585 22.5467 81.0451 22.59C81.1405 22.6247 81.2705 22.668 81.4351 22.72C81.5998 22.7633 81.7991 22.8023 82.0331 22.837C82.2671 22.8717 82.5358 22.889 82.8391 22.889ZM89.5934 22.889C89.9228 22.889 90.2088 22.8803 90.4514 22.863C90.7028 22.837 90.9151 22.8067 91.0884 22.772V20.406C90.9931 20.3627 90.8414 20.3193 90.6334 20.276C90.4254 20.224 90.1394 20.198 89.7754 20.198C89.5674 20.198 89.3508 20.2153 89.1254 20.25C88.9001 20.276 88.6921 20.341 88.5014 20.445C88.3108 20.5403 88.1548 20.6747 88.0334 20.848C87.9121 21.0213 87.8514 21.251 87.8514 21.537C87.8514 21.7883 87.8904 22.0007 87.9684 22.174C88.0551 22.3473 88.1721 22.486 88.3194 22.59C88.4754 22.694 88.6574 22.772 88.8654 22.824C89.0821 22.8673 89.3248 22.889 89.5934 22.889ZM89.5154 16.623C89.9574 16.623 90.3301 16.688 90.6334 16.818C90.9454 16.9393 91.1968 17.1127 91.3874 17.338C91.5781 17.5547 91.7168 17.8147 91.8034 18.118C91.8901 18.4213 91.9334 18.7507 91.9334 19.106V23.344C91.8468 23.37 91.7211 23.4003 91.5564 23.435C91.3918 23.461 91.2011 23.4913 90.9844 23.526C90.7678 23.5607 90.5251 23.5867 90.2564 23.604C89.9964 23.63 89.7278 23.643 89.4504 23.643C89.0951 23.643 88.7658 23.604 88.4624 23.526C88.1678 23.448 87.9078 23.3267 87.6824 23.162C87.4658 22.9887 87.2924 22.772 87.1624 22.512C87.0411 22.2433 86.9804 21.9183 86.9804 21.537C86.9804 21.173 87.0498 20.861 87.1884 20.601C87.3271 20.341 87.5221 20.1287 87.7734 19.964C88.0248 19.7907 88.3238 19.665 88.6704 19.587C89.0171 19.509 89.3941 19.47 89.8014 19.47C89.9228 19.47 90.0484 19.4787 90.1784 19.496C90.3171 19.5047 90.4471 19.522 90.5684 19.548C90.6984 19.5653 90.8068 19.587 90.8934 19.613C90.9888 19.6303 91.0538 19.6477 91.0884 19.665V19.249C91.0884 19.015 91.0711 18.7897 91.0364 18.573C91.0018 18.3477 90.9238 18.1483 90.8024 17.975C90.6898 17.793 90.5251 17.65 90.3084 17.546C90.1004 17.4333 89.8231 17.377 89.4764 17.377C88.9824 17.377 88.6141 17.4117 88.3714 17.481C88.1288 17.5503 87.9511 17.6067 87.8384 17.65L87.7214 16.909C87.8688 16.8397 88.0941 16.7747 88.3974 16.714C88.7094 16.6533 89.0821 16.623 89.5154 16.623ZM99.4317 23.5H98.5867V20.367H94.9337V23.5H94.0887V16.779H94.9337V19.652H98.5867V16.779H99.4317V23.5ZM103.41 20.757C103.28 20.9563 103.137 21.173 102.981 21.407C102.833 21.641 102.686 21.8793 102.539 22.122C102.4 22.3647 102.266 22.6073 102.136 22.85C102.006 23.084 101.897 23.3007 101.811 23.5H100.94C101.165 22.9887 101.438 22.473 101.759 21.953C102.079 21.433 102.378 20.978 102.656 20.588C102.482 20.536 102.313 20.4623 102.149 20.367C101.993 20.2717 101.85 20.1503 101.72 20.003C101.598 19.8557 101.499 19.6823 101.421 19.483C101.343 19.275 101.304 19.041 101.304 18.781C101.304 18.4083 101.373 18.0877 101.512 17.819C101.659 17.5503 101.854 17.3293 102.097 17.156C102.348 16.9827 102.643 16.8527 102.981 16.766C103.327 16.6793 103.696 16.636 104.086 16.636C104.259 16.636 104.45 16.6447 104.658 16.662C104.874 16.6793 105.087 16.7053 105.295 16.74C105.511 16.766 105.711 16.7963 105.893 16.831C106.075 16.8657 106.226 16.9003 106.348 16.935V23.5H105.503V20.796H104.294C104.103 20.796 103.93 20.796 103.774 20.796C103.626 20.7873 103.505 20.7743 103.41 20.757ZM105.503 17.507C105.399 17.481 105.23 17.455 104.996 17.429C104.762 17.3943 104.463 17.377 104.099 17.377C103.856 17.377 103.618 17.403 103.384 17.455C103.158 17.4983 102.955 17.5763 102.773 17.689C102.591 17.8017 102.443 17.949 102.331 18.131C102.227 18.3043 102.175 18.521 102.175 18.781C102.175 19.0323 102.222 19.2447 102.318 19.418C102.413 19.5827 102.547 19.717 102.721 19.821C102.894 19.9163 103.102 19.9857 103.345 20.029C103.596 20.0723 103.873 20.094 104.177 20.094H105.503V17.507ZM112.916 16.779V17.494H110.706V23.5H109.861V17.494H107.664V16.779H112.916ZM119.956 20.146C119.956 20.6747 119.878 21.1557 119.722 21.589C119.575 22.0223 119.363 22.3907 119.085 22.694C118.817 22.9973 118.496 23.2357 118.123 23.409C117.751 23.5737 117.339 23.656 116.888 23.656C116.438 23.656 116.026 23.5737 115.653 23.409C115.281 23.2357 114.956 22.9973 114.678 22.694C114.41 22.3907 114.197 22.0223 114.041 21.589C113.894 21.1557 113.82 20.6747 113.82 20.146C113.82 19.6173 113.894 19.1363 114.041 18.703C114.197 18.2697 114.41 17.9013 114.678 17.598C114.956 17.286 115.281 17.0477 115.653 16.883C116.026 16.7097 116.438 16.623 116.888 16.623C117.339 16.623 117.751 16.7097 118.123 16.883C118.496 17.0477 118.817 17.286 119.085 17.598C119.363 17.9013 119.575 18.2697 119.722 18.703C119.878 19.1363 119.956 19.6173 119.956 20.146ZM119.059 20.146C119.059 19.3053 118.864 18.638 118.474 18.144C118.084 17.6413 117.556 17.39 116.888 17.39C116.221 17.39 115.692 17.6413 115.302 18.144C114.912 18.638 114.717 19.3053 114.717 20.146C114.717 20.9867 114.912 21.654 115.302 22.148C115.692 22.642 116.221 22.889 116.888 22.889C117.556 22.889 118.084 22.642 118.474 22.148C118.864 21.654 119.059 20.9867 119.059 20.146Z" fill="white"/>
<path d="M18.7292 45.7685C18.6456 45.7246 18.574 45.6611 18.5205 45.5833L13.2705 38H24.7295L19.4795 45.5833C19.426 45.6611 19.3544 45.7246 19.2709 45.7685C19.1873 45.8124 19.0944 45.8354 19 45.8354C18.9056 45.8354 18.8127 45.8124 18.7292 45.7685Z" fill="#323232"/>
</svg>
