<svg width="184" height="42" viewBox="0 0 184 42" fill="none" xmlns="http://www.w3.org/2000/svg">
<path d="M72.9629 15.2059C74.808 14.1462 77.0046 13.528 79.2891 13.528C86.3183 13.528 91.9416 19.1799 91.9416 26.1565C91.9416 33.133 86.3183 38.8732 79.2891 38.8732C72.3478 38.8732 66.6366 33.2213 66.6366 26.1565C66.6366 26.1565 66.6366 4.11257 66.6366 4.02426C66.6366 2.25804 68.0424 0.84507 69.7997 0.84507C71.557 0.84507 72.9629 2.25804 72.9629 4.02426V15.2059ZM72.9629 15.2059V26.2448M72.9629 26.2448C72.9629 29.7772 75.7745 32.6032 79.2891 32.6032C82.8037 32.6032 85.6154 29.7772 85.6154 26.2448C85.6154 22.7123 82.8037 19.8864 79.2891 19.8864C75.7745 19.8864 72.9629 22.7123 72.9629 26.2448Z" stroke="#98D7DC" stroke-width="1.3"/>
<path d="M115.981 15.2817C114.136 14.2254 111.94 13.6092 109.655 13.6092C102.714 13.6092 97.0027 19.243 97.0027 26.1972C97.0027 33.1514 102.626 38.8732 109.655 38.8732C116.597 38.8732 122.308 33.2394 122.308 26.1972C122.308 26.1972 122.308 4.10211 122.308 4.01408C122.308 2.25352 120.902 0.84507 119.145 0.84507C117.387 0.84507 115.981 2.25352 115.981 4.01408V15.2817ZM115.981 15.2817V26.2852M115.981 26.2852C115.981 29.8063 113.17 32.6232 109.655 32.6232C106.228 32.6232 103.329 29.8063 103.329 26.2852C103.329 22.7641 106.141 19.9472 109.655 19.9472C113.17 19.9472 115.981 22.7641 115.981 26.2852Z" stroke="#98D7DC" stroke-width="1.3"/>
<path d="M42.6404 26.1972C42.6404 27.3259 42.9022 28.4546 43.4257 29.3228H54.4203H57.0381H59.3941H61.1393C61.401 28.2809 61.5755 27.2391 61.5755 26.1972C61.5755 19.2514 55.9037 13.5211 48.923 13.5211C41.9423 13.5211 36.2705 19.1646 36.2705 26.1972C36.2705 33.143 41.9423 38.8732 48.923 38.8732C54.2458 38.8732 58.7833 35.8909 60.703 31.2893H53.1987C52.0643 32.3312 50.5809 32.7089 48.923 32.7089C45.4327 32.622 42.6404 29.7569 42.6404 26.1972ZM42.6404 26.1972C42.6404 22.6375 45.5199 19.7723 48.923 19.7723C51.279 19.7723 53.3732 21.0747 54.4203 23.0716H43.4257C42.9022 24.0266 42.6404 25.0685 42.6404 26.1972Z" stroke="#98D7DC" stroke-width="1.3" stroke-linejoin="round"/>
<path fill-rule="evenodd" clip-rule="evenodd" d="M170.387 32.4484C166.848 32.4484 163.928 29.5833 163.928 26.0235C163.928 22.4638 166.848 19.5987 170.387 19.5987C172.865 19.5987 174.988 20.9878 176.05 22.9848H183.04C181.624 17.515 176.581 13.5211 170.564 13.5211C163.486 13.5211 157.735 19.1646 157.735 26.1972C157.735 33.143 163.486 38.8732 170.564 38.8732C176.581 38.8732 181.624 34.8794 183.04 29.4096H175.873C174.723 31.2329 172.688 32.4484 170.387 32.4484Z" stroke="#98D7DC" stroke-width="1.3" stroke-linejoin="round"/>
<path fill-rule="evenodd" clip-rule="evenodd" d="M23.1695 25.8271L20.1124 13.5211H13.6277L10.5706 25.8271L7.42087 13.5211H0.843506L7.23559 38.8732H13.9056L16.9627 26.7523L19.8345 38.8732H26.5045L32.8966 13.5211H26.3192L23.1695 25.8271Z" stroke="#98D7DC" stroke-width="1.3" stroke-miterlimit="1.30541" stroke-linejoin="round"/>
<path fill-rule="evenodd" clip-rule="evenodd" d="M140.021 13.5211C133.088 13.5211 127.369 19.2195 127.369 26.2129C127.369 33.2063 133.002 38.9046 140.021 38.9046C141.061 38.9046 142.101 38.732 143.054 38.5593L145.481 39.8544L148.427 41.4085L148.514 38.0413L148.601 35.4511C151.114 33.12 152.674 29.8391 152.674 26.2129C152.674 19.2195 146.954 13.5211 140.021 13.5211ZM140.021 32.5616C136.555 32.5616 133.695 29.7528 133.695 26.2129C133.695 22.673 136.555 19.8327 140.021 19.8327C143.488 19.8327 146.347 22.673 146.347 26.2129C146.347 29.7528 143.488 32.5616 140.021 32.5616Z" fill="url(#paint0_radial)"/>
<defs>
<radialGradient id="paint0_radial" cx="0" cy="0" r="1" gradientUnits="userSpaceOnUse" gradientTransform="translate(140.021 26.25) rotate(90) scale(9.24296 8.38709)">
<stop stop-color="#70A9AD"/>
<stop offset="1" stop-color="#98D7DC"/>
</radialGradient>
</defs>
</svg>
