<?xml version="1.0" encoding="utf-8"?>
<!-- Generator: Adobe Illustrator 24.3.0, SVG Export Plug-In . SVG Version: 6.00 Build 0)  -->
<svg version="1.1" id="Layer_1" xmlns="http://www.w3.org/2000/svg" xmlns:xlink="http://www.w3.org/1999/xlink" x="0px" y="0px"
	 viewBox="0 0 198.2 46.9" style="enable-background:new 0 0 198.2 46.9;" xml:space="preserve">
<style type="text/css">
	.st0{fill-rule:evenodd;clip-rule:evenodd;fill:url(#SVGID_1_);}
	.st1{fill:#98D7DC;}
</style>
<radialGradient id="SVGID_1_" cx="-345.4399" cy="124.2392" r="3.9817" gradientTransform="matrix(2.524756e-16 2.3336 2.1175 -2.524756e-16 -133.0265 834.3963)" gradientUnits="userSpaceOnUse">
	<stop  offset="0" style="stop-color:#70A9AD"/>
	<stop  offset="1" style="stop-color:#98D7DC"/>
</radialGradient>
<path class="st0" d="M130,15.5c-7,0-12.7,5.7-12.7,12.8S123,41,130,41c1,0,2.1-0.2,3.1-0.4l2.4,1.3l3,1.6l0.1-3.4l0.1-2.6
	c2.5-2.3,4.1-5.7,4.1-9.3C142.7,21.2,137,15.5,130,15.5z M130,34.6c-3.5,0-6.4-2.8-6.4-6.4s2.9-6.4,6.4-6.4s6.4,2.9,6.4,6.4
	S133.5,34.6,130,34.6z"/>
<g>
	<path class="st1" d="M28.9,2.2c-2.1,0-3.8,1.7-3.8,3.8v10.3c-1.8-0.8-3.7-1.3-5.7-1.3C12,15,6,21,6,28.3c0,7.4,6,13.4,13.4,13.4
		s13.4-6,13.4-13.4V6C32.7,3.9,31,2.2,28.9,2.2z M31.4,28.3c0,6.7-5.4,12.1-12.1,12.1S7.2,35,7.2,28.3c0-6.6,5.4-12,12.1-12
		c2,0,4,0.5,5.7,1.4v6.6c-1.3-1.8-3.4-3-5.7-3c-3.9,0-7,3.2-7,7s3.2,7,7,7s7-3.2,7-7V6c0-1.4,1.1-2.5,2.5-2.5s2.5,1.1,2.5,2.5v22.3
		H31.4z M25.1,28.4c0,3.2-2.6,5.7-5.7,5.7s-5.7-2.6-5.7-5.7s2.6-5.7,5.7-5.7C22.5,22.7,25.1,25.3,25.1,28.4z"/>
	<path class="st1" d="M80.4,22.3c2.1,0,4.1,1.2,5.1,3.1c0.1,0.2,0.3,0.4,0.6,0.4h7c0.2,0,0.4-0.1,0.5-0.3c0.1-0.2,0.2-0.4,0.1-0.6
		c-1.5-5.9-6.9-10-13.2-10c-7.5,0-13.6,6-13.6,13.4S73,41.7,80.5,41.7c6.2,0,11.7-4.1,13.2-10c0.1-0.2,0-0.4-0.1-0.6
		s-0.3-0.3-0.5-0.3h-7.2c-0.2,0-0.4,0.1-0.6,0.3c-1.1,1.7-3,2.8-5,2.8c-3.2,0-5.8-2.6-5.8-5.8S77.2,22.3,80.4,22.3z M73.2,28.1
		c0,3.9,3.2,7.1,7.1,7.1c2.3,0,4.5-1.1,5.9-3.1h6c-1.6,4.9-6.3,8.2-11.7,8.2c-6.8,0-12.2-5.4-12.2-12.1s5.5-12.1,12.2-12.1
		c5.4,0,10,3.3,11.7,8.2h-5.8c-1.3-2.1-3.6-3.4-6.1-3.4C76.4,21,73.2,24.2,73.2,28.1z"/>
	<path class="st1" d="M49.9,14.9c-7.4,0-13.4,6-13.4,13.4s6,13.4,13.4,13.4s13.4-6,13.4-13.4S57.3,14.9,49.9,14.9z M49.9,40.4
		c-6.7,0-12.1-5.4-12.1-12.1s5.4-12.1,12.1-12.1S62,21.6,62,28.3S56.6,40.4,49.9,40.4z"/>
	<path class="st1" d="M49.9,21.3c-3.9,0-7,3.2-7,7s3.2,7,7,7s7-3.2,7-7C56.9,24.4,53.8,21.3,49.9,21.3z M49.9,34
		c-3.2,0-5.7-2.6-5.7-5.7s2.6-5.7,5.7-5.7s5.7,2.6,5.7,5.7C55.6,31.5,53.1,34,49.9,34z"/>
	<path class="st1" d="M112.2,22.8c0.4,0,0.7-0.3,0.7-0.7v-6.3c0-0.4-0.3-0.7-0.7-0.7h-7V6c0-2.1-1.7-3.8-3.8-3.8
		c-2.1,0-3.8,1.7-3.8,3.8v22.3c0,0.5,0,1,0.1,1.4c0,0.1,0,0.1,0,0.2c0.1,0.4,0.1,0.7,0.2,1.1c1.3,6.2,6.8,10.7,13.1,10.7h0.2
		c0.4,0,0.8,0,1.1-0.1c0.3,0,0.6-0.3,0.6-0.7v-6.6c0-0.2-0.1-0.4-0.2-0.5c-0.2-0.1-0.4-0.2-0.5-0.1c-0.4,0.1-0.8,0.1-1.1,0.1
		c-2.1,0-4.1-1.2-5.1-3c-0.4-0.8-0.6-1.7-0.6-2.6v-5.6h6.8V22.8z M111.5,16.5v5h-6.3v-5H111.5z M110.9,35.3c0.2,0,0.4,0,0.6,0v5.2
		c-0.1,0-0.3,0-0.4,0h-0.2c-5.7,0-10.7-4.1-11.8-9.6c-0.1-0.3-0.1-0.6-0.2-1v-0.2c-0.1-0.5-0.1-0.9-0.1-1.4V6c0-1.4,1.1-2.5,2.5-2.5
		s2.5,1.1,2.5,2.5v9.8v6.3v6.3c0,1.1,0.3,2.1,0.8,3.2C105.9,33.8,108.3,35.3,110.9,35.3z"/>
</g>
<g>
	<path class="st1" d="M161.8,15h-0.2c-0.2,0-0.4,0-0.5,0h-0.5c-2,0-3.9,0.5-5.8,1.4v-0.7c0-0.2-0.1-0.3-0.2-0.5s-0.3-0.2-0.5-0.2
		h-5.9c-0.4,0-0.7,0.3-0.7,0.7v25.5c0,0.2,0.1,0.3,0.2,0.5c0.1,0.1,0.3,0.2,0.5,0.2h5.9c0.4,0,0.7-0.3,0.7-0.7v-13
		c0.3-3.1,2.9-5.7,5.8-5.7h0.4c0.2,0,0.5,0,0.7,0.1c0.2,0,0.4,0,0.5-0.2s0.2-0.3,0.2-0.5v-6.2C162.5,15.3,162.2,15,161.8,15z
		 M148.9,40.4V16.2h4.6v24.2H148.9z M161.2,21.1c-0.1,0-0.1,0-0.2,0h-0.4c-2.3,0-4.5,1.3-5.8,3.2v-6.5c1.9-1,3.8-1.6,5.8-1.6h0.5
		c0,0,0,0,0.1,0L161.2,21.1L161.2,21.1z"/>
	<path class="st1" d="M185.5,17c-2.1-1.4-4.6-2.1-7.1-2.1c-7.4,0-13.4,6-13.4,13.4s6,13.4,13.4,13.4c2,0,3.9-0.5,5.7-1.3V41
		c0,0.4,0.3,0.7,0.7,0.7l0,0l0,0h6.4c0.4,0,0.7-0.3,0.7-0.7V28.3C191.8,23.7,189.5,19.5,185.5,17z M178.4,34c-3.2,0-5.7-2.6-5.7-5.7
		s2.6-5.7,5.7-5.7s5.7,2.6,5.7,5.7C184.1,31.5,181.5,34,178.4,34z M190.5,40.4h-5.1v-1.1l0,0v-11l0,0l0,0c0-3.9-3.2-7-7-7
		s-7,3.2-7,7s3.2,7,7,7c2.3,0,4.4-1.2,5.7-3V39c-1.8,1-3.7,1.5-5.7,1.5c-6.7,0-12.1-5.4-12.1-12.1s5.4-12.1,12.1-12.1
		c2.3,0,4.5,0.7,6.5,1.9c3.5,2.2,5.6,6.1,5.6,10.2V40.4z"/>
</g>
</svg>