<svg width="199" height="78" viewBox="0 0 199 78" fill="none" xmlns="http://www.w3.org/2000/svg">
<path fill-rule="evenodd" clip-rule="evenodd" d="M130 15.5C123 15.5 117.3 21.2 117.3 28.3C117.3 35.4 123 41 130 41C131 41 132.1 40.8 133.1 40.6L135.5 41.9L138.5 43.5L138.6 40.1L138.7 37.5C141.2 35.2 142.8 31.8 142.8 28.2C142.7 21.2 137 15.5 130 15.5ZM130 34.6C126.5 34.6 123.6 31.8 123.6 28.2C123.6 24.6 126.5 21.8 130 21.8C133.5 21.8 136.4 24.7 136.4 28.2C136.4 31.7 133.5 34.6 130 34.6Z" fill="url(#paint0_radial)"/>
<path d="M28.9 2.20001C26.8 2.20001 25.1 3.90001 25.1 6.00001V16.3C23.3 15.5 21.4 15 19.4 15C12 15 6 21 6 28.3C6 35.7 12 41.7 19.4 41.7C26.8 41.7 32.8 35.7 32.8 28.3V6.00001C32.7 3.90001 31 2.20001 28.9 2.20001ZM31.4 28.3C31.4 35 26 40.4 19.3 40.4C12.6 40.4 7.2 35 7.2 28.3C7.2 21.7 12.6 16.3 19.3 16.3C21.3 16.3 23.3 16.8 25 17.7V24.3C23.7 22.5 21.6 21.3 19.3 21.3C15.4 21.3 12.3 24.5 12.3 28.3C12.3 32.1 15.5 35.3 19.3 35.3C23.1 35.3 26.3 32.1 26.3 28.3V6.00001C26.3 4.60001 27.4 3.50001 28.8 3.50001C30.2 3.50001 31.3 4.60001 31.3 6.00001V28.3H31.4ZM25.1 28.4C25.1 31.6 22.5 34.1 19.4 34.1C16.3 34.1 13.7 31.5 13.7 28.4C13.7 25.3 16.3 22.7 19.4 22.7C22.5 22.7 25.1 25.3 25.1 28.4Z" fill="#98D7DC"/>
<path d="M80.4 22.3C82.5 22.3 84.5 23.5 85.5 25.4C85.6 25.6 85.8 25.8 86.1 25.8H93.1C93.3 25.8 93.5 25.7 93.6 25.5C93.7 25.3 93.8 25.1 93.7 24.9C92.2 19 86.8 14.9 80.5 14.9C73 14.9 66.9 20.9 66.9 28.3C66.9 35.7 73 41.7 80.5 41.7C86.7 41.7 92.2 37.6 93.7 31.7C93.8 31.5 93.7 31.3 93.6 31.1C93.5 30.9 93.3 30.8 93.1 30.8H85.9C85.7 30.8 85.5 30.9 85.3 31.1C84.2 32.8 82.3 33.9 80.3 33.9C77.1 33.9 74.5 31.3 74.5 28.1C74.5 24.9 77.2 22.3 80.4 22.3ZM73.2 28.1C73.2 32 76.4 35.2 80.3 35.2C82.6 35.2 84.8 34.1 86.2 32.1H92.2C90.6 37 85.9 40.3 80.5 40.3C73.7 40.3 68.3 34.9 68.3 28.2C68.3 21.5 73.8 16.1 80.5 16.1C85.9 16.1 90.5 19.4 92.2 24.3H86.4C85.1 22.2 82.8 20.9 80.3 20.9C76.4 21 73.2 24.2 73.2 28.1Z" fill="#98D7DC"/>
<path d="M49.9 14.9C42.5 14.9 36.5 20.9 36.5 28.3C36.5 35.7 42.5 41.7 49.9 41.7C57.3 41.7 63.3 35.7 63.3 28.3C63.3 20.9 57.3 14.9 49.9 14.9ZM49.9 40.4C43.2 40.4 37.8 35 37.8 28.3C37.8 21.6 43.2 16.2 49.9 16.2C56.6 16.2 62 21.6 62 28.3C62 35 56.6 40.4 49.9 40.4Z" fill="#98D7DC"/>
<path d="M49.9 21.3C46 21.3 42.9 24.5 42.9 28.3C42.9 32.1 46.1 35.3 49.9 35.3C53.7 35.3 56.9 32.1 56.9 28.3C56.9 24.4 53.8 21.3 49.9 21.3ZM49.9 34C46.7 34 44.2 31.4 44.2 28.3C44.2 25.2 46.8 22.6 49.9 22.6C53 22.6 55.6 25.2 55.6 28.3C55.6 31.5 53.1 34 49.9 34Z" fill="#98D7DC"/>
<path d="M112.2 22.8C112.6 22.8 112.9 22.5 112.9 22.1V15.8C112.9 15.4 112.6 15.1 112.2 15.1H105.2V6.00001C105.2 3.90001 103.5 2.20001 101.4 2.20001C99.3 2.20001 97.6 3.90001 97.6 6.00001V28.3C97.6 28.8 97.6 29.3 97.7 29.7C97.7 29.8 97.7 29.8 97.7 29.9C97.8 30.3 97.8 30.6 97.9 31C99.2 37.2 104.7 41.7 111 41.7H111.2C111.6 41.7 112 41.7 112.3 41.6C112.6 41.6 112.9 41.3 112.9 40.9V34.3C112.9 34.1 112.8 33.9 112.7 33.8C112.5 33.7 112.3 33.6 112.2 33.7C111.8 33.8 111.4 33.8 111.1 33.8C109 33.8 107 32.6 106 30.8C105.6 30 105.4 29.1 105.4 28.2V22.6H112.2V22.8ZM111.5 16.5V21.5H105.2V16.5H111.5ZM110.9 35.3C111.1 35.3 111.3 35.3 111.5 35.3V40.5C111.4 40.5 111.2 40.5 111.1 40.5H110.9C105.2 40.5 100.2 36.4 99.1 30.9C99 30.6 99 30.3 98.9 29.9V29.7C98.8 29.2 98.8 28.8 98.8 28.3V6.00001C98.8 4.60001 99.9 3.50001 101.3 3.50001C102.7 3.50001 103.8 4.60001 103.8 6.00001V15.8V22.1V28.4C103.8 29.5 104.1 30.5 104.6 31.6C105.9 33.8 108.3 35.3 110.9 35.3Z" fill="#98D7DC"/>
<path d="M161.8 15H161.6C161.4 15 161.2 15 161.1 15H160.6C158.6 15 156.7 15.5 154.8 16.4V15.7C154.8 15.5 154.7 15.4 154.6 15.2C154.5 15 154.3 15 154.1 15H148.2C147.8 15 147.5 15.3 147.5 15.7V41.2C147.5 41.4 147.6 41.5 147.7 41.7C147.8 41.8 148 41.9 148.2 41.9H154.1C154.5 41.9 154.8 41.6 154.8 41.2V28.2C155.1 25.1 157.7 22.5 160.6 22.5H161C161.2 22.5 161.5 22.5 161.7 22.6C161.9 22.6 162.1 22.6 162.2 22.4C162.3 22.2 162.4 22.1 162.4 21.9V15.7C162.5 15.3 162.2 15 161.8 15ZM148.9 40.4V16.2H153.5V40.4H148.9ZM161.2 21.1C161.1 21.1 161.1 21.1 161 21.1H160.6C158.3 21.1 156.1 22.4 154.8 24.3V17.8C156.7 16.8 158.6 16.2 160.6 16.2H161.1C161.1 16.2 161.1 16.2 161.2 16.2V21.1Z" fill="#98D7DC"/>
<path d="M185.5 17C183.4 15.6 180.9 14.9 178.4 14.9C171 14.9 165 20.9 165 28.3C165 35.7 171 41.7 178.4 41.7C180.4 41.7 182.3 41.2 184.1 40.4V41C184.1 41.4 184.4 41.7 184.8 41.7H191.2C191.6 41.7 191.9 41.4 191.9 41V28.3C191.8 23.7 189.5 19.5 185.5 17ZM178.4 34C175.2 34 172.7 31.4 172.7 28.3C172.7 25.2 175.3 22.6 178.4 22.6C181.5 22.6 184.1 25.2 184.1 28.3C184.1 31.5 181.5 34 178.4 34ZM190.5 40.4H185.4V39.3V28.3C185.4 24.4 182.2 21.3 178.4 21.3C174.6 21.3 171.4 24.5 171.4 28.3C171.4 32.1 174.6 35.3 178.4 35.3C180.7 35.3 182.8 34.1 184.1 32.3V39C182.3 40 180.4 40.5 178.4 40.5C171.7 40.5 166.3 35.1 166.3 28.4C166.3 21.7 171.7 16.3 178.4 16.3C180.7 16.3 182.9 17 184.9 18.2C188.4 20.4 190.5 24.3 190.5 28.4V40.4Z" fill="#98D7DC"/>
<path fill-rule="evenodd" clip-rule="evenodd" d="M123.183 47C124.425 47 125.471 48.0667 125.471 49.3333C125.471 50.6 124.425 51.6666 123.183 51.6666C121.941 51.6666 120.895 50.6 120.895 49.3333C120.895 48.0667 121.876 47 123.183 47Z" stroke="#98D7DC" stroke-width="1.3" stroke-linejoin="round"/>
<path fill-rule="evenodd" clip-rule="evenodd" d="M125.471 59.4054C125.471 58.0996 124.425 56.9999 123.183 56.9999C121.941 56.9999 120.896 58.0996 120.896 59.4054V77H125.471V59.4054Z" stroke="#98D7DC" stroke-width="1.3" stroke-linejoin="round"/>
<path fill-rule="evenodd" clip-rule="evenodd" d="M91.157 47C92.3988 47 93.4446 48.0667 93.4446 49.3333C93.4446 50.6 92.3988 51.6666 91.157 51.6666C89.9151 51.6666 88.8694 50.6 88.8694 49.3333C88.8694 48.0667 89.8498 47 91.157 47Z" stroke="#98D7DC" stroke-width="1.3" stroke-linejoin="round"/>
<path fill-rule="evenodd" clip-rule="evenodd" d="M91.1571 56.9904C89.9153 56.9904 88.8695 58.0802 88.8695 59.3744V76.9999H93.4447V59.3744C93.3793 58.0802 92.3989 56.9904 91.1571 56.9904Z" stroke="#98D7DC" stroke-width="1.3" stroke-linejoin="round"/>
<path fill-rule="evenodd" clip-rule="evenodd" d="M84.9476 49.3801C84.9476 48.088 83.9018 47 82.66 47C81.4182 47 80.3724 48.088 80.3724 49.3801V76.9998H84.9476V49.3801Z" stroke="#98D7DC" stroke-width="1.3" stroke-linejoin="round"/>
<path fill-rule="evenodd" clip-rule="evenodd" d="M66.6471 71.9313C63.9047 71.9313 61.6423 69.6711 61.6423 66.8629C61.6423 64.0547 63.9047 61.7944 66.6471 61.7944C68.5667 61.7944 70.2121 62.8903 71.0348 64.4656H76.451C75.354 60.2191 71.4462 56.9999 66.7842 56.9999C61.2995 56.9999 56.8431 61.452 56.8431 66.9999C56.8431 72.4793 61.2995 76.9998 66.7842 76.9998C71.4462 76.9998 75.354 73.8491 76.451 69.5341H70.8977C70.075 70.9724 68.4296 71.9313 66.6471 71.9313Z" stroke="#98D7DC" stroke-width="1.3" stroke-linejoin="round"/>
<path fill-rule="evenodd" clip-rule="evenodd" d="M51.2876 72.3331C52.5294 72.3331 53.5752 73.3998 53.5752 74.6664C53.5752 75.9331 52.5294 76.9998 51.2876 76.9998C50.0458 76.9998 49 75.9331 49 74.6664C49 73.3998 49.9804 72.3331 51.2876 72.3331Z" stroke="#98D7DC" stroke-width="1.3" stroke-linejoin="round"/>
<path fill-rule="evenodd" clip-rule="evenodd" d="M139.196 71.9313C136.454 71.9313 134.191 69.6711 134.191 66.8629C134.191 64.0547 136.454 61.7944 139.196 61.7944C141.116 61.7944 142.761 62.8903 143.584 64.4656H149C147.903 60.2191 143.995 56.9999 139.333 56.9999C133.849 56.9999 129.392 61.452 129.392 66.9999C129.392 72.4793 133.849 76.9998 139.333 76.9998C143.995 76.9998 147.903 73.8491 149 69.5341H143.447C142.556 70.9724 140.979 71.9313 139.196 71.9313Z" stroke="#98D7DC" stroke-width="1.3" stroke-linejoin="round"/>
<path fill-rule="evenodd" clip-rule="evenodd" d="M97.3667 57.0004H101.939L101.938 76.9895H97.366L97.3667 57.0004Z" stroke="#98D7DC" stroke-width="1.3" stroke-linejoin="round"/>
<path fill-rule="evenodd" clip-rule="evenodd" d="M116.974 66.8629C116.907 61.3835 112.678 56.9999 107.309 56.9999C107.242 56.9999 107.174 56.9999 107.107 56.9999C107.04 56.9999 106.973 56.9999 106.906 56.9999C105.094 56.9999 103.416 57.5479 101.939 58.4383V66.7944C102.14 64.1232 104.355 61.8629 106.906 61.8629C107.04 61.8629 107.107 61.8629 107.242 61.8629C109.926 61.8629 112.208 64.3286 112.208 67.1368V76.9998H116.974V66.8629Z" stroke="#98D7DC" stroke-width="1.3" stroke-linejoin="round"/>
<defs>
<radialGradient id="paint0_radial" cx="0" cy="0" r="1" gradientUnits="userSpaceOnUse" gradientTransform="translate(130.05 28.2777) rotate(90) scale(9.2917 8.43125)">
<stop stop-color="#70A9AD"/>
<stop offset="1" stop-color="#98D7DC"/>
</radialGradient>
</defs>
</svg>
