<svg width="37" height="35" viewBox="0 0 37 35" fill="none" xmlns="http://www.w3.org/2000/svg">
<path d="M12.6374 13.7816C12.6298 13.7799 12.6222 13.7782 12.6189 13.7757C12.613 13.774 12.6113 13.774 12.6113 13.774C12.1145 13.6648 11.6017 13.57 11.0712 13.4735C8.52394 13.0138 5.64917 12.4136 4.48797 9.78429C4.35829 9.49478 4.19073 8.64909 4.19073 8.64909C4.16631 8.74729 4.14526 8.84381 4.12842 8.93692" stroke="#98D7DC" stroke-width="2" stroke-miterlimit="10" stroke-linecap="round" stroke-linejoin="round"/>
<path d="M1.60713 29.2156C1.41851 30.3322 1.59534 31.6383 2.43655 32.4578C3.35776 33.3551 4.70084 33.7428 5.96139 33.5523C7.4291 33.3306 8.48672 32.2326 9.78096 31.6079C9.94179 31.53 10.2744 31.3912 10.6929 31.4343C12.3619 31.607 11.3219 33.7928 10.6533 34.4615C12.0983 33.9248 13.2401 33.8783 14.014 33.9341C14.984 34.0044 15.464 34.2414 16.2799 34.0975C17.3696 33.9054 18.156 33.1926 18.6419 32.6347" stroke="#98D7DC" stroke-width="2" stroke-miterlimit="10" stroke-linecap="round" stroke-linejoin="round"/>
<path d="M16.7396 21.6908C16.4996 21.4402 16.1392 21.1228 15.6407 20.8587C15.3527 20.7063 14.7372 20.4693 14.7372 20.4693C14.1393 21.5037 13.5372 22.2267 13.0766 22.7185C12.0771 23.7817 11.4919 23.8749 11.0144 23.8825C10.4536 23.8952 9.98544 23.4541 9.92649 22.8946C9.89702 22.6 9.86334 22.3308 9.86334 22.3308L8.31227 21.7594L8.42511 21.0017L7.51737 20.6233L7.33297 18.9497C6.24924 19.1267 5.40466 18.6594 5.40466 18.6594C6.70479 16.0656 5.79369 14.2489 5.79369 14.2489C5.79369 14.2489 4.04137 11.987 4.01611 10.4353C4.00769 10.0527 4.01611 9.52276 4.12473 8.93443L3.85696 9.2959C3.05448 10.5885 2.02381 12.682 1.76614 15.3926C1.39984 19.2375 3.4334 22.4561 4.6527 25.9505C4.85732 26.5355 5.03837 27.1763 5.02995 27.8011C5.01647 28.7949 4.17441 29.8869 3.12942 29.2156" stroke="#98D7DC" stroke-width="2" stroke-miterlimit="10" stroke-linecap="round" stroke-linejoin="round"/>
<path d="M4.18213 8.52722C4.33286 7.61466 4.88104 5.03359 7.10996 2.9816C9.75738 0.551208 12.9345 0.538508 14.1058 0.538508C16.4568 0.530889 18.7152 1.30038 20.6805 2.56848C23.1082 4.13541 24.698 6.80452 25.503 9.53967" stroke="#98D7DC" stroke-width="2" stroke-miterlimit="10" stroke-linecap="round" stroke-linejoin="round"/>
<path d="M12.6104 13.7732C12.6104 13.7732 12.612 13.7732 12.6179 13.7748C12.6213 13.7765 12.6289 13.7782 12.6365 13.7808C15.662 14.7873 16.728 18.5019 16.7373 21.3564C16.7398 22.0971 16.7608 22.8437 16.8248 23.587" stroke="#98D7DC" stroke-width="2" stroke-miterlimit="10" stroke-linecap="round" stroke-linejoin="round"/>
<path d="M32.6033 18.2709C32.2075 17.8722 31.336 17.1069 30.0098 16.8013" stroke="#98D7DC" stroke-width="1.3" stroke-miterlimit="10" stroke-linecap="round" stroke-linejoin="round"/>
<path d="M29.2159 14.6384C29.4584 14.4454 29.7598 14.3134 30.1068 14.2685C30.2819 14.2448 30.4604 14.2423 30.6364 14.2583C32.6691 14.4412 34.3221 16.5584 35.0479 18.298C35.346 19.015 35.7384 20.1096 35.1785 20.7961C34.488 21.6435 33.0447 21.1449 32.1403 21.0018C30.5884 20.7563 28.3932 20.3263 28.3267 18.3547" stroke="#98D7DC" stroke-width="1.3" stroke-miterlimit="10" stroke-linecap="round" stroke-linejoin="round"/>
<path d="M30.7675 18.2751C30.8862 17.288 30.0096 16.8013 30.0096 16.8013C29.7116 16.6667 27.635 15.7753 25.4575 16.8427C23.7986 17.6554 23.1082 19.1021 22.9263 19.5212" stroke="#98D7DC" stroke-width="1.3" stroke-miterlimit="10" stroke-linecap="round" stroke-linejoin="round"/>
<path d="M21.6582 12.5634C21.9235 12.9046 22.4219 13.6444 22.5297 14.6899" stroke="#98D7DC" stroke-width="1.3" stroke-miterlimit="10" stroke-linecap="round" stroke-linejoin="round"/>
<path d="M21.1943 15.8336C19.7047 15.5975 19.5843 13.8748 19.5438 12.6617C19.5203 11.9557 19.2778 10.8019 19.9851 10.3524C20.5585 9.98751 21.3517 10.3913 21.8671 10.6867C23.1184 11.4055 24.5692 12.8716 24.517 14.447C24.5128 14.5833 24.4943 14.7196 24.4598 14.8525C24.3932 15.1149 24.2652 15.3325 24.096 15.501" stroke="#98D7DC" stroke-width="1.3" stroke-miterlimit="10" stroke-linecap="round" stroke-linejoin="round"/>
<path d="M21.4824 13.9704C22.242 13.9721 22.5291 14.6899 22.5291 14.6899C22.5291 14.6899 23.036 15.8776 22.668 17.3057" stroke="#98D7DC" stroke-width="1.3" stroke-miterlimit="10" stroke-linecap="round" stroke-linejoin="round"/>
<path d="M26.9357 28.3208C27.6734 28.6451 28.3655 29.1225 28.9541 29.6744C29.5225 30.2069 30.0799 30.9222 30.037 31.7476C29.9789 32.8676 28.8371 33.5685 28.4371 33.814C28.3259 33.8825 26.9559 34.652 25.5059 34.2347C24.9485 34.0739 24.3472 33.8123 23.986 33.3357C23.6248 32.8591 23.7334 32.3673 23.8235 31.8229" stroke="#98D7DC" stroke-width="1.3" stroke-miterlimit="10" stroke-linecap="round" stroke-linejoin="round"/>
<path d="M25.223 28.2133C25.6592 28.2133 26.0128 27.8578 26.0128 27.4192C26.0128 26.9807 25.6592 26.6252 25.223 26.6252C24.7867 26.6252 24.4331 26.9807 24.4331 27.4192C24.4331 27.8578 24.7867 28.2133 25.223 28.2133Z" stroke="#98D7DC" stroke-width="1.3" stroke-miterlimit="10" stroke-linecap="round" stroke-linejoin="round"/>
<path d="M29.4164 30.1679L29.4239 30.1662C30.3047 30.4227 31.1704 30.1772 31.7118 29.4111C32.5816 28.1752 32.3156 26.6193 32.2903 26.4889C32.1901 26.0326 31.9122 24.7129 30.8765 24.2862C30.33 24.0568 29.7313 24.1542 29.1831 24.3582" stroke="#98D7DC" stroke-width="1.3" stroke-miterlimit="10" stroke-linecap="round" stroke-linejoin="round"/>
<path d="M25.223 28.2133C25.6592 28.2133 26.0128 27.8578 26.0128 27.4192C26.0128 26.9807 25.6592 26.6252 25.223 26.6252C24.7867 26.6252 24.4331 26.9807 24.4331 27.4192C24.4331 27.8578 24.7867 28.2133 25.223 28.2133Z" stroke="#98D7DC" stroke-width="1.3" stroke-miterlimit="10" stroke-linecap="round" stroke-linejoin="round"/>
<path d="M23.66 22.638L23.6583 22.6304C23.6541 22.0446 23.7678 21.4529 24.1602 21.0144C24.9003 20.1814 26.2299 20.3473 26.6948 20.4133C26.8261 20.4286 28.3721 20.691 29.2445 21.9227C29.7817 22.6854 29.7278 23.6082 29.1822 24.3582C28.5734 25.2056 27.5882 25.6754 26.7756 26.2849" stroke="#98D7DC" stroke-width="1.3" stroke-miterlimit="10" stroke-linecap="round" stroke-linejoin="round"/>
<path d="M25.222 28.2133C25.6582 28.2133 26.0118 27.8578 26.0118 27.4192C26.0118 26.9807 25.6582 26.6252 25.222 26.6252C24.7858 26.6252 24.4321 26.9807 24.4321 27.4192C24.4321 27.8578 24.7858 28.2133 25.222 28.2133Z" stroke="#98D7DC" stroke-width="1.3" stroke-miterlimit="10" stroke-linecap="round" stroke-linejoin="round"/>
<path d="M20.2226 27.3134C19.6736 27.1331 19.1473 26.825 18.8627 26.3035C18.3187 25.3249 18.9242 24.1169 19.1305 23.7021C19.1886 23.5828 19.9489 22.1978 21.404 21.7847C22.2899 21.5249 23.1336 21.888 23.6599 22.6372L23.6616 22.6448C24.2561 23.5057 24.3714 24.5935 24.6771 25.5763" stroke="#98D7DC" stroke-width="1.3" stroke-miterlimit="10" stroke-linecap="round" stroke-linejoin="round"/>
<path d="M25.223 28.2133C25.6592 28.2133 26.0128 27.8578 26.0128 27.4192C26.0128 26.9807 25.6592 26.6252 25.223 26.6252C24.7867 26.6252 24.4331 26.9807 24.4331 27.4192C24.4331 27.8578 24.7867 28.2133 25.223 28.2133Z" stroke="#98D7DC" stroke-width="1.3" stroke-miterlimit="10" stroke-linecap="round" stroke-linejoin="round"/>
<path d="M23.309 27.3253C22.2909 27.2889 21.2316 27.0358 20.2271 27.3126C19.3362 27.5581 18.7232 28.2421 18.6667 29.175C18.5758 30.6894 19.6208 31.8669 19.7109 31.9609C20.0359 32.2995 20.9647 33.2679 22.0644 33.0825C22.8745 32.9454 23.5574 32.2902 23.9515 31.6172C24.1898 31.2092 24.3961 30.7715 24.5578 30.3203C24.6723 30.0003 24.7641 29.6719 24.8281 29.3426" stroke="#98D7DC" stroke-width="1.3" stroke-miterlimit="10" stroke-linecap="round" stroke-linejoin="round"/>
<path d="M25.223 28.2133C25.6592 28.2133 26.0128 27.8578 26.0128 27.4192C26.0128 26.9807 25.6592 26.6252 25.223 26.6252C24.7867 26.6252 24.4331 26.9807 24.4331 27.4192C24.4331 27.8578 24.7867 28.2133 25.223 28.2133Z" stroke="#98D7DC" stroke-width="1.3" stroke-miterlimit="10" stroke-linecap="round" stroke-linejoin="round"/>
<path d="M8.38232 12.8614C9.87697 13.0637 11.3918 13.1061 12.8949 12.9808C13.641 12.919 14.3685 12.7802 15.1078 12.6786C15.6291 12.6066 16.2817 12.5406 16.7397 12.8614" stroke="#98D7DC" stroke-width="2" stroke-miterlimit="10" stroke-linecap="round" stroke-linejoin="round"/>
<path d="M5.48291 8.3088C5.48291 8.3088 7.19397 11.4799 11.8985 10.029" stroke="#98D7DC" stroke-width="2" stroke-miterlimit="10" stroke-linecap="round" stroke-linejoin="round"/>
</svg>
