<svg width="42" height="42" viewBox="0 0 42 42" fill="none" xmlns="http://www.w3.org/2000/svg">
<circle cx="21" cy="21" r="21" fill="#EB4807"/>
<circle cx="21" cy="21" r="19" fill="white"/>
<path d="M26.5084 23.6926L26.5084 23.6926L26.505 23.6915C26.0701 23.5548 25.582 23.6545 25.2332 24.0032L23.1624 26.074C20.506 24.6807 18.3193 22.494 16.926 19.8376L18.9968 17.7668C19.3455 17.418 19.4452 16.9299 19.3085 16.495L19.3085 16.495L19.3074 16.4916C18.9457 15.3967 18.75 14.2232 18.75 13C18.75 12.6685 18.6183 12.3505 18.3839 12.1161L18.3839 12.1161C18.1495 11.8817 17.8315 11.75 17.5 11.75H14C13.6685 11.75 13.3505 11.8817 13.1161 12.1161L13.1161 12.1161C12.8817 12.3505 12.75 12.6685 12.75 13C12.75 17.575 14.5674 21.9626 17.8024 25.1976C21.0374 28.4326 25.425 30.25 30 30.25C30.3315 30.25 30.6495 30.1183 30.8839 29.8839C31.1183 29.6495 31.25 29.3315 31.25 29V25.5C31.25 25.1685 31.1183 24.8505 30.8839 24.6161C30.6495 24.3817 30.3315 24.25 30 24.25C28.7768 24.25 27.6033 24.0543 26.5084 23.6926Z" fill="white" stroke="black" stroke-width="0.5"/>
</svg>
