<svg width="60" height="60" viewBox="0 0 60 60" fill="none" xmlns="http://www.w3.org/2000/svg">
<path d="M2.02983 58C2.02983 58 1.12756 44.4735 9.24793 41.7682L22.7819 37.2593V31.8487" stroke="#98D7DC" stroke-width="3" stroke-miterlimit="10" stroke-linecap="round" stroke-linejoin="round"/>
<path d="M37.2181 31.8487V37.2593L50.7521 41.7682C58.8725 44.4735 57.9702 58 57.9702 58" stroke="#98D7DC" stroke-width="3" stroke-miterlimit="10" stroke-linecap="round" stroke-linejoin="round"/>
<path d="M34.5114 32.7504C40.8272 30.0451 41.4588 22.741 42.1806 17.15C42.5415 14.084 42.6317 10.8375 41.1881 8.04204C39.8347 5.51708 37.3986 3.71327 34.6918 2.8115C33.2481 2.27044 31.6241 2 30 2C28.376 2 26.7519 2.27044 25.3083 2.8115C22.6015 3.71327 20.1653 5.51708 18.812 8.04204C17.3683 10.8375 17.4586 14.084 17.8195 17.15C18.5413 22.741 19.1729 30.0451 25.4887 32.7504" stroke="#98D7DC" stroke-width="3" stroke-miterlimit="10" stroke-linecap="round" stroke-linejoin="round"/>
<path d="M21.8796 14.715C30.9023 14.715 32.7068 12.9115 33.6091 10.2062C33.6091 10.2062 33.6091 14.715 38.1204 14.715" stroke="#98D7DC" stroke-width="2" stroke-miterlimit="10" stroke-linecap="square" stroke-linejoin="round"/>
<path d="M22.7819 37.2593C22.7819 42.6699 30 47.1787 30 47.1787C30 47.1787 37.2181 42.6699 37.2181 37.2593" stroke="#98D7DC" stroke-width="2" stroke-miterlimit="10" stroke-linecap="round" stroke-linejoin="round"/>
<path d="M20.0751 38.1611C16.4661 40.8664 17.3683 45.3752 17.3683 45.3752" stroke="#98D7DC" stroke-width="2" stroke-miterlimit="10" stroke-linecap="round" stroke-linejoin="round"/>
<path d="M20.9774 58H23.6842V54.3929C23.6842 50.4252 20.9774 45.3752 17.3683 45.3752C13.7593 45.3752 11.0525 50.4252 11.0525 54.3929V58H13.7593" stroke="#98D7DC" stroke-width="2" stroke-miterlimit="10" stroke-linecap="round" stroke-linejoin="round"/>
<path d="M39.9249 38.1611C42.6317 39.0628 42.6317 47.1788 42.6317 47.1788V48.9823" stroke="#98D7DC" stroke-width="2" stroke-miterlimit="10" stroke-linecap="round" stroke-linejoin="round"/>
<path d="M42.6317 58.0001C45.1232 58.0001 47.143 55.9814 47.143 53.4912C47.143 51.001 45.1232 48.9824 42.6317 48.9824C40.1401 48.9824 38.1204 51.001 38.1204 53.4912C38.1204 55.9814 40.1401 58.0001 42.6317 58.0001Z" stroke="#98D7DC" stroke-width="2" stroke-miterlimit="10" stroke-linecap="round" stroke-linejoin="round"/>
</svg>
