<svg width="41" height="41" viewBox="0 0 41 41" fill="none" xmlns="http://www.w3.org/2000/svg">
<path d="M38.9386 14.302L26.9473 12.4771L21.5869 1.09725C21.4405 0.785676 21.1996 0.533448 20.9021 0.380135C20.1559 -0.00562329 19.2491 0.315842 18.876 1.09725L13.5156 12.4771L1.5243 14.302C1.1937 14.3515 0.891439 14.5147 0.660019 14.762C0.380247 15.0631 0.226081 15.4682 0.231395 15.8883C0.236709 16.3084 0.401066 16.7091 0.688356 17.0024L9.36418 25.86L7.31449 38.3675C7.26643 38.6584 7.29717 38.9575 7.40323 39.2313C7.50932 39.5048 7.68645 39.7419 7.91459 39.9153C8.14274 40.0888 8.41275 40.192 8.69403 40.2128C8.97529 40.2341 9.25654 40.172 9.50588 40.034L20.2314 34.129L30.9568 40.034C31.2497 40.1973 31.5898 40.2518 31.9156 40.1923C32.7374 40.0441 33.29 39.2278 33.1482 38.3675L31.0986 25.86L39.7744 17.0024C40.0108 16.76 40.1664 16.4435 40.2136 16.0973C40.3411 15.2318 39.765 14.4306 38.9386 14.302Z" fill="#FFB800"/>
</svg>
