<svg width="35" height="35" viewBox="0 0 35 35" fill="none" xmlns="http://www.w3.org/2000/svg">
<path d="M3 27V13.1746C3 11.4984 4.37143 10.127 6.04762 10.127H10.1111" stroke="#98D7DC" stroke-width="2" stroke-miterlimit="10" stroke-linecap="square" stroke-linejoin="round"/>
<path d="M32.4603 27V13.1746C32.4603 11.4984 31.0889 10.127 29.4127 10.127H25.3492" stroke="#98D7DC" stroke-width="2" stroke-miterlimit="10" stroke-linecap="square" stroke-linejoin="round"/>
<path d="M3 29.9365H14.6825V31.4603H20.7778V29.9365H32.4603M11.127 34H23.8254" stroke="#98D7DC" stroke-width="2" stroke-miterlimit="10" stroke-linecap="round" stroke-linejoin="round"/>
<path d="M5.53967 27.3968V23.4856C5.53967 21.5047 6.65711 19.7271 8.43489 18.8636L14.1746 16.1714L14.6825 14.1396" stroke="#98D7DC" stroke-width="2" stroke-miterlimit="10" stroke-linecap="round" stroke-linejoin="round"/>
<path d="M29.9206 27.3968V23.4856C29.9206 21.5047 28.8032 19.7271 27.0254 18.8636L21.2857 16.1714L20.7778 14.1396" stroke="#98D7DC" stroke-width="2" stroke-miterlimit="10" stroke-linecap="round" stroke-linejoin="round"/>
<path d="M19.6603 14.6984C22.4032 13.5302 22.7079 11.0413 23.0127 8.60317C23.1651 7.28254 23.2158 5.86042 22.6063 4.64137C22.0476 3.52391 20.9301 2.762 19.7619 2.35565C19.1016 2.15248 18.4413 2 17.7301 2C17.019 2 16.3079 2.10169 15.6984 2.35565C14.5301 2.762 13.4635 3.52391 12.854 4.64137C12.1936 5.86042 12.2444 7.28254 12.4476 8.60317C12.7524 11.0413 13.0571 13.5302 15.8 14.6984" stroke="#98D7DC" stroke-width="2" stroke-miterlimit="10" stroke-linecap="round" stroke-linejoin="round"/>
<path d="M14.1746 16.2222C14.1746 18.7619 17.7302 21.3016 17.7302 21.3016C17.7302 21.3016 21.2857 18.7619 21.2857 16.2222" stroke="#98D7DC" stroke-width="2" stroke-miterlimit="10" stroke-linecap="round" stroke-linejoin="round"/>
<path d="M14.1746 16.2222C11.127 17.746 11.6349 21.3016 11.6349 21.3016" stroke="#98D7DC" stroke-width="2" stroke-miterlimit="10" stroke-linecap="round" stroke-linejoin="round"/>
<path d="M21.2857 16.2222C23.8254 16.7302 23.8254 21.3016 23.8254 21.3016V23.3333" stroke="#98D7DC" stroke-width="2" stroke-miterlimit="10" stroke-linecap="round" stroke-linejoin="round"/>
<path d="M10.1111 27.3968H8.58728V25.3651C8.58728 23.1302 9.95871 21.3016 11.6349 21.3016C13.3111 21.3016 14.6825 23.1302 14.6825 25.3651V27.3968H13.1587" stroke="#98D7DC" stroke-width="2" stroke-miterlimit="10" stroke-linecap="round" stroke-linejoin="round"/>
<path d="M23.8254 26.381C24.667 26.381 25.3492 25.6987 25.3492 24.8571C25.3492 24.0156 24.667 23.3333 23.8254 23.3333C22.9838 23.3333 22.3016 24.0156 22.3016 24.8571C22.3016 25.6987 22.9838 26.381 23.8254 26.381Z" stroke="#98D7DC" stroke-width="2" stroke-miterlimit="10" stroke-linecap="round" stroke-linejoin="round"/>
</svg>
