<svg width="35" height="35" viewBox="0 0 35 35" fill="none" xmlns="http://www.w3.org/2000/svg">
<path d="M10.8065 24.7097C10.8065 22.6968 15.7614 21.0968 21.9033 21.0968C28.0452 21.0968 33.0001 22.6968 33.0001 24.7097C33.0001 26.7226 28.0452 28.3226 21.9033 28.3226C18.4968 28.3226 15.4001 27.8065 13.3872 27.0323" stroke="#98D7DC" stroke-width="2" stroke-miterlimit="10" stroke-linecap="round" stroke-linejoin="round"/>
<path d="M10.8065 24.7097V30.3871C10.8065 32.4 15.7614 34 21.9033 34C28.0452 34 33.0001 32.4 33.0001 30.3871V24.7097" stroke="#98D7DC" stroke-width="2" stroke-miterlimit="10" stroke-linecap="round" stroke-linejoin="round"/>
<path d="M14.4194 27.2903L29.3872 22.129" stroke="#98D7DC" stroke-width="2" stroke-miterlimit="10" stroke-linecap="round" stroke-linejoin="round"/>
<path d="M4.0968 18H15.4516" stroke="#98D7DC" stroke-width="2" stroke-miterlimit="10" stroke-linecap="round" stroke-linejoin="round"/>
<path d="M9.77419 33.8453C9.25806 33.9485 8.74194 34 8.22581 34C4.25161 34 1 30.7484 1 26.7742V9.22581C1 5.25161 4.25161 2 8.22581 2C12.2 2 15.4516 5.25161 15.4516 9.22581V19.0323" stroke="#98D7DC" stroke-width="2" stroke-miterlimit="10" stroke-linecap="round" stroke-linejoin="round"/>
<path d="M7.19358 5.25151C5.43874 5.71603 4.0968 7.31613 4.0968 9.22581" stroke="#98D7DC" stroke-width="2" stroke-miterlimit="10" stroke-linecap="round" stroke-linejoin="round"/>
</svg>
