<svg width="35" height="35" viewBox="0 0 35 35" fill="none" xmlns="http://www.w3.org/2000/svg">
<circle cx="17.5" cy="17.5" r="16.5" stroke="white" stroke-width="2"/>
<path fill-rule="evenodd" clip-rule="evenodd" d="M18.0001 8C18.9694 8 19.9169 8.27754 20.7228 8.79751C21.5287 9.31749 22.1568 10.0566 22.5277 10.9212C22.8986 11.7859 22.9957 12.7374 22.8066 13.6554C22.6175 14.5733 22.1508 15.4165 21.4654 16.0783C20.78 16.7401 19.9068 17.1908 18.9562 17.3734C18.0056 17.556 17.0202 17.4623 16.1248 17.1041C15.2293 16.7459 14.4639 16.1394 13.9254 15.3612C13.3869 14.583 13.0995 13.6681 13.0995 12.7322C13.0995 11.4771 13.6158 10.2735 14.5349 9.38601C15.4539 8.49856 16.7004 8 18.0001 8ZM18.0001 10.7604C18.404 10.7604 18.7988 10.8761 19.1346 11.0927C19.4704 11.3094 19.7321 11.6173 19.8866 11.9776C20.0412 12.3379 20.0816 12.7344 20.0028 13.1168C19.924 13.4993 19.7296 13.8506 19.444 14.1264C19.1584 14.4021 18.7946 14.5899 18.3985 14.666C18.0024 14.7421 17.5918 14.703 17.2187 14.5538C16.8456 14.4046 16.5267 14.1518 16.3023 13.8276C16.078 13.5033 15.9582 13.1221 15.9582 12.7322C15.9582 12.2092 16.1734 11.7077 16.5563 11.3379C16.9392 10.9682 17.4586 10.7604 18.0001 10.7604ZM18.0001 18.9309C19.1808 19.0521 20.3681 18.7686 21.3542 18.13C21.3542 18.13 22.8705 17.07 23.8694 18.5302C23.8694 18.5302 24.9427 20.9018 20.9348 21.3337C20.9348 21.3337 20.3422 21.392 20.5158 21.7339C20.6894 22.0758 23.2863 24.2944 23.4504 24.9376C23.6146 25.5808 23.8874 25.7555 23.031 26.5394C22.1747 27.3234 21.5008 27.1384 20.0964 25.7385C18.6919 24.3386 18.0001 23.7344 18.0001 23.7344V18.9309ZM18.0001 18.9309C16.8194 19.0521 15.6322 18.7686 14.6461 18.13C14.6461 18.13 13.1298 17.07 12.1304 18.5302C12.1304 18.5302 11.0576 20.9018 15.0655 21.3337C15.0655 21.3337 15.6581 21.392 15.4845 21.7339C15.3109 22.0758 12.714 24.2944 12.5498 24.9376C12.3857 25.5808 12.1129 25.7555 12.9693 26.5394C13.8256 27.3234 14.4995 27.1384 15.9039 25.7385C17.3083 24.3386 18.0001 23.7344 18.0001 23.7344V18.9309Z" fill="white"/>
</svg>
