<svg width="35" height="35" viewBox="0 0 35 35" fill="none" xmlns="http://www.w3.org/2000/svg">
<circle cx="17.5" cy="17.5" r="16.5" stroke="white" stroke-width="2"/>
<path fill-rule="evenodd" clip-rule="evenodd" d="M17.2708 23.9888H18.5265C18.7389 23.9645 18.9388 23.8769 19.0998 23.7376C19.215 23.5759 19.2753 23.3821 19.2719 23.1843C19.2719 23.1843 19.2477 21.4761 20.0295 21.2273C20.8003 20.982 21.7902 22.8603 22.8394 23.5828C23.0333 23.7388 23.2566 23.855 23.4963 23.9246C23.736 23.9943 23.9874 24.016 24.2356 23.9884L27.0411 23.9908C27.0411 23.9908 28.5085 23.8792 27.8128 22.7222C27.7558 22.6274 27.4088 21.8661 25.7269 20.3019C23.9674 18.6645 24.2033 18.9293 26.3224 16.097C27.6128 14.3719 28.1287 13.319 27.9675 12.8682C27.814 12.4385 26.8714 12.5125 26.8714 12.5125H23.706C23.5651 12.5008 23.4237 12.5285 23.2979 12.5925C23.1744 12.6884 23.0782 12.8146 23.0192 12.9586C22.695 13.8184 22.3049 14.6523 21.8524 15.4533C20.446 17.848 19.8836 17.9736 19.6537 17.826C19.1188 17.4792 19.2525 16.4338 19.2525 15.6905C19.2525 13.3702 19.6036 12.4017 18.5685 12.1513C18.0865 12.0343 17.5902 11.9848 17.0943 12.004C15.9671 11.9924 15.0136 12.0076 14.4735 12.2729C14.1139 12.4493 13.8367 12.8426 14.0056 12.8654C14.3657 12.8976 14.6994 13.0658 14.9377 13.335C15.2609 13.7771 15.2504 14.7684 15.2504 14.7684C15.2504 14.7684 15.4362 17.5012 14.8161 17.8404C14.3902 18.0732 13.806 17.598 12.5536 15.4249C12.1252 14.6616 11.7485 13.8709 11.426 13.0582C11.3685 12.9219 11.2793 12.801 11.1658 12.7053C11.0194 12.6078 10.8544 12.5409 10.681 12.5089H7.67914C7.4563 12.5096 7.23989 12.583 7.06342 12.7177C7.0238 12.8014 7.00225 12.8923 7.00017 12.9847C6.99808 13.0771 7.0155 13.1689 7.0513 13.2542C7.0513 13.2542 9.40145 18.8093 12.0611 21.5877C14.5005 24.1372 17.2708 23.9888 17.2708 23.9888Z" fill="white"/>
</svg>
