<svg width="21" height="16" viewBox="0 0 21 16" fill="none" xmlns="http://www.w3.org/2000/svg">
<path d="M19.486 0.547241H1.514C1.34454 0.54744 1.18209 0.614861 1.06229 0.734708C0.94249 0.854555 0.875132 1.01704 0.875 1.18649V2.47249C0.875 2.53174 0.93925 2.59974 0.99175 2.62724L10.4382 8.02299C10.4624 8.03682 10.4899 8.04398 10.5177 8.04374C10.5462 8.04382 10.5742 8.03622 10.5988 8.02174L19.7598 2.63249C19.8113 2.60374 19.9478 2.52774 19.999 2.49274C20.061 2.45049 20.125 2.41224 20.125 2.33649V1.18624C20.1248 1.01683 20.0574 0.854412 19.9376 0.73462C19.8178 0.614827 19.6554 0.54744 19.486 0.547241Z" fill="#7C7C7C"/>
<path d="M20.0453 4.41153C20.0207 4.3975 19.9929 4.39021 19.9645 4.39038C19.9362 4.39056 19.9085 4.3982 19.8841 4.41253L14.6998 7.46278C14.6791 7.47481 14.6615 7.49135 14.6481 7.51115C14.6347 7.53096 14.6259 7.55352 14.6224 7.57718C14.6189 7.60083 14.6208 7.62497 14.628 7.64779C14.6351 7.67062 14.6472 7.69155 14.6636 7.70903L19.8486 13.2983C19.8634 13.3144 19.8815 13.3273 19.9016 13.3361C19.9217 13.3448 19.9434 13.3493 19.9653 13.3493C20.0076 13.3492 20.0482 13.3324 20.0782 13.3024C20.1081 13.2725 20.125 13.2319 20.1251 13.1895V4.55028C20.1252 4.52217 20.1178 4.49454 20.1038 4.47018C20.0898 4.44581 20.0696 4.42558 20.0453 4.41153Z" fill="#7C7C7C"/>
<path d="M13.2057 8.48701C13.1811 8.46021 13.148 8.44266 13.112 8.43729C13.076 8.43192 13.0393 8.43906 13.0079 8.45751L10.9299 9.68026C10.8082 9.7506 10.6702 9.78808 10.5296 9.789C10.389 9.78992 10.2506 9.75426 10.1279 9.68551L8.2992 8.64076C8.26967 8.62394 8.23556 8.61696 8.20181 8.62083C8.16805 8.62469 8.1364 8.6392 8.11145 8.66226L1.16695 15.1038C1.14874 15.1208 1.13476 15.1418 1.12613 15.1652C1.11749 15.1886 1.11443 15.2136 1.1172 15.2384C1.11997 15.2632 1.12848 15.287 1.14207 15.3079C1.15565 15.3287 1.17393 15.3462 1.19545 15.3588C1.30345 15.4223 1.4077 15.4525 1.5137 15.4525H19.3019C19.3331 15.4526 19.3635 15.4435 19.3895 15.4264C19.4155 15.4093 19.4359 15.3849 19.4482 15.3563C19.4607 15.3278 19.4645 15.2963 19.4593 15.2657C19.454 15.2351 19.4399 15.2067 19.4187 15.184L13.2057 8.48701Z" fill="#7C7C7C"/>
<path d="M6.5835 7.90029C6.6019 7.88329 6.61603 7.8622 6.62477 7.83872C6.63351 7.81524 6.6366 7.79004 6.63381 7.76515C6.63101 7.74026 6.62239 7.71637 6.60866 7.69542C6.59493 7.67447 6.57646 7.65704 6.55475 7.64454L1.11325 4.53654C1.08897 4.52276 1.06149 4.51559 1.03356 4.51575C1.00564 4.51591 0.978246 4.52341 0.954126 4.53748C0.930005 4.55155 0.910002 4.57171 0.896117 4.59594C0.882231 4.62017 0.874951 4.64762 0.875003 4.67554V12.8305C0.874826 12.8617 0.883787 12.8922 0.900776 12.9183C0.917764 12.9444 0.942035 12.965 0.970584 12.9774C0.999133 12.9899 1.03071 12.9937 1.0614 12.9884C1.09209 12.9831 1.12055 12.9689 1.14325 12.9475L6.5835 7.90029Z" fill="#7C7C7C"/>
</svg>
