<svg width="60" height="60" viewBox="0 0 60 60" fill="none" xmlns="http://www.w3.org/2000/svg">
<path d="M32.7097 7.41936V2H27.2903V7.41936H21.871V12.8387H27.2903V18.2581H32.7097V12.8387H38.129V7.41936H32.7097Z" stroke="#98D7DC" stroke-width="3" stroke-miterlimit="10" stroke-linecap="square" stroke-linejoin="round"/>
<path d="M17.3548 10.129H13.7419V58" stroke="#98D7DC" stroke-width="3" stroke-miterlimit="10" stroke-linecap="square" stroke-linejoin="round"/>
<path d="M42.6451 10.129H46.258V58" stroke="#98D7DC" stroke-width="3" stroke-miterlimit="10" stroke-linecap="square" stroke-linejoin="round"/>
<path d="M24.5807 23.6774V58" stroke="#98D7DC" stroke-width="2" stroke-miterlimit="10" stroke-linecap="square" stroke-linejoin="round"/>
<path d="M35.4194 23.6774V58" stroke="#98D7DC" stroke-width="2" stroke-miterlimit="10" stroke-linecap="square" stroke-linejoin="round"/>
<path d="M24.5807 28.1935H35.4194" stroke="#98D7DC" stroke-width="2" stroke-miterlimit="10" stroke-linecap="square" stroke-linejoin="round"/>
<path d="M24.5807 40.8387H35.4194" stroke="#98D7DC" stroke-width="2" stroke-miterlimit="10" stroke-linecap="square" stroke-linejoin="round"/>
<path d="M24.5807 53.4839H35.4194" stroke="#98D7DC" stroke-width="2" stroke-miterlimit="10" stroke-linecap="square" stroke-linejoin="round"/>
<path d="M9.2258 18.2581H2V58" stroke="#98D7DC" stroke-width="3" stroke-miterlimit="10" stroke-linecap="square" stroke-linejoin="round"/>
<path d="M9.22579 42.6452H6.51611V37.2258H9.22579" stroke="#98D7DC" stroke-width="2" stroke-miterlimit="10" stroke-linecap="square" stroke-linejoin="round"/>
<path d="M9.22579 31.8064H6.51611V26.3871H9.22579" stroke="#98D7DC" stroke-width="2" stroke-miterlimit="10" stroke-linecap="square" stroke-linejoin="round"/>
<path d="M9.22579 53.4839H6.51611V48.0645H9.22579" stroke="#98D7DC" stroke-width="2" stroke-miterlimit="10" stroke-linecap="square" stroke-linejoin="round"/>
<path d="M50.7742 18.2581H58V58" stroke="#98D7DC" stroke-width="3" stroke-miterlimit="10" stroke-linecap="square" stroke-linejoin="round"/>
<path d="M50.7742 42.6452H53.4839V37.2258H50.7742" stroke="#98D7DC" stroke-width="2" stroke-miterlimit="10" stroke-linecap="square" stroke-linejoin="round"/>
<path d="M50.7742 31.8064H53.4839V26.3871H50.7742" stroke="#98D7DC" stroke-width="2" stroke-miterlimit="10" stroke-linecap="square" stroke-linejoin="round"/>
<path d="M50.7742 53.4839H53.4839V48.0645H50.7742" stroke="#98D7DC" stroke-width="2" stroke-miterlimit="10" stroke-linecap="square" stroke-linejoin="round"/>
</svg>
