<svg width="60" height="60" viewBox="0 0 60 60" fill="none" xmlns="http://www.w3.org/2000/svg">
<path d="M54.1163 38.942C56.555 35.1484 58 30.7226 58 25.9355C58 12.7484 47.2516 2 34.0645 2C20.8774 2 10.129 12.7484 10.129 25.9355C10.129 39.1226 20.8774 49.871 34.0645 49.871C38.8516 49.871 43.3677 48.4258 47.0709 45.9871L58 49.871L54.1163 38.942Z" stroke="#98D7DC" stroke-width="3" stroke-miterlimit="10" stroke-linecap="round" stroke-linejoin="round"/>
<path d="M32.4389 55.2903C29.4582 57.0065 26.0258 58 22.3226 58C18.2581 58 14.4643 56.8259 11.3031 54.7484L2 58L5.2517 48.6968C3.17428 45.5355 2 41.742 2 37.6774C2 33.8839 3.08405 30.3613 4.8905 27.2903" stroke="#98D7DC" stroke-width="3" stroke-miterlimit="10" stroke-linecap="round" stroke-linejoin="round"/>
<path d="M19.1613 25.4839H24.5807C27.5613 23.2258 30.271 21.1484 31.8065 17.6258C32.9807 14.9161 32.7097 13.8323 32.7097 11.0323C32.7097 11.0323 35.4194 9.22581 36.3226 14.6452C36.5936 16.4516 36.3226 20.9677 35.4194 22.7742" stroke="#98D7DC" stroke-width="2" stroke-miterlimit="10" stroke-linecap="round" stroke-linejoin="round"/>
<path d="M43.5484 26.3871C44.5419 26.3871 45.3549 27.2 45.3549 28.1935C45.3549 29.1871 44.5419 30 43.5484 30H41.7419" stroke="#98D7DC" stroke-width="2" stroke-miterlimit="10" stroke-linecap="round" stroke-linejoin="round"/>
<path d="M42.6452 30C43.6387 30 44.4517 30.8129 44.4517 31.8065C44.4517 32.8 43.6387 33.6129 42.6452 33.6129H40.8387" stroke="#98D7DC" stroke-width="2" stroke-miterlimit="10" stroke-linecap="round" stroke-linejoin="round"/>
<path d="M41.7419 33.6129C42.7355 33.6129 43.5484 34.4258 43.5484 35.4194C43.5484 36.4129 42.7355 37.2258 41.7419 37.2258H35.871C33.7936 37.2258 31.7162 37.0452 29.6388 36.5935L28.1936 36.3226H23.6774" stroke="#98D7DC" stroke-width="2" stroke-miterlimit="10" stroke-linecap="round" stroke-linejoin="round"/>
<path d="M35.4194 22.7742H43.5484C44.542 22.7742 45.3549 23.5871 45.3549 24.5807C45.3549 25.5742 44.542 26.3871 43.5484 26.3871H41.742" stroke="#98D7DC" stroke-width="2" stroke-miterlimit="10" stroke-linecap="round" stroke-linejoin="round"/>
</svg>
