<svg width="26" height="27" viewBox="0 0 26 27" fill="none" xmlns="http://www.w3.org/2000/svg">
<path d="M15.0001 22.2002L14.6001 25.8002L16.2001 25.0002L17.8001 25.8002L17.4001 22.2002" stroke="black" stroke-width="1.5" stroke-miterlimit="10" stroke-linecap="square" stroke-linejoin="round"/>
<path d="M14.2001 18.2001C14.2001 17.9601 14.3601 17.8001 14.6001 17.8001C15.0801 17.8001 15.56 17.6001 15.92 17.2401C16.08 17.0801 16.3201 17.0801 16.4801 17.2401C16.8401 17.6001 17.3201 17.8001 17.8001 17.8001C18.0401 17.8001 18.2001 17.9601 18.2001 18.2001C18.2001 18.6801 18.4 19.16 18.76 19.52C18.92 19.68 18.92 19.9202 18.76 20.0802C18.4 20.4402 18.2001 20.9201 18.2001 21.4001C18.2001 21.6401 18.0401 21.8001 17.8001 21.8001C17.3201 21.8001 16.8401 22 16.4801 22.36C16.3201 22.52 16.08 22.52 15.92 22.36C15.56 22 15.0801 21.8001 14.6001 21.8001C14.3601 21.8001 14.2001 21.6401 14.2001 21.4001C14.2001 20.9201 14 20.4402 13.64 20.0802C13.48 19.9202 13.48 19.68 13.64 19.52C14 19.16 14.2001 18.6801 14.2001 18.2001Z" stroke="black" stroke-width="1.5" stroke-miterlimit="10" stroke-linecap="square" stroke-linejoin="round"/>
<path d="M4 9H17.7999" stroke="black" stroke-width="1.5" stroke-miterlimit="10" stroke-linecap="round" stroke-linejoin="round"/>
<path d="M4.19971 11.7998H17.7997" stroke="black" stroke-width="1.5" stroke-miterlimit="10" stroke-linecap="round" stroke-linejoin="round"/>
<path d="M4.19971 14.2002H11.3997" stroke="black" stroke-width="1.5" stroke-miterlimit="10" stroke-linecap="round" stroke-linejoin="round"/>
<path d="M4.99972 20.6002C4.79972 19.2802 6.67972 19.1202 6.99972 18.2002C6.99972 18.2002 7.71972 19.8402 7.39972 20.6002C7.55972 20.1202 8.75972 19.6802 8.99972 19.8002C9.27972 19.9202 8.55972 21.1202 11.3997 20.6002" stroke="black" stroke-width="1.5" stroke-miterlimit="10" stroke-linecap="round" stroke-linejoin="round"/>
<path d="M22.6 1H3.4C2.08 1 1 2.08 1 3.4V24.2H12.2" stroke="black" stroke-width="1.5" stroke-miterlimit="10" stroke-linecap="square" stroke-linejoin="round"/>
<path d="M23.4002 4.2H25.0002V3C25.0002 1.88 24.0802 1 23.0002 1C21.8802 1 21.0002 1.92 21.0002 3V24.2H20.2002" stroke="black" stroke-width="1.5" stroke-miterlimit="10" stroke-linecap="square" stroke-linejoin="round"/>
</svg>
