<svg width="32" height="32" viewBox="0 0 32 32" fill="none" xmlns="http://www.w3.org/2000/svg">
<path d="M9.22607 27.6128L10.1938 24.2257" stroke="#32B4C3" stroke-width="2" stroke-miterlimit="10" stroke-linecap="round" stroke-linejoin="round"/>
<path d="M22.7744 27.6128L21.8066 24.2257" stroke="#32B4C3" stroke-width="2" stroke-miterlimit="10" stroke-linecap="round" stroke-linejoin="round"/>
<path d="M7.29032 20.3548L4.87097 21.3225L1 31L9.22581 27.6129L16 31L22.7742 27.6129L31 31L27.129 21.3225L24.7097 20.3548" stroke="#32B4C3" stroke-width="2" stroke-miterlimit="10" stroke-linecap="round" stroke-linejoin="round"/>
<path d="M25.1937 10.1935C25.1937 16 16.0002 25.1935 16.0002 25.1935C16.0002 25.1935 6.80664 16 6.80664 10.1935C6.80664 5.1129 10.9195 1 16.0002 1C21.0808 1 25.1937 5.1129 25.1937 10.1935Z" stroke="#32B4C3" stroke-width="2" stroke-miterlimit="10" stroke-linecap="round" stroke-linejoin="round"/>
<path d="M16.0008 14.5485C18.4059 14.5485 20.3557 12.5988 20.3557 10.1936C20.3557 7.78853 18.4059 5.83881 16.0008 5.83881C13.5957 5.83881 11.646 7.78853 11.646 10.1936C11.646 12.5988 13.5957 14.5485 16.0008 14.5485Z" stroke="#32B4C3" stroke-width="2" stroke-miterlimit="10" stroke-linecap="round" stroke-linejoin="round"/>
</svg>
