<svg width="318" height="60" viewBox="0 0 318 60" fill="none" xmlns="http://www.w3.org/2000/svg">
<path fill-rule="evenodd" clip-rule="evenodd" d="M282.995 1.69014C284.597 1.69014 285.947 3.04225 285.947 4.64789C285.947 6.25352 284.597 7.60563 282.995 7.60563C281.392 7.60563 280.042 6.25352 280.042 4.64789C280.042 3.04225 281.308 1.69014 282.995 1.69014Z" stroke="#98D7DC" stroke-width="1.3" stroke-linejoin="round"/>
<path fill-rule="evenodd" clip-rule="evenodd" d="M285.947 17.4155C285.947 15.7601 284.598 14.3662 282.995 14.3662C281.392 14.3662 280.043 15.7601 280.043 17.4155V39.7186H285.947V17.4155Z" stroke="#98D7DC" stroke-width="1.3" stroke-linejoin="round"/>
<path fill-rule="evenodd" clip-rule="evenodd" d="M241.663 1.69014C243.266 1.69014 244.615 3.04225 244.615 4.64789C244.615 6.25352 243.266 7.60563 241.663 7.60563C240.061 7.60563 238.711 6.25352 238.711 4.64789C238.711 3.04225 239.976 1.69014 241.663 1.69014Z" stroke="#98D7DC" stroke-width="1.3" stroke-linejoin="round"/>
<path fill-rule="evenodd" clip-rule="evenodd" d="M241.663 14.3541C240.061 14.3541 238.711 15.7356 238.711 17.3762V39.7185H244.616V17.3762C244.531 15.7356 243.266 14.3541 241.663 14.3541Z" stroke="#98D7DC" stroke-width="1.3" stroke-linejoin="round"/>
<path fill-rule="evenodd" clip-rule="evenodd" d="M233.65 4.70716C233.65 3.06935 232.3 1.69014 230.698 1.69014C229.095 1.69014 227.745 3.06935 227.745 4.70716V39.7183H233.65V4.70716Z" stroke="#98D7DC" stroke-width="1.3" stroke-linejoin="round"/>
<path fill-rule="evenodd" clip-rule="evenodd" d="M210.032 33.2935C206.493 33.2935 203.573 30.4283 203.573 26.8686C203.573 23.3089 206.493 20.4438 210.032 20.4438C212.509 20.4438 214.633 21.8329 215.695 23.8298H222.684C221.269 18.4468 216.225 14.3662 210.209 14.3662C203.131 14.3662 197.379 20.0096 197.379 27.0423C197.379 33.988 203.131 39.7183 210.209 39.7183C216.225 39.7183 221.269 35.7245 222.684 30.2547H215.518C214.456 32.0779 212.332 33.2935 210.032 33.2935Z" stroke="#98D7DC" stroke-width="1.3" stroke-linejoin="round"/>
<path fill-rule="evenodd" clip-rule="evenodd" d="M190.21 33.8028C191.812 33.8028 193.162 35.1549 193.162 36.7606C193.162 38.3662 191.812 39.7183 190.21 39.7183C188.607 39.7183 187.257 38.3662 187.257 36.7606C187.257 35.1549 188.523 33.8028 190.21 33.8028Z" stroke="#98D7DC" stroke-width="1.3" stroke-linejoin="round"/>
<path fill-rule="evenodd" clip-rule="evenodd" d="M303.661 33.2935C300.121 33.2935 297.202 30.4283 297.202 26.8686C297.202 23.3089 300.121 20.4438 303.661 20.4438C306.138 20.4438 308.261 21.8329 309.323 23.8298H316.313C314.897 18.4468 309.854 14.3662 303.838 14.3662C296.759 14.3662 291.008 20.0096 291.008 27.0423C291.008 33.988 296.759 39.7183 303.838 39.7183C309.854 39.7183 314.897 35.7245 316.313 30.2547H309.146C307.996 32.0779 305.961 33.2935 303.661 33.2935Z" stroke="#98D7DC" stroke-width="1.3" stroke-linejoin="round"/>
<path fill-rule="evenodd" clip-rule="evenodd" d="M249.677 14.3667H255.578L255.577 39.7051H249.676L249.677 14.3667Z" stroke="#98D7DC" stroke-width="1.3" stroke-linejoin="round"/>
<path fill-rule="evenodd" clip-rule="evenodd" d="M274.981 26.8686C274.895 19.9228 269.438 14.3662 262.508 14.3662C262.421 14.3662 262.335 14.3662 262.248 14.3662C262.161 14.3662 262.075 14.3662 261.988 14.3662C259.649 14.3662 257.484 15.0608 255.578 16.1895V26.7818C255.838 23.3957 258.697 20.5306 261.988 20.5306C262.161 20.5306 262.248 20.5306 262.421 20.5306C265.886 20.5306 268.831 23.6562 268.831 27.2159V39.7183H274.981V26.8686Z" stroke="#98D7DC" stroke-width="1.3" stroke-linejoin="round"/>
<path d="M72.9629 15.2059C74.808 14.1462 77.0046 13.528 79.2891 13.528C86.3183 13.528 91.9416 19.1799 91.9416 26.1565C91.9416 33.133 86.3183 38.8732 79.2891 38.8732C72.3478 38.8732 66.6366 33.2213 66.6366 26.1565C66.6366 26.1565 66.6366 4.11257 66.6366 4.02426C66.6366 2.25804 68.0424 0.84507 69.7997 0.84507C71.557 0.84507 72.9629 2.25804 72.9629 4.02426V15.2059ZM72.9629 15.2059V26.2448M72.9629 26.2448C72.9629 29.7772 75.7745 32.6032 79.2891 32.6032C82.8037 32.6032 85.6154 29.7772 85.6154 26.2448C85.6154 22.7123 82.8037 19.8864 79.2891 19.8864C75.7745 19.8864 72.9629 22.7123 72.9629 26.2448Z" stroke="#98D7DC" stroke-width="1.3"/>
<path d="M115.981 15.2817C114.136 14.2254 111.94 13.6092 109.655 13.6092C102.714 13.6092 97.0027 19.243 97.0027 26.1972C97.0027 33.1514 102.626 38.8732 109.655 38.8732C116.597 38.8732 122.308 33.2394 122.308 26.1972C122.308 26.1972 122.308 4.10211 122.308 4.01408C122.308 2.25352 120.902 0.84507 119.145 0.84507C117.387 0.84507 115.981 2.25352 115.981 4.01408V15.2817ZM115.981 15.2817V26.2852M115.981 26.2852C115.981 29.8063 113.17 32.6232 109.655 32.6232C106.228 32.6232 103.329 29.8063 103.329 26.2852C103.329 22.7641 106.141 19.9472 109.655 19.9472C113.17 19.9472 115.981 22.7641 115.981 26.2852Z" stroke="#98D7DC" stroke-width="1.3"/>
<path d="M42.6404 26.1972C42.6404 27.3259 42.9022 28.4546 43.4257 29.3228H54.4203H57.0381H59.3941H61.1393C61.401 28.2809 61.5755 27.2391 61.5755 26.1972C61.5755 19.2514 55.9037 13.5211 48.923 13.5211C41.9423 13.5211 36.2705 19.1646 36.2705 26.1972C36.2705 33.143 41.9423 38.8732 48.923 38.8732C54.2458 38.8732 58.7833 35.8909 60.703 31.2893H53.1987C52.0643 32.3312 50.5809 32.7089 48.923 32.7089C45.4327 32.622 42.6404 29.7569 42.6404 26.1972ZM42.6404 26.1972C42.6404 22.6375 45.5199 19.7723 48.923 19.7723C51.279 19.7723 53.3732 21.0747 54.4203 23.0716H43.4257C42.9022 24.0266 42.6404 25.0685 42.6404 26.1972Z" stroke="#98D7DC" stroke-width="1.3" stroke-linejoin="round"/>
<path fill-rule="evenodd" clip-rule="evenodd" d="M170.387 32.4484C166.848 32.4484 163.928 29.5833 163.928 26.0235C163.928 22.4638 166.848 19.5987 170.387 19.5987C172.865 19.5987 174.988 20.9878 176.05 22.9848H183.04C181.624 17.515 176.581 13.5211 170.564 13.5211C163.486 13.5211 157.735 19.1646 157.735 26.1972C157.735 33.143 163.486 38.8732 170.564 38.8732C176.581 38.8732 181.624 34.8794 183.04 29.4096H175.873C174.723 31.2329 172.688 32.4484 170.387 32.4484Z" stroke="#98D7DC" stroke-width="1.3" stroke-linejoin="round"/>
<path fill-rule="evenodd" clip-rule="evenodd" d="M23.1695 25.8271L20.1124 13.5211H13.6277L10.5706 25.8271L7.42087 13.5211H0.843506L7.23559 38.8732H13.9056L16.9627 26.7523L19.8345 38.8732H26.5045L32.8966 13.5211H26.3192L23.1695 25.8271Z" stroke="#98D7DC" stroke-width="1.3" stroke-miterlimit="1.30541" stroke-linejoin="round"/>
<path fill-rule="evenodd" clip-rule="evenodd" d="M140.021 13.5211C133.088 13.5211 127.369 19.2195 127.369 26.2129C127.369 33.2063 133.002 38.9046 140.021 38.9046C141.061 38.9046 142.101 38.732 143.054 38.5593L145.481 39.8544L148.427 41.4085L148.514 38.0413L148.601 35.4511C151.114 33.12 152.674 29.8391 152.674 26.2129C152.674 19.2195 146.954 13.5211 140.021 13.5211ZM140.021 32.5616C136.555 32.5616 133.695 29.7528 133.695 26.2129C133.695 22.673 136.555 19.8327 140.021 19.8327C143.488 19.8327 146.347 22.673 146.347 26.2129C146.347 29.7528 143.488 32.5616 140.021 32.5616Z" fill="url(#paint0_radial)"/>
<path d="M3.10162 57.4221C2.70546 57.4221 2.3057 57.4078 1.90233 57.3793C1.49897 57.358 1.14603 57.3081 0.843506 57.2298V50.0407C1.00197 50.0123 1.17124 49.9873 1.35131 49.966C1.53138 49.9375 1.71506 49.9161 1.90233 49.9019C2.08961 49.8876 2.27329 49.877 2.45336 49.8698C2.64063 49.8627 2.81711 49.8592 2.98277 49.8592C3.43656 49.8592 3.85793 49.8948 4.24688 49.966C4.63584 50.0301 4.97078 50.1404 5.25169 50.2971C5.53981 50.4538 5.7631 50.6603 5.92156 50.9167C6.08003 51.173 6.15926 51.49 6.15926 51.8674C6.15926 52.2163 6.07282 52.5154 5.89995 52.7647C5.73429 53.0139 5.50019 53.2133 5.19767 53.3629C5.65145 53.5124 5.98639 53.7332 6.20248 54.0252C6.41857 54.3171 6.52661 54.6875 6.52661 55.1361C6.52661 55.8981 6.24569 56.4714 5.68387 56.8559C5.12204 57.2333 4.26129 57.4221 3.10162 57.4221ZM2.18325 54.0038V56.2577C2.33451 56.272 2.49658 56.2826 2.66945 56.2898C2.84232 56.2969 3.00078 56.3004 3.14484 56.3004C3.42575 56.3004 3.68506 56.2826 3.92275 56.247C4.16765 56.2114 4.37654 56.1509 4.54941 56.0654C4.72948 55.9729 4.86994 55.8518 4.97078 55.7022C5.07882 55.5527 5.13284 55.3604 5.13284 55.1254C5.13284 54.7053 4.97798 54.4133 4.66826 54.2495C4.35853 54.0857 3.92996 54.0038 3.38253 54.0038H2.18325ZM2.18325 52.9463H3.14484C3.66345 52.9463 4.07041 52.8751 4.36573 52.7326C4.66105 52.5831 4.80871 52.3196 4.80871 51.9422C4.80871 51.5861 4.65385 51.3333 4.34412 51.1837C4.0416 51.0342 3.64544 50.9594 3.15564 50.9594C2.94676 50.9594 2.75948 50.963 2.59381 50.9701C2.43535 50.9772 2.2985 50.9879 2.18325 51.0021V52.9463Z" fill="black"/>
<path d="M17.9925 57.3366V49.9339H19.343V54.8477C19.5879 54.4631 19.8653 54.0501 20.175 53.6086C20.4919 53.1599 20.816 52.7148 21.1474 52.2733C21.4859 51.8318 21.8209 51.4081 22.1522 51.0021C22.4835 50.5891 22.7932 50.233 23.0814 49.9339H24.1942V57.3366H22.8545V52.0383C22.5519 52.3944 22.2314 52.7967 21.8929 53.2454C21.5615 53.6869 21.2338 54.1462 20.9097 54.6234C20.5856 55.0934 20.2722 55.5634 19.9697 56.0334C19.6672 56.4963 19.3935 56.9307 19.1486 57.3366H17.9925Z" fill="black"/>
<path d="M38.156 49.8592C39.2436 49.8592 40.0756 50.055 40.6518 50.4467C41.2353 50.8383 41.527 51.4508 41.527 52.284C41.527 52.7184 41.4477 53.0923 41.2893 53.4056C41.138 53.7118 40.9147 53.9646 40.6194 54.164C40.3241 54.3563 39.9639 54.4987 39.539 54.5913C39.114 54.6839 38.6278 54.7302 38.0804 54.7302H37.3997V57.3366H36.0383V50.0407C36.3553 49.9695 36.7046 49.9232 37.0864 49.9019C37.4753 49.8734 37.8319 49.8592 38.156 49.8592ZM38.2532 51.0235C37.9075 51.0235 37.623 51.0342 37.3997 51.0555V53.5765H38.0588C38.7142 53.5765 39.2184 53.4875 39.5714 53.3095C39.9243 53.1243 40.1008 52.7789 40.1008 52.2733C40.1008 52.0312 40.054 51.8282 39.9603 51.6644C39.8667 51.5006 39.737 51.3724 39.5714 51.2799C39.4057 51.1873 39.2076 51.1232 38.9771 51.0876C38.7538 51.0449 38.5125 51.0235 38.2532 51.0235Z" fill="black"/>
<path d="M58.0366 49.9339V51.0983H55.7352V57.3366H54.3631V51.0983H52.0617V49.9339H58.0366Z" fill="black"/>
<path d="M72.9756 55.1254C72.7955 55.5242 72.6082 55.8732 72.4137 56.1723C72.2264 56.4642 72.0176 56.7064 71.7871 56.8986C71.5638 57.0909 71.3117 57.2333 71.0308 57.3259C70.7571 57.4185 70.4473 57.4648 70.1016 57.4648C69.8927 57.4648 69.673 57.4434 69.4425 57.4007C69.2192 57.358 69.0356 57.3046 68.8915 57.2405L69.14 56.1295C69.2769 56.1865 69.4209 56.2328 69.5722 56.2684C69.7234 56.2969 69.8783 56.3111 70.0368 56.3111C70.3681 56.3111 70.6418 56.2364 70.8579 56.0868C71.0812 55.9373 71.2865 55.6916 71.4737 55.3497C71.1712 54.8655 70.8795 54.3777 70.5986 53.8863C70.3249 53.3949 70.0692 52.9178 69.8315 52.4549C69.5938 51.9849 69.3741 51.5362 69.1724 51.109C68.9779 50.6817 68.8015 50.29 68.643 49.9339H70.1664C70.2817 50.2259 70.4113 50.5392 70.5554 50.874C70.7066 51.2087 70.8651 51.554 71.0308 51.9101C71.2036 52.2662 71.3837 52.6294 71.571 52.9997C71.7583 53.37 71.9455 53.7403 72.1328 54.1106C72.3921 53.4768 72.6406 52.8003 72.8783 52.081C73.116 51.3618 73.3393 50.6461 73.5482 49.9339H75.0176C74.8447 50.4609 74.6718 50.9594 74.499 51.4294C74.3261 51.8923 74.1532 52.3374 73.9804 52.7647C73.8147 53.1848 73.6454 53.5908 73.4726 53.9824C73.3069 54.367 73.1412 54.748 72.9756 55.1254Z" fill="black"/>
<path d="M90.3979 57.3366C90.297 57.0446 90.1926 56.7562 90.0845 56.4714C89.9765 56.1865 89.872 55.8945 89.7712 55.5954H86.6163C86.5155 55.8945 86.411 56.1901 86.303 56.482C86.2022 56.7669 86.1013 57.0518 86.0005 57.3366H84.5851C84.866 56.5461 85.1325 55.8162 85.3846 55.1468C85.6367 54.4774 85.8816 53.8436 86.1193 53.2454C86.3642 52.6472 86.6055 52.0775 86.8432 51.5362C87.0809 50.995 87.3258 50.4609 87.5779 49.9339H88.8636C89.1157 50.4609 89.3606 50.995 89.5983 51.5362C89.836 52.0775 90.0737 52.6472 90.3114 53.2454C90.5563 53.8436 90.8048 54.4774 91.0569 55.1468C91.3162 55.8162 91.5863 56.5461 91.8673 57.3366H90.3979ZM88.1938 51.3653C88.0281 51.7428 87.8372 52.2021 87.6211 52.7433C87.4123 53.2845 87.1926 53.8721 86.9621 54.5059H89.4255C89.195 53.8721 88.9717 53.281 88.7556 52.7326C88.5395 52.1843 88.3522 51.7285 88.1938 51.3653Z" fill="black"/>
<path d="M105.946 51.0876C105.925 51.5718 105.899 52.0668 105.871 52.5724C105.842 53.0709 105.788 53.5552 105.709 54.0252C105.636 54.4881 105.528 54.926 105.384 55.3391C105.24 55.7521 105.042 56.1153 104.79 56.4286C104.538 56.7348 104.221 56.9805 103.839 57.1657C103.465 57.3508 103.004 57.4505 102.456 57.4648L102.305 56.2898C102.564 56.2613 102.791 56.2114 102.986 56.1402C103.18 56.069 103.35 55.9764 103.494 55.8625C103.638 55.7414 103.764 55.5954 103.872 55.4245C103.98 55.2465 104.073 55.04 104.153 54.805C104.347 54.2495 104.477 53.5552 104.542 52.7219C104.606 51.8887 104.639 50.9594 104.639 49.9339H109.317V57.3366H107.945V51.0876H105.946Z" fill="black"/>
<path d="M126.703 55.0079C126.703 55.7984 126.401 56.4001 125.796 56.8132C125.198 57.2191 124.355 57.4221 123.268 57.4221C122.965 57.4221 122.623 57.4043 122.241 57.3687C121.867 57.333 121.507 57.2761 121.161 57.1977V49.9339H122.522V52.5938C122.645 52.5795 122.76 52.5724 122.868 52.5724C122.976 52.5724 123.088 52.5724 123.203 52.5724C125.537 52.5724 126.703 53.3842 126.703 55.0079ZM123.106 53.7261C123.019 53.7261 122.926 53.7261 122.825 53.7261C122.724 53.7261 122.623 53.7332 122.522 53.7474V56.247C122.623 56.2542 122.738 56.2613 122.868 56.2684C123.005 56.2684 123.167 56.2684 123.354 56.2684C123.606 56.2684 123.847 56.2506 124.078 56.215C124.316 56.1723 124.521 56.1046 124.694 56.012C124.874 55.9123 125.018 55.7841 125.126 55.6275C125.234 55.4637 125.288 55.2572 125.288 55.0079C125.288 54.7587 125.234 54.5521 125.126 54.3884C125.025 54.2246 124.878 54.0928 124.683 53.9931C124.496 53.8934 124.269 53.8258 124.002 53.7902C123.736 53.7474 123.437 53.7261 123.106 53.7261Z" fill="black"/>
<path d="M142.649 49.9339H144.01V57.3366H142.649V54.0572H139.397V57.3366H138.035V49.9339H139.397V52.8929H142.649V49.9339Z" fill="black"/>
<path d="M160.819 57.3366C160.718 57.0446 160.614 56.7562 160.506 56.4714C160.398 56.1865 160.293 55.8945 160.193 55.5954H157.038C156.937 55.8945 156.832 56.1901 156.724 56.482C156.624 56.7669 156.523 57.0518 156.422 57.3366H155.006C155.287 56.5461 155.554 55.8162 155.806 55.1468C156.058 54.4774 156.303 53.8436 156.541 53.2454C156.786 52.6472 157.027 52.0775 157.265 51.5362C157.502 50.995 157.747 50.4609 157.999 49.9339H159.285C159.537 50.4609 159.782 50.995 160.02 51.5362C160.257 52.0775 160.495 52.6472 160.733 53.2454C160.978 53.8436 161.226 54.4774 161.478 55.1468C161.738 55.8162 162.008 56.5461 162.289 57.3366H160.819ZM158.615 51.3653C158.449 51.7428 158.259 52.2021 158.042 52.7433C157.834 53.2845 157.614 53.8721 157.383 54.5059H159.847C159.616 53.8721 159.393 53.281 159.177 52.7326C158.961 52.1843 158.774 51.7285 158.615 51.3653Z" fill="black"/>
<path d="M176.683 49.8592C176.978 49.8592 177.313 49.8734 177.688 49.9019C178.062 49.9232 178.415 49.9695 178.747 50.0407V57.3366H177.385V54.5593H176.596C176.503 54.5593 176.406 54.5593 176.305 54.5593C176.204 54.5521 176.11 54.5415 176.024 54.5272C175.88 54.6981 175.736 54.894 175.592 55.1147C175.448 55.3284 175.304 55.5598 175.159 55.8091C175.023 56.0512 174.882 56.304 174.738 56.5675C174.601 56.8239 174.468 57.0802 174.338 57.3366H172.891C173.02 57.0589 173.161 56.7776 173.312 56.4927C173.463 56.2079 173.614 55.9337 173.766 55.6702C173.924 55.3996 174.079 55.1503 174.23 54.9225C174.389 54.6875 174.533 54.4881 174.662 54.3243C174.173 54.1462 173.813 53.8827 173.582 53.5338C173.352 53.1848 173.236 52.754 173.236 52.2413C173.236 51.8425 173.316 51.4935 173.474 51.1944C173.64 50.8953 173.87 50.6496 174.165 50.4573C174.468 50.258 174.832 50.1084 175.257 50.0087C175.682 49.909 176.157 49.8592 176.683 49.8592ZM176.586 51.0235C176.312 51.0235 176.056 51.0449 175.819 51.0876C175.588 51.1232 175.386 51.1873 175.213 51.2799C175.041 51.3724 174.904 51.4971 174.803 51.6537C174.709 51.8104 174.662 52.0027 174.662 52.2306C174.662 52.4727 174.709 52.6721 174.803 52.8288C174.904 52.9854 175.044 53.1101 175.224 53.2026C175.412 53.2952 175.635 53.3593 175.894 53.3949C176.161 53.4305 176.46 53.4483 176.791 53.4483H177.385V51.0555C177.133 51.0342 176.867 51.0235 176.586 51.0235Z" fill="black"/>
<path d="M207.633 57.3366C207.446 57.0518 207.23 56.7527 206.985 56.4393C206.74 56.126 206.481 55.8233 206.207 55.5313C205.94 55.2394 205.663 54.9616 205.375 54.6981C205.087 54.4346 204.802 54.2068 204.521 54.0145V57.3366H203.16V49.9339H204.521V52.989C204.759 52.754 205.008 52.5047 205.267 52.2413C205.526 51.9706 205.782 51.7 206.034 51.4294C206.293 51.1517 206.538 50.8846 206.769 50.6283C206.999 50.3719 207.208 50.1404 207.395 49.9339H209.027C208.789 50.2045 208.537 50.4858 208.271 50.7778C208.004 51.0698 207.73 51.3653 207.449 51.6644C207.169 51.9564 206.884 52.2484 206.596 52.5404C206.315 52.8323 206.038 53.1101 205.764 53.3736C206.066 53.6014 206.373 53.8685 206.682 54.1747C206.999 54.4738 207.309 54.7978 207.612 55.1468C207.914 55.4886 208.202 55.8482 208.476 56.2257C208.757 56.596 209.012 56.9663 209.243 57.3366H207.633Z" fill="black"/>
<path d="M223.341 51.0876C223.319 51.5718 223.294 52.0668 223.265 52.5724C223.236 53.0709 223.182 53.5552 223.103 54.0252C223.031 54.4881 222.923 54.926 222.779 55.3391C222.635 55.7521 222.437 56.1153 222.185 56.4286C221.933 56.7348 221.616 56.9805 221.234 57.1657C220.859 57.3508 220.398 57.4505 219.851 57.4648L219.7 56.2898C219.959 56.2613 220.186 56.2114 220.38 56.1402C220.575 56.069 220.744 55.9764 220.888 55.8625C221.032 55.7414 221.158 55.5954 221.266 55.4245C221.374 55.2465 221.468 55.04 221.547 54.805C221.742 54.2495 221.871 53.5552 221.936 52.7219C222.001 51.8887 222.033 50.9594 222.033 49.9339H226.712V57.3366H225.34V51.0876H223.341Z" fill="black"/>
<path d="M238.555 57.3366V49.9339H239.906V54.8477C240.151 54.4631 240.428 54.0501 240.738 53.6086C241.055 53.1599 241.379 52.7148 241.71 52.2733C242.049 51.8318 242.384 51.4081 242.715 51.0021C243.046 50.5891 243.356 50.233 243.644 49.9339H244.757V57.3366H243.417V52.0383C243.115 52.3944 242.794 52.7967 242.456 53.2454C242.124 53.6869 241.797 54.1462 241.473 54.6234C241.148 55.0934 240.835 55.5634 240.533 56.0334C240.23 56.4963 239.956 56.9307 239.711 57.3366H238.555Z" fill="black"/>
<path d="M261.215 49.9339H262.576V57.3366H261.215V54.0572H257.963V57.3366H256.601V49.9339H257.963V52.8929H261.215V49.9339Z" fill="black"/>
<path d="M274.415 57.3366V49.9339H275.766V54.8477C276.01 54.4631 276.288 54.0501 276.597 53.6086C276.914 53.1599 277.239 52.7148 277.57 52.2733C277.908 51.8318 278.243 51.4081 278.575 51.0021C278.906 50.5891 279.216 50.233 279.504 49.9339H280.617V57.3366H279.277V52.0383C278.974 52.3944 278.654 52.7967 278.315 53.2454C277.984 53.6869 277.656 54.1462 277.332 54.6234C277.008 55.0934 276.695 55.5634 276.392 56.0334C276.09 56.4963 275.816 56.9307 275.571 57.3366H274.415Z" fill="black"/>
<path d="M296.934 57.3366C296.747 57.0518 296.53 56.7527 296.286 56.4393C296.041 56.126 295.781 55.8233 295.508 55.5313C295.241 55.2394 294.964 54.9616 294.676 54.6981C294.388 54.4346 294.103 54.2068 293.822 54.0145V57.3366H292.461V49.9339H293.822V52.989C294.06 52.754 294.308 52.5047 294.568 52.2413C294.827 51.9706 295.083 51.7 295.335 51.4294C295.594 51.1517 295.839 50.8846 296.069 50.6283C296.3 50.3719 296.509 50.1404 296.696 49.9339H298.328C298.09 50.2045 297.838 50.4858 297.571 50.7778C297.305 51.0698 297.031 51.3653 296.75 51.6644C296.469 51.9564 296.185 52.2484 295.897 52.5404C295.616 52.8323 295.338 53.1101 295.065 53.3736C295.367 53.6014 295.673 53.8685 295.983 54.1747C296.3 54.4738 296.61 54.7978 296.912 55.1468C297.215 55.4886 297.503 55.8482 297.777 56.2257C298.057 56.596 298.313 56.9663 298.544 57.3366H296.934Z" fill="black"/>
<path d="M314.844 57.3366C314.743 57.0446 314.638 56.7562 314.53 56.4714C314.422 56.1865 314.318 55.8945 314.217 55.5954H311.062C310.961 55.8945 310.857 56.1901 310.749 56.482C310.648 56.7669 310.547 57.0518 310.446 57.3366H309.031C309.312 56.5461 309.578 55.8162 309.83 55.1468C310.082 54.4774 310.327 53.8436 310.565 53.2454C310.81 52.6472 311.051 52.0775 311.289 51.5362C311.527 50.995 311.772 50.4609 312.024 49.9339H313.309C313.561 50.4609 313.806 50.995 314.044 51.5362C314.282 52.0775 314.519 52.6472 314.757 53.2454C315.002 53.8436 315.251 54.4774 315.503 55.1468C315.762 55.8162 316.032 56.5461 316.313 57.3366H314.844ZM312.64 51.3653C312.474 51.7428 312.283 52.2021 312.067 52.7433C311.858 53.2845 311.638 53.8721 311.408 54.5059H313.871C313.641 53.8721 313.417 53.281 313.201 52.7326C312.985 52.1843 312.798 51.7285 312.64 51.3653Z" fill="black"/>
<defs>
<radialGradient id="paint0_radial" cx="0" cy="0" r="1" gradientUnits="userSpaceOnUse" gradientTransform="translate(140.021 26.25) rotate(90) scale(9.24296 8.38709)">
<stop stop-color="#70A9AD"/>
<stop offset="1" stop-color="#98D7DC"/>
</radialGradient>
</defs>
</svg>
