<?xml version="1.0" encoding="utf-8"?>
<!-- Generator: Adobe Illustrator 24.3.0, SVG Export Plug-In . SVG Version: 6.00 Build 0)  -->
<svg version="1.1" id="Layer_1" xmlns="http://www.w3.org/2000/svg" xmlns:xlink="http://www.w3.org/1999/xlink" x="0px" y="0px"
	 viewBox="0 0 334 65" style="enable-background:new 0 0 334 65;" xml:space="preserve">
<style type="text/css">
	.st0{fill:#FFFFFF;}
	.st1{fill-rule:evenodd;clip-rule:evenodd;fill:url(#SVGID_1_);}
</style>
<g>
	<path class="st0" d="M8.9,61.3c-0.4,0-0.8,0-1.2-0.1c-0.4,0-0.8-0.1-1.1-0.2v-7.3c0.2,0,0.3-0.1,0.5-0.1c0.2,0,0.4-0.1,0.6-0.1
		c0.2,0,0.4,0,0.6,0c0.2,0,0.4,0,0.5,0c0.5,0,0.9,0,1.3,0.1c0.4,0.1,0.7,0.2,1,0.3c0.3,0.2,0.5,0.4,0.7,0.6s0.3,0.6,0.3,1
		c0,0.4-0.1,0.7-0.3,0.9S11.3,57,11,57.2c0.5,0.2,0.8,0.4,1,0.7c0.2,0.3,0.3,0.7,0.3,1.1c0,0.8-0.3,1.4-0.9,1.7
		C11,61.1,10.1,61.3,8.9,61.3z M8,57.9v2.3c0.2,0,0.3,0,0.5,0c0.2,0,0.3,0,0.5,0c0.3,0,0.6,0,0.8-0.1c0.3,0,0.5-0.1,0.6-0.2
		c0.2-0.1,0.3-0.2,0.4-0.4c0.1-0.2,0.2-0.4,0.2-0.6c0-0.4-0.2-0.7-0.5-0.9c-0.3-0.2-0.8-0.3-1.3-0.3C9.2,57.9,8,57.9,8,57.9z
		 M8,56.8h1c0.5,0,0.9-0.1,1.2-0.2s0.5-0.4,0.5-0.8c0-0.4-0.2-0.6-0.5-0.8c-0.3-0.2-0.7-0.2-1.2-0.2c-0.2,0-0.4,0-0.6,0
		c-0.2,0-0.3,0-0.4,0L8,56.8L8,56.8z"/>
	<path class="st0" d="M24.1,61.2v-7.5h1.4v5c0.3-0.4,0.5-0.8,0.9-1.3c0.3-0.5,0.7-0.9,1-1.4c0.4-0.5,0.7-0.9,1-1.3
		c0.3-0.4,0.7-0.8,0.9-1.1h1.1v7.5H29v-5.4c-0.3,0.4-0.6,0.8-1,1.2c-0.3,0.5-0.7,0.9-1,1.4c-0.3,0.5-0.7,1-1,1.4
		c-0.3,0.5-0.6,0.9-0.8,1.3C25.2,61.2,24.1,61.2,24.1,61.2z"/>
	<path class="st0" d="M44.6,53.6c1.1,0,1.9,0.2,2.6,0.6c0.6,0.4,0.9,1,0.9,1.9c0,0.4-0.1,0.8-0.3,1.1c-0.2,0.3-0.4,0.6-0.7,0.8
		s-0.7,0.3-1.1,0.4c-0.4,0.1-0.9,0.2-1.5,0.2h-0.7v2.7h-1.4v-7.4c0.3-0.1,0.7-0.1,1.1-0.2C43.9,53.7,44.2,53.6,44.6,53.6z
		 M44.7,54.8c-0.4,0-0.6,0-0.9,0v2.6h0.7c0.7,0,1.2-0.1,1.5-0.3c0.4-0.2,0.5-0.5,0.5-1.1c0-0.3-0.1-0.5-0.2-0.6
		c-0.1-0.2-0.2-0.3-0.4-0.4c-0.2-0.1-0.4-0.2-0.6-0.2C45.2,54.9,44.9,54.8,44.7,54.8z"/>
	<path class="st0" d="M64.8,53.7v1.2h-2.3v6.3H61v-6.3h-2.3v-1.2H64.8z"/>
	<path class="st0" d="M80,59c-0.2,0.4-0.4,0.8-0.6,1.1c-0.2,0.3-0.4,0.6-0.6,0.7c-0.2,0.2-0.5,0.3-0.8,0.4c-0.3,0.1-0.6,0.2-0.9,0.2
		c-0.2,0-0.4,0-0.7-0.1c-0.2-0.1-0.4-0.1-0.6-0.2l0.3-1.1c0.2,0.1,0.3,0.1,0.4,0.2c0.2,0,0.3,0.1,0.5,0.1c0.3,0,0.6-0.1,0.8-0.2
		s0.4-0.4,0.6-0.8c-0.3-0.5-0.6-1-0.9-1.5c-0.3-0.5-0.5-1-0.8-1.5c-0.3-0.5-0.5-0.9-0.7-1.4c-0.2-0.4-0.4-0.8-0.5-1.2h1.5
		c0.1,0.3,0.3,0.6,0.4,1c0.2,0.3,0.3,0.7,0.5,1.1c0.2,0.4,0.4,0.7,0.6,1.1c0.2,0.4,0.4,0.8,0.6,1.1c0.3-0.7,0.5-1.3,0.8-2.1
		c0.3-0.7,0.5-1.5,0.7-2.2h1.5c-0.2,0.5-0.4,1-0.5,1.5s-0.4,0.9-0.5,1.4c-0.2,0.4-0.3,0.8-0.5,1.2C80.3,58.2,80.1,58.6,80,59z"/>
	<path class="st0" d="M97.7,61.2c-0.1-0.3-0.2-0.6-0.3-0.9c-0.1-0.3-0.2-0.6-0.3-0.9h-3.2c-0.1,0.3-0.2,0.6-0.3,0.9
		c-0.1,0.3-0.2,0.6-0.3,0.9h-1.4c0.3-0.8,0.6-1.5,0.8-2.2c0.3-0.7,0.5-1.3,0.8-1.9c0.3-0.6,0.5-1.2,0.7-1.7c0.3-0.6,0.5-1.1,0.8-1.6
		h1.3c0.3,0.5,0.5,1.1,0.8,1.6c0.3,0.6,0.5,1.1,0.7,1.7c0.3,0.6,0.5,1.3,0.8,1.9c0.3,0.7,0.5,1.4,0.8,2.2H97.7z M95.4,55.2
		c-0.2,0.4-0.4,0.9-0.6,1.4c-0.2,0.6-0.4,1.1-0.7,1.8h2.5c-0.2-0.7-0.5-1.2-0.7-1.8C95.8,56,95.6,55.5,95.4,55.2z"/>
	<path class="st0" d="M113.5,54.9c0,0.5-0.1,1-0.1,1.5c0,0.5-0.1,1-0.2,1.5c-0.1,0.5-0.2,0.9-0.3,1.3s-0.4,0.8-0.6,1.1
		c-0.3,0.3-0.6,0.6-1,0.8c-0.4,0.2-0.9,0.3-1.4,0.3l-0.2-1.2c0.3,0,0.5-0.1,0.7-0.2c0.2-0.1,0.4-0.2,0.5-0.3
		c0.2-0.1,0.3-0.3,0.4-0.5c0.1-0.2,0.2-0.4,0.3-0.6c0.2-0.6,0.3-1.3,0.4-2.1c0.1-0.9,0.1-1.8,0.1-2.8h4.7v7.5h-1.4v-6.4L113.5,54.9
		L113.5,54.9z"/>
	<path class="st0" d="M134.6,58.9c0,0.8-0.3,1.4-0.9,1.8c-0.6,0.4-1.5,0.6-2.6,0.6c-0.3,0-0.7,0-1-0.1c-0.4,0-0.8-0.1-1.1-0.2v-7.4
		h1.4v2.7c0.1,0,0.3,0,0.4,0s0.2,0,0.3,0C133.4,56.4,134.6,57.2,134.6,58.9z M130.9,57.6c-0.1,0-0.2,0-0.3,0s-0.2,0-0.3,0v2.5
		c0.1,0,0.2,0,0.4,0c0.2,0,0.3,0,0.5,0c0.3,0,0.5,0,0.7-0.1c0.3-0.1,0.5-0.1,0.6-0.2c0.2-0.1,0.3-0.2,0.4-0.4
		c0.1-0.2,0.2-0.4,0.2-0.6s-0.1-0.5-0.2-0.6c-0.1-0.2-0.3-0.3-0.5-0.4c-0.2-0.1-0.4-0.2-0.7-0.2C131.6,57.6,131.3,57.6,130.9,57.6z"
		/>
	<path class="st0" d="M150.8,53.7h1.4v7.5h-1.4v-3.3h-3.3v3.3h-1.4v-7.5h1.4v3h3.3V53.7z"/>
	<path class="st0" d="M169.3,61.2c-0.1-0.3-0.2-0.6-0.3-0.9c-0.1-0.3-0.2-0.6-0.3-0.9h-3.2c-0.1,0.3-0.2,0.6-0.3,0.9
		c-0.1,0.3-0.2,0.6-0.3,0.9h-1.4c0.3-0.8,0.6-1.5,0.8-2.2s0.5-1.3,0.8-1.9c0.3-0.6,0.5-1.2,0.7-1.7c0.3-0.6,0.5-1.1,0.8-1.6h1.3
		c0.3,0.5,0.5,1.1,0.8,1.6c0.3,0.6,0.5,1.1,0.7,1.7c0.3,0.6,0.5,1.3,0.8,1.9c0.3,0.7,0.5,1.4,0.8,2.2H169.3z M167,55.2
		c-0.2,0.4-0.4,0.9-0.6,1.4c-0.2,0.6-0.4,1.1-0.7,1.8h2.5c-0.2-0.7-0.5-1.2-0.7-1.8C167.4,56,167.2,55.5,167,55.2z"/>
	<path class="st0" d="M185.4,53.6c0.3,0,0.6,0,1,0.1c0.4,0,0.7,0.1,1.1,0.2v7.4h-1.4v-2.8h-0.8c-0.1,0-0.2,0-0.3,0s-0.2,0-0.3,0
		c-0.2,0.2-0.3,0.4-0.4,0.6c-0.2,0.2-0.3,0.5-0.4,0.7s-0.3,0.5-0.4,0.8c-0.2,0.3-0.3,0.5-0.4,0.8h-1.5c0.1-0.3,0.3-0.6,0.4-0.9
		s0.3-0.6,0.5-0.8c0.2-0.3,0.3-0.5,0.5-0.8c0.2-0.2,0.3-0.4,0.4-0.6c-0.5-0.2-0.9-0.5-1.1-0.8c-0.2-0.4-0.4-0.8-0.4-1.3
		c0-0.4,0.1-0.8,0.3-1.1c0.2-0.3,0.4-0.6,0.7-0.8c0.3-0.2,0.7-0.4,1.1-0.5C184.4,53.7,184.9,53.6,185.4,53.6z M185.3,54.8
		c-0.3,0-0.5,0-0.8,0.1c-0.2,0-0.4,0.1-0.6,0.2c-0.2,0.1-0.3,0.2-0.4,0.4c-0.1,0.2-0.2,0.4-0.2,0.6c0,0.3,0.1,0.5,0.2,0.6
		c0.1,0.2,0.3,0.3,0.4,0.4c0.2,0.1,0.4,0.2,0.7,0.2c0.3,0,0.6,0.1,0.9,0.1h0.6v-2.4C185.9,54.8,185.6,54.8,185.3,54.8z"/>
	<path class="st0" d="M216.9,61.2c-0.2-0.3-0.4-0.6-0.7-0.9c-0.3-0.3-0.5-0.6-0.8-0.9c-0.3-0.3-0.6-0.6-0.9-0.9
		c-0.3-0.3-0.6-0.5-0.9-0.7v3.4h-1.4v-7.5h1.4v3.1c0.3-0.2,0.5-0.5,0.8-0.8c0.3-0.3,0.5-0.6,0.8-0.8c0.3-0.3,0.5-0.6,0.8-0.8
		c0.2-0.3,0.5-0.5,0.6-0.7h1.7c-0.3,0.3-0.5,0.6-0.8,0.9c-0.3,0.3-0.6,0.6-0.8,0.9c-0.3,0.3-0.6,0.6-0.9,0.9
		c-0.3,0.3-0.6,0.6-0.9,0.9c0.3,0.2,0.6,0.5,0.9,0.8c0.3,0.3,0.6,0.6,0.9,1c0.3,0.4,0.6,0.7,0.9,1.1c0.3,0.4,0.6,0.8,0.8,1.1
		L216.9,61.2L216.9,61.2z"/>
	<path class="st0" d="M232.8,54.9c0,0.5-0.1,1-0.1,1.5c0,0.5-0.1,1-0.2,1.5c-0.1,0.5-0.2,0.9-0.3,1.3c-0.2,0.4-0.4,0.8-0.6,1.1
		c-0.3,0.3-0.6,0.6-1,0.8c-0.4,0.2-0.9,0.3-1.4,0.3l-0.2-1.2c0.3,0,0.5-0.1,0.7-0.2c0.2-0.1,0.4-0.2,0.5-0.3
		c0.2-0.1,0.3-0.3,0.4-0.5s0.2-0.4,0.3-0.6c0.2-0.6,0.3-1.3,0.4-2.1c0.1-0.9,0.1-1.8,0.1-2.8h4.7v7.5h-1.4v-6.4L232.8,54.9
		L232.8,54.9z"/>
	<path class="st0" d="M248.3,61.2v-7.5h1.4v5c0.3-0.4,0.5-0.8,0.9-1.3c0.3-0.5,0.7-0.9,1-1.4c0.4-0.5,0.7-0.9,1-1.3
		c0.3-0.4,0.7-0.8,0.9-1.1h1.1v7.5h-1.4v-5.4c-0.3,0.4-0.6,0.8-1,1.2c-0.3,0.5-0.7,0.9-1,1.4s-0.7,1-1,1.4c-0.3,0.5-0.6,0.9-0.8,1.3
		C249.4,61.2,248.3,61.2,248.3,61.2z"/>
	<path class="st0" d="M271.4,53.7h1.4v7.5h-1.4v-3.3h-3.3v3.3h-1.4v-7.5h1.4v3h3.3V53.7z"/>
	<path class="st0" d="M284.8,61.2v-7.5h1.4v5c0.3-0.4,0.5-0.8,0.8-1.3c0.3-0.5,0.7-0.9,1-1.4c0.4-0.5,0.7-0.9,1-1.3
		c0.3-0.4,0.7-0.8,0.9-1.1h1.1v7.5h-1.4v-5.4c-0.3,0.4-0.6,0.8-1,1.2c-0.3,0.5-0.7,0.9-1,1.4c-0.3,0.5-0.7,1-1,1.4
		c-0.3,0.5-0.6,0.9-0.8,1.3C285.9,61.2,284.8,61.2,284.8,61.2z"/>
	<path class="st0" d="M307.7,61.2c-0.2-0.3-0.4-0.6-0.7-0.9c-0.3-0.3-0.5-0.6-0.8-0.9c-0.3-0.3-0.6-0.6-0.9-0.9
		c-0.3-0.3-0.6-0.5-0.9-0.7v3.4h-1.4v-7.5h1.4v3.1c0.3-0.2,0.5-0.5,0.8-0.8c0.3-0.3,0.5-0.6,0.8-0.8s0.5-0.6,0.8-0.8
		c0.2-0.3,0.5-0.5,0.6-0.7h1.7c-0.3,0.3-0.5,0.6-0.8,0.9c-0.3,0.3-0.6,0.6-0.8,0.9c-0.3,0.3-0.6,0.6-0.9,0.9
		c-0.3,0.3-0.6,0.6-0.9,0.9c0.3,0.2,0.6,0.5,0.9,0.8c0.3,0.3,0.6,0.6,0.9,1c0.3,0.4,0.6,0.7,0.9,1.1c0.3,0.4,0.6,0.8,0.8,1.1
		L307.7,61.2L307.7,61.2z"/>
	<path class="st0" d="M325.9,61.2c-0.1-0.3-0.2-0.6-0.3-0.9c-0.1-0.3-0.2-0.6-0.3-0.9H322c-0.1,0.3-0.2,0.6-0.3,0.9
		c-0.1,0.3-0.2,0.6-0.3,0.9h-1.4c0.3-0.8,0.6-1.5,0.8-2.2s0.5-1.3,0.8-1.9c0.3-0.6,0.5-1.2,0.7-1.7c0.3-0.6,0.5-1.1,0.8-1.6h1.3
		c0.3,0.5,0.5,1.1,0.8,1.6c0.3,0.6,0.5,1.1,0.7,1.7c0.3,0.6,0.5,1.3,0.8,1.9s0.5,1.4,0.8,2.2H325.9z M323.6,55.2
		c-0.2,0.4-0.4,0.9-0.6,1.4c-0.2,0.6-0.4,1.1-0.7,1.8h2.5c-0.2-0.7-0.5-1.2-0.7-1.8C324,56,323.8,55.5,323.6,55.2z"/>
</g>
<radialGradient id="SVGID_1_" cx="-194.5575" cy="616.8993" r="3.9837" gradientTransform="matrix(2.524756e-16 2.3336 -2.1175 2.524756e-16 1436.3203 483.7501)" gradientUnits="userSpaceOnUse">
	<stop  offset="0" style="stop-color:#70A9AD"/>
	<stop  offset="1" style="stop-color:#98D7DC"/>
</radialGradient>
<path class="st1" d="M130,16.9c-7,0-12.7,5.7-12.7,12.8S123,42.5,130,42.5c1,0,2.1-0.2,3.1-0.4l2.4,1.3l3,1.6l0.1-3.4l0.1-2.6
	c2.5-2.3,4.1-5.7,4.1-9.3C142.7,22.6,137,16.9,130,16.9z M130,36.1c-3.5,0-6.4-2.8-6.4-6.4s2.9-6.4,6.4-6.4s6.4,2.9,6.4,6.4
	S133.5,36.1,130,36.1z"/>
<g>
	<path class="st0" d="M28.9,3.6c-2.1,0-3.8,1.7-3.8,3.8v10.3c-1.8-0.8-3.7-1.3-5.7-1.3C12,16.5,6,22.4,6,29.8
		c0,7.4,6,13.4,13.4,13.4s13.4-6,13.4-13.4V7.4C32.7,5.3,31,3.6,28.9,3.6z M31.4,29.8c0,6.7-5.4,12.1-12.1,12.1
		c-6.7,0-12.1-5.4-12.1-12.1c0-6.6,5.4-12,12.1-12c2,0,4,0.5,5.7,1.4v6.6c-1.3-1.8-3.4-3-5.7-3c-3.9,0-7,3.2-7,7s3.2,7,7,7
		s7-3.2,7-7V7.4c0-1.4,1.1-2.5,2.5-2.5c1.4,0,2.5,1.1,2.5,2.5V29.8z M25.1,29.9c0,3.2-2.6,5.7-5.7,5.7s-5.7-2.6-5.7-5.7
		c0-3.2,2.6-5.7,5.7-5.7C22.5,24.1,25.1,26.7,25.1,29.9z"/>
	<path class="st0" d="M80.4,23.8c2.1,0,4.1,1.2,5.1,3.1c0.1,0.2,0.3,0.4,0.6,0.4h7c0.2,0,0.4-0.1,0.5-0.3c0.1-0.2,0.2-0.4,0.1-0.6
		c-1.5-5.9-6.9-10-13.2-10c-7.5,0-13.6,6-13.6,13.4s6.1,13.4,13.6,13.4c6.2,0,11.7-4.1,13.2-10c0.1-0.2,0-0.4-0.1-0.6
		s-0.3-0.3-0.5-0.3h-7.2c-0.2,0-0.4,0.1-0.6,0.3c-1.1,1.7-3,2.8-5,2.8c-3.2,0-5.8-2.6-5.8-5.8C74.5,26.4,77.2,23.8,80.4,23.8z
		 M73.2,29.6c0,3.9,3.2,7.1,7.1,7.1c2.3,0,4.5-1.1,5.9-3.1h6c-1.6,4.9-6.3,8.2-11.7,8.2c-6.8,0-12.2-5.4-12.2-12.1
		s5.5-12.1,12.2-12.1c5.4,0,10,3.3,11.7,8.2h-5.8c-1.3-2.1-3.6-3.4-6.1-3.4C76.4,22.5,73.2,25.7,73.2,29.6z"/>
	<path class="st0" d="M49.9,16.4c-7.4,0-13.4,6-13.4,13.4s6,13.4,13.4,13.4s13.4-6,13.4-13.4S57.3,16.4,49.9,16.4z M49.9,41.9
		c-6.7,0-12.1-5.4-12.1-12.1s5.4-12.1,12.1-12.1S62,23.1,62,29.8S56.6,41.9,49.9,41.9z"/>
	<path class="st0" d="M49.9,22.8c-3.9,0-7,3.2-7,7s3.2,7,7,7s7-3.2,7-7C56.9,25.9,53.8,22.8,49.9,22.8z M49.9,35.5
		c-3.2,0-5.7-2.6-5.7-5.7s2.6-5.7,5.7-5.7s5.7,2.6,5.7,5.7C55.6,32.9,53.1,35.5,49.9,35.5z"/>
	<path class="st0" d="M112.2,24.2c0.4,0,0.7-0.3,0.7-0.7v-6.3c0-0.4-0.3-0.7-0.7-0.7h-7V7.4c0-2.1-1.7-3.8-3.8-3.8
		c-2.1,0-3.8,1.7-3.8,3.8v22.3c0,0.5,0,1,0.1,1.4c0,0.1,0,0.1,0,0.2c0.1,0.4,0.1,0.7,0.2,1.1c1.3,6.2,6.8,10.7,13.1,10.7h0.2
		c0.4,0,0.8,0,1.1-0.1c0.3,0,0.6-0.3,0.6-0.7v-6.6c0-0.2-0.1-0.4-0.2-0.5c-0.2-0.1-0.4-0.2-0.5-0.1c-0.4,0.1-0.8,0.1-1.1,0.1
		c-2.1,0-4.1-1.2-5.1-3c-0.4-0.8-0.6-1.7-0.6-2.6v-5.6H112.2z M111.5,17.9v5h-6.3v-5H111.5z M110.9,36.7c0.2,0,0.4,0,0.6,0v5.2
		c-0.1,0-0.3,0-0.4,0h-0.2c-5.7,0-10.7-4.1-11.8-9.6c-0.1-0.3-0.1-0.6-0.2-1c0,0,0-0.2,0-0.2c-0.1-0.5-0.1-0.9-0.1-1.4V7.4
		c0-1.4,1.1-2.5,2.5-2.5s2.5,1.1,2.5,2.5v9.8v6.3v6.3c0,1.1,0.3,2.1,0.8,3.2C105.9,35.3,108.3,36.7,110.9,36.7z"/>
</g>
<g>
	<path class="st0" d="M293.9,3.6c-2,0-3.6,1.6-3.6,3.6c0,2,1.7,3.6,3.6,3.6s3.6-1.7,3.6-3.6C297.5,5.2,295.8,3.6,293.9,3.6z
		 M293.9,9.5c-1.3,0-2.3-1.1-2.3-2.3c0-1.3,1-2.3,2.3-2.3c1.3,0,2.3,1.1,2.3,2.3C296.2,8.5,295.1,9.5,293.9,9.5z"/>
	<path class="st0" d="M293.9,16.4c-2,0-3.6,1.7-3.6,3.7v22.4c0,0.4,0.3,0.7,0.7,0.7h5.9c0.4,0,0.7-0.3,0.7-0.7V20.1
		C297.5,18.1,295.8,16.4,293.9,16.4z M296.2,41.9h-4.6V20.1c0-1.3,1.1-2.4,2.3-2.4c1.3,0,2.3,1.1,2.3,2.4L296.2,41.9L296.2,41.9z"/>
	<path class="st0" d="M252.2,10.8c2,0,3.6-1.7,3.6-3.6s-1.7-3.6-3.6-3.6c-2,0-3.6,1.6-3.6,3.6C248.6,9.2,250.3,10.8,252.2,10.8z
		 M252.2,4.9c1.3,0,2.3,1.1,2.3,2.3s-1.1,2.3-2.3,2.3s-2.3-1.1-2.3-2.3C250,5.9,251,4.9,252.2,4.9z"/>
	<path class="st0" d="M252.2,16.4c-2,0-3.6,1.7-3.6,3.7v22.5c0,0.4,0.3,0.7,0.7,0.7h5.9c0.4,0,0.7-0.3,0.7-0.7V20
		C255.8,17.9,254.2,16.4,252.2,16.4z M254.6,41.9H250V20c0-1.3,1.1-2.4,2.3-2.4c1.2,0,2.2,1.1,2.3,2.4L254.6,41.9L254.6,41.9z"/>
	<path class="st0" d="M241.2,3.6c-2,0-3.6,1.7-3.6,3.7v35.2c0,0.4,0.3,0.7,0.7,0.7h5.9c0.4,0,0.7-0.3,0.7-0.7V7.3
		C244.9,5.3,243.2,3.6,241.2,3.6z M243.5,41.9h-4.6V7.3c0-1.3,1.1-2.4,2.3-2.4c1.3,0,2.3,1.1,2.3,2.4L243.5,41.9L243.5,41.9z"/>
	<path class="st0" d="M220.4,23.8c2.1,0,4.1,1.2,5.1,3.1c0.1,0.2,0.3,0.4,0.6,0.4h7c0.2,0,0.4-0.1,0.5-0.3c0.1-0.2,0.2-0.4,0.1-0.6
		c-1.5-5.9-7-10-13.2-10c-7.5,0-13.6,6-13.6,13.4s6.1,13.4,13.6,13.4c6.2,0,11.7-4.1,13.2-10c0.1-0.2,0-0.4-0.1-0.6
		c-0.1-0.2-0.3-0.3-0.5-0.3H226c-0.2,0-0.5,0.1-0.6,0.3c-1,1.7-2.9,2.7-4.9,2.7c-3.2,0-5.8-2.6-5.8-5.8
		C214.6,26.4,217.2,23.8,220.4,23.8z M213.3,29.6c0,3.9,3.2,7.1,7.1,7.1c2.4,0,4.6-1.2,5.9-3.1h6c-1.6,4.9-6.3,8.2-11.7,8.2
		c-6.8,0-12.2-5.4-12.2-12.1s5.5-12.1,12.2-12.1c5.3,0,10,3.3,11.7,8.2h-5.8c-1.3-2.1-3.6-3.4-6.1-3.4
		C216.5,22.5,213.3,25.7,213.3,29.6z"/>
	<path class="st0" d="M200.5,35.9c-2,0-3.6,1.6-3.6,3.6c0,2,1.7,3.6,3.6,3.6c2,0,3.6-1.7,3.6-3.6C204.1,37.6,202.5,35.9,200.5,35.9z
		 M200.5,41.9c-1.3,0-2.3-1.1-2.3-2.3c0-1.3,1-2.3,2.3-2.3c1.3,0,2.3,1.1,2.3,2.3C202.8,40.8,201.8,41.9,200.5,41.9z"/>
	<path class="st0" d="M327.4,32.3h-7.2c-0.2,0-0.4,0.1-0.6,0.3c-1.1,1.7-3,2.8-5,2.8c-3.2,0-5.8-2.6-5.8-5.8s2.6-5.8,5.8-5.8
		c2.1,0,4.1,1.2,5.1,3.1c0.1,0.2,0.3,0.4,0.6,0.4h7c0.2,0,0.4-0.1,0.5-0.3c0.1-0.2,0.2-0.4,0.1-0.6c-1.5-5.9-7-10-13.2-10
		c-7.5,0-13.6,6-13.6,13.4s6.1,13.4,13.6,13.4c6.2,0,11.7-4.1,13.2-10c0.1-0.2,0-0.4-0.1-0.6C327.8,32.4,327.6,32.3,327.4,32.3z
		 M314.8,41.9c-6.8,0-12.2-5.4-12.2-12.1s5.5-12.1,12.2-12.1c5.3,0,10,3.3,11.7,8.2h-5.8c-1.3-2.1-3.6-3.4-6.1-3.4
		c-3.9,0-7.1,3.2-7.1,7.1c0,3.9,3.2,7.1,7.1,7.1c2.3,0,4.5-1.1,5.9-3.1h6C324.8,38.5,320.2,41.9,314.8,41.9z"/>
	<path class="st0" d="M273.2,16.4h-0.5c-2,0-3.9,0.5-5.8,1.4V17c0-0.2-0.1-0.3-0.2-0.5c-0.1-0.1-0.3-0.2-0.5-0.2h-5.9
		c-0.4,0-0.7,0.3-0.7,0.7v25.5c0,0.2,0.1,0.3,0.2,0.5c0.1,0.1,0.3,0.2,0.5,0.2h5.9c0.4,0,0.7-0.3,0.7-0.7v-13
		c0.3-3.1,2.9-5.7,5.8-5.7h0.4c3.1,0,5.8,2.8,5.8,6.1v12.6c0,0.4,0.3,0.7,0.7,0.7h6.2c0.4,0,0.7-0.3,0.7-0.7V29.6l0,0
		C286.3,22.2,280.6,16.4,273.2,16.4z M261,41.9V17.7h4.6v24.2H261z M285.1,41.9h-4.9V29.9c0-4-3.3-7.4-7.1-7.4h-0.4
		c-2.3,0-4.5,1.3-5.8,3.2v-6.5c1.9-1,3.8-1.6,5.8-1.6h0.5c6.6,0,11.8,5.3,11.9,11.9L285.1,41.9L285.1,41.9z"/>
	<path class="st0" d="M161.8,16.4l-0.2,0c-0.2,0-0.4,0-0.5,0h-0.5c-2,0-3.9,0.5-5.8,1.4V17c0-0.2-0.1-0.3-0.2-0.5s-0.3-0.2-0.5-0.2
		h-5.9c-0.4,0-0.7,0.3-0.7,0.7v25.5c0,0.2,0.1,0.3,0.2,0.5c0.1,0.1,0.3,0.2,0.5,0.2h5.9c0.4,0,0.7-0.3,0.7-0.7v-13
		c0.3-3.1,2.9-5.7,5.8-5.7h0.4c0.2,0,0.5,0,0.7,0.1c0.2,0,0.4,0,0.5-0.2c0.2-0.1,0.2-0.3,0.2-0.5v-6.2
		C162.5,16.7,162.2,16.4,161.8,16.4z M148.9,41.9V17.7h4.6v24.2H148.9z M161.2,22.6c-0.1,0-0.1,0-0.2,0h-0.4c-2.3,0-4.5,1.3-5.8,3.2
		v-6.5c1.9-1,3.8-1.6,5.8-1.6h0.5c0,0,0,0,0.1,0V22.6z"/>
	<path class="st0" d="M185.5,18.5c-2.1-1.4-4.6-2.1-7.1-2.1c-7.4,0-13.4,6-13.4,13.4s6,13.4,13.4,13.4c2,0,3.9-0.5,5.7-1.3v0.6
		c0,0.4,0.3,0.7,0.7,0.7l0,0l0,0h6.4c0.4,0,0.7-0.3,0.7-0.7V29.8C191.8,25.2,189.5,21,185.5,18.5z M178.4,35.5
		c-3.2,0-5.7-2.6-5.7-5.7s2.6-5.7,5.7-5.7s5.7,2.6,5.7,5.7C184.1,32.9,181.5,35.5,178.4,35.5z M190.5,41.9h-5.1v-1.1l0,0v-11l0,0
		l0,0c0-3.9-3.2-7-7-7s-7,3.2-7,7s3.2,7,7,7c2.3,0,4.4-1.2,5.7-3v6.6c-1.8,1-3.7,1.5-5.7,1.5c-6.7,0-12.1-5.4-12.1-12.1
		s5.4-12.1,12.1-12.1c2.3,0,4.5,0.7,6.5,1.9c3.5,2.2,5.6,6.1,5.6,10.2V41.9z"/>
</g>
</svg>
