<svg width="334" height="58" viewBox="0 0 334 58" fill="none" xmlns="http://www.w3.org/2000/svg">
<path fill-rule="evenodd" clip-rule="evenodd" d="M284.775 1.69019C286.387 1.69019 287.745 3.0423 287.745 4.64793C287.745 6.25357 286.387 7.60568 284.775 7.60568C283.162 7.60568 281.804 6.25357 281.804 4.64793C281.804 3.0423 283.077 1.69019 284.775 1.69019Z" stroke="#F2F2F2" stroke-width="1.2" stroke-linejoin="round"/>
<path fill-rule="evenodd" clip-rule="evenodd" d="M287.745 17.4155C287.745 15.7602 286.387 14.3662 284.775 14.3662C283.162 14.3662 281.804 15.7602 281.804 17.4155V39.7186H287.745V17.4155Z" stroke="#F2F2F2" stroke-width="1.2" stroke-linejoin="round"/>
<path fill-rule="evenodd" clip-rule="evenodd" d="M243.183 1.69019C244.796 1.69019 246.154 3.0423 246.154 4.64793C246.154 6.25357 244.796 7.60568 243.183 7.60568C241.57 7.60568 240.212 6.25357 240.212 4.64793C240.212 3.0423 241.485 1.69019 243.183 1.69019Z" stroke="#F2F2F2" stroke-width="1.2" stroke-linejoin="round"/>
<path fill-rule="evenodd" clip-rule="evenodd" d="M243.183 14.3541C241.571 14.3541 240.213 15.7357 240.213 17.3762V39.7185H246.154V17.3762C246.069 15.7357 244.796 14.3541 243.183 14.3541Z" stroke="#F2F2F2" stroke-width="1.2" stroke-linejoin="round"/>
<path fill-rule="evenodd" clip-rule="evenodd" d="M235.119 4.7072C235.119 3.0694 233.761 1.69019 232.149 1.69019C230.536 1.69019 229.178 3.0694 229.178 4.7072V39.7184H235.119V4.7072Z" stroke="#F2F2F2" stroke-width="1.2" stroke-linejoin="round"/>
<path fill-rule="evenodd" clip-rule="evenodd" d="M211.353 33.2935C207.791 33.2935 204.853 30.4283 204.853 26.8686C204.853 23.3089 207.791 20.4438 211.353 20.4438C213.846 20.4438 215.983 21.8329 217.051 23.8298H224.085C222.66 18.4469 217.585 14.3662 211.531 14.3662C204.408 14.3662 198.621 20.0097 198.621 27.0423C198.621 33.988 204.408 39.7183 211.531 39.7183C217.585 39.7183 222.66 35.7245 224.085 30.2547H216.873C215.805 32.078 213.668 33.2935 211.353 33.2935Z" stroke="#F2F2F2" stroke-width="1.2" stroke-linejoin="round"/>
<path fill-rule="evenodd" clip-rule="evenodd" d="M191.406 33.8029C193.019 33.8029 194.377 35.155 194.377 36.7606C194.377 38.3662 193.019 39.7183 191.406 39.7183C189.793 39.7183 188.435 38.3662 188.435 36.7606C188.435 35.155 189.708 33.8029 191.406 33.8029Z" stroke="#F2F2F2" stroke-width="1.2" stroke-linejoin="round"/>
<path fill-rule="evenodd" clip-rule="evenodd" d="M305.57 33.2935C302.009 33.2935 299.071 30.4283 299.071 26.8686C299.071 23.3089 302.009 20.4438 305.57 20.4438C308.063 20.4438 310.2 21.8329 311.269 23.8298H318.302C316.878 18.4469 311.803 14.3662 305.748 14.3662C298.626 14.3662 292.838 20.0097 292.838 27.0423C292.838 33.988 298.626 39.7183 305.748 39.7183C311.803 39.7183 316.878 35.7245 318.302 30.2547H311.091C309.933 32.078 307.885 33.2935 305.57 33.2935Z" stroke="#F2F2F2" stroke-width="1.2" stroke-linejoin="round"/>
<path fill-rule="evenodd" clip-rule="evenodd" d="M251.248 14.3667H257.186L257.185 39.7051H251.247L251.248 14.3667Z" stroke="#F2F2F2" stroke-width="1.2" stroke-linejoin="round"/>
<path fill-rule="evenodd" clip-rule="evenodd" d="M276.711 26.8686C276.624 19.9228 271.132 14.3662 264.159 14.3662C264.072 14.3662 263.985 14.3662 263.897 14.3662C263.81 14.3662 263.723 14.3662 263.636 14.3662C261.282 14.3662 259.103 15.0608 257.186 16.1895V26.7818C257.447 23.3957 260.324 20.5306 263.636 20.5306C263.81 20.5306 263.897 20.5306 264.072 20.5306C267.558 20.5306 270.522 23.6562 270.522 27.2159V39.7183H276.711V26.8686Z" stroke="#F2F2F2" stroke-width="1.2" stroke-linejoin="round"/>
<path d="M73.4217 15.2059C75.2785 14.1462 77.4889 13.528 79.7878 13.528C86.8611 13.528 92.5199 19.1799 92.5199 26.1565C92.5199 33.1331 86.8611 38.8733 79.7878 38.8733C72.8028 38.8733 67.0557 33.2214 67.0557 26.1565C67.0557 26.1565 67.0557 4.1126 67.0557 4.02429C67.0557 2.25807 68.4703 0.845093 70.2387 0.845093C72.007 0.845093 73.4217 2.25807 73.4217 4.02429V15.2059ZM73.4217 15.2059V26.2448M73.4217 26.2448C73.4217 29.7772 76.2511 32.6032 79.7878 32.6032C83.3245 32.6032 86.1538 29.7772 86.1538 26.2448C86.1538 22.7124 83.3245 19.8864 79.7878 19.8864C76.2511 19.8864 73.4217 22.7124 73.4217 26.2448Z" stroke="#F2F2F2" stroke-width="1.2"/>
<path d="M116.711 15.2817C114.854 14.2254 112.644 13.6092 110.345 13.6092C103.36 13.6092 97.6127 19.243 97.6127 26.1972C97.6127 33.1514 103.271 38.8733 110.345 38.8733C117.33 38.8733 123.077 33.2395 123.077 26.1972C123.077 26.1972 123.077 4.10214 123.077 4.01411C123.077 2.25354 121.662 0.845093 119.894 0.845093C118.125 0.845093 116.711 2.25354 116.711 4.01411V15.2817ZM116.711 15.2817V26.2852M116.711 26.2852C116.711 29.8064 113.881 32.6233 110.345 32.6233C106.896 32.6233 103.979 29.8064 103.979 26.2852C103.979 22.7641 106.808 19.9472 110.345 19.9472C113.881 19.9472 116.711 22.7641 116.711 26.2852Z" stroke="#F2F2F2" stroke-width="1.2"/>
<path d="M42.9086 26.1972C42.9086 27.3259 43.172 28.4546 43.6989 29.3228H54.7626H57.3969H59.7677H61.5238C61.7872 28.2809 61.9629 27.239 61.9629 26.1972C61.9629 19.2514 56.2554 13.5211 49.2308 13.5211C42.2061 13.5211 36.4987 19.1646 36.4987 26.1972C36.4987 33.143 42.2061 38.8732 49.2308 38.8732C54.587 38.8732 59.153 35.8909 61.0848 31.2893H53.5333C52.3918 32.3312 50.8991 32.7089 49.2308 32.7089C45.7185 32.622 42.9086 29.7569 42.9086 26.1972ZM42.9086 26.1972C42.9086 22.6375 45.8063 19.7723 49.2308 19.7723C51.6016 19.7723 53.7089 21.0747 54.7626 23.0716H43.6989C43.172 24.0266 42.9086 25.0685 42.9086 26.1972Z" stroke="#F2F2F2" stroke-width="1.2" stroke-linejoin="round"/>
<path fill-rule="evenodd" clip-rule="evenodd" d="M171.459 32.4484C167.897 32.4484 164.959 29.5832 164.959 26.0235C164.959 22.4638 167.897 19.5987 171.459 19.5987C173.952 19.5987 176.089 20.9878 177.157 22.9848H184.191C182.766 17.5149 177.691 13.5211 171.637 13.5211C164.514 13.5211 158.727 19.1646 158.727 26.1972C158.727 33.143 164.514 38.8732 171.637 38.8732C177.691 38.8732 182.766 34.8794 184.191 29.4096H176.979C175.822 31.2329 173.774 32.4484 171.459 32.4484Z" stroke="#F2F2F2" stroke-width="1.2" stroke-linejoin="round"/>
<path fill-rule="evenodd" clip-rule="evenodd" d="M23.3151 25.8271L20.2388 13.5211H13.7133L10.637 25.8271L7.46748 13.5211H0.848755L7.28104 38.8732H13.993L17.0693 26.7523L19.9592 38.8732H26.6711L33.1034 13.5211H26.4847L23.3151 25.8271Z" stroke="#F2F2F2" stroke-width="1.2" stroke-miterlimit="1.30541" stroke-linejoin="round"/>
<path fill-rule="evenodd" clip-rule="evenodd" d="M140.902 13.5211C133.925 13.5211 128.17 19.2195 128.17 26.2129C128.17 33.2063 133.838 38.9046 140.902 38.9046C141.948 38.9046 142.995 38.732 143.954 38.5593L146.396 39.8544L149.361 41.4084L149.448 38.0412L149.535 35.4511C152.064 33.12 153.634 29.8391 153.634 26.2129C153.634 19.2195 147.878 13.5211 140.902 13.5211ZM140.902 32.5616C137.414 32.5616 134.536 29.7528 134.536 26.2129C134.536 22.673 137.414 19.8327 140.902 19.8327C144.39 19.8327 147.268 22.673 147.268 26.2129C147.268 29.7528 144.39 32.5616 140.902 32.5616Z" fill="url(#paint0_radial)"/>
<path d="M3.12107 57.422C2.72242 57.422 2.32014 57.4078 1.91424 57.3793C1.50834 57.3579 1.15318 57.3081 0.848755 57.2298V50.0407C1.00822 50.0122 1.17855 49.9873 1.35975 49.966C1.54096 49.9375 1.72579 49.9161 1.91424 49.9019C2.1027 49.8876 2.28753 49.8769 2.46873 49.8698C2.65719 49.8627 2.83477 49.8591 3.00148 49.8591C3.45811 49.8591 3.88213 49.8947 4.27354 49.966C4.66494 50.03 5.00198 50.1404 5.28467 50.2971C5.57459 50.4538 5.79929 50.6603 5.95875 50.9167C6.11821 51.173 6.19794 51.4899 6.19794 51.8674C6.19794 52.2163 6.11096 52.5154 5.93701 52.7647C5.7703 53.0139 5.53473 53.2133 5.2303 53.3629C5.68694 53.5124 6.02398 53.7332 6.24143 54.0251C6.45888 54.3171 6.5676 54.6874 6.5676 55.1361C6.5676 55.8981 6.28492 56.4713 5.71956 56.8559C5.1542 57.2333 4.28803 57.422 3.12107 57.422ZM2.19692 54.0038V56.2577C2.34914 56.2719 2.51222 56.2826 2.68618 56.2897C2.86014 56.2969 3.0196 56.3004 3.16456 56.3004C3.44724 56.3004 3.70818 56.2826 3.94737 56.247C4.19381 56.2114 4.40401 56.1509 4.57796 56.0654C4.75917 55.9728 4.90051 55.8518 5.00199 55.7022C5.11071 55.5527 5.16507 55.3604 5.16507 55.1254C5.16507 54.7052 5.00923 54.4133 4.69756 54.2495C4.38589 54.0857 3.95462 54.0038 3.40375 54.0038H2.19692ZM2.19692 52.9463H3.16456C3.68643 52.9463 4.09596 52.875 4.39313 52.7326C4.69031 52.5831 4.8389 52.3196 4.8389 51.9421C4.8389 51.5861 4.68306 51.3333 4.37139 51.1837C4.06696 51.0342 3.66831 50.9594 3.17543 50.9594C2.96523 50.9594 2.77678 50.9629 2.61007 50.9701C2.45061 50.9772 2.3129 50.9879 2.19692 51.0021V52.9463Z" fill="#F2F2F2"/>
<path d="M18.1056 57.3366V49.9339H19.4646V54.8477C19.7111 54.4631 19.9901 54.0501 20.3018 53.6085C20.6207 53.1599 20.9469 52.7148 21.2803 52.2733C21.621 51.8318 21.958 51.408 22.2915 51.0021C22.6249 50.5891 22.9365 50.233 23.2265 49.9339H24.3463V57.3366H22.9982V52.0383C22.6937 52.3943 22.3712 52.7967 22.0305 53.2453C21.6971 53.6869 21.3673 54.1462 21.0411 54.6233C20.715 55.0933 20.3997 55.5634 20.0952 56.0334C19.7908 56.4963 19.5154 56.9307 19.2689 57.3366H18.1056Z" fill="#F2F2F2"/>
<path d="M38.3959 49.8591C39.4904 49.8591 40.3276 50.055 40.9074 50.4466C41.4945 50.8383 41.7881 51.4508 41.7881 52.284C41.7881 52.7184 41.7084 53.0922 41.5489 53.4056C41.3967 53.7118 41.172 53.9646 40.8748 54.164C40.5776 54.3563 40.2152 54.4987 39.7876 54.5913C39.3599 54.6839 38.8707 54.7302 38.3198 54.7302H37.6349V57.3366H36.2649V50.0407C36.5839 49.9695 36.9354 49.9232 37.3196 49.9019C37.711 49.8734 38.0697 49.8591 38.3959 49.8591ZM38.4938 51.0235C38.1459 51.0235 37.8596 51.0342 37.6349 51.0555V53.5765H38.2981C38.9577 53.5765 39.465 53.4875 39.8202 53.3094C40.1754 53.1243 40.3529 52.7789 40.3529 52.2733C40.3529 52.0312 40.3058 51.8282 40.2116 51.6644C40.1174 51.5006 39.9869 51.3724 39.8202 51.2798C39.6535 51.1873 39.4542 51.1232 39.2222 51.0876C38.9975 51.0448 38.7547 51.0235 38.4938 51.0235Z" fill="#F2F2F2"/>
<path d="M58.4015 49.9339V51.0983H56.0857V57.3366H54.7049V51.0983H52.3891V49.9339H58.4015Z" fill="#F2F2F2"/>
<path d="M73.4345 55.1254C73.2533 55.5242 73.0648 55.8731 72.8691 56.1722C72.6806 56.4642 72.4704 56.7063 72.2385 56.8986C72.0138 57.0909 71.7601 57.2333 71.4774 57.3259C71.202 57.4185 70.8903 57.4648 70.5424 57.4648C70.3322 57.4648 70.1112 57.4434 69.8792 57.4007C69.6545 57.3579 69.4697 57.3045 69.3247 57.2404L69.5748 56.1295C69.7125 56.1865 69.8575 56.2328 70.0097 56.2684C70.1619 56.2969 70.3177 56.3111 70.4772 56.3111C70.8106 56.3111 71.086 56.2363 71.3035 56.0868C71.5282 55.9372 71.7347 55.6915 71.9232 55.3497C71.6188 54.8655 71.3252 54.3776 71.0425 53.8863C70.7671 53.3949 70.5098 52.9178 70.2706 52.4549C70.0314 51.9849 69.8103 51.5362 69.6074 51.1089C69.4117 50.6817 69.2341 50.29 69.0747 49.9339H70.6077C70.7236 50.2259 70.8541 50.5392 70.9991 50.8739C71.1513 51.2086 71.3107 51.554 71.4774 51.9101C71.6514 52.2662 71.8326 52.6293 72.0211 52.9997C72.2095 53.37 72.398 53.7403 72.5864 54.1106C72.8474 53.4768 73.0974 52.8003 73.3366 52.081C73.5758 51.3617 73.8005 50.646 74.0107 49.9339H75.4893C75.3154 50.4609 75.1414 50.9594 74.9675 51.4294C74.7935 51.8923 74.6195 52.3374 74.4456 52.7647C74.2789 53.1848 74.1085 53.5907 73.9346 53.9824C73.7679 54.367 73.6012 54.748 73.4345 55.1254Z" fill="#F2F2F2"/>
<path d="M90.9663 57.3366C90.8649 57.0446 90.7598 56.7562 90.651 56.4713C90.5423 56.1865 90.4372 55.8945 90.3357 55.5954H87.161C87.0596 55.8945 86.9545 56.19 86.8457 56.482C86.7443 56.7669 86.6428 57.0517 86.5413 57.3366H85.117C85.3997 56.5461 85.6679 55.8162 85.9216 55.1468C86.1753 54.4773 86.4217 53.8435 86.6609 53.2453C86.9073 52.6472 87.1502 52.0774 87.3893 51.5362C87.6285 50.995 87.875 50.4609 88.1287 49.9339H89.4225C89.6762 50.4609 89.9226 50.995 90.1618 51.5362C90.401 52.0774 90.6402 52.6472 90.8794 53.2453C91.1258 53.8435 91.3759 54.4773 91.6295 55.1468C91.8905 55.8162 92.1623 56.5461 92.445 57.3366H90.9663ZM88.7484 51.3653C88.5817 51.7427 88.3896 52.2021 88.1722 52.7433C87.962 53.2845 87.7409 53.872 87.5089 54.5058H89.9878C89.7559 53.872 89.5312 53.281 89.3137 52.7326C89.0963 52.1843 88.9078 51.7285 88.7484 51.3653Z" fill="#F2F2F2"/>
<path d="M106.612 51.0876C106.591 51.5718 106.565 52.0668 106.536 52.5724C106.507 53.0709 106.453 53.5551 106.373 54.0251C106.301 54.488 106.192 54.926 106.047 55.339C105.902 55.7521 105.703 56.1153 105.449 56.4286C105.195 56.7348 104.877 56.9805 104.492 57.1657C104.115 57.3508 103.652 57.4505 103.101 57.4648L102.948 56.2897C103.209 56.2613 103.438 56.2114 103.633 56.1402C103.829 56.069 103.999 55.9764 104.144 55.8625C104.289 55.7414 104.416 55.5954 104.525 55.4245C104.634 55.2465 104.728 55.0399 104.808 54.8049C105.003 54.2495 105.134 53.5551 105.199 52.7219C105.264 51.8887 105.297 50.9594 105.297 49.9339H110.005V57.3366H108.624V51.0876H106.612Z" fill="#F2F2F2"/>
<path d="M127.5 55.0079C127.5 55.7984 127.196 56.4001 126.587 56.8132C125.985 57.2191 125.137 57.422 124.043 57.422C123.738 57.422 123.394 57.4042 123.01 57.3686C122.633 57.333 122.271 57.2761 121.923 57.1977V49.9339H123.293V52.5937C123.416 52.5795 123.532 52.5724 123.641 52.5724C123.749 52.5724 123.862 52.5724 123.978 52.5724C126.326 52.5724 127.5 53.3842 127.5 55.0079ZM123.88 53.726C123.793 53.726 123.699 53.726 123.597 53.726C123.496 53.726 123.394 53.7332 123.293 53.7474V56.247C123.394 56.2541 123.51 56.2613 123.641 56.2684C123.778 56.2684 123.941 56.2684 124.13 56.2684C124.384 56.2684 124.626 56.2506 124.858 56.215C125.097 56.1722 125.304 56.1046 125.478 56.012C125.659 55.9123 125.804 55.7841 125.913 55.6275C126.022 55.4637 126.076 55.2571 126.076 55.0079C126.076 54.7586 126.022 54.5521 125.913 54.3883C125.811 54.2245 125.663 54.0928 125.467 53.9931C125.279 53.8934 125.05 53.8257 124.782 53.7901C124.514 53.7474 124.213 53.726 123.88 53.726Z" fill="#F2F2F2"/>
<path d="M143.546 49.9339H144.916V57.3366H143.546V54.0572H140.273V57.3366H138.904V49.9339H140.273V52.8928H143.546V49.9339Z" fill="#F2F2F2"/>
<path d="M161.831 57.3366C161.729 57.0446 161.624 56.7562 161.515 56.4713C161.407 56.1865 161.301 55.8945 161.2 55.5954H158.025C157.924 55.8945 157.819 56.19 157.71 56.482C157.608 56.7669 157.507 57.0517 157.406 57.3366H155.981C156.264 56.5461 156.532 55.8162 156.786 55.1468C157.039 54.4773 157.286 53.8435 157.525 53.2453C157.772 52.6472 158.014 52.0774 158.254 51.5362C158.493 50.995 158.739 50.4609 158.993 49.9339H160.287C160.54 50.4609 160.787 50.995 161.026 51.5362C161.265 52.0774 161.504 52.6472 161.744 53.2453C161.99 53.8435 162.24 54.4773 162.494 55.1468C162.755 55.8162 163.027 56.5461 163.309 57.3366H161.831ZM159.613 51.3653C159.446 51.7427 159.254 52.2021 159.036 52.7433C158.826 53.2845 158.605 53.872 158.373 54.5058H160.852C160.62 53.872 160.395 53.281 160.178 52.7326C159.961 52.1843 159.772 51.7285 159.613 51.3653Z" fill="#F2F2F2"/>
<path d="M177.794 49.8591C178.091 49.8591 178.428 49.8734 178.805 49.9019C179.182 49.9232 179.537 49.9695 179.871 50.0407V57.3366H178.501V54.5592H177.707C177.613 54.5592 177.515 54.5592 177.414 54.5592C177.312 54.5521 177.218 54.5414 177.131 54.5272C176.986 54.6981 176.841 54.8939 176.696 55.1147C176.551 55.3284 176.406 55.5598 176.261 55.809C176.123 56.0512 175.982 56.304 175.837 56.5675C175.699 56.8238 175.565 57.0802 175.435 57.3366H173.978C174.108 57.0588 174.25 56.7776 174.402 56.4927C174.554 56.2078 174.706 55.9337 174.859 55.6702C175.018 55.3996 175.174 55.1503 175.326 54.9224C175.485 54.6874 175.63 54.488 175.761 54.3242C175.268 54.1462 174.906 53.8827 174.674 53.5338C174.442 53.1848 174.326 52.754 174.326 52.2412C174.326 51.8424 174.405 51.4935 174.565 51.1944C174.732 50.8953 174.964 50.6496 175.261 50.4573C175.565 50.2579 175.931 50.1084 176.359 50.0087C176.787 49.909 177.265 49.8591 177.794 49.8591ZM177.696 51.0235C177.421 51.0235 177.163 51.0448 176.924 51.0876C176.692 51.1232 176.489 51.1873 176.315 51.2798C176.141 51.3724 176.004 51.497 175.902 51.6537C175.808 51.8104 175.761 52.0027 175.761 52.2306C175.761 52.4727 175.808 52.6721 175.902 52.8287C176.004 52.9854 176.145 53.11 176.326 53.2026C176.515 53.2952 176.739 53.3593 177 53.3949C177.269 53.4305 177.569 53.4483 177.903 53.4483H178.501V51.0555C178.247 51.0342 177.979 51.0235 177.696 51.0235Z" fill="#F2F2F2"/>
<path d="M208.939 57.3366C208.75 57.0517 208.533 56.7526 208.287 56.4393C208.04 56.1259 207.779 55.8233 207.504 55.5313C207.236 55.2393 206.957 54.9616 206.667 54.6981C206.377 54.4346 206.09 54.2067 205.808 54.0145V57.3366H204.438V49.9339H205.808V52.989C206.047 52.754 206.297 52.5047 206.558 52.2412C206.819 51.9706 207.076 51.7 207.33 51.4294C207.591 51.1517 207.837 50.8846 208.069 50.6282C208.301 50.3719 208.511 50.1404 208.7 49.9339H210.341C210.102 50.2045 209.849 50.4858 209.58 50.7778C209.312 51.0698 209.037 51.3653 208.754 51.6644C208.471 51.9564 208.185 52.2484 207.895 52.5403C207.613 52.8323 207.333 53.11 207.058 53.3735C207.362 53.6014 207.671 53.8685 207.982 54.1747C208.301 54.4738 208.613 54.7978 208.917 55.1468C209.222 55.4886 209.512 55.8482 209.787 56.2256C210.07 56.596 210.327 56.9663 210.559 57.3366H208.939Z" fill="#F2F2F2"/>
<path d="M224.745 51.0876C224.724 51.5718 224.698 52.0668 224.669 52.5724C224.64 53.0709 224.586 53.5551 224.506 54.0251C224.434 54.488 224.325 54.926 224.18 55.339C224.035 55.7521 223.836 56.1153 223.582 56.4286C223.328 56.7348 223.009 56.9805 222.625 57.1657C222.248 57.3508 221.785 57.4505 221.234 57.4648L221.081 56.2897C221.342 56.2613 221.571 56.2114 221.766 56.1402C221.962 56.069 222.132 55.9764 222.277 55.8625C222.422 55.7414 222.549 55.5954 222.658 55.4245C222.767 55.2465 222.861 55.0399 222.941 54.8049C223.136 54.2495 223.267 53.5551 223.332 52.7219C223.397 51.8887 223.43 50.9594 223.43 49.9339H228.138V57.3366H226.757V51.0876H224.745Z" fill="#F2F2F2"/>
<path d="M240.056 57.3366V49.9339H241.415V54.8477C241.661 54.4631 241.94 54.0501 242.252 53.6085C242.571 53.1599 242.897 52.7148 243.23 52.2733C243.571 51.8318 243.908 51.408 244.242 51.0021C244.575 50.5891 244.887 50.233 245.177 49.9339H246.296V57.3366H244.948V52.0383C244.644 52.3943 244.321 52.7967 243.981 53.2453C243.647 53.6869 243.317 54.1462 242.991 54.6233C242.665 55.0933 242.35 55.5634 242.045 56.0334C241.741 56.4963 241.465 56.9307 241.219 57.3366H240.056Z" fill="#F2F2F2"/>
<path d="M262.858 49.9339H264.227V57.3366H262.858V54.0572H259.585V57.3366H258.215V49.9339H259.585V52.8928H262.858V49.9339Z" fill="#F2F2F2"/>
<path d="M276.141 57.3366V49.9339H277.5V54.8477C277.746 54.4631 278.025 54.0501 278.337 53.6085C278.656 53.1599 278.982 52.7148 279.315 52.2733C279.656 51.8318 279.993 51.408 280.327 51.0021C280.66 50.5891 280.972 50.233 281.262 49.9339H282.382V57.3366H281.033V52.0383C280.729 52.3943 280.406 52.7967 280.066 53.2453C279.732 53.6869 279.402 54.1462 279.076 54.6233C278.75 55.0933 278.435 55.5634 278.13 56.0334C277.826 56.4963 277.551 56.9307 277.304 57.3366H276.141Z" fill="#F2F2F2"/>
<path d="M298.801 57.3366C298.613 57.0517 298.395 56.7526 298.149 56.4393C297.902 56.1259 297.642 55.8233 297.366 55.5313C297.098 55.2393 296.819 54.9616 296.529 54.6981C296.239 54.4346 295.953 54.2067 295.67 54.0145V57.3366H294.3V49.9339H295.67V52.989C295.909 52.754 296.159 52.5047 296.42 52.2412C296.681 51.9706 296.938 51.7 297.192 51.4294C297.453 51.1517 297.7 50.8846 297.931 50.6282C298.163 50.3719 298.374 50.1404 298.562 49.9339H300.204C299.965 50.2045 299.711 50.4858 299.443 50.7778C299.175 51.0698 298.899 51.3653 298.616 51.6644C298.334 51.9564 298.047 52.2484 297.758 52.5403C297.475 52.8323 297.196 53.11 296.92 53.3735C297.225 53.6014 297.533 53.8685 297.844 54.1747C298.163 54.4738 298.475 54.7978 298.78 55.1468C299.084 55.4886 299.374 55.8482 299.649 56.2256C299.932 56.596 300.189 56.9663 300.421 57.3366H298.801Z" fill="#F2F2F2"/>
<path d="M316.824 57.3366C316.722 57.0446 316.617 56.7562 316.508 56.4713C316.4 56.1865 316.295 55.8945 316.193 55.5954H313.018C312.917 55.8945 312.812 56.19 312.703 56.482C312.602 56.7669 312.5 57.0517 312.399 57.3366H310.974C311.257 56.5461 311.525 55.8162 311.779 55.1468C312.033 54.4773 312.279 53.8435 312.518 53.2453C312.765 52.6472 313.008 52.0774 313.247 51.5362C313.486 50.995 313.732 50.4609 313.986 49.9339H315.28C315.534 50.4609 315.78 50.995 316.019 51.5362C316.258 52.0774 316.497 52.6472 316.737 53.2453C316.983 53.8435 317.233 54.4773 317.487 55.1468C317.748 55.8162 318.02 56.5461 318.302 57.3366H316.824ZM314.606 51.3653C314.439 51.7427 314.247 52.2021 314.029 52.7433C313.819 53.2845 313.598 53.872 313.366 54.5058H315.845C315.613 53.872 315.389 53.281 315.171 52.7326C314.954 52.1843 314.765 51.7285 314.606 51.3653Z" fill="#F2F2F2"/>
<path d="M328 13C326.911 13 325.906 12.7333 324.983 12.2C324.072 11.6556 323.344 10.9278 322.8 10.0167C322.267 9.09444 322 8.08889 322 7C322 5.91111 322.267 4.91111 322.8 4C323.344 3.07778 324.072 2.35 324.983 1.81667C325.906 1.27222 326.911 1 328 1C329.089 1 330.089 1.27222 331 1.81667C331.922 2.35 332.65 3.07778 333.183 4C333.728 4.91111 334 5.91111 334 7C334 8.08889 333.728 9.09444 333.183 10.0167C332.65 10.9278 331.922 11.6556 331 12.2C330.089 12.7333 329.089 13 328 13ZM328 11.95C328.889 11.95 329.706 11.7278 330.45 11.2833C331.194 10.8278 331.783 10.2222 332.217 9.46667C332.661 8.71111 332.883 7.88889 332.883 7C332.883 6.11111 332.661 5.28889 332.217 4.53333C331.783 3.76667 331.189 3.16111 330.433 2.71667C329.689 2.26111 328.878 2.03333 328 2.03333C327.122 2.03333 326.306 2.26111 325.55 2.71667C324.806 3.16111 324.217 3.76667 323.783 4.53333C323.35 5.28889 323.133 6.11111 323.133 7C323.133 7.88889 323.35 8.71111 323.783 9.46667C324.217 10.2222 324.806 10.8278 325.55 11.2833C326.306 11.7278 327.122 11.95 328 11.95ZM326.067 10.0333C325.956 10.0333 325.867 10 325.8 9.93333C325.733 9.86667 325.7 9.77778 325.7 9.66667V4.3C325.7 4.18889 325.733 4.1 325.8 4.03333C325.867 3.96667 325.956 3.93333 326.067 3.93333H328.25C328.95 3.93333 329.517 4.09444 329.95 4.41667C330.383 4.72778 330.6 5.22222 330.6 5.9C330.6 6.32222 330.494 6.68333 330.283 6.98333C330.083 7.27222 329.806 7.48889 329.45 7.63333L330.517 9.43333C330.561 9.5 330.583 9.57778 330.583 9.66667C330.583 9.76667 330.55 9.85555 330.483 9.93333C330.428 10 330.339 10.0333 330.217 10.0333H329.767C329.556 10.0333 329.394 9.92778 329.283 9.71667L328.2 7.86667H326.933V9.66667C326.933 9.77778 326.9 9.86667 326.833 9.93333C326.767 10 326.678 10.0333 326.567 10.0333H326.067ZM328.217 6.76667C328.972 6.76667 329.35 6.47778 329.35 5.9C329.35 5.31111 328.972 5.01667 328.217 5.01667H326.933V6.76667H328.217Z" fill="white"/>
<defs>
<radialGradient id="paint0_radial" cx="0" cy="0" r="1" gradientUnits="userSpaceOnUse" gradientTransform="translate(140.902 26.25) rotate(90) scale(9.24296 8.43984)">
<stop stop-color="#4E8387"/>
<stop offset="1" stop-color="#98D7DC"/>
</radialGradient>
</defs>
</svg>
