<svg width="176" height="34" viewBox="0 0 176 34" fill="none" xmlns="http://www.w3.org/2000/svg">
<path fill-rule="evenodd" clip-rule="evenodd" d="M156.736 1.92958C157.618 1.92958 158.361 2.67324 158.361 3.55634C158.361 4.43944 157.618 5.1831 156.736 5.1831C155.854 5.1831 155.111 4.43944 155.111 3.55634C155.111 2.67324 155.808 1.92958 156.736 1.92958Z" stroke="#98D7DC" stroke-width="1.3" stroke-linejoin="round"/>
<path fill-rule="evenodd" clip-rule="evenodd" d="M158.361 10.5785C158.361 9.66808 157.618 8.90141 156.736 8.90141C155.854 8.90141 155.111 9.66808 155.111 10.5785V22.8452H158.361V10.5785Z" stroke="#98D7DC" stroke-width="1.3" stroke-linejoin="round"/>
<path fill-rule="evenodd" clip-rule="evenodd" d="M133.991 1.92958C134.873 1.92958 135.615 2.67324 135.615 3.55634C135.615 4.43944 134.873 5.1831 133.991 5.1831C133.109 5.1831 132.366 4.43944 132.366 3.55634C132.366 2.67324 133.062 1.92958 133.991 1.92958Z" stroke="#98D7DC" stroke-width="1.3" stroke-linejoin="round"/>
<path fill-rule="evenodd" clip-rule="evenodd" d="M133.991 8.89473C133.109 8.89473 132.366 9.65458 132.366 10.5569V22.8451H135.616V10.5569C135.569 9.65458 134.873 8.89473 133.991 8.89473Z" stroke="#98D7DC" stroke-width="1.3" stroke-linejoin="round"/>
<path fill-rule="evenodd" clip-rule="evenodd" d="M129.581 3.58894C129.581 2.68814 128.838 1.92958 127.956 1.92958C127.074 1.92958 126.332 2.68814 126.332 3.58894V22.8451H129.581V3.58894Z" stroke="#98D7DC" stroke-width="1.3" stroke-linejoin="round"/>
<path fill-rule="evenodd" clip-rule="evenodd" d="M116.583 19.3114C114.636 19.3114 113.029 17.7356 113.029 15.7777C113.029 13.8199 114.636 12.2441 116.583 12.2441C117.947 12.2441 119.115 13.0081 119.7 14.1064H123.546C122.767 11.1458 119.992 8.90141 116.681 8.90141C112.786 8.90141 109.621 12.0053 109.621 15.8732C109.621 19.6934 112.786 22.8451 116.681 22.8451C119.992 22.8451 122.767 20.6485 123.546 17.6401H119.602C119.018 18.6429 117.849 19.3114 116.583 19.3114Z" stroke="#98D7DC" stroke-width="1.3" stroke-linejoin="round"/>
<path fill-rule="evenodd" clip-rule="evenodd" d="M105.675 19.5916C106.557 19.5916 107.3 20.3352 107.3 21.2183C107.3 22.1014 106.557 22.8451 105.675 22.8451C104.793 22.8451 104.05 22.1014 104.05 21.2183C104.05 20.3352 104.747 19.5916 105.675 19.5916Z" stroke="#98D7DC" stroke-width="1.3" stroke-linejoin="round"/>
<path fill-rule="evenodd" clip-rule="evenodd" d="M168.109 19.3114C166.161 19.3114 164.554 17.7356 164.554 15.7777C164.554 13.8199 166.161 12.2441 168.109 12.2441C169.472 12.2441 170.641 13.0081 171.225 14.1064H175.071C174.292 11.1458 171.517 8.90141 168.206 8.90141C164.311 8.90141 161.146 12.0053 161.146 15.8732C161.146 19.6934 164.311 22.8451 168.206 22.8451C171.517 22.8451 174.292 20.6485 175.071 17.6401H171.127C170.494 18.6429 169.375 19.3114 168.109 19.3114Z" stroke="#98D7DC" stroke-width="1.3" stroke-linejoin="round"/>
<path fill-rule="evenodd" clip-rule="evenodd" d="M138.401 8.90164H141.648L141.648 22.8378H138.4L138.401 8.90164Z" stroke="#98D7DC" stroke-width="1.3" stroke-linejoin="round"/>
<path fill-rule="evenodd" clip-rule="evenodd" d="M152.326 15.7777C152.279 11.9576 149.275 8.90141 145.462 8.90141C145.414 8.90141 145.367 8.90141 145.319 8.90141C145.271 8.90141 145.224 8.90141 145.176 8.90141C143.889 8.90141 142.697 9.28343 141.648 9.90421V15.73C141.791 13.8676 143.365 12.2918 145.176 12.2918C145.271 12.2918 145.319 12.2918 145.414 12.2918C147.321 12.2918 148.942 14.0109 148.942 15.9687V22.8451H152.326V15.7777Z" stroke="#98D7DC" stroke-width="1.3" stroke-linejoin="round"/>
<path d="M41.1523 9.36326C42.1678 8.78041 43.3766 8.44041 44.6338 8.44041C48.502 8.44041 51.5966 11.549 51.5966 15.3861C51.5966 19.2232 48.502 22.3803 44.6338 22.3803C40.8139 22.3803 37.6709 19.2717 37.6709 15.3861C37.6709 15.3861 37.6709 3.26192 37.6709 3.21335C37.6709 2.24193 38.4445 1.46479 39.4116 1.46479C40.3787 1.46479 41.1523 2.24193 41.1523 3.21335V9.36326ZM41.1523 9.36326V15.4346M41.1523 15.4346C41.1523 17.3775 42.6996 18.9317 44.6338 18.9317C46.5679 18.9317 48.1152 17.3775 48.1152 15.4346C48.1152 13.4918 46.5679 11.9375 44.6338 11.9375C42.6996 11.9375 41.1523 13.4918 41.1523 15.4346Z" stroke="#98D7DC" stroke-width="1.3"/>
<path d="M64.8261 9.40493C63.8107 8.82395 62.6019 8.48504 61.3447 8.48504C57.5248 8.48504 54.3818 11.5836 54.3818 15.4085C54.3818 19.2333 57.4764 22.3803 61.3447 22.3803C65.1646 22.3803 68.3076 19.2817 68.3076 15.4085C68.3076 15.4085 68.3076 3.25616 68.3076 3.20775C68.3076 2.23944 67.5339 1.46479 66.5668 1.46479C65.5998 1.46479 64.8261 2.23944 64.8261 3.20775V9.40493ZM64.8261 9.40493V15.4569M64.8261 15.4569C64.8261 17.3935 63.2788 18.9428 61.3447 18.9428C59.4589 18.9428 57.8633 17.3935 57.8633 15.4569C57.8633 13.5202 59.4106 11.971 61.3447 11.971C63.2788 11.971 64.8261 13.5202 64.8261 15.4569Z" stroke="#98D7DC" stroke-width="1.3"/>
<path d="M24.4656 15.4085C24.4656 16.0292 24.6097 16.65 24.8978 17.1275H30.9483H32.3889H33.6854H34.6458C34.7899 16.5545 34.8859 15.9815 34.8859 15.4085C34.8859 11.5883 31.7647 8.43662 27.9231 8.43662C24.0815 8.43662 20.9602 11.5405 20.9602 15.4085C20.9602 19.2286 24.0815 22.3803 27.9231 22.3803C30.8523 22.3803 33.3493 20.74 34.4057 18.2091H30.276C29.6518 18.7822 28.8354 18.9899 27.9231 18.9899C26.0023 18.9421 24.4656 17.3663 24.4656 15.4085ZM24.4656 15.4085C24.4656 13.4506 26.0503 11.8748 27.9231 11.8748C29.2196 11.8748 30.3721 12.5911 30.9483 13.6894H24.8978C24.6097 14.2146 24.4656 14.7877 24.4656 15.4085Z" stroke="#98D7DC" stroke-width="1.3" stroke-linejoin="round"/>
<path fill-rule="evenodd" clip-rule="evenodd" d="M94.7666 18.8466C92.8189 18.8466 91.2121 17.2708 91.2121 15.3129C91.2121 13.3551 92.8189 11.7793 94.7666 11.7793C96.1299 11.7793 97.2985 12.5433 97.8828 13.6416H101.729C100.95 10.6332 98.175 8.43662 94.864 8.43662C90.9686 8.43662 87.8037 11.5405 87.8037 15.4085C87.8037 19.2286 90.9686 22.3803 94.864 22.3803C98.175 22.3803 100.95 20.1837 101.729 17.1753H97.7854C97.1524 18.1781 96.0325 18.8466 94.7666 18.8466Z" stroke="#98D7DC" stroke-width="1.3" stroke-linejoin="round"/>
<path fill-rule="evenodd" clip-rule="evenodd" d="M13.7504 15.2049L12.0681 8.43662H8.49942L6.81706 15.2049L5.08373 8.43662H1.46411L4.98177 22.3803H8.65236L10.3347 15.7138L11.9151 22.3803H15.5857L19.1034 8.43662H15.4838L13.7504 15.2049Z" stroke="#98D7DC" stroke-width="1.3" stroke-miterlimit="1.30541" stroke-linejoin="round"/>
<path fill-rule="evenodd" clip-rule="evenodd" d="M78.0556 8.43662C74.2404 8.43662 71.0928 11.5707 71.0928 15.4171C71.0928 19.2635 74.1927 22.3976 78.0556 22.3976C78.6279 22.3976 79.2002 22.3026 79.7248 22.2076L81.0602 22.9199L82.6817 23.7747L82.7293 21.9227L82.777 20.4981C84.1601 19.216 85.0185 17.4115 85.0185 15.4171C85.0185 11.5707 81.8709 8.43662 78.0556 8.43662ZM78.0556 18.9089C76.148 18.9089 74.5742 17.364 74.5742 15.4171C74.5742 13.4702 76.148 11.908 78.0556 11.908C79.9633 11.908 81.5371 13.4702 81.5371 15.4171C81.5371 17.364 79.9633 18.9089 78.0556 18.9089Z" fill="url(#paint0_radial)"/>
<path d="M2.70678 32.5821C2.48877 32.5821 2.26878 32.5743 2.0468 32.5586C1.82482 32.5469 1.63059 32.5195 1.46411 32.4764V28.5224C1.55132 28.5067 1.64447 28.493 1.74356 28.4813C1.84266 28.4656 1.94374 28.4539 2.0468 28.446C2.14986 28.4382 2.25094 28.4323 2.35004 28.4284C2.4531 28.4245 2.55021 28.4225 2.64138 28.4225C2.8911 28.4225 3.12299 28.4421 3.33704 28.4813C3.55109 28.5165 3.73541 28.5772 3.89 28.6634C4.04855 28.7496 4.17143 28.8632 4.25864 29.0042C4.34585 29.1452 4.38945 29.3195 4.38945 29.5271C4.38945 29.719 4.34188 29.8835 4.24675 30.0206C4.15558 30.1577 4.02675 30.2673 3.86027 30.3496C4.10999 30.4318 4.29431 30.5532 4.41323 30.7138C4.53215 30.8744 4.5916 31.0781 4.5916 31.3249C4.5916 31.7439 4.43701 32.0592 4.12783 32.2707C3.81865 32.4783 3.34497 32.5821 2.70678 32.5821ZM2.20139 30.7021V31.9417C2.28463 31.9496 2.37382 31.9554 2.46895 31.9594C2.56409 31.9633 2.65129 31.9652 2.73057 31.9652C2.88516 31.9652 3.02786 31.9554 3.15867 31.9359C3.29344 31.9163 3.40839 31.883 3.50352 31.836C3.60262 31.7851 3.67991 31.7185 3.73541 31.6362C3.79487 31.554 3.8246 31.4482 3.8246 31.319C3.8246 31.0879 3.73937 30.9273 3.56893 30.8372C3.39848 30.7471 3.16263 30.7021 2.86138 30.7021H2.20139ZM2.20139 30.1204H2.73057C3.01597 30.1204 3.23993 30.0813 3.40244 30.0029C3.56496 29.9207 3.64622 29.7758 3.64622 29.5682C3.64622 29.3723 3.561 29.2333 3.39055 29.151C3.22407 29.0688 3.00606 29.0277 2.73651 29.0277C2.62156 29.0277 2.5185 29.0296 2.42733 29.0335C2.34013 29.0375 2.26481 29.0433 2.20139 29.0512V30.1204Z" fill="black"/>
<path d="M10.9015 32.5351V28.4637H11.6447V31.1662C11.7794 30.9547 11.9321 30.7275 12.1025 30.4847C12.2769 30.2379 12.4553 29.9932 12.6376 29.7503C12.8239 29.5075 13.0082 29.2744 13.1906 29.0512C13.3729 28.824 13.5434 28.6282 13.7019 28.4637H14.3143V32.5351H13.5771V29.6211C13.4106 29.8169 13.2342 30.0382 13.0479 30.285C12.8655 30.5278 12.6852 30.7804 12.5068 31.0428C12.3284 31.3013 12.156 31.5599 11.9895 31.8184C11.8231 32.073 11.6724 32.3119 11.5377 32.5351H10.9015Z" fill="black"/>
<path d="M21.9977 28.4225C22.5963 28.4225 23.0541 28.5302 23.3712 28.7457C23.6923 28.9611 23.8528 29.2979 23.8528 29.7562C23.8528 29.9951 23.8092 30.2007 23.722 30.3731C23.6388 30.5415 23.5159 30.6805 23.3534 30.7902C23.1908 30.896 22.9926 30.9743 22.7588 31.0252C22.5249 31.0761 22.2574 31.1016 21.9561 31.1016H21.5815V32.5351H20.8323V28.5224C21.0068 28.4832 21.199 28.4578 21.4091 28.446C21.6231 28.4304 21.8193 28.4225 21.9977 28.4225ZM22.0512 29.0629C21.861 29.0629 21.7044 29.0688 21.5815 29.0805V30.4671H21.9442C22.3049 30.4671 22.5824 30.4181 22.7766 30.3202C22.9708 30.2184 23.068 30.0284 23.068 29.7503C23.068 29.6171 23.0422 29.5055 22.9907 29.4154C22.9391 29.3253 22.8678 29.2548 22.7766 29.2039C22.6854 29.153 22.5764 29.1178 22.4496 29.0982C22.3267 29.0747 22.1939 29.0629 22.0512 29.0629Z" fill="black"/>
<path d="M32.9383 28.4637V29.104H31.6718V32.5351H30.9167V29.104H29.6502V28.4637H32.9383Z" fill="black"/>
<path d="M41.1594 31.319C41.0603 31.5383 40.9573 31.7302 40.8502 31.8947C40.7472 32.0553 40.6322 32.1885 40.5054 32.2942C40.3825 32.4 40.2438 32.4783 40.0892 32.5293C39.9385 32.5802 39.7681 32.6056 39.5778 32.6056C39.4629 32.6056 39.342 32.5939 39.2151 32.5704C39.0923 32.5469 38.9912 32.5175 38.9119 32.4823L39.0487 31.8712C39.124 31.9026 39.2033 31.928 39.2865 31.9476C39.3697 31.9633 39.455 31.9711 39.5422 31.9711C39.7245 31.9711 39.8751 31.93 39.994 31.8477C40.1169 31.7655 40.2299 31.6304 40.333 31.4424C40.1665 31.176 40.0059 30.9077 39.8513 30.6375C39.7007 30.3672 39.56 30.1048 39.4292 29.8502C39.2984 29.5917 39.1775 29.3449 39.0665 29.1099C38.9595 28.8749 38.8624 28.6595 38.7752 28.4637H39.6135C39.6769 28.6242 39.7483 28.7966 39.8276 28.9807C39.9108 29.1648 39.998 29.3547 40.0892 29.5506C40.1843 29.7464 40.2834 29.9462 40.3865 30.1498C40.4895 30.3535 40.5926 30.5572 40.6956 30.7608C40.8383 30.4122 40.9751 30.0402 41.1059 29.6446C41.2367 29.249 41.3596 28.8553 41.4745 28.4637H42.2832C42.188 28.7535 42.0929 29.0277 41.9978 29.2862C41.9026 29.5408 41.8075 29.7856 41.7124 30.0206C41.6212 30.2517 41.5281 30.4749 41.4329 30.6903C41.3418 30.9018 41.2506 31.1114 41.1594 31.319Z" fill="black"/>
<path d="M50.7472 32.5351C50.6917 32.3745 50.6342 32.2159 50.5747 32.0592C50.5153 31.9026 50.4578 31.742 50.4023 31.5775H48.6661C48.6106 31.742 48.5532 31.9045 48.4937 32.0651C48.4382 32.2218 48.3827 32.3785 48.3272 32.5351H47.5483C47.7029 32.1004 47.8496 31.6989 47.9883 31.3307C48.1271 30.9626 48.2618 30.614 48.3926 30.285C48.5274 29.9559 48.6602 29.6426 48.791 29.3449C48.9218 29.0473 49.0566 28.7535 49.1953 28.4637H49.9029C50.0416 28.7535 50.1764 29.0473 50.3072 29.3449C50.438 29.6426 50.5688 29.9559 50.6996 30.285C50.8344 30.614 50.9711 30.9626 51.1099 31.3307C51.2526 31.6989 51.4012 32.1004 51.5558 32.5351H50.7472ZM49.5342 29.2509C49.4431 29.4585 49.338 29.7111 49.2191 30.0088C49.1041 30.3065 48.9832 30.6296 48.8564 30.9782H50.212C50.0852 30.6296 49.9623 30.3045 49.8434 30.0029C49.7245 29.7014 49.6214 29.4507 49.5342 29.2509Z" fill="black"/>
<path d="M59.3036 29.0982C59.2918 29.3645 59.2779 29.6367 59.262 29.9148C59.2462 30.189 59.2164 30.4553 59.1728 30.7138C59.1332 30.9684 59.0737 31.2093 58.9945 31.4365C58.9152 31.6637 58.8062 31.8634 58.6674 32.0357C58.5287 32.2042 58.3543 32.3393 58.1442 32.4411C57.9381 32.543 57.6844 32.5978 57.3832 32.6056L57.2999 31.9594C57.4426 31.9437 57.5675 31.9163 57.6745 31.8771C57.7815 31.8379 57.8747 31.787 57.9539 31.7244C58.0332 31.6578 58.1026 31.5775 58.1621 31.4835C58.2215 31.3856 58.273 31.272 58.3166 31.1427C58.4237 30.8372 58.495 30.4553 58.5307 29.9971C58.5664 29.5388 58.5842 29.0277 58.5842 28.4637H61.1587V32.5351H60.4036V29.0982H59.3036Z" fill="black"/>
<path d="M70.7267 31.2543C70.7267 31.6891 70.5602 32.0201 70.2272 32.2472C69.8982 32.4705 69.4344 32.5821 68.8359 32.5821C68.6694 32.5821 68.4811 32.5723 68.271 32.5528C68.0649 32.5332 67.8667 32.5018 67.6765 32.4588V28.4637H68.4256V29.9266C68.493 29.9187 68.5564 29.9148 68.6159 29.9148C68.6754 29.9148 68.7368 29.9148 68.8002 29.9148C70.0845 29.9148 70.7267 30.3613 70.7267 31.2543ZM68.7467 30.5493C68.6991 30.5493 68.6476 30.5493 68.5921 30.5493C68.5366 30.5493 68.4811 30.5532 68.4256 30.5611V31.9359C68.4811 31.9398 68.5445 31.9437 68.6159 31.9476C68.6912 31.9476 68.7804 31.9476 68.8835 31.9476C69.0222 31.9476 69.155 31.9378 69.2818 31.9182C69.4126 31.8947 69.5256 31.8575 69.6207 31.8066C69.7198 31.7518 69.7991 31.6813 69.8586 31.5951C69.918 31.505 69.9478 31.3914 69.9478 31.2543C69.9478 31.1173 69.918 31.0037 69.8586 30.9136C69.8031 30.8235 69.7218 30.751 69.6148 30.6962C69.5117 30.6414 69.3869 30.6042 69.2402 30.5846C69.0935 30.5611 68.929 30.5493 68.7467 30.5493Z" fill="black"/>
<path d="M79.5017 28.4637H80.2509V32.5351H79.5017V30.7315H77.712V32.5351H76.9628V28.4637H77.712V30.0911H79.5017V28.4637Z" fill="black"/>
<path d="M89.5011 32.5351C89.4456 32.3745 89.3881 32.2159 89.3286 32.0592C89.2692 31.9026 89.2117 31.742 89.1562 31.5775H87.42C87.3645 31.742 87.307 31.9045 87.2476 32.0651C87.1921 32.2218 87.1366 32.3785 87.0811 32.5351H86.3022C86.4568 32.1004 86.6035 31.6989 86.7422 31.3307C86.8809 30.9626 87.0157 30.614 87.1465 30.285C87.2813 29.9559 87.4141 29.6426 87.5449 29.3449C87.6757 29.0473 87.8105 28.7535 87.9492 28.4637H88.6567C88.7955 28.7535 88.9303 29.0473 89.0611 29.3449C89.1919 29.6426 89.3227 29.9559 89.4535 30.285C89.5883 30.614 89.725 30.9626 89.8637 31.3307C90.0064 31.6989 90.1551 32.1004 90.3097 32.5351H89.5011ZM88.2881 29.2509C88.1969 29.4585 88.0919 29.7111 87.973 30.0088C87.858 30.3065 87.7371 30.6296 87.6103 30.9782H88.9659C88.8391 30.6296 88.7162 30.3045 88.5973 30.0029C88.4784 29.7014 88.3753 29.4507 88.2881 29.2509Z" fill="black"/>
<path d="M98.2311 28.4225C98.3936 28.4225 98.5779 28.4304 98.784 28.446C98.9902 28.4578 99.1844 28.4832 99.3667 28.5224V32.5351H98.6175V31.0076H98.1835C98.132 31.0076 98.0785 31.0076 98.023 31.0076C97.9675 31.0037 97.9159 30.9978 97.8684 30.99C97.7891 31.084 97.7098 31.1917 97.6305 31.3131C97.5513 31.4306 97.472 31.5579 97.3927 31.695C97.3174 31.8282 97.2401 31.9672 97.1608 32.1121C97.0855 32.2531 97.0122 32.3941 96.9408 32.5351H96.1441C96.2154 32.3824 96.2927 32.2277 96.376 32.071C96.4592 31.9143 96.5425 31.7635 96.6257 31.6186C96.7129 31.4698 96.7981 31.3327 96.8814 31.2073C96.9686 31.0781 97.0479 30.9684 97.1192 30.8783C96.8497 30.7804 96.6515 30.6355 96.5246 30.4436C96.3978 30.2517 96.3344 30.0147 96.3344 29.7327C96.3344 29.5133 96.378 29.3214 96.4652 29.1569C96.5563 28.9924 96.6832 28.8573 96.8457 28.7515C97.0122 28.6419 97.2124 28.5596 97.4462 28.5048C97.6801 28.4499 97.9417 28.4225 98.2311 28.4225ZM98.1776 29.0629C98.0269 29.0629 97.8862 29.0747 97.7554 29.0982C97.6286 29.1178 97.5176 29.153 97.4224 29.2039C97.3273 29.2548 97.252 29.3234 97.1965 29.4096C97.145 29.4957 97.1192 29.6015 97.1192 29.7268C97.1192 29.86 97.145 29.9697 97.1965 30.0558C97.252 30.142 97.3293 30.2105 97.4284 30.2615C97.5314 30.3124 97.6543 30.3476 97.797 30.3672C97.9437 30.3868 98.1082 30.3966 98.2905 30.3966H98.6175V29.0805C98.4788 29.0688 98.3321 29.0629 98.1776 29.0629Z" fill="black"/>
<path d="M115.263 32.5351C115.16 32.3785 115.041 32.214 114.907 32.0416C114.772 31.8693 114.629 31.7028 114.479 31.5422C114.332 31.3816 114.179 31.2289 114.021 31.084C113.862 30.939 113.706 30.8137 113.551 30.708V32.5351H112.802V28.4637H113.551V30.1439C113.682 30.0147 113.819 29.8776 113.961 29.7327C114.104 29.5839 114.245 29.435 114.383 29.2862C114.526 29.1334 114.661 28.9865 114.788 28.8455C114.915 28.7045 115.03 28.5772 115.133 28.4637H116.03C115.9 28.6125 115.761 28.7672 115.614 28.9278C115.468 29.0884 115.317 29.2509 115.162 29.4154C115.008 29.576 114.851 29.7366 114.693 29.8972C114.538 30.0578 114.385 30.2105 114.235 30.3555C114.401 30.4808 114.57 30.6277 114.74 30.7961C114.915 30.9606 115.085 31.1388 115.252 31.3307C115.418 31.5187 115.577 31.7165 115.727 31.9241C115.882 32.1278 116.023 32.3315 116.149 32.5351H115.263Z" fill="black"/>
<path d="M123.908 29.0982C123.896 29.3645 123.882 29.6367 123.866 29.9148C123.85 30.189 123.82 30.4553 123.777 30.7138C123.737 30.9684 123.678 31.2093 123.598 31.4365C123.519 31.6637 123.41 31.8634 123.271 32.0357C123.133 32.2042 122.958 32.3393 122.748 32.4411C122.542 32.543 122.288 32.5978 121.987 32.6056L121.904 31.9594C122.047 31.9437 122.171 31.9163 122.278 31.8771C122.385 31.8379 122.479 31.787 122.558 31.7244C122.637 31.6578 122.707 31.5775 122.766 31.4835C122.825 31.3856 122.877 31.272 122.921 31.1427C123.028 30.8372 123.099 30.4553 123.135 29.9971C123.17 29.5388 123.188 29.0277 123.188 28.4637H125.763V32.5351H125.008V29.0982H123.908Z" fill="black"/>
<path d="M132.28 32.5351V28.4637H133.024V31.1662C133.158 30.9547 133.311 30.7275 133.481 30.4847C133.656 30.2379 133.834 29.9932 134.017 29.7503C134.203 29.5075 134.387 29.2744 134.57 29.0512C134.752 28.824 134.922 28.6282 135.081 28.4637H135.693V32.5351H134.956V29.6211C134.79 29.8169 134.613 30.0382 134.427 30.285C134.245 30.5278 134.064 30.7804 133.886 31.0428C133.707 31.3013 133.535 31.5599 133.368 31.8184C133.202 32.073 133.051 32.3119 132.917 32.5351H132.28Z" fill="black"/>
<path d="M144.75 28.4637H145.499V32.5351H144.75V30.7315H142.96V32.5351H142.211V28.4637H142.96V30.0911H144.75V28.4637Z" fill="black"/>
<path d="M152.014 32.5351V28.4637H152.758V31.1662C152.892 30.9547 153.045 30.7275 153.215 30.4847C153.39 30.2379 153.568 29.9932 153.751 29.7503C153.937 29.5075 154.121 29.2744 154.304 29.0512C154.486 28.824 154.656 28.6282 154.815 28.4637H155.427V32.5351H154.69V29.6211C154.524 29.8169 154.347 30.0382 154.161 30.285C153.979 30.5278 153.798 30.7804 153.62 31.0428C153.441 31.3013 153.269 31.5599 153.103 31.8184C152.936 32.073 152.785 32.3119 152.651 32.5351H152.014Z" fill="black"/>
<path d="M164.407 32.5351C164.304 32.3785 164.185 32.214 164.05 32.0416C163.915 31.8693 163.773 31.7028 163.622 31.5422C163.475 31.3816 163.323 31.2289 163.164 31.084C163.006 30.939 162.849 30.8137 162.695 30.708V32.5351H161.945V28.4637H162.695V30.1439C162.825 30.0147 162.962 29.8776 163.105 29.7327C163.247 29.5839 163.388 29.435 163.527 29.2862C163.67 29.1334 163.804 28.9865 163.931 28.8455C164.058 28.7045 164.173 28.5772 164.276 28.4637H165.174C165.043 28.6125 164.904 28.7672 164.758 28.9278C164.611 29.0884 164.46 29.2509 164.306 29.4154C164.151 29.576 163.995 29.7366 163.836 29.8972C163.682 30.0578 163.529 30.2105 163.378 30.3555C163.545 30.4808 163.713 30.6277 163.884 30.7961C164.058 30.9606 164.229 31.1388 164.395 31.3307C164.561 31.5187 164.72 31.7165 164.871 31.9241C165.025 32.1278 165.166 32.3315 165.293 32.5351H164.407Z" fill="black"/>
<path d="M174.263 32.5351C174.207 32.3745 174.15 32.2159 174.09 32.0592C174.031 31.9026 173.974 31.742 173.918 31.5775H172.182C172.126 31.742 172.069 31.9045 172.009 32.0651C171.954 32.2218 171.898 32.3785 171.843 32.5351H171.064C171.219 32.1004 171.365 31.6989 171.504 31.3307C171.643 30.9626 171.778 30.614 171.908 30.285C172.043 29.9559 172.176 29.6426 172.307 29.3449C172.438 29.0473 172.572 28.7535 172.711 28.4637H173.419C173.557 28.7535 173.692 29.0473 173.823 29.3449C173.954 29.6426 174.085 29.9559 174.215 30.285C174.35 30.614 174.487 30.9626 174.626 31.3307C174.768 31.6989 174.917 32.1004 175.072 32.5351H174.263ZM173.05 29.2509C172.959 29.4585 172.854 29.7111 172.735 30.0088C172.62 30.3065 172.499 30.6296 172.372 30.9782H173.728C173.601 30.6296 173.478 30.3045 173.359 30.0029C173.24 29.7014 173.137 29.4507 173.05 29.2509Z" fill="black"/>
<defs>
<radialGradient id="paint0_radial" cx="0" cy="0" r="1" gradientUnits="userSpaceOnUse" gradientTransform="translate(78.0556 15.4375) rotate(90) scale(5.08363 4.61553)">
<stop stop-color="#70A9AD"/>
<stop offset="1" stop-color="#98D7DC"/>
</radialGradient>
</defs>
</svg>
