<svg  width="176" height="34"  id="Layer_1" data-name="Layer 1" xmlns="http://www.w3.org/2000/svg" xmlns:xlink="http://www.w3.org/1999/xlink" viewBox="0 0 1350.57 244.86"><defs><style>.cls-1{fill-rule:evenodd;fill:url(#radial-gradient);}.cls-2{fill:#98d7dc;}</style><radialGradient id="radial-gradient" cx="-44.88" cy="107.67" r="3.99" gradientTransform="matrix(0, 9.24, 8.39, 0, -397.9, 526.4)" gradientUnits="userSpaceOnUse"><stop offset="0" stop-color="#70a9ad"/><stop offset="1" stop-color="#98d7dc"/></radialGradient></defs><path d="M25.5,236.77q-2.4,0-4.83-.18a21,21,0,0,1-4.27-.6V207c.64-.11,1.32-.21,2.05-.3s1.46-.2,2.22-.26,1.49-.1,2.22-.13,1.46,0,2.13,0a28,28,0,0,1,5.09.43,12.45,12.45,0,0,1,4,1.33,7,7,0,0,1,2.69,2.5,7.14,7.14,0,0,1,1,3.83,6.22,6.22,0,0,1-1,3.61,7.08,7.08,0,0,1-2.83,2.41A7.89,7.89,0,0,1,38,223.09a7.29,7.29,0,0,1,1.3,4.47,7.85,7.85,0,0,1-3.39,6.93Q32.5,236.77,25.5,236.77ZM21.8,223v9.08c.61.06,1.26.1,2,.13s1.33,0,1.91,0A20.22,20.22,0,0,0,28.8,232a8.21,8.21,0,0,0,2.53-.73,4.51,4.51,0,0,0,1.7-1.46,3.9,3.9,0,0,0,.65-2.32A3.66,3.66,0,0,0,31.81,224a11.23,11.23,0,0,0-5.18-1Zm0-4.26h3.87a11.43,11.43,0,0,0,4.92-.86,3.25,3.25,0,0,0,1.78-3.18,3.14,3.14,0,0,0-1.87-3.06,10.86,10.86,0,0,0-4.78-.9c-.85,0-1.6,0-2.27,0s-1.19.08-1.65.13Z"/><path d="M85.46,236.42V206.61H90.9V226.4q1.48-2.33,3.35-5c1.28-1.81,2.58-3.6,3.92-5.38s2.71-3.48,4-5.12,2.58-3.09,3.74-4.3h4.48v29.81H105V215.09c-1.21,1.43-2.51,3-3.87,4.86s-2.65,3.62-4,5.55-2.57,3.78-3.78,5.67-2.32,3.62-3.31,5.25Z"/><path d="M166.66,206.31q6.57,0,10.05,2.37t3.53,7.4a9.87,9.87,0,0,1-1,4.51,7.85,7.85,0,0,1-2.7,3.06,13.23,13.23,0,0,1-4.35,1.72,27.92,27.92,0,0,1-5.87.56h-2.74v10.49h-5.48V207a25.84,25.84,0,0,1,4.22-.56C163.92,206.37,165.36,206.31,166.66,206.31Zm.39,4.69c-1.39,0-2.53,0-3.43.13v10.15h2.65a13.77,13.77,0,0,0,6.09-1.08c1.42-.74,2.14-2.13,2.14-4.17a4.85,4.85,0,0,0-.57-2.45,4,4,0,0,0-1.57-1.55,7,7,0,0,0-2.39-.77A15.7,15.7,0,0,0,167.05,211Z"/><path d="M246.72,206.61v4.69h-9.26v25.12h-5.53V211.3h-9.27v-4.69Z"/><path d="M306.88,227.52a31.41,31.41,0,0,1-2.26,4.21,12.59,12.59,0,0,1-2.52,2.93,8.94,8.94,0,0,1-3.05,1.72,11.71,11.71,0,0,1-3.74.56,14.66,14.66,0,0,1-2.65-.26,10.69,10.69,0,0,1-2.22-.64l1-4.48a10.72,10.72,0,0,0,1.74.56,9.64,9.64,0,0,0,1.87.17,5.74,5.74,0,0,0,3.31-.9,8.24,8.24,0,0,0,2.47-3c-1.21-1.95-2.39-3.91-3.52-5.89s-2.13-3.9-3.09-5.77-1.84-3.7-2.65-5.42-1.5-3.29-2.13-4.73h6.13c.46,1.18,1,2.44,1.57,3.79s1.24,2.74,1.91,4.17,1.42,2.9,2.18,4.39,1.5,3,2.26,4.47c1-2.55,2-5.28,3-8.17s1.86-5.78,2.7-8.65h5.92q-1,3.18-2.09,6c-.7,1.87-1.39,3.66-2.09,5.38s-1.35,3.33-2.05,4.9S307.55,226,306.88,227.52Z"/><path d="M377,236.42c-.4-1.17-.82-2.34-1.26-3.48s-.85-2.33-1.26-3.53H361.81c-.4,1.2-.82,2.4-1.26,3.57s-.81,2.3-1.22,3.44h-5.7q1.71-4.77,3.22-8.82t3-7.65q1.49-3.62,2.92-6.89c1-2.18,1.94-4.33,3-6.45h5.17q1.53,3.18,3,6.45t2.87,6.89q1.49,3.62,3,7.65t3.26,8.82Zm-8.87-24q-1,2.28-2.31,5.54t-2.65,7.1h9.92q-1.39-3.83-2.7-7.14T368.17,212.38Z"/><path d="M439.66,211.26q-.14,2.93-.31,6a52.59,52.59,0,0,1-.65,5.85,30.31,30.31,0,0,1-1.31,5.29,14.64,14.64,0,0,1-2.39,4.39,11.1,11.1,0,0,1-3.83,3,13.25,13.25,0,0,1-5.57,1.21l-.61-4.73a11.9,11.9,0,0,0,2.75-.61,7.38,7.38,0,0,0,2-1.11,7.48,7.48,0,0,0,1.52-1.77,12.78,12.78,0,0,0,1.14-2.49,33.87,33.87,0,0,0,1.56-8.39q.39-5,.39-11.23h18.84v29.81h-5.52V211.26Z"/><path d="M523.25,227a8.23,8.23,0,0,1-3.66,7.27q-3.62,2.46-10.18,2.46c-1.22,0-2.6-.08-4.13-.22a32.92,32.92,0,0,1-4.35-.69V206.61h5.48v10.71a13.9,13.9,0,0,1,1.39-.08h1.35Q523.25,217.24,523.25,227Zm-14.49-5.16h-1.13a8.25,8.25,0,0,0-1.22.09V232l1.39.09h2a19.54,19.54,0,0,0,2.91-.21,8.6,8.6,0,0,0,2.48-.82,4.94,4.94,0,0,0,1.74-1.55,5,5,0,0,0,0-5,4.26,4.26,0,0,0-1.78-1.59,8,8,0,0,0-2.74-.82A23.17,23.17,0,0,0,508.76,221.88Z"/><path d="M587.46,206.61h5.48v29.81h-5.48v-13.2h-13.1v13.2h-5.48V206.61h5.48v11.92h13.1Z"/><path d="M660.63,236.42c-.41-1.17-.82-2.34-1.26-3.48s-.86-2.33-1.26-3.53h-12.7c-.41,1.2-.83,2.4-1.27,3.57s-.81,2.3-1.22,3.44h-5.7q1.69-4.77,3.22-8.82t3-7.65q1.49-3.62,2.92-6.89t3-6.45h5.17q1.53,3.18,3,6.45t2.88,6.89q1.47,3.62,3,7.65t3.26,8.82Zm-8.87-24q-1,2.28-2.31,5.54t-2.66,7.1h9.93q-1.4-3.83-2.7-7.14T651.76,212.38Z"/><path d="M724.52,206.31c1.18,0,2.53.06,4,.17a28.07,28.07,0,0,1,4.27.56v29.38h-5.49V225.24H723c-.4,0-.78-.07-1.13-.13a25.4,25.4,0,0,0-1.74,2.36c-.58.87-1.16,1.8-1.74,2.8s-1.12,2-1.7,3.06-1.08,2.06-1.61,3.09h-5.82c.52-1.12,1.08-2.25,1.69-3.4s1.22-2.25,1.83-3.31,1.26-2.09,1.87-3,1.22-1.75,1.74-2.41a8.51,8.51,0,0,1-4.35-3.18,9.24,9.24,0,0,1-1.39-5.21,9,9,0,0,1,1-4.21,8.26,8.26,0,0,1,2.79-3,13.58,13.58,0,0,1,4.39-1.81A25.39,25.39,0,0,1,724.52,206.31Zm-.39,4.69a17.55,17.55,0,0,0-3.09.26,7.52,7.52,0,0,0-2.44.77,4.3,4.3,0,0,0-1.65,1.51,4.41,4.41,0,0,0-.57,2.32,4.6,4.6,0,0,0,.57,2.41,4.26,4.26,0,0,0,1.69,1.5,8.57,8.57,0,0,0,2.7.78,28.1,28.1,0,0,0,3.61.21h2.39v-9.63C726.33,211,725.26,211,724.13,211Z"/><path d="M849.15,236.42c-.75-1.14-1.62-2.35-2.61-3.61s-2-2.48-3.13-3.66-2.19-2.29-3.35-3.35a32.48,32.48,0,0,0-3.44-2.76v13.38h-5.48V206.61h5.48v12.3c1-.94,2-1.95,3-3s2.08-2.18,3.09-3.27,2-2.19,3-3.22l2.52-2.8h6.58q-1.44,1.63-3,3.4c-1.07,1.18-2.18,2.37-3.31,3.57s-2.27,2.35-3.43,3.53-2.25,2.29-3.35,3.35a37.54,37.54,0,0,1,3.69,3.23,53.86,53.86,0,0,1,3.75,3.91q1.81,2.07,3.48,4.35t3.09,4.47Z"/><path d="M912.41,211.26q-.13,2.93-.31,6a52.59,52.59,0,0,1-.65,5.85,30.31,30.31,0,0,1-1.3,5.29,14.66,14.66,0,0,1-2.4,4.39,11.1,11.1,0,0,1-3.83,3,13.24,13.24,0,0,1-5.56,1.21l-.61-4.73a11.93,11.93,0,0,0,2.74-.61,7.38,7.38,0,0,0,2-1.11,7.48,7.48,0,0,0,1.52-1.77,12.22,12.22,0,0,0,1.14-2.49,33.87,33.87,0,0,0,1.56-8.39q.39-5,.39-11.23H926v29.81h-5.52V211.26Z"/><path d="M973.68,236.42V206.61h5.44V226.4q1.47-2.33,3.35-5c1.27-1.81,2.58-3.6,3.91-5.38s2.72-3.48,4-5.12,2.58-3.09,3.74-4.3h4.48v29.81h-5.39V215.09q-1.83,2.15-3.87,4.86t-4,5.55q-2,2.83-3.79,5.67t-3.31,5.25Z"/><path d="M1064.93,206.61h5.48v29.81h-5.48v-13.2h-13.1v13.2h-5.48V206.61h5.48v11.92h13.1Z"/><path d="M1118.09,236.42V206.61h5.44V226.4c1-1.55,2.1-3.21,3.34-5s2.59-3.6,3.92-5.38,2.71-3.48,4-5.12,2.58-3.09,3.74-4.3h4.48v29.81h-5.39V215.09q-1.83,2.15-3.88,4.86t-4,5.55q-1.95,2.83-3.78,5.67t-3.31,5.25Z"/><path d="M1208.77,236.42c-.75-1.14-1.63-2.35-2.61-3.61s-2-2.48-3.13-3.66-2.19-2.29-3.35-3.35a32.48,32.48,0,0,0-3.44-2.76v13.38h-5.48V206.61h5.48v12.3c1-.94,2-1.95,3-3s2.08-2.18,3.09-3.27,2-2.19,3-3.22l2.52-2.8h6.57c-1,1.09-2,2.22-3,3.4s-2.18,2.37-3.31,3.57-2.28,2.35-3.44,3.53-2.25,2.29-3.35,3.35a37.6,37.6,0,0,1,3.7,3.23,51.71,51.71,0,0,1,3.74,3.91q1.83,2.07,3.49,4.35t3.08,4.47Z"/><path d="M1280.9,236.42c-.41-1.17-.83-2.34-1.27-3.48s-.85-2.33-1.26-3.53h-12.71c-.4,1.2-.82,2.4-1.26,3.57s-.81,2.3-1.22,3.44h-5.69q1.69-4.77,3.21-8.82t3-7.65q1.48-3.62,2.92-6.89c1-2.18,1.94-4.33,3-6.45h5.17q1.53,3.18,3,6.45t2.87,6.89q1.49,3.62,3,7.65t3.26,8.82Zm-8.88-24q-1,2.28-2.31,5.54c-.84,2.18-1.73,4.55-2.65,7.1H1277q-1.39-3.83-2.7-7.14T1272,212.38Z"/><path class="cls-1" d="M505.16,60.82a50.58,50.58,0,0,0,0,101.16,69.13,69.13,0,0,0,12.09-1.37l9.67,5.16L538.66,172l.35-13.42.35-10.32a50.11,50.11,0,0,0,16.23-36.82A50.69,50.69,0,0,0,505.16,60.82Zm0,75.88a25.36,25.36,0,1,1,25.21-25.3A25.24,25.24,0,0,1,505.16,136.7Z"/><path d="M25.5,236.77q-2.4,0-4.83-.18a21,21,0,0,1-4.27-.6V207c.64-.11,1.32-.21,2.05-.3s1.46-.2,2.22-.26,1.49-.1,2.22-.13,1.46,0,2.13,0a28,28,0,0,1,5.09.43,12.45,12.45,0,0,1,4,1.33,7,7,0,0,1,2.69,2.5,7.14,7.14,0,0,1,1,3.83,6.22,6.22,0,0,1-1,3.61,7.08,7.08,0,0,1-2.83,2.41A7.89,7.89,0,0,1,38,223.09a7.29,7.29,0,0,1,1.3,4.47,7.85,7.85,0,0,1-3.39,6.93Q32.5,236.77,25.5,236.77ZM21.8,223v9.08c.61.06,1.26.1,2,.13s1.33,0,1.91,0A20.22,20.22,0,0,0,28.8,232a8.21,8.21,0,0,0,2.53-.73,4.51,4.51,0,0,0,1.7-1.46,3.9,3.9,0,0,0,.65-2.32A3.66,3.66,0,0,0,31.81,224a11.23,11.23,0,0,0-5.18-1Zm0-4.26h3.87a11.43,11.43,0,0,0,4.92-.86,3.25,3.25,0,0,0,1.78-3.18,3.14,3.14,0,0,0-1.87-3.06,10.86,10.86,0,0,0-4.78-.9c-.85,0-1.6,0-2.27,0s-1.19.08-1.65.13Z"/><path d="M85.46,236.42V206.61H90.9V226.4q1.48-2.33,3.35-5c1.28-1.81,2.58-3.6,3.92-5.38s2.71-3.48,4-5.12,2.58-3.09,3.74-4.3h4.48v29.81H105V215.09c-1.21,1.43-2.51,3-3.87,4.86s-2.65,3.62-4,5.55-2.57,3.78-3.78,5.67-2.32,3.62-3.31,5.25Z"/><path d="M166.66,206.31q6.57,0,10.05,2.37t3.53,7.4a9.87,9.87,0,0,1-1,4.51,7.85,7.85,0,0,1-2.7,3.06,13.23,13.23,0,0,1-4.35,1.72,27.92,27.92,0,0,1-5.87.56h-2.74v10.49h-5.48V207a25.84,25.84,0,0,1,4.22-.56C163.92,206.37,165.36,206.31,166.66,206.31Zm.39,4.69c-1.39,0-2.53,0-3.43.13v10.15h2.65a13.77,13.77,0,0,0,6.09-1.08c1.42-.74,2.14-2.13,2.14-4.17a4.85,4.85,0,0,0-.57-2.45,4,4,0,0,0-1.57-1.55,7,7,0,0,0-2.39-.77A15.7,15.7,0,0,0,167.05,211Z"/><path d="M246.72,206.61v4.69h-9.26v25.12h-5.53V211.3h-9.27v-4.69Z"/><path d="M306.88,227.52a31.41,31.41,0,0,1-2.26,4.21,12.59,12.59,0,0,1-2.52,2.93,8.94,8.94,0,0,1-3.05,1.72,11.71,11.71,0,0,1-3.74.56,14.66,14.66,0,0,1-2.65-.26,10.69,10.69,0,0,1-2.22-.64l1-4.48a10.72,10.72,0,0,0,1.74.56,9.64,9.64,0,0,0,1.87.17,5.74,5.74,0,0,0,3.31-.9,8.24,8.24,0,0,0,2.47-3c-1.21-1.95-2.39-3.91-3.52-5.89s-2.13-3.9-3.09-5.77-1.84-3.7-2.65-5.42-1.5-3.29-2.13-4.73h6.13c.46,1.18,1,2.44,1.57,3.79s1.24,2.74,1.91,4.17,1.42,2.9,2.18,4.39,1.5,3,2.26,4.47c1-2.55,2-5.28,3-8.17s1.86-5.78,2.7-8.65h5.92q-1,3.18-2.09,6c-.7,1.87-1.39,3.66-2.09,5.38s-1.35,3.33-2.05,4.9S307.55,226,306.88,227.52Z"/><path d="M377,236.42c-.4-1.17-.82-2.34-1.26-3.48s-.85-2.33-1.26-3.53H361.81c-.4,1.2-.82,2.4-1.26,3.57s-.81,2.3-1.22,3.44h-5.7q1.71-4.77,3.22-8.82t3-7.65q1.49-3.62,2.92-6.89c1-2.18,1.94-4.33,3-6.45h5.17q1.53,3.18,3,6.45t2.87,6.89q1.49,3.62,3,7.65t3.26,8.82Zm-8.87-24q-1,2.28-2.31,5.54t-2.65,7.1h9.92q-1.39-3.83-2.7-7.14T368.17,212.38Z"/><path d="M439.66,211.26q-.14,2.93-.31,6a52.59,52.59,0,0,1-.65,5.85,30.31,30.31,0,0,1-1.31,5.29,14.64,14.64,0,0,1-2.39,4.39,11.1,11.1,0,0,1-3.83,3,13.25,13.25,0,0,1-5.57,1.21l-.61-4.73a11.9,11.9,0,0,0,2.75-.61,7.38,7.38,0,0,0,2-1.11,7.48,7.48,0,0,0,1.52-1.77,12.78,12.78,0,0,0,1.14-2.49,33.87,33.87,0,0,0,1.56-8.39q.39-5,.39-11.23h18.84v29.81h-5.52V211.26Z"/><path d="M523.25,227a8.23,8.23,0,0,1-3.66,7.27q-3.62,2.46-10.18,2.46c-1.22,0-2.6-.08-4.13-.22a32.92,32.92,0,0,1-4.35-.69V206.61h5.48v10.71a13.9,13.9,0,0,1,1.39-.08h1.35Q523.25,217.24,523.25,227Zm-14.49-5.16h-1.13a8.25,8.25,0,0,0-1.22.09V232l1.39.09h2a19.54,19.54,0,0,0,2.91-.21,8.6,8.6,0,0,0,2.48-.82,4.94,4.94,0,0,0,1.74-1.55,5,5,0,0,0,0-5,4.26,4.26,0,0,0-1.78-1.59,8,8,0,0,0-2.74-.82A23.17,23.17,0,0,0,508.76,221.88Z"/><path d="M587.46,206.61h5.48v29.81h-5.48v-13.2h-13.1v13.2h-5.48V206.61h5.48v11.92h13.1Z"/><path d="M660.63,236.42c-.41-1.17-.82-2.34-1.26-3.48s-.86-2.33-1.26-3.53h-12.7c-.41,1.2-.83,2.4-1.27,3.57s-.81,2.3-1.22,3.44h-5.7q1.69-4.77,3.22-8.82t3-7.65q1.49-3.62,2.92-6.89t3-6.45h5.17q1.53,3.18,3,6.45t2.88,6.89q1.47,3.62,3,7.65t3.26,8.82Zm-8.87-24q-1,2.28-2.31,5.54t-2.66,7.1h9.93q-1.4-3.83-2.7-7.14T651.76,212.38Z"/><path d="M724.52,206.31c1.18,0,2.53.06,4,.17a28.07,28.07,0,0,1,4.27.56v29.38h-5.49V225.24H723c-.4,0-.78-.07-1.13-.13a25.4,25.4,0,0,0-1.74,2.36c-.58.87-1.16,1.8-1.74,2.8s-1.12,2-1.7,3.06-1.08,2.06-1.61,3.09h-5.82c.52-1.12,1.08-2.25,1.69-3.4s1.22-2.25,1.83-3.31,1.26-2.09,1.87-3,1.22-1.75,1.74-2.41a8.51,8.51,0,0,1-4.35-3.18,9.24,9.24,0,0,1-1.39-5.21,9,9,0,0,1,1-4.21,8.26,8.26,0,0,1,2.79-3,13.58,13.58,0,0,1,4.39-1.81A25.39,25.39,0,0,1,724.52,206.31Zm-.39,4.69a17.55,17.55,0,0,0-3.09.26,7.52,7.52,0,0,0-2.44.77,4.3,4.3,0,0,0-1.65,1.51,4.41,4.41,0,0,0-.57,2.32,4.6,4.6,0,0,0,.57,2.41,4.26,4.26,0,0,0,1.69,1.5,8.57,8.57,0,0,0,2.7.78,28.1,28.1,0,0,0,3.61.21h2.39v-9.63C726.33,211,725.26,211,724.13,211Z"/><path d="M849.15,236.42c-.75-1.14-1.62-2.35-2.61-3.61s-2-2.48-3.13-3.66-2.19-2.29-3.35-3.35a32.48,32.48,0,0,0-3.44-2.76v13.38h-5.48V206.61h5.48v12.3c1-.94,2-1.95,3-3s2.08-2.18,3.09-3.27,2-2.19,3-3.22l2.52-2.8h6.58q-1.44,1.63-3,3.4c-1.07,1.18-2.18,2.37-3.31,3.57s-2.27,2.35-3.43,3.53-2.25,2.29-3.35,3.35a37.54,37.54,0,0,1,3.69,3.23,53.86,53.86,0,0,1,3.75,3.91q1.81,2.07,3.48,4.35t3.09,4.47Z"/><path d="M912.41,211.26q-.13,2.93-.31,6a52.59,52.59,0,0,1-.65,5.85,30.31,30.31,0,0,1-1.3,5.29,14.66,14.66,0,0,1-2.4,4.39,11.1,11.1,0,0,1-3.83,3,13.24,13.24,0,0,1-5.56,1.21l-.61-4.73a11.93,11.93,0,0,0,2.74-.61,7.38,7.38,0,0,0,2-1.11,7.48,7.48,0,0,0,1.52-1.77,12.22,12.22,0,0,0,1.14-2.49,33.87,33.87,0,0,0,1.56-8.39q.39-5,.39-11.23H926v29.81h-5.52V211.26Z"/><path d="M973.68,236.42V206.61h5.44V226.4q1.47-2.33,3.35-5c1.27-1.81,2.58-3.6,3.91-5.38s2.72-3.48,4-5.12,2.58-3.09,3.74-4.3h4.48v29.81h-5.39V215.09q-1.83,2.15-3.87,4.86t-4,5.55q-2,2.83-3.79,5.67t-3.31,5.25Z"/><path d="M1064.93,206.61h5.48v29.81h-5.48v-13.2h-13.1v13.2h-5.48V206.61h5.48v11.92h13.1Z"/><path d="M1118.09,236.42V206.61h5.44V226.4c1-1.55,2.1-3.21,3.34-5s2.59-3.6,3.92-5.38,2.71-3.48,4-5.12,2.58-3.09,3.74-4.3h4.48v29.81h-5.39V215.09q-1.83,2.15-3.88,4.86t-4,5.55q-1.95,2.83-3.78,5.67t-3.31,5.25Z"/><path d="M1208.77,236.42c-.75-1.14-1.63-2.35-2.61-3.61s-2-2.48-3.13-3.66-2.19-2.29-3.35-3.35a32.48,32.48,0,0,0-3.44-2.76v13.38h-5.48V206.61h5.48v12.3c1-.94,2-1.95,3-3s2.08-2.18,3.09-3.27,2-2.19,3-3.22l2.52-2.8h6.57c-1,1.09-2,2.22-3,3.4s-2.18,2.37-3.31,3.57-2.28,2.35-3.44,3.53-2.25,2.29-3.35,3.35a37.6,37.6,0,0,1,3.7,3.23,51.71,51.71,0,0,1,3.74,3.91q1.83,2.07,3.49,4.35t3.08,4.47Z"/><path d="M1280.9,236.42c-.41-1.17-.83-2.34-1.27-3.48s-.85-2.33-1.26-3.53h-12.71c-.4,1.2-.82,2.4-1.26,3.57s-.81,2.3-1.22,3.44h-5.69q1.69-4.77,3.21-8.82t3-7.65q1.48-3.62,2.92-6.89c1-2.18,1.94-4.33,3-6.45h5.17q1.53,3.18,3,6.45t2.87,6.89q1.49,3.62,3,7.65t3.26,8.82Zm-8.88-24q-1,2.28-2.31,5.54c-.84,2.18-1.73,4.55-2.65,7.1H1277q-1.39-3.83-2.7-7.14T1272,212.38Z"/><path class="cls-2" d="M1154,7.92a14.22,14.22,0,0,0-14.36,14.38,14.36,14.36,0,1,0,28.72,0A14.57,14.57,0,0,0,1154,7.92Zm0,23.58a9.31,9.31,0,0,1-9.17-9.2,9.08,9.08,0,0,1,9.17-9.19,9.31,9.31,0,0,1,9.18,9.19A9.31,9.31,0,0,1,1154,31.5Z"/><path class="cls-2" d="M1154,58.62c-7.78,0-14.35,6.75-14.35,14.74v88.88a2.59,2.59,0,0,0,2.59,2.59h23.53a2.59,2.59,0,0,0,2.59-2.59V73.36C1168.39,65.37,1161.81,58.62,1154,58.62Zm9.18,101h-18.35V73.36a9.18,9.18,0,1,1,18.35,0Z"/><path class="cls-2" d="M989.32,36.68a14.55,14.55,0,0,0,14.35-14.38A14.56,14.56,0,0,0,989.32,7.92,14.22,14.22,0,0,0,975,22.3,14.56,14.56,0,0,0,989.32,36.68Zm0-23.57a9.2,9.2,0,1,1-9.18,9.19A9.08,9.08,0,0,1,989.32,13.11Z"/><path class="cls-2" d="M989.32,58.56A14.7,14.7,0,0,0,975,73.2v89a2.59,2.59,0,0,0,2.59,2.59h23.53a2.59,2.59,0,0,0,2.6-2.59V73.07C1003.25,64.94,996.94,58.56,989.32,58.56Zm9.17,101.09H980.14V73.2a9.44,9.44,0,0,1,9.18-9.45c4.86,0,8.9,4.21,9.17,9.45Z"/><path class="cls-2" d="M945.62,8.1a14.68,14.68,0,0,0-14.36,14.61V162.24a2.59,2.59,0,0,0,2.59,2.59h23.53a2.59,2.59,0,0,0,2.6-2.59V22.71A14.68,14.68,0,0,0,945.62,8.1Zm9.17,151.55H936.44V22.71a9.18,9.18,0,1,1,18.35,0Z"/><path class="cls-2" d="M863.26,88a22.87,22.87,0,0,1,20.28,12.12,2.58,2.58,0,0,0,2.29,1.37h27.85a2.6,2.6,0,0,0,2.51-3.25C910.05,74.92,888.58,58.62,864,58.62c-29.62,0-53.72,23.82-53.72,53.1s24.1,53.11,53.72,53.11c24.71,0,46.18-16.31,52.22-39.65a2.6,2.6,0,0,0-2.51-3.25H885.13a2.6,2.6,0,0,0-2.24,1.29C879.06,129.8,871.35,134,863.26,134a23,23,0,1,1,0-46Zm-28.33,23a28.38,28.38,0,0,0,51.63,16.09h23.65c-6.51,19.31-25.06,32.53-46.24,32.53-26.76,0-48.54-21.5-48.54-47.93S837.21,63.8,864,63.8c21.09,0,39.63,13.22,46.23,32.53H887.34A28.29,28.29,0,0,0,834.93,111Z"/><path class="cls-2" d="M784.27,136.07a14.22,14.22,0,0,0-14.36,14.38,14.36,14.36,0,1,0,14.36-14.38Zm0,23.58a9.32,9.32,0,0,1-9.18-9.2,9.09,9.09,0,0,1,9.18-9.19,9.2,9.2,0,0,1,0,18.39Z"/><path class="cls-2" d="M1286.81,121.93h-28.56a2.58,2.58,0,0,0-2.19,1.22A23.1,23.1,0,1,1,1236.39,88a22.89,22.89,0,0,1,20.28,12.12,2.58,2.58,0,0,0,2.29,1.37h27.85a2.6,2.6,0,0,0,2.51-3.25c-6.14-23.34-27.62-39.64-52.22-39.64-29.63,0-53.73,23.82-53.73,53.1s24.1,53.11,53.73,53.11c24.7,0,46.17-16.31,52.22-39.65a2.6,2.6,0,0,0-2.51-3.25Zm-49.71,37.72c-26.77,0-48.54-21.5-48.54-47.93s21.77-47.92,48.54-47.92c21.09,0,39.63,13.22,46.23,32.53h-22.87a28.13,28.13,0,1,0-.82,30.79h23.7C1276.82,146.43,1258.27,159.65,1237.1,159.65Z"/><path class="cls-2" d="M1072.39,58.62h-2.07a51.24,51.24,0,0,0-23,5.51V61.21a2.58,2.58,0,0,0-2.59-2.59h-23.51a2.59,2.59,0,0,0-2.6,2.59v101a2.59,2.59,0,0,0,2.59,2.59h23.52a2.59,2.59,0,0,0,2.59-2.59V110.82c1-12.18,11.46-22.46,23-22.46H1072c12.23,0,23,11.24,23,24.06v49.82a2.59,2.59,0,0,0,2.6,2.59h24.51a2.59,2.59,0,0,0,2.59-2.59V111C1124.32,81.62,1101.35,58.62,1072.39,58.62Zm-48.55,101V63.8h18.33v95.8Zm95.66.05h-19.32V112.42c0-15.85-12.89-29.24-28.14-29.24h-1.72c-9.24,0-17.75,5.07-23,12.69V70a46.74,46.74,0,0,1,23-6.17h2.07c26.09,0,46.78,20.75,47.11,47.25Z"/><path class="cls-1" d="M505.16,60.82a50.58,50.58,0,0,0,0,101.16,69.13,69.13,0,0,0,12.09-1.37l9.67,5.16L538.66,172l.35-13.42.35-10.32a50.11,50.11,0,0,0,16.23-36.82A50.69,50.69,0,0,0,505.16,60.82Zm0,75.88a25.36,25.36,0,1,1,25.21-25.3A25.24,25.24,0,0,1,505.16,136.7Z"/><path class="cls-2" d="M631.22,58.81l-.81-.05c-.7,0-1.41-.09-2.13-.09h-2.07a51.24,51.24,0,0,0-23,5.51V61.26a2.6,2.6,0,0,0-.75-1.83,2.64,2.64,0,0,0-1.84-.76H577.14a2.59,2.59,0,0,0-2.59,2.59v101a2.59,2.59,0,0,0,2.59,2.59h23.52a2.59,2.59,0,0,0,2.59-2.59V110.88c1-12.18,11.46-22.46,23-22.46h1.72a20,20,0,0,1,2.8.21,2.55,2.55,0,0,0,2.06-.61,2.6,2.6,0,0,0,.89-2V61.4A2.6,2.6,0,0,0,631.22,58.81ZM579.73,159.65V63.85h18.33v95.8Zm48.76-76.41h-2.28c-9.23,0-17.75,5.07-23,12.7V70a46.77,46.77,0,0,1,23-6.17h2.28Z"/><path class="cls-2" d="M104.65,8.1A15.23,15.23,0,0,0,89.44,23.32V64a53.49,53.49,0,0,0-22.61-5,52.93,52.93,0,1,0,53,52.75V23.32A15.23,15.23,0,0,0,104.65,8.1Zm10,103.62a47.63,47.63,0,1,1-25.22-42V95.9a27.83,27.83,0,1,0,5.19,16.17V23.32a10,10,0,1,1,20,0Zm-25.22.35A22.62,22.62,0,1,1,66.83,89.41,22.66,22.66,0,0,1,89.44,112.07Z"/><path class="cls-2" d="M308.56,88a22.89,22.89,0,0,1,20.28,12.12,2.58,2.58,0,0,0,2.29,1.37H359a2.59,2.59,0,0,0,2.5-3.24c-6-23.34-27.52-39.65-52.23-39.65-29.62,0-53.71,23.82-53.71,53.1s24.09,53.11,53.71,53.11c24.71,0,46.19-16.31,52.23-39.65a2.6,2.6,0,0,0-2.5-3.25H330.42a2.6,2.6,0,0,0-2.19,1.22A23.1,23.1,0,1,1,308.56,88Zm-28.33,23a28.35,28.35,0,0,0,51.58,16.09h23.7c-6.51,19.31-25.06,32.53-46.25,32.53-26.76,0-48.53-21.5-48.53-47.93S282.5,63.8,309.26,63.8C330.45,63.8,349,77,355.51,96.33H332.63a28.29,28.29,0,0,0-52.4,14.7Z"/><path class="cls-2" d="M187.9,58.7A53.07,53.07,0,1,0,241,111.77,53.13,53.13,0,0,0,187.9,58.7Zm0,101a47.89,47.89,0,1,1,47.88-47.88A47.94,47.94,0,0,1,187.9,159.65Z"/><path class="cls-2" d="M187.9,84a27.8,27.8,0,1,0,27.8,27.8A27.84,27.84,0,0,0,187.9,84Zm0,50.41a22.62,22.62,0,1,1,22.61-22.61A22.63,22.63,0,0,1,187.9,134.38Z"/><path class="cls-2" d="M434.54,89.84a2.59,2.59,0,0,0,2.59-2.59V62.34a2.59,2.59,0,0,0-2.59-2.6H407V23.32a15.2,15.2,0,1,0-30.4,0v88.4a51.68,51.68,0,0,0,.33,5.74c0,.22.05.43.13.88.18,1.4.38,2.8.66,4.16a53.18,53.18,0,0,0,51.9,42.33h.69c1.51,0,3-.07,4.46-.19a2.59,2.59,0,0,0,2.39-2.58v-26a2.59,2.59,0,0,0-.95-2,2.5,2.5,0,0,0-2.14-.54,22.86,22.86,0,0,1-24.7-11.37A22.66,22.66,0,0,1,407,112.07V89.84ZM432,64.93V84.66H407V64.93Zm-2.37,74.3c.77,0,1.55,0,2.37-.12v20.51a13.3,13.3,0,0,1-1.67,0h-.69a48,48,0,0,1-46.82-38.2c-.26-1.23-.44-2.49-.6-3.77,0,0-.11-.72-.12-.76a45.61,45.61,0,0,1-.29-5.36V23.32a10,10,0,1,1,20,0v88.75a27.76,27.76,0,0,0,3,12.52A28.39,28.39,0,0,0,429.58,139.23Z"/><path class="cls-2" d="M725.06,67a53.08,53.08,0,1,0-5.72,92.74v2.54a2.59,2.59,0,0,0,2.59,2.59h25.26a2.59,2.59,0,0,0,2.59-2.59v-50.5A52.82,52.82,0,0,0,725.06,67Zm-28.34,67.38a22.62,22.62,0,1,1,22.62-22.62A22.64,22.64,0,0,1,696.72,134.34Zm47.88,25.31H724.53V111.77h0v0a27.85,27.85,0,1,0-5.18,16.14v26a47.76,47.76,0,1,1,25.26-42.13Z"/><path class="cls-2" d="M1312.74,56a23.62,23.62,0,0,1-12.07-3.2,24.89,24.89,0,0,1-8.74-8.74,23.72,23.72,0,0,1-3.2-12.07,23.4,23.4,0,0,1,3.2-12,24.25,24.25,0,0,1,8.74-8.74,23.3,23.3,0,0,1,12.07-3.27,23,23,0,0,1,12,3.27,23.64,23.64,0,0,1,8.74,8.74,23,23,0,0,1,3.27,12A23.3,23.3,0,0,1,1333.49,44a24.25,24.25,0,0,1-8.74,8.74A23.3,23.3,0,0,1,1312.74,56Zm0-4.2a18.78,18.78,0,0,0,9.81-2.67,20.11,20.11,0,0,0,7.07-7.27,19.58,19.58,0,0,0,0-19.74,19.24,19.24,0,0,0-7.14-7.27,18.24,18.24,0,0,0-9.74-2.74,18.58,18.58,0,0,0-9.8,2.74,20,20,0,0,0-9.68,17.14,19.52,19.52,0,0,0,2.6,9.87,20.14,20.14,0,0,0,7.08,7.27A19,19,0,0,0,1312.74,51.75ZM1305,44.08a1.38,1.38,0,0,1-1.47-1.47V21.13a1.41,1.41,0,0,1,.4-1.06,1.44,1.44,0,0,1,1.07-.41h8.73a11.13,11.13,0,0,1,6.81,1.94q2.6,1.86,2.6,5.94a7.36,7.36,0,0,1-1.27,4.33,7.18,7.18,0,0,1-3.33,2.6l4.27,7.21a1.69,1.69,0,0,1,.26.93,1.58,1.58,0,0,1-.4,1.07,1.3,1.3,0,0,1-1.06.4h-1.8a2.09,2.09,0,0,1-1.94-1.27l-4.34-7.4h-5.07v7.2a1.43,1.43,0,0,1-.4,1.07,1.41,1.41,0,0,1-1.06.4Zm8.6-13.08c3,0,4.54-1.15,4.54-3.46s-1.52-3.54-4.54-3.54h-5.14v7Z"/></svg>