<?xml version="1.0" encoding="utf-8"?>
<!-- Generator: Adobe Illustrator 24.0.2, SVG Export Plug-In . SVG Version: 6.00 Build 0)  -->
<svg version="1.1" id="Layer_1" xmlns="http://www.w3.org/2000/svg" xmlns:xlink="http://www.w3.org/1999/xlink" x="0px" y="0px"
	 viewBox="0 0 334 58" style="enable-background:new 0 0 334 58;" xml:space="preserve">
<style type="text/css">
	.st0{fill:#FFFFFF;}
	.st1{fill-rule:evenodd;clip-rule:evenodd;fill:url(#SVGID_1_);}
	.st2{fill-rule:evenodd;clip-rule:evenodd;fill:url(#SVGID_2_);}
</style>
<path class="st0" d="M13.1,56.1c-0.4,0-0.8,0-1.1,0c-0.3,0-0.7-0.1-1-0.1V49c0.2,0,0.3,0,0.5-0.1c0.2,0,0.3,0,0.5-0.1
	c0.2,0,0.4,0,0.5,0c0.2,0,0.3,0,0.5,0c0.4,0,0.8,0,1.2,0.1c0.3,0.1,0.7,0.2,0.9,0.3c0.3,0.1,0.5,0.3,0.6,0.6
	c0.2,0.3,0.2,0.6,0.2,0.9c0,0.3-0.1,0.6-0.2,0.9c-0.2,0.2-0.4,0.4-0.7,0.6c0.4,0.1,0.7,0.3,1,0.6c0.2,0.3,0.3,0.7,0.3,1.1
	c0,0.7-0.3,1.3-0.8,1.6C15,55.9,14.2,56.1,13.1,56.1z M12.2,52.8V55c0.1,0,0.3,0,0.5,0c0.2,0,0.3,0,0.5,0c0.2,0,0.5,0,0.7,0
	c0.2,0,0.4-0.1,0.6-0.2c0.2-0.1,0.3-0.2,0.4-0.3c0.1-0.2,0.2-0.4,0.2-0.5c0-0.3-0.1-0.7-0.4-0.8c-0.4-0.2-0.8-0.3-1.2-0.2H12.2z
	 M12.2,51.8h0.9c0.4,0,0.8-0.1,1.2-0.2c0.3-0.1,0.4-0.4,0.4-0.8c0-0.3-0.2-0.6-0.4-0.7c-0.4-0.2-0.7-0.2-1.1-0.2c-0.2,0-0.4,0-0.5,0
	s-0.3,0-0.4,0V51.8z"/>
<path class="st0" d="M27.3,56v-7.1h1.3v4.7c0.2-0.4,0.5-0.8,0.8-1.2c0.3-0.4,0.6-0.9,0.9-1.3c0.3-0.4,0.6-0.8,0.9-1.2
	c0.3-0.4,0.6-0.7,0.9-1h1.1V56h-1.3v-5.1c-0.3,0.3-0.6,0.7-0.9,1.2s-0.6,0.9-0.9,1.3s-0.6,0.9-0.9,1.3c-0.3,0.4-0.5,0.9-0.8,1.2
	H27.3z"/>
<path class="st0" d="M46.5,48.9c1,0,1.8,0.2,2.4,0.6c0.5,0.4,0.8,1,0.8,1.8c0,0.4-0.1,0.7-0.2,1.1c-0.1,0.3-0.4,0.5-0.6,0.7
	c-0.3,0.2-0.7,0.3-1,0.4c-0.5,0.1-0.9,0.1-1.4,0.1h-0.6V56h-1.3v-7c0.3-0.1,0.7-0.1,1-0.1C45.9,48.9,46.2,48.9,46.5,48.9z M46.6,50
	c-0.3,0-0.6,0-0.8,0v2.4h0.6c0.5,0,1-0.1,1.4-0.3c0.3-0.2,0.5-0.5,0.5-1c0-0.2,0-0.4-0.1-0.6c-0.1-0.2-0.2-0.3-0.4-0.4
	c-0.2-0.1-0.4-0.2-0.6-0.2C47.1,50,46.8,50,46.6,50z"/>
<path class="st0" d="M65.5,48.9v1.1h-2.2v6H62v-6h-2.2v-1.1H65.5z"/>
<path class="st0" d="M79.7,53.9c-0.2,0.3-0.3,0.7-0.5,1c-0.2,0.3-0.4,0.5-0.6,0.7c-0.2,0.2-0.5,0.3-0.7,0.4
	c-0.3,0.1-0.6,0.1-0.9,0.1c-0.2,0-0.4,0-0.6-0.1c-0.2,0-0.4-0.1-0.5-0.2l0.2-1.1c0.1,0.1,0.3,0.1,0.4,0.1c0.1,0,0.3,0,0.4,0
	c0.3,0,0.6-0.1,0.8-0.2c0.2-0.2,0.4-0.4,0.6-0.7c-0.3-0.5-0.6-0.9-0.8-1.4c-0.3-0.5-0.5-0.9-0.7-1.4c-0.2-0.4-0.4-0.9-0.6-1.3
	s-0.4-0.8-0.5-1.1h1.5c0.1,0.3,0.2,0.6,0.4,0.9c0.1,0.3,0.3,0.6,0.5,1s0.3,0.7,0.5,1c0.2,0.4,0.4,0.7,0.5,1.1
	c0.2-0.6,0.5-1.3,0.7-1.9s0.4-1.4,0.6-2h1.4c-0.2,0.5-0.3,1-0.5,1.4c-0.2,0.4-0.3,0.9-0.5,1.3s-0.3,0.8-0.5,1.2S79.9,53.5,79.7,53.9
	z"/>
<path class="st0" d="M96.3,56c-0.1-0.3-0.2-0.6-0.3-0.8s-0.2-0.6-0.3-0.8h-3c-0.1,0.3-0.2,0.6-0.3,0.8s-0.2,0.5-0.3,0.8h-1.4
	c0.3-0.8,0.5-1.4,0.8-2.1c0.2-0.6,0.5-1.2,0.7-1.8c0.2-0.6,0.5-1.1,0.7-1.6c0.2-0.5,0.5-1,0.7-1.5h1.2c0.2,0.5,0.5,1,0.7,1.5
	c0.2,0.5,0.5,1.1,0.7,1.6c0.2,0.6,0.5,1.2,0.7,1.8c0.2,0.6,0.5,1.3,0.8,2.1L96.3,56z M94.2,50.3c-0.2,0.4-0.3,0.8-0.5,1.3
	c-0.2,0.5-0.4,1.1-0.6,1.7h2.3c-0.2-0.6-0.4-1.2-0.6-1.7S94.4,50.7,94.2,50.3L94.2,50.3z"/>
<path class="st0" d="M111.2,50c0,0.5,0,0.9-0.1,1.4c0,0.5-0.1,0.9-0.2,1.4c-0.1,0.4-0.2,0.8-0.3,1.3c-0.1,0.4-0.3,0.7-0.6,1
	c-0.2,0.3-0.6,0.5-0.9,0.7c-0.4,0.2-0.9,0.3-1.3,0.3l-0.1-1.1c0.2,0,0.4-0.1,0.7-0.1c0.2-0.1,0.3-0.2,0.5-0.3
	c0.1-0.1,0.3-0.3,0.4-0.4c0.1-0.2,0.2-0.4,0.3-0.6c0.2-0.6,0.3-1.3,0.4-2c0.1-0.8,0.1-1.7,0.1-2.7h4.5V56h-1.3v-6H111.2z"/>
<path class="st0" d="M131,53.8c0,0.7-0.3,1.3-0.9,1.7c-0.6,0.4-1.4,0.6-2.4,0.6c-0.3,0-0.6,0-1-0.1c-0.3,0-0.7-0.1-1-0.2v-6.9h1.3
	v2.5c0.1,0,0.2,0,0.3,0h0.3C129.9,51.5,131,52.2,131,53.8z M127.6,52.5h-0.3c-0.1,0-0.2,0-0.3,0V55l0.3,0h0.5c0.2,0,0.5,0,0.7,0
	c0.2,0,0.4-0.1,0.6-0.2c0.2-0.1,0.3-0.2,0.4-0.4c0.2-0.4,0.2-0.8,0-1.2c-0.1-0.2-0.2-0.3-0.4-0.4c-0.2-0.1-0.4-0.2-0.6-0.2
	C128.1,52.6,127.8,52.6,127.6,52.5L127.6,52.5z"/>
<path class="st0" d="M146.2,48.9h1.3V56h-1.3v-3.1h-3.1V56h-1.3v-7.1h1.3v2.8h3.1V48.9z"/>
<path class="st0" d="M163.5,56c-0.1-0.3-0.2-0.6-0.3-0.8c-0.1-0.3-0.2-0.6-0.3-0.8h-3c-0.1,0.3-0.2,0.6-0.3,0.8
	c-0.1,0.3-0.2,0.5-0.3,0.8H158c0.3-0.8,0.5-1.4,0.8-2.1c0.2-0.6,0.5-1.2,0.7-1.8c0.2-0.6,0.5-1.1,0.7-1.6c0.2-0.5,0.5-1,0.7-1.5h1.2
	c0.2,0.5,0.5,1,0.7,1.5c0.2,0.5,0.5,1.1,0.7,1.6c0.2,0.6,0.5,1.2,0.7,1.8c0.2,0.6,0.5,1.3,0.8,2.1L163.5,56z M161.4,50.3
	c-0.2,0.4-0.3,0.8-0.5,1.3c-0.2,0.5-0.4,1.1-0.6,1.7h2.4c-0.2-0.6-0.4-1.2-0.6-1.7S161.6,50.7,161.4,50.3L161.4,50.3z"/>
<path class="st0" d="M178.7,48.9c0.3,0,0.6,0,0.9,0c0.3,0,0.7,0.1,1,0.1v7h-1.3v-2.6h-1c-0.1,0-0.2,0-0.3,0
	c-0.1,0.2-0.3,0.4-0.4,0.6c-0.1,0.2-0.3,0.4-0.4,0.7s-0.3,0.5-0.4,0.7c-0.1,0.3-0.3,0.5-0.4,0.7H175c0.1-0.3,0.3-0.5,0.4-0.8
	s0.3-0.5,0.4-0.8c0.1-0.3,0.3-0.5,0.4-0.7c0.1-0.2,0.3-0.4,0.4-0.6c-0.4-0.1-0.8-0.4-1-0.8c-0.2-0.4-0.3-0.8-0.3-1.2
	c0-0.3,0.1-0.7,0.2-1c0.2-0.3,0.4-0.5,0.7-0.7c0.3-0.2,0.7-0.3,1-0.4C177.8,48.9,178.2,48.9,178.7,48.9z M178.6,50
	c-0.2,0-0.5,0-0.7,0.1c-0.2,0-0.4,0.1-0.6,0.2c-0.2,0.1-0.3,0.2-0.4,0.4c-0.1,0.2-0.1,0.4-0.1,0.5c0,0.2,0,0.4,0.1,0.6
	c0.1,0.2,0.2,0.3,0.4,0.4c0.2,0.1,0.4,0.2,0.6,0.2c0.3,0,0.6,0.1,0.9,0h0.6V50C179.1,50,178.8,50,178.6,50z"/>
<path class="st0" d="M208.2,56c-0.2-0.3-0.4-0.6-0.6-0.9c-0.2-0.3-0.5-0.6-0.7-0.9c-0.3-0.3-0.5-0.5-0.8-0.8
	c-0.3-0.2-0.5-0.5-0.8-0.7V56h-1.3v-7.1h1.3v2.9c0.2-0.2,0.5-0.5,0.7-0.7c0.2-0.2,0.5-0.5,0.7-0.8c0.2-0.3,0.5-0.5,0.7-0.8l0.6-0.7
	h1.6c-0.2,0.3-0.5,0.5-0.7,0.8c-0.3,0.3-0.5,0.6-0.8,0.8c-0.3,0.3-0.5,0.6-0.8,0.8c-0.3,0.3-0.5,0.5-0.8,0.8
	c0.3,0.2,0.6,0.5,0.9,0.8c0.3,0.3,0.6,0.6,0.9,0.9c0.3,0.3,0.6,0.7,0.8,1c0.3,0.4,0.5,0.7,0.7,1.1L208.2,56z"/>
<path class="st0" d="M223.2,50c0,0.5,0,0.9-0.1,1.4c0,0.5-0.1,0.9-0.2,1.4c-0.1,0.4-0.2,0.8-0.3,1.3c-0.1,0.4-0.3,0.7-0.6,1
	c-0.2,0.3-0.6,0.5-0.9,0.7c-0.4,0.2-0.9,0.3-1.3,0.3l-0.1-1.1c0.2,0,0.4-0.1,0.6-0.1c0.2-0.1,0.3-0.2,0.5-0.3
	c0.1-0.1,0.3-0.3,0.4-0.4c0.1-0.2,0.2-0.4,0.3-0.6c0.2-0.6,0.3-1.3,0.4-2c0.1-0.8,0.1-1.7,0.1-2.7h4.5V56h-1.3v-6H223.2z"/>
<path class="st0" d="M237.7,56v-7.1h1.3v4.7c0.2-0.4,0.5-0.8,0.8-1.2c0.3-0.4,0.6-0.9,0.9-1.3c0.3-0.4,0.6-0.8,0.9-1.2
	c0.3-0.4,0.6-0.7,0.9-1h1.1V56h-1.3v-5.1c-0.3,0.3-0.6,0.7-0.9,1.2c-0.3,0.4-0.6,0.9-0.9,1.3c-0.3,0.4-0.6,0.9-0.9,1.3
	c-0.3,0.4-0.5,0.9-0.8,1.2H237.7z"/>
<path class="st0" d="M259.3,48.9h1.3V56h-1.3v-3.1h-3.1V56h-1.3v-7.1h1.3v2.8h3.1V48.9z"/>
<path class="st0" d="M271.9,56v-7.1h1.3v4.7c0.2-0.4,0.5-0.8,0.8-1.2c0.3-0.4,0.6-0.9,0.9-1.3c0.3-0.4,0.6-0.8,0.9-1.2
	c0.3-0.4,0.6-0.7,0.9-1h1.1V56h-1.3v-5.1c-0.3,0.3-0.6,0.7-0.9,1.2c-0.3,0.4-0.6,0.9-0.9,1.3c-0.3,0.4-0.6,0.9-0.9,1.3
	c-0.3,0.4-0.6,0.9-0.8,1.2H271.9z"/>
<path class="st0" d="M293.4,56c-0.2-0.3-0.4-0.6-0.6-0.9c-0.2-0.3-0.5-0.6-0.7-0.9c-0.3-0.3-0.5-0.5-0.8-0.8
	c-0.3-0.2-0.5-0.5-0.8-0.7V56h-1.3v-7.1h1.3v2.9c0.2-0.2,0.5-0.5,0.7-0.7s0.5-0.5,0.7-0.8c0.2-0.3,0.5-0.5,0.7-0.8l0.6-0.7h1.6
	c-0.2,0.3-0.5,0.5-0.7,0.8c-0.2,0.3-0.5,0.6-0.8,0.8c-0.3,0.3-0.5,0.6-0.8,0.8c-0.3,0.3-0.5,0.5-0.8,0.8c0.3,0.2,0.6,0.5,0.9,0.8
	c0.3,0.3,0.6,0.6,0.9,0.9c0.3,0.3,0.6,0.7,0.8,1c0.3,0.4,0.5,0.7,0.7,1.1L293.4,56z"/>
<path class="st0" d="M310.5,56c-0.1-0.3-0.2-0.6-0.3-0.8c-0.1-0.3-0.2-0.6-0.3-0.8h-3c-0.1,0.3-0.2,0.6-0.3,0.8
	c-0.1,0.3-0.2,0.5-0.3,0.8h-1.3c0.3-0.8,0.5-1.4,0.8-2.1c0.2-0.6,0.5-1.2,0.7-1.8c0.2-0.6,0.5-1.1,0.7-1.6c0.2-0.5,0.5-1,0.7-1.5
	h1.2c0.2,0.5,0.5,1,0.7,1.5c0.2,0.5,0.5,1.1,0.7,1.6c0.2,0.6,0.5,1.2,0.7,1.8c0.2,0.6,0.5,1.3,0.8,2.1L310.5,56z M308.3,50.3
	c-0.2,0.4-0.3,0.8-0.5,1.3c-0.2,0.5-0.4,1.1-0.6,1.7h2.4c-0.2-0.6-0.4-1.2-0.6-1.7S308.5,50.7,308.3,50.3L308.3,50.3z"/>
<radialGradient id="SVGID_1_" cx="-15.6559" cy="248.8904" r="3.99" gradientTransform="matrix(0 2.1887 -1.9873 0 621.4014 60.7261)" gradientUnits="userSpaceOnUse">
	<stop  offset="0" style="stop-color:#70A9AD"/>
	<stop  offset="1" style="stop-color:#98D7DC"/>
</radialGradient>
<path class="st1" d="M126.7,14.4c-6.6,0-12,5.4-12,12s5.4,12,12,12c1,0,1.9-0.1,2.9-0.3l2.3,1.2l2.8,1.5l0.1-3.2l0.1-2.4
	c2.4-2.2,3.8-5.4,3.8-8.7C138.6,19.8,133.3,14.4,126.7,14.4z M126.7,32.4c-3.3,0-6-2.7-6-6s2.7-6,6-6c3.3,0,6,2.7,6,6c0,0,0,0,0,0
	C132.7,29.7,130,32.4,126.7,32.4C126.7,32.4,126.7,32.4,126.7,32.4z"/>
<path class="st0" d="M13.1,56.1c-0.4,0-0.8,0-1.1,0c-0.3,0-0.7-0.1-1-0.1V49c0.2,0,0.3,0,0.5-0.1c0.2,0,0.3,0,0.5-0.1
	c0.2,0,0.4,0,0.5,0c0.2,0,0.3,0,0.5,0c0.4,0,0.8,0,1.2,0.1c0.3,0.1,0.7,0.2,0.9,0.3c0.3,0.1,0.5,0.3,0.6,0.6
	c0.2,0.3,0.2,0.6,0.2,0.9c0,0.3-0.1,0.6-0.2,0.9c-0.2,0.2-0.4,0.4-0.7,0.6c0.4,0.1,0.7,0.3,1,0.6c0.2,0.3,0.3,0.7,0.3,1.1
	c0,0.7-0.3,1.3-0.8,1.6C15,55.9,14.2,56.1,13.1,56.1z M12.2,52.8V55c0.1,0,0.3,0,0.5,0c0.2,0,0.3,0,0.5,0c0.2,0,0.5,0,0.7,0
	c0.2,0,0.4-0.1,0.6-0.2c0.2-0.1,0.3-0.2,0.4-0.3c0.1-0.2,0.2-0.4,0.2-0.5c0-0.3-0.1-0.7-0.4-0.8c-0.4-0.2-0.8-0.3-1.2-0.2H12.2z
	 M12.2,51.8h0.9c0.4,0,0.8-0.1,1.2-0.2c0.3-0.1,0.4-0.4,0.4-0.8c0-0.3-0.2-0.6-0.4-0.7c-0.4-0.2-0.7-0.2-1.1-0.2c-0.2,0-0.4,0-0.5,0
	s-0.3,0-0.4,0V51.8z"/>
<path class="st0" d="M27.3,56v-7.1h1.3v4.7c0.2-0.4,0.5-0.8,0.8-1.2c0.3-0.4,0.6-0.9,0.9-1.3c0.3-0.4,0.6-0.8,0.9-1.2
	c0.3-0.4,0.6-0.7,0.9-1h1.1V56h-1.3v-5.1c-0.3,0.3-0.6,0.7-0.9,1.2s-0.6,0.9-0.9,1.3s-0.6,0.9-0.9,1.3c-0.3,0.4-0.5,0.9-0.8,1.2
	H27.3z"/>
<path class="st0" d="M46.5,48.9c1,0,1.8,0.2,2.4,0.6c0.5,0.4,0.8,1,0.8,1.8c0,0.4-0.1,0.7-0.2,1.1c-0.1,0.3-0.4,0.5-0.6,0.7
	c-0.3,0.2-0.7,0.3-1,0.4c-0.5,0.1-0.9,0.1-1.4,0.1h-0.6V56h-1.3v-7c0.3-0.1,0.7-0.1,1-0.1C45.9,48.9,46.2,48.9,46.5,48.9z M46.6,50
	c-0.3,0-0.6,0-0.8,0v2.4h0.6c0.5,0,1-0.1,1.4-0.3c0.3-0.2,0.5-0.5,0.5-1c0-0.2,0-0.4-0.1-0.6c-0.1-0.2-0.2-0.3-0.4-0.4
	c-0.2-0.1-0.4-0.2-0.6-0.2C47.1,50,46.8,50,46.6,50z"/>
<path class="st0" d="M65.5,48.9v1.1h-2.2v6H62v-6h-2.2v-1.1H65.5z"/>
<path class="st0" d="M79.7,53.9c-0.2,0.3-0.3,0.7-0.5,1c-0.2,0.3-0.4,0.5-0.6,0.7c-0.2,0.2-0.5,0.3-0.7,0.4
	c-0.3,0.1-0.6,0.1-0.9,0.1c-0.2,0-0.4,0-0.6-0.1c-0.2,0-0.4-0.1-0.5-0.2l0.2-1.1c0.1,0.1,0.3,0.1,0.4,0.1c0.1,0,0.3,0,0.4,0
	c0.3,0,0.6-0.1,0.8-0.2c0.2-0.2,0.4-0.4,0.6-0.7c-0.3-0.5-0.6-0.9-0.8-1.4c-0.3-0.5-0.5-0.9-0.7-1.4c-0.2-0.4-0.4-0.9-0.6-1.3
	s-0.4-0.8-0.5-1.1h1.5c0.1,0.3,0.2,0.6,0.4,0.9c0.1,0.3,0.3,0.6,0.5,1s0.3,0.7,0.5,1c0.2,0.4,0.4,0.7,0.5,1.1
	c0.2-0.6,0.5-1.3,0.7-1.9s0.4-1.4,0.6-2h1.4c-0.2,0.5-0.3,1-0.5,1.4c-0.2,0.4-0.3,0.9-0.5,1.3s-0.3,0.8-0.5,1.2S79.9,53.5,79.7,53.9
	z"/>
<path class="st0" d="M96.3,56c-0.1-0.3-0.2-0.6-0.3-0.8s-0.2-0.6-0.3-0.8h-3c-0.1,0.3-0.2,0.6-0.3,0.8s-0.2,0.5-0.3,0.8h-1.4
	c0.3-0.8,0.5-1.4,0.8-2.1c0.2-0.6,0.5-1.2,0.7-1.8c0.2-0.6,0.5-1.1,0.7-1.6c0.2-0.5,0.5-1,0.7-1.5h1.2c0.2,0.5,0.5,1,0.7,1.5
	c0.2,0.5,0.5,1.1,0.7,1.6c0.2,0.6,0.5,1.2,0.7,1.8c0.2,0.6,0.5,1.3,0.8,2.1L96.3,56z M94.2,50.3c-0.2,0.4-0.3,0.8-0.5,1.3
	c-0.2,0.5-0.4,1.1-0.6,1.7h2.3c-0.2-0.6-0.4-1.2-0.6-1.7S94.4,50.7,94.2,50.3L94.2,50.3z"/>
<path class="st0" d="M111.2,50c0,0.5,0,0.9-0.1,1.4c0,0.5-0.1,0.9-0.2,1.4c-0.1,0.4-0.2,0.8-0.3,1.3c-0.1,0.4-0.3,0.7-0.6,1
	c-0.2,0.3-0.6,0.5-0.9,0.7c-0.4,0.2-0.9,0.3-1.3,0.3l-0.1-1.1c0.2,0,0.4-0.1,0.7-0.1c0.2-0.1,0.3-0.2,0.5-0.3
	c0.1-0.1,0.3-0.3,0.4-0.4c0.1-0.2,0.2-0.4,0.3-0.6c0.2-0.6,0.3-1.3,0.4-2c0.1-0.8,0.1-1.7,0.1-2.7h4.5V56h-1.3v-6H111.2z"/>
<path class="st0" d="M131,53.8c0,0.7-0.3,1.3-0.9,1.7c-0.6,0.4-1.4,0.6-2.4,0.6c-0.3,0-0.6,0-1-0.1c-0.3,0-0.7-0.1-1-0.2v-6.9h1.3
	v2.5c0.1,0,0.2,0,0.3,0h0.3C129.9,51.5,131,52.2,131,53.8z M127.6,52.5h-0.3c-0.1,0-0.2,0-0.3,0V55l0.3,0h0.5c0.2,0,0.5,0,0.7,0
	c0.2,0,0.4-0.1,0.6-0.2c0.2-0.1,0.3-0.2,0.4-0.4c0.2-0.4,0.2-0.8,0-1.2c-0.1-0.2-0.2-0.3-0.4-0.4c-0.2-0.1-0.4-0.2-0.6-0.2
	C128.1,52.6,127.8,52.6,127.6,52.5L127.6,52.5z"/>
<path class="st0" d="M146.2,48.9h1.3V56h-1.3v-3.1h-3.1V56h-1.3v-7.1h1.3v2.8h3.1V48.9z"/>
<path class="st0" d="M163.5,56c-0.1-0.3-0.2-0.6-0.3-0.8c-0.1-0.3-0.2-0.6-0.3-0.8h-3c-0.1,0.3-0.2,0.6-0.3,0.8
	c-0.1,0.3-0.2,0.5-0.3,0.8H158c0.3-0.8,0.5-1.4,0.8-2.1c0.2-0.6,0.5-1.2,0.7-1.8c0.2-0.6,0.5-1.1,0.7-1.6c0.2-0.5,0.5-1,0.7-1.5h1.2
	c0.2,0.5,0.5,1,0.7,1.5c0.2,0.5,0.5,1.1,0.7,1.6c0.2,0.6,0.5,1.2,0.7,1.8c0.2,0.6,0.5,1.3,0.8,2.1L163.5,56z M161.4,50.3
	c-0.2,0.4-0.3,0.8-0.5,1.3c-0.2,0.5-0.4,1.1-0.6,1.7h2.4c-0.2-0.6-0.4-1.2-0.6-1.7S161.6,50.7,161.4,50.3L161.4,50.3z"/>
<path class="st0" d="M178.7,48.9c0.3,0,0.6,0,0.9,0c0.3,0,0.7,0.1,1,0.1v7h-1.3v-2.6h-1c-0.1,0-0.2,0-0.3,0
	c-0.1,0.2-0.3,0.4-0.4,0.6c-0.1,0.2-0.3,0.4-0.4,0.7s-0.3,0.5-0.4,0.7c-0.1,0.3-0.3,0.5-0.4,0.7H175c0.1-0.3,0.3-0.5,0.4-0.8
	s0.3-0.5,0.4-0.8c0.1-0.3,0.3-0.5,0.4-0.7c0.1-0.2,0.3-0.4,0.4-0.6c-0.4-0.1-0.8-0.4-1-0.8c-0.2-0.4-0.3-0.8-0.3-1.2
	c0-0.3,0.1-0.7,0.2-1c0.2-0.3,0.4-0.5,0.7-0.7c0.3-0.2,0.7-0.3,1-0.4C177.8,48.9,178.2,48.9,178.7,48.9z M178.6,50
	c-0.2,0-0.5,0-0.7,0.1c-0.2,0-0.4,0.1-0.6,0.2c-0.2,0.1-0.3,0.2-0.4,0.4c-0.1,0.2-0.1,0.4-0.1,0.5c0,0.2,0,0.4,0.1,0.6
	c0.1,0.2,0.2,0.3,0.4,0.4c0.2,0.1,0.4,0.2,0.6,0.2c0.3,0,0.6,0.1,0.9,0h0.6V50C179.1,50,178.8,50,178.6,50z"/>
<path class="st0" d="M208.2,56c-0.2-0.3-0.4-0.6-0.6-0.9c-0.2-0.3-0.5-0.6-0.7-0.9c-0.3-0.3-0.5-0.5-0.8-0.8
	c-0.3-0.2-0.5-0.5-0.8-0.7V56h-1.3v-7.1h1.3v2.9c0.2-0.2,0.5-0.5,0.7-0.7c0.2-0.2,0.5-0.5,0.7-0.8c0.2-0.3,0.5-0.5,0.7-0.8l0.6-0.7
	h1.6c-0.2,0.3-0.5,0.5-0.7,0.8c-0.3,0.3-0.5,0.6-0.8,0.8c-0.3,0.3-0.5,0.6-0.8,0.8c-0.3,0.3-0.5,0.5-0.8,0.8
	c0.3,0.2,0.6,0.5,0.9,0.8c0.3,0.3,0.6,0.6,0.9,0.9c0.3,0.3,0.6,0.7,0.8,1c0.3,0.4,0.5,0.7,0.7,1.1L208.2,56z"/>
<path class="st0" d="M223.2,50c0,0.5,0,0.9-0.1,1.4c0,0.5-0.1,0.9-0.2,1.4c-0.1,0.4-0.2,0.8-0.3,1.3c-0.1,0.4-0.3,0.7-0.6,1
	c-0.2,0.3-0.6,0.5-0.9,0.7c-0.4,0.2-0.9,0.3-1.3,0.3l-0.1-1.1c0.2,0,0.4-0.1,0.6-0.1c0.2-0.1,0.3-0.2,0.5-0.3
	c0.1-0.1,0.3-0.3,0.4-0.4c0.1-0.2,0.2-0.4,0.3-0.6c0.2-0.6,0.3-1.3,0.4-2c0.1-0.8,0.1-1.7,0.1-2.7h4.5V56h-1.3v-6H223.2z"/>
<path class="st0" d="M237.7,56v-7.1h1.3v4.7c0.2-0.4,0.5-0.8,0.8-1.2c0.3-0.4,0.6-0.9,0.9-1.3c0.3-0.4,0.6-0.8,0.9-1.2
	c0.3-0.4,0.6-0.7,0.9-1h1.1V56h-1.3v-5.1c-0.3,0.3-0.6,0.7-0.9,1.2c-0.3,0.4-0.6,0.9-0.9,1.3c-0.3,0.4-0.6,0.9-0.9,1.3
	c-0.3,0.4-0.5,0.9-0.8,1.2H237.7z"/>
<path class="st0" d="M259.3,48.9h1.3V56h-1.3v-3.1h-3.1V56h-1.3v-7.1h1.3v2.8h3.1V48.9z"/>
<path class="st0" d="M271.9,56v-7.1h1.3v4.7c0.2-0.4,0.5-0.8,0.8-1.2c0.3-0.4,0.6-0.9,0.9-1.3c0.3-0.4,0.6-0.8,0.9-1.2
	c0.3-0.4,0.6-0.7,0.9-1h1.1V56h-1.3v-5.1c-0.3,0.3-0.6,0.7-0.9,1.2c-0.3,0.4-0.6,0.9-0.9,1.3c-0.3,0.4-0.6,0.9-0.9,1.3
	c-0.3,0.4-0.6,0.9-0.8,1.2H271.9z"/>
<path class="st0" d="M293.4,56c-0.2-0.3-0.4-0.6-0.6-0.9c-0.2-0.3-0.5-0.6-0.7-0.9c-0.3-0.3-0.5-0.5-0.8-0.8
	c-0.3-0.2-0.5-0.5-0.8-0.7V56h-1.3v-7.1h1.3v2.9c0.2-0.2,0.5-0.5,0.7-0.7s0.5-0.5,0.7-0.8c0.2-0.3,0.5-0.5,0.7-0.8l0.6-0.7h1.6
	c-0.2,0.3-0.5,0.5-0.7,0.8c-0.2,0.3-0.5,0.6-0.8,0.8c-0.3,0.3-0.5,0.6-0.8,0.8c-0.3,0.3-0.5,0.5-0.8,0.8c0.3,0.2,0.6,0.5,0.9,0.8
	c0.3,0.3,0.6,0.6,0.9,0.9c0.3,0.3,0.6,0.7,0.8,1c0.3,0.4,0.5,0.7,0.7,1.1L293.4,56z"/>
<path class="st0" d="M310.5,56c-0.1-0.3-0.2-0.6-0.3-0.8c-0.1-0.3-0.2-0.6-0.3-0.8h-3c-0.1,0.3-0.2,0.6-0.3,0.8
	c-0.1,0.3-0.2,0.5-0.3,0.8h-1.3c0.3-0.8,0.5-1.4,0.8-2.1c0.2-0.6,0.5-1.2,0.7-1.8c0.2-0.6,0.5-1.1,0.7-1.6c0.2-0.5,0.5-1,0.7-1.5
	h1.2c0.2,0.5,0.5,1,0.7,1.5c0.2,0.5,0.5,1.1,0.7,1.6c0.2,0.6,0.5,1.2,0.7,1.8c0.2,0.6,0.5,1.3,0.8,2.1L310.5,56z M308.3,50.3
	c-0.2,0.4-0.3,0.8-0.5,1.3c-0.2,0.5-0.4,1.1-0.6,1.7h2.4c-0.2-0.6-0.4-1.2-0.6-1.7S308.5,50.7,308.3,50.3L308.3,50.3z"/>
<path class="st0" d="M280.4,1.9c-1.9,0-3.4,1.5-3.4,3.3c0,0,0,0,0,0.1c0,1.9,1.5,3.4,3.4,3.4s3.4-1.5,3.4-3.4c0,0,0,0,0,0
	C283.8,3.4,282.3,1.9,280.4,1.9z M280.4,7.5c-1.2,0-2.2-1-2.2-2.2c0-1.2,0.9-2.2,2.1-2.2c0,0,0,0,0,0c1.2,0,2.2,1,2.2,2.2
	C282.6,6.5,281.6,7.4,280.4,7.5z"/>
<path class="st0" d="M280.4,13.9c-1.8,0-3.4,1.6-3.4,3.5v21.1c0,0.3,0.3,0.6,0.6,0.6h5.6c0.3,0,0.6-0.3,0.6-0.6V17.4
	C283.8,15.5,282.2,13.9,280.4,13.9z M282.6,37.8h-4.3V17.4c0-1.2,0.9-2.2,2.1-2.2c1.2,0,2.2,0.9,2.2,2.1c0,0,0,0.1,0,0.1V37.8z"/>
<path class="st0" d="M241.4,8.7c1.9,0,3.4-1.5,3.4-3.4c0-1.9-1.5-3.4-3.4-3.4c-1.9,0-3.4,1.5-3.4,3.3c0,0,0,0,0,0.1
	C238,7.1,239.5,8.7,241.4,8.7z M241.4,3.1c1.2,0,2.2,1,2.2,2.2c0,1.2-1,2.2-2.2,2.2c-1.2,0-2.2-1-2.2-2.2c0,0,0,0,0,0
	C239.2,4.1,240.1,3.1,241.4,3.1C241.4,3.1,241.4,3.1,241.4,3.1z"/>
<path class="st0" d="M241.4,13.9c-1.9,0-3.4,1.6-3.4,3.5v21.1c0,0.3,0.3,0.6,0.6,0.6l0,0h5.6c0.3,0,0.6-0.3,0.6-0.6c0,0,0,0,0,0
	V17.3C244.7,15.4,243.2,13.9,241.4,13.9z M243.6,37.8h-4.3V17.3c0-1.2,1-2.2,2.2-2.2c1.2,0,2.1,1,2.2,2.2V37.8z"/>
<path class="st0" d="M231,1.9c-1.9,0-3.4,1.6-3.4,3.5v33.1c0,0.3,0.3,0.6,0.6,0.6l0,0h5.6c0.3,0,0.6-0.3,0.6-0.6c0,0,0,0,0,0V5.4
	C234.4,3.5,232.9,2,231,1.9z M233.2,37.8h-4.3V5.4c0-1.2,0.9-2.2,2.1-2.2c1.2,0,2.2,0.9,2.2,2.1c0,0,0,0.1,0,0.1V37.8z"/>
<path class="st0" d="M211.5,20.8c2,0,3.9,1.1,4.8,2.9c0.1,0.2,0.3,0.3,0.5,0.3h6.6c0.3,0,0.6-0.3,0.6-0.6c0-0.1,0-0.1,0-0.2
	c-1.5-5.5-6.5-9.4-12.4-9.4c-7,0-12.7,5.6-12.7,12.6S204.7,39,211.7,39c5.9,0,10.9-3.9,12.4-9.4c0.1-0.3-0.1-0.7-0.4-0.8
	c0,0-0.1,0-0.2,0h-6.8c-0.2,0-0.4,0.1-0.5,0.3c-0.9,1.6-2.7,2.6-4.6,2.6c-3,0-5.4-2.4-5.4-5.4S208.5,20.8,211.5,20.8z M204.8,26.3
	c0,3.7,3.1,6.7,6.8,6.7c2.2,0,4.2-1.1,5.5-2.9h5.6c-1.5,4.6-5.9,7.7-11,7.7c-6.3,0-11.5-5.1-11.5-11.4s5.2-11.3,11.5-11.3
	c5,0,9.4,3.1,11,7.7h-5.4c-1.9-3.2-6.1-4.1-9.2-2.2C206,21.8,204.8,24,204.8,26.3z"/>
<path class="st0" d="M192.8,32.2c-1.9,0-3.4,1.5-3.4,3.3c0,0,0,0,0,0.1c0,1.9,1.5,3.4,3.4,3.4c1.9,0,3.4-1.5,3.4-3.4
	C196.2,33.8,194.7,32.2,192.8,32.2z M192.8,37.8c-1.2,0-2.2-1-2.2-2.2c0-1.2,0.9-2.2,2.1-2.2c0,0,0,0,0,0c1.2,0,2.1,1,2.1,2.2
	C194.9,36.9,194,37.8,192.8,37.8z"/>
<path class="st0" d="M311.9,28.9h-6.8c-0.2,0-0.4,0.1-0.5,0.3c-1.6,2.6-4.9,3.4-7.5,1.8c-2.6-1.6-3.4-4.9-1.8-7.5
	c1-1.6,2.8-2.6,4.7-2.6c2,0,3.9,1.1,4.8,2.9c0.1,0.2,0.3,0.3,0.5,0.3h6.6c0.3,0,0.6-0.3,0.6-0.6c0-0.1,0-0.1,0-0.2
	c-1.5-5.5-6.5-9.4-12.4-9.4c-7,0-12.7,5.6-12.7,12.6S293.1,39,300.1,39c5.9,0,10.9-3.9,12.4-9.4c0.1-0.3-0.1-0.7-0.4-0.8
	C312,28.9,311.9,28.9,311.9,28.9L311.9,28.9z M300.1,37.8c-6.3,0-11.5-5.1-11.5-11.4s5.2-11.4,11.5-11.4c5,0,9.4,3.1,11,7.7h-5.4
	c-1.9-3.1-6-4.1-9.2-2.2c-3.1,1.9-4.1,6-2.2,9.2s6,4.1,9.2,2.2c0.8-0.5,1.5-1.1,2-1.9h5.6C309.5,34.7,305.1,37.8,300.1,37.8
	L300.1,37.8z"/>
<path class="st0" d="M261.1,13.9h-0.5c-1.9,0-3.8,0.5-5.4,1.3v-0.7c0-0.3-0.3-0.6-0.6-0.6c0,0,0,0,0,0h-5.6c-0.3,0-0.6,0.3-0.6,0.6
	c0,0,0,0,0,0v23.9c0,0.3,0.3,0.6,0.6,0.6l0,0h5.6c0.3,0,0.6-0.3,0.6-0.6V26.2c0.2-2.9,2.7-5.3,5.4-5.3h0.4c2.9,0,5.4,2.7,5.4,5.7
	v11.8c0,0.3,0.3,0.6,0.6,0.6c0,0,0,0,0,0h5.8c0.3,0,0.6-0.3,0.6-0.6V26.3C273.4,19.3,267.9,13.9,261.1,13.9z M249.6,37.8V15.1h4.3
	v22.7L249.6,37.8z M272.2,37.8h-4.6V26.6c0-3.8-3.1-6.9-6.7-6.9h-0.4c-2.2,0-4.2,1.2-5.4,3v-6.1c1.7-0.9,3.5-1.5,5.4-1.5h0.5
	c6.2,0,11.1,4.9,11.2,11.2V37.8z"/>
<radialGradient id="SVGID_2_" cx="-15.6559" cy="248.8904" r="3.99" gradientTransform="matrix(0 2.1887 -1.9873 0 621.4014 60.7261)" gradientUnits="userSpaceOnUse">
	<stop  offset="0" style="stop-color:#70A9AD"/>
	<stop  offset="1" style="stop-color:#98D7DC"/>
</radialGradient>
<path class="st2" d="M126.7,14.4c-6.6,0-12,5.4-12,12s5.4,12,12,12c1,0,1.9-0.1,2.9-0.3l2.3,1.2l2.8,1.5l0.1-3.2l0.1-2.4
	c2.4-2.2,3.8-5.4,3.8-8.7C138.6,19.8,133.3,14.4,126.7,14.4z M126.7,32.4c-3.3,0-6-2.7-6-6s2.7-6,6-6c3.3,0,6,2.7,6,6c0,0,0,0,0,0
	C132.7,29.7,130,32.4,126.7,32.4C126.7,32.4,126.7,32.4,126.7,32.4z"/>
<path class="st0" d="M156.6,13.9l-0.2,0c-0.2,0-0.3,0-0.5,0h-0.5c-1.9,0-3.8,0.5-5.4,1.3v-0.7c0-0.2-0.1-0.3-0.2-0.4
	c-0.1-0.1-0.3-0.2-0.4-0.2h-5.6c-0.3,0-0.6,0.3-0.6,0.6c0,0,0,0,0,0v23.9c0,0.3,0.3,0.6,0.6,0.6l0,0h5.6c0.3,0,0.6-0.3,0.6-0.6
	c0,0,0,0,0,0V26.3c0.2-2.9,2.7-5.3,5.4-5.3h0.4c0.2,0,0.4,0,0.7,0c0.2,0,0.4,0,0.5-0.1c0.1-0.1,0.2-0.3,0.2-0.5v-5.8
	C157.2,14.2,156.9,13.9,156.6,13.9z M144.4,37.8V15.1h4.3v22.7H144.4z M155.9,19.7h-0.5c-2.2,0-4.2,1.2-5.4,3v-6.1
	c1.7-0.9,3.5-1.5,5.4-1.5h0.5V19.7z"/>
<path class="st0" d="M31.8,1.9c-2,0-3.6,1.6-3.6,3.6v9.6c-1.7-0.8-3.5-1.2-5.4-1.2c-6.9,0-12.5,5.6-12.5,12.6S16,39.1,22.9,39.1
	c6.9,0,12.5-5.6,12.5-12.6c0,0,0,0,0,0V5.5C35.4,3.5,33.8,1.9,31.8,1.9z M34.2,26.5c0,6.2-5,11.3-11.3,11.3c-6.2,0-11.3-5-11.3-11.3
	s5-11.3,11.3-11.3c1.9,0,3.7,0.5,5.3,1.3v6.2c-2.1-3-6.2-3.6-9.2-1.5c-3,2.1-3.6,6.2-1.5,9.2s6.2,3.6,9.2,1.5
	c1.7-1.2,2.8-3.2,2.8-5.4v-21c0-1.3,1.1-2.4,2.4-2.4s2.4,1.1,2.4,2.4L34.2,26.5z M28.2,26.5c0,3-2.4,5.4-5.4,5.3
	c-3,0-5.4-2.4-5.3-5.4c0-3,2.4-5.4,5.4-5.3C25.8,21.2,28.2,23.6,28.2,26.5L28.2,26.5z"/>
<path class="st0" d="M80.1,20.8c2,0,3.9,1.1,4.8,2.9c0.1,0.2,0.3,0.3,0.5,0.3h6.6c0.3,0,0.6-0.3,0.6-0.6c0-0.1,0-0.1,0-0.2
	c-1.4-5.5-6.5-9.4-12.4-9.4c-7,0-12.7,5.6-12.7,12.6S73.3,39,80.3,39c5.9,0,10.9-3.9,12.4-9.4c0.1-0.3-0.1-0.7-0.4-0.8
	c0,0-0.1,0-0.1,0h-6.8c-0.2,0-0.4,0.1-0.5,0.3c-1.6,2.6-4.9,3.4-7.5,1.8s-3.4-4.9-1.8-7.5C76.4,21.8,78.2,20.8,80.1,20.8z
	 M73.4,26.3c0,3.7,3,6.7,6.8,6.7c2.2,0,4.2-1.1,5.5-2.9h5.6c-1.5,4.6-5.9,7.7-11,7.7c-6.3,0-11.5-5.1-11.5-11.4S74,15.1,80.3,15.1
	c5,0,9.4,3.1,11,7.7h-5.4c-1.9-3.2-6.1-4.1-9.2-2.2C74.6,21.8,73.4,24,73.4,26.3L73.4,26.3z"/>
<path class="st0" d="M51.6,13.9c-6.9,0-12.6,5.6-12.6,12.6S44.6,39,51.6,39c6.9,0,12.6-5.6,12.6-12.6C64.1,19.5,58.5,13.9,51.6,13.9
	z M51.6,37.8c-6.3,0-11.3-5.1-11.3-11.3s5.1-11.3,11.3-11.3s11.3,5.1,11.3,11.3c0,0,0,0,0,0C62.9,32.7,57.8,37.8,51.6,37.8
	L51.6,37.8z"/>
<path class="st0" d="M51.6,19.9c-3.6,0-6.6,2.9-6.6,6.6s2.9,6.6,6.6,6.6s6.6-2.9,6.6-6.6C58.1,22.8,55.2,19.9,51.6,19.9z M51.6,31.8
	c-3,0-5.4-2.4-5.4-5.4c0-3,2.4-5.4,5.4-5.4c3,0,5.4,2.4,5.4,5.4c0,0,0,0,0,0C56.9,29.4,54.5,31.8,51.6,31.8L51.6,31.8z"/>
<path class="st0" d="M110,21.3c0.3,0,0.6-0.3,0.6-0.6v-5.9c0-0.3-0.3-0.6-0.6-0.6c0,0,0,0,0,0h-6.5V5.5c0-2-1.6-3.6-3.6-3.6
	c-2,0-3.6,1.6-3.6,3.6c0,0,0,0,0,0v20.9c0,0.5,0,0.9,0.1,1.4c0,0.1,0,0.1,0,0.2c0,0.3,0.1,0.7,0.2,1c1.2,5.8,6.3,10,12.3,10h0.2
	c0.4,0,0.7,0,1.1,0c0.3,0,0.6-0.3,0.6-0.6v-6.2c0-0.2-0.1-0.4-0.2-0.5c-0.1-0.1-0.3-0.2-0.5-0.1c-2.3,0.5-4.7-0.6-5.9-2.7
	c-0.4-0.7-0.6-1.6-0.6-2.4v-5.3H110z M109.4,15.4v4.7h-5.9v-4.7H109.4z M108.8,33c0.2,0,0.4,0,0.6,0v4.9c-0.1,0-0.3,0-0.4,0h-0.2
	c-5.4,0-10-3.8-11.1-9c-0.1-0.3-0.1-0.6-0.1-0.9c0,0,0-0.2,0-0.2c0-0.4-0.1-0.8-0.1-1.3V5.5c0-1.3,1.1-2.4,2.4-2.4
	c1.3,0,2.4,1.1,2.4,2.4v21c0,1,0.2,2,0.7,3C104.1,31.6,106.4,33,108.8,33L108.8,33z"/>
<path class="st0" d="M178.8,15.9c-5.9-3.7-13.6-2-17.4,3.9s-2,13.6,3.9,17.4c3.6,2.3,8.2,2.6,12.1,0.7v0.6c0,0.3,0.3,0.6,0.6,0.6
	l0,0h6c0.3,0,0.6-0.3,0.6-0.6c0,0,0,0,0,0v-12C184.7,22.2,182.4,18.2,178.8,15.9z M172.1,31.8c-3,0-5.4-2.4-5.4-5.4s2.4-5.4,5.4-5.4
	c3,0,5.4,2.4,5.4,5.4l0,0C177.4,29.4,175,31.8,172.1,31.8L172.1,31.8z M183.4,37.8h-4.8V26.5l0,0l0,0c0-3.6-2.9-6.6-6.6-6.6
	c-3.6,0-6.6,2.9-6.6,6.6c0,3.6,2.9,6.6,6.6,6.6c2.1,0,4.1-1,5.4-2.8v6.2c-5.5,2.9-12.4,0.9-15.3-4.6s-0.9-12.4,4.6-15.3
	c5.5-2.9,12.4-0.9,15.3,4.6c0.9,1.6,1.3,3.5,1.3,5.3L183.4,37.8z"/>
<path class="st0" d="M318,13.3c-1,0-2-0.3-2.9-0.8c-0.9-0.5-1.6-1.2-2.1-2.1c-0.5-0.9-0.8-1.9-0.8-2.9c0-1,0.3-2,0.8-2.8
	c0.5-0.9,1.2-1.6,2.1-2.1c0.9-0.5,1.9-0.8,2.9-0.8c1,0,2,0.3,2.8,0.8c0.9,0.5,1.6,1.2,2.1,2.1c0.5,0.9,0.8,1.8,0.8,2.8
	c0,1-0.3,2-0.8,2.8c-0.5,0.9-1.2,1.6-2.1,2.1C320,13,319,13.3,318,13.3z M318,12.3c0.8,0,1.6-0.2,2.3-0.6c0.7-0.4,1.3-1,1.7-1.7
	c0.8-1.4,0.8-3.2,0-4.7c-0.4-0.7-1-1.3-1.7-1.7c-0.7-0.4-1.5-0.7-2.3-0.6c-0.8,0-1.6,0.2-2.3,0.6c-1.4,0.9-2.3,2.4-2.3,4.1
	c0,0.8,0.2,1.6,0.6,2.3c0.4,0.7,1,1.3,1.7,1.7C316.4,12.1,317.2,12.3,318,12.3L318,12.3z M316.2,10.4c-0.2,0-0.3-0.1-0.3-0.3
	c0,0,0,0,0,0V5c0-0.1,0-0.2,0.1-0.3c0.1-0.1,0.2-0.1,0.3-0.1h2.1c0.6,0,1.1,0.1,1.6,0.5c0.4,0.3,0.6,0.8,0.6,1.4
	c0,0.4-0.1,0.7-0.3,1c-0.2,0.3-0.5,0.5-0.8,0.6l1,1.7c0,0.1,0.1,0.1,0.1,0.2c0,0.1,0,0.2-0.1,0.3c-0.1,0.1-0.2,0.1-0.3,0.1h-0.4
	c-0.2,0-0.4-0.1-0.5-0.3l-1-1.8H317v1.7c0,0.1,0,0.2-0.1,0.3c-0.1,0.1-0.2,0.1-0.3,0.1H316.2z M318.2,7.3c0.7,0,1.1-0.3,1.1-0.8
	s-0.4-0.8-1.1-0.8H317v1.7H318.2z"/>
</svg>
