<svg width="15" height="20" viewBox="0 0 15 20" fill="none" xmlns="http://www.w3.org/2000/svg">
<path d="M14.5 7C14.5 6.08075 14.3189 5.1705 13.9672 4.32122C13.6154 3.47194 13.0998 2.70026 12.4497 2.05025C11.7997 1.40024 11.0281 0.88463 10.1788 0.53284C9.3295 0.18106 8.4193 0 7.5 0C6.5807 0 5.6705 0.18106 4.82122 0.53284C3.97194 0.88463 3.20026 1.40024 2.55025 2.05025C1.90024 2.70026 1.38463 3.47194 1.03284 4.32122C0.68106 5.1705 0.5 6.08075 0.5 7C0.5 8.387 0.91 9.677 1.605 10.765H1.597C3.957 14.46 7.5 20 7.5 20L13.403 10.765H13.396C14.1164 9.6414 14.4995 8.3347 14.5 7ZM7.5 10C6.7044 10 5.9413 9.6839 5.3787 9.1213C4.81607 8.5587 4.5 7.79565 4.5 7C4.5 6.20435 4.81607 5.44129 5.3787 4.87868C5.9413 4.31607 6.7044 4 7.5 4C8.2956 4 9.0587 4.31607 9.6213 4.87868C10.1839 5.44129 10.5 6.20435 10.5 7C10.5 7.79565 10.1839 8.5587 9.6213 9.1213C9.0587 9.6839 8.2956 10 7.5 10Z" fill="#D52300"/>
</svg>
