<svg width="35" height="35" viewBox="0 0 35 35" fill="none" xmlns="http://www.w3.org/2000/svg">
<path d="M30.0645 31H4.41935C3.06452 31 2 29.9393 2 28.5893V11.7143C2 10.6536 2.87097 9.78571 3.93548 9.78571H26.1935C27.2581 9.78571 28.129 10.6536 28.129 11.7143V29.0714C28.129 30.1321 29 31 30.0645 31ZM30.0645 31C31.129 31 32 30.1321 32 29.0714V8.82143C32 7.76071 31.129 6.89286 30.0645 6.89286H17L12.6452 4H6.83871C5.77419 4 4.90323 4.86786 4.90323 5.92857V6.89286" stroke="#98D7DC" stroke-width="2.4" stroke-miterlimit="10" stroke-linecap="round" stroke-linejoin="round"/>
<path d="M4.9032 6.41071V6.89285" stroke="#98D7DC" stroke-width="2.4" stroke-miterlimit="10" stroke-linecap="square" stroke-linejoin="round"/>
<path d="M17.4838 17.9821V14.125H12.6451V17.9821H8.77417V22.8036H12.6451V26.6607H17.4838V22.8036H21.3548V17.9821H17.4838Z" stroke="#98D7DC" stroke-width="2.4" stroke-miterlimit="10" stroke-linecap="round" stroke-linejoin="round"/>
</svg>
