<svg width="38" height="34" viewBox="0 0 38 34" fill="none" xmlns="http://www.w3.org/2000/svg">
<path d="M33.8065 32.1143H4.74194C3.20645 32.1143 2 30.9312 2 29.4255V10.6041C2 9.42102 2.9871 8.45306 4.19355 8.45306H29.4194C30.6258 8.45306 31.6129 9.42102 31.6129 10.6041V29.9633C31.6129 31.1463 32.6 32.1143 33.8065 32.1143ZM33.8065 32.1143C35.0129 32.1143 36 31.1463 36 29.9633V7.37755C36 6.19449 35.0129 5.22653 33.8065 5.22653H19L14.0645 2H7.48387C6.27742 2 5.29032 2.96796 5.29032 4.15102V5.22653" stroke="#98D7DC" stroke-width="2.5" stroke-miterlimit="10" stroke-linecap="round" stroke-linejoin="round"/>
<path d="M5.29031 4.68877V5.22653" stroke="#98D7DC" stroke-width="2.5" stroke-miterlimit="10" stroke-linecap="square" stroke-linejoin="round"/>
<path d="M19.5484 17.5949V13.2929H14.0645V17.5949H9.6774V22.9724H14.0645V27.2745H19.5484V22.9724H23.9355V17.5949H19.5484Z" stroke="#98D7DC" stroke-width="2.5" stroke-miterlimit="10" stroke-linecap="round" stroke-linejoin="round"/>
</svg>
