<svg width="34" height="34" viewBox="0 0 34 34" fill="none" xmlns="http://www.w3.org/2000/svg">
<path d="M15.436 15.9466C15.436 19.5587 11.8269 22.6547 11.8269 22.6547V19.0426C9.81609 19.0426 8.21777 17.443 8.21777 15.4306C8.21777 13.4181 9.81609 11.8185 11.8269 11.8185C13.8376 11.8185 15.436 13.3665 15.436 15.9466Z" stroke="#32B4C3" stroke-width="1.5" stroke-miterlimit="10" stroke-linecap="round" stroke-linejoin="round"/>
<path d="M25.7475 15.9466C25.7475 19.5587 22.1384 22.6547 22.1384 22.6547V19.0426C20.1276 19.0426 18.5293 17.443 18.5293 15.4306C18.5293 13.4181 20.1276 11.8185 22.1384 11.8185C24.2007 11.8185 25.7475 13.3665 25.7475 15.9466Z" stroke="#32B4C3" stroke-width="1.5" stroke-miterlimit="10" stroke-linecap="round" stroke-linejoin="round"/>
<path d="M3.16556 24.9768C1.51569 22.0871 0.690549 18.6298 1.15457 14.9662C2.08263 7.63878 8.0119 1.80785 15.3848 1.08544C25.4902 0.053412 33.9458 8.51601 32.9146 18.6298C32.1928 25.9572 26.3668 31.9429 19.0455 32.8718C15.3848 33.3362 11.9304 32.5106 9.04317 30.8593L1 32.975L3.16556 24.9768Z" stroke="#32B4C3" stroke-width="1.5" stroke-miterlimit="10" stroke-linecap="round" stroke-linejoin="round"/>
</svg>
