<svg width="34" height="34" viewBox="0 0 34 34" fill="none" xmlns="http://www.w3.org/2000/svg">
<path d="M1.01704 32.9996C1.01704 32.9996 0.501471 25.2703 5.14163 23.7244L12.8752 21.1479V18.0562" stroke="#8A8A8A" stroke-width="1.5" stroke-miterlimit="10" stroke-linecap="round" stroke-linejoin="round"/>
<path d="M21.125 18.0562V21.1479L28.8586 23.7244C33.4988 25.2703 32.9832 32.9996 32.9832 32.9996" stroke="#8A8A8A" stroke-width="1.5" stroke-miterlimit="10" stroke-linecap="round" stroke-linejoin="round"/>
<path d="M19.5782 18.5715C23.1872 17.0256 23.5481 12.8519 23.9605 9.65704C24.1668 7.90505 24.2183 6.04996 23.3934 4.45255C22.6201 3.00974 21.228 1.979 19.6812 1.46371C18.8563 1.15454 17.9283 1 17.0003 1C16.0723 1 15.1443 1.15454 14.3193 1.46371C12.7726 1.979 11.3805 3.00974 10.6072 4.45255C9.78226 6.04996 9.83383 7.90505 10.0401 9.65704C10.4525 12.8519 10.8134 17.0256 14.4224 18.5715" stroke="#8A8A8A" stroke-width="1.5" stroke-miterlimit="10" stroke-linecap="round" stroke-linejoin="round"/>
<path d="M12.3604 8.26567C17.5161 8.26567 18.5472 7.23508 19.0628 5.68921C19.0628 5.68921 19.0628 8.26567 21.6407 8.26567" stroke="#8A8A8A" stroke-width="1.5" stroke-miterlimit="10" stroke-linecap="square" stroke-linejoin="round"/>
<path d="M12.876 21.1479C12.876 24.2397 17.0006 26.8161 17.0006 26.8161C17.0006 26.8161 21.1251 24.2397 21.1251 21.1479" stroke="#8A8A8A" stroke-width="1.5" stroke-miterlimit="10" stroke-linecap="round" stroke-linejoin="round"/>
<path d="M11.3286 21.6632C9.26632 23.2091 9.7819 25.7855 9.7819 25.7855" stroke="#8A8A8A" stroke-width="1.5" stroke-miterlimit="10" stroke-linecap="round" stroke-linejoin="round"/>
<path d="M11.8442 32.9996H13.3909V30.9385C13.3909 28.6712 11.8442 25.7856 9.78186 25.7856C7.71957 25.7856 6.17285 28.6712 6.17285 30.9385V32.9996H7.71957" stroke="#8A8A8A" stroke-width="1.5" stroke-miterlimit="10" stroke-linecap="round" stroke-linejoin="round"/>
<path d="M22.6709 21.6632C24.2176 22.1785 24.2176 26.8161 24.2176 26.8161V27.8467" stroke="#8A8A8A" stroke-width="1.5" stroke-miterlimit="10" stroke-linecap="round" stroke-linejoin="round"/>
<path d="M24.2175 32.9996C25.6412 32.9996 26.7954 31.8461 26.7954 30.4232C26.7954 29.0002 25.6412 27.8467 24.2175 27.8467C22.7938 27.8467 21.6396 29.0002 21.6396 30.4232C21.6396 31.8461 22.7938 32.9996 24.2175 32.9996Z" stroke="#8A8A8A" stroke-width="1.5" stroke-miterlimit="10" stroke-linecap="round" stroke-linejoin="round"/>
</svg>
