<svg width="34" height="34" viewBox="0 0 34 34" fill="none" xmlns="http://www.w3.org/2000/svg">
<path d="M31.4515 33H5.64507C4.76765 33 4.09668 32.329 4.09668 31.4516V15.9677C4.09668 15.0903 4.76765 14.4193 5.64507 14.4193H31.4515C32.3289 14.4193 32.9999 15.0903 32.9999 15.9677V31.4516C32.9999 32.329 32.3289 33 31.4515 33Z" stroke="#8A8A8A" stroke-width="1.5" stroke-miterlimit="10" stroke-linecap="round" stroke-linejoin="round"/>
<path d="M13.3869 22.6774H8.22562C7.65788 22.6774 7.19336 22.2129 7.19336 21.6452V18.5484C7.19336 17.9807 7.65788 17.5161 8.22562 17.5161H13.3869C13.9546 17.5161 14.4192 17.9807 14.4192 18.5484V21.6452C14.4192 22.2129 13.9546 22.6774 13.3869 22.6774Z" stroke="#8A8A8A" stroke-width="1.5" stroke-miterlimit="10" stroke-linecap="round" stroke-linejoin="round"/>
<path d="M13.9034 20.0968H11.8389V18.0323" stroke="#8A8A8A" stroke-width="1.5" stroke-miterlimit="10" stroke-linejoin="round"/>
<path d="M7.70996 20.0968H9.77448V22.1613" stroke="#8A8A8A" stroke-width="1.5" stroke-miterlimit="10" stroke-linejoin="round"/>
<path d="M7.70898 26.8065H10.8058" stroke="#8A8A8A" stroke-width="1.5" stroke-miterlimit="10" stroke-linecap="round" stroke-linejoin="round"/>
<path d="M13.9023 26.8065H16.9991" stroke="#8A8A8A" stroke-width="1.5" stroke-miterlimit="10" stroke-linecap="round" stroke-linejoin="round"/>
<path d="M20.0957 26.8065H23.1925" stroke="#8A8A8A" stroke-width="1.5" stroke-miterlimit="10" stroke-linecap="round" stroke-linejoin="round"/>
<path d="M26.29 26.8065H29.3868" stroke="#8A8A8A" stroke-width="1.5" stroke-miterlimit="10" stroke-linecap="round" stroke-linejoin="round"/>
<path d="M7.70898 29.9032H13.3864" stroke="#8A8A8A" stroke-width="1.5" stroke-miterlimit="10" stroke-linecap="round" stroke-linejoin="round"/>
<path d="M16.4834 29.9032H29.3866" stroke="#8A8A8A" stroke-width="1.5" stroke-miterlimit="10" stroke-linecap="round" stroke-linejoin="round"/>
<path d="M2.54839 19.5806C1.67097 19.5806 1 18.9097 1 18.0323V2.54839C1 1.67097 1.67097 1 2.54839 1H28.3548C29.2323 1 29.9032 1.67097 29.9032 2.54839V12.871" stroke="#8A8A8A" stroke-width="1.5" stroke-miterlimit="10" stroke-linejoin="round"/>
<path d="M1.5166 5.12903H29.3876" stroke="#8A8A8A" stroke-width="1.5" stroke-miterlimit="10" stroke-linecap="square" stroke-linejoin="round"/>
<path d="M1.5166 8.74194H29.3876" stroke="#8A8A8A" stroke-width="1.5" stroke-miterlimit="10" stroke-linecap="square" stroke-linejoin="round"/>
</svg>
