<svg width="34" height="34" viewBox="0 0 34 34" fill="none" xmlns="http://www.w3.org/2000/svg">
<path d="M17.0004 8.86887C17.5798 8.86887 18.0495 8.39913 18.0495 7.81969C18.0495 7.24024 17.5798 6.77051 17.0004 6.77051C16.4209 6.77051 15.9512 7.24024 15.9512 7.81969C15.9512 8.39913 16.4209 8.86887 17.0004 8.86887Z" fill="#32B4C3"/>
<path d="M17 23.5574V26.7049" stroke="#32B4C3" stroke-width="1.5" stroke-miterlimit="10" stroke-linecap="round" stroke-linejoin="round"/>
<path d="M19.203 17.2623C19.4653 17.682 19.6227 18.1542 19.6227 18.6263C19.6227 19.6755 18.9407 20.6197 17.944 20.987L16.2653 21.5641C15.4784 21.8264 14.9014 22.5608 14.9014 23.4001C14.9014 24.1345 15.321 24.8164 16.003 25.1312L16.9997 25.6558" stroke="#32B4C3" stroke-width="1.5" stroke-miterlimit="10" stroke-linecap="round" stroke-linejoin="round"/>
<path d="M17 12.541V20.9344" stroke="#32B4C3" stroke-width="1.5" stroke-miterlimit="10" stroke-linecap="round" stroke-linejoin="round"/>
<path d="M18.5739 10.4426H16.5279C15.0591 10.4426 13.8525 11.6493 13.8525 13.1181C13.8525 13.905 14.2198 14.6394 14.7968 15.164" stroke="#32B4C3" stroke-width="1.5" stroke-miterlimit="10" stroke-linecap="round" stroke-linejoin="round"/>
<path d="M33 12.9606L28.2787 4.77715L21.7213 8.55405V1H12.2787V8.55405L5.72131 4.77715L1 12.9606L7.55738 16.7377L1 20.5149L5.72131 28.6983L12.2787 24.9214V32.4754H21.7213V24.9214L28.2787 28.6983L33 20.5149L26.4426 16.7377L33 12.9606Z" stroke="#32B4C3" stroke-width="1.5" stroke-miterlimit="10" stroke-linecap="round" stroke-linejoin="round"/>
</svg>
