<svg width="34" height="34" viewBox="0 0 34 34" fill="none" xmlns="http://www.w3.org/2000/svg">
<path d="M18.5484 27.8387H3.06452C1.92903 27.8387 1 26.9097 1 25.7742V3.06452C1 1.92903 1.92903 1 3.06452 1H30.9355C32.071 1 33 1.92903 33 3.06452V25.7742C33 26.9097 32.071 27.8387 30.9355 27.8387H29.9032" stroke="#8A8A8A" stroke-width="1.5" stroke-miterlimit="10" stroke-linecap="square" stroke-linejoin="round"/>
<path d="M1 6.67743H33" stroke="#8A8A8A" stroke-width="1.5" stroke-miterlimit="10" stroke-linecap="round" stroke-linejoin="round"/>
<path d="M3.83865 4.6129C4.26622 4.6129 4.61284 4.26628 4.61284 3.83871C4.61284 3.41113 4.26622 3.06451 3.83865 3.06451C3.41107 3.06451 3.06445 3.41113 3.06445 3.83871C3.06445 4.26628 3.41107 4.6129 3.83865 4.6129Z" fill="#8A8A8A"/>
<path d="M6.4197 4.6129C6.84728 4.6129 7.1939 4.26628 7.1939 3.83871C7.1939 3.41113 6.84728 3.06451 6.4197 3.06451C5.99213 3.06451 5.64551 3.41113 5.64551 3.83871C5.64551 4.26628 5.99213 4.6129 6.4197 4.6129Z" fill="#8A8A8A"/>
<path d="M9.00076 4.6129C9.42833 4.6129 9.77495 4.26628 9.77495 3.83871C9.77495 3.41113 9.42833 3.06451 9.00076 3.06451C8.57318 3.06451 8.22656 3.41113 8.22656 3.83871C8.22656 4.26628 8.57318 4.6129 9.00076 4.6129Z" fill="#8A8A8A"/>
<path d="M29.9029 10.2903H11.3223V13.3871H29.9029V10.2903Z" stroke="#8A8A8A" stroke-width="1.5" stroke-miterlimit="10" stroke-linecap="round" stroke-linejoin="round"/>
<path d="M18.5481 23.7097H11.3223V16.4839H29.9029V22.6774" stroke="#8A8A8A" stroke-width="1.5" stroke-miterlimit="10" stroke-linecap="square" stroke-linejoin="round"/>
<path d="M4.0957 16.4839H8.22474" stroke="#8A8A8A" stroke-width="1.5" stroke-miterlimit="10" stroke-linecap="round" stroke-linejoin="round"/>
<path d="M4.09668 10.2903H8.22571" stroke="#8A8A8A" stroke-width="1.5" stroke-miterlimit="10" stroke-linecap="round" stroke-linejoin="round"/>
<path d="M20.6123 19.0645V30.4194L23.7091 27.8387L26.8059 33L29.3865 31.4516L26.2897 26.2903L29.9026 25.2581L20.6123 19.0645Z" stroke="#8A8A8A" stroke-width="1.5" stroke-miterlimit="10" stroke-linecap="round" stroke-linejoin="round"/>
</svg>
