<svg width="34" height="34" viewBox="0 0 34 34" fill="none" xmlns="http://www.w3.org/2000/svg">
<path d="M24.7416 33.0005C29.3025 33.0005 32.9998 29.3032 32.9998 24.7423C32.9998 20.1814 29.3025 16.4841 24.7416 16.4841C20.1807 16.4841 16.4834 20.1814 16.4834 24.7423C16.4834 29.3032 20.1807 33.0005 24.7416 33.0005Z" stroke="#32B4C3" stroke-width="1.5" stroke-miterlimit="10" stroke-linecap="round" stroke-linejoin="round"/>
<path d="M24.7432 20.0972V24.7424H29.3884" stroke="#32B4C3" stroke-width="1.5" stroke-miterlimit="10" stroke-linecap="round" stroke-linejoin="round"/>
<path d="M13.9034 27.3229H2.03227C1.46452 27.3229 1 26.8584 1 26.2906V3.58061C1 3.01286 1.46452 2.54834 2.03227 2.54834H28.8714C29.4391 2.54834 29.9037 3.01286 29.9037 3.58061V14.9356" stroke="#32B4C3" stroke-width="1.5" stroke-miterlimit="10" stroke-linecap="round" stroke-linejoin="round"/>
<path d="M6.16113 1V4.09682" stroke="#32B4C3" stroke-width="1.5" stroke-miterlimit="10" stroke-linecap="round" stroke-linejoin="round"/>
<path d="M10.8066 1V4.09682" stroke="#32B4C3" stroke-width="1.5" stroke-miterlimit="10" stroke-linecap="round" stroke-linejoin="round"/>
<path d="M15.4512 1V4.09682" stroke="#32B4C3" stroke-width="1.5" stroke-miterlimit="10" stroke-linecap="round" stroke-linejoin="round"/>
<path d="M20.0967 1V4.09682" stroke="#32B4C3" stroke-width="1.5" stroke-miterlimit="10" stroke-linecap="round" stroke-linejoin="round"/>
<path d="M24.7432 1V4.09682" stroke="#32B4C3" stroke-width="1.5" stroke-miterlimit="10" stroke-linecap="round" stroke-linejoin="round"/>
<path d="M4.09668 8.22583H26.8067" stroke="#32B4C3" stroke-width="1.5" stroke-miterlimit="10" stroke-linecap="square" stroke-linejoin="round"/>
</svg>
