<svg width="34" height="31" viewBox="0 0 34 31" fill="none" xmlns="http://www.w3.org/2000/svg">
<path d="M7.70968 24.7419C7.70968 24.7419 8.22581 27.3225 7.70968 27.8387C6.67742 28.8709 1 29.9032 1 29.9032" stroke="#8A8A8A" stroke-width="1.5" stroke-miterlimit="10" stroke-linecap="round" stroke-linejoin="round"/>
<path d="M14.9354 24.7419C14.9354 24.7419 14.4193 27.3225 14.9354 27.8387C15.9677 28.8709 21.6451 29.9032 21.6451 29.9032" stroke="#8A8A8A" stroke-width="1.5" stroke-miterlimit="10" stroke-linecap="round" stroke-linejoin="round"/>
<path d="M9.25861 25.258C6.16184 24.7419 5.12958 20.0967 5.12958 20.0967C4.8199 18.858 4.51023 16.8451 4.35539 15.6064C4.20055 14.1613 4.20055 13.3871 4.35539 12.3548C4.76829 9.36126 7.65861 7.14191 11.3231 7.14191C14.9876 7.14191 17.878 9.36126 18.2909 12.3548C18.4457 13.3871 18.4457 14.1613 18.2909 15.6064C18.136 16.8451 17.8264 18.858 17.5167 20.0967C17.5167 20.0967 16.4844 24.7419 13.3876 25.258" stroke="#8A8A8A" stroke-width="1.5" stroke-miterlimit="10" stroke-linecap="round" stroke-linejoin="round"/>
<path d="M16.4834 5.12903V2.03226C16.4834 1.46452 16.9479 1 17.5157 1H31.9673C32.535 1 32.9995 1.46452 32.9995 2.03226V11.3226C32.9995 11.8903 32.535 12.3548 31.9673 12.3548H26.2898L21.6447 16.4839V12.3548H20.6124" stroke="#8A8A8A" stroke-width="1.5" stroke-miterlimit="10" stroke-linecap="square" stroke-linejoin="round"/>
</svg>
