<svg width="34" height="34" viewBox="0 0 34 34" fill="none" xmlns="http://www.w3.org/2000/svg">
<path d="M18.5484 27.8387H3.06452C1.92903 27.8387 1 26.9097 1 25.7742V3.06452C1 1.92903 1.92903 1 3.06452 1H30.9355C32.071 1 33 1.92903 33 3.06452V25.7742C33 26.9097 32.071 27.8387 30.9355 27.8387H29.9032" stroke="#32B4C3" stroke-width="1.5" stroke-miterlimit="10" stroke-linecap="square" stroke-linejoin="round"/>
<path d="M1 6.67743H33" stroke="#32B4C3" stroke-width="1.5" stroke-miterlimit="10" stroke-linecap="round" stroke-linejoin="round"/>
<path d="M3.83865 4.61289C4.26622 4.61289 4.61284 4.26627 4.61284 3.83869C4.61284 3.41112 4.26622 3.0645 3.83865 3.0645C3.41107 3.0645 3.06445 3.41112 3.06445 3.83869C3.06445 4.26627 3.41107 4.61289 3.83865 4.61289Z" fill="#32B4C3"/>
<path d="M6.4197 4.61287C6.84728 4.61287 7.1939 4.26625 7.1939 3.83868C7.1939 3.4111 6.84728 3.06448 6.4197 3.06448C5.99213 3.06448 5.64551 3.4111 5.64551 3.83868C5.64551 4.26625 5.99213 4.61287 6.4197 4.61287Z" fill="#32B4C3"/>
<path d="M9.00076 4.61287C9.42833 4.61287 9.77495 4.26625 9.77495 3.83868C9.77495 3.4111 9.42833 3.06448 9.00076 3.06448C8.57318 3.06448 8.22656 3.4111 8.22656 3.83868C8.22656 4.26625 8.57318 4.61287 9.00076 4.61287Z" fill="#32B4C3"/>
<path d="M29.9029 10.2903H11.3223V13.3871H29.9029V10.2903Z" stroke="#32B4C3" stroke-width="1.5" stroke-miterlimit="10" stroke-linecap="round" stroke-linejoin="round"/>
<path d="M18.5481 23.7097H11.3223V16.4839H29.9029V22.6774" stroke="#32B4C3" stroke-width="1.5" stroke-miterlimit="10" stroke-linecap="square" stroke-linejoin="round"/>
<path d="M4.0957 16.4839H8.22474" stroke="#32B4C3" stroke-width="1.5" stroke-miterlimit="10" stroke-linecap="round" stroke-linejoin="round"/>
<path d="M4.09668 10.2903H8.22571" stroke="#32B4C3" stroke-width="1.5" stroke-miterlimit="10" stroke-linecap="round" stroke-linejoin="round"/>
<path d="M20.6123 19.0645V30.4193L23.7091 27.8387L26.8059 33L29.3865 31.4516L26.2897 26.2903L29.9026 25.258L20.6123 19.0645Z" stroke="#32B4C3" stroke-width="1.5" stroke-miterlimit="10" stroke-linecap="round" stroke-linejoin="round"/>
</svg>
