<svg width="34" height="34" viewBox="0 0 34 34" fill="none" xmlns="http://www.w3.org/2000/svg">
<path d="M31.4515 33.0001H5.64507C4.76765 33.0001 4.09668 32.3291 4.09668 31.4517V15.9678C4.09668 15.0904 4.76765 14.4194 5.64507 14.4194H31.4515C32.3289 14.4194 32.9999 15.0904 32.9999 15.9678V31.4517C32.9999 32.3291 32.3289 33.0001 31.4515 33.0001Z" stroke="#32B4C3" stroke-width="1.5" stroke-miterlimit="10" stroke-linecap="round" stroke-linejoin="round"/>
<path d="M13.3869 22.6774H8.22562C7.65788 22.6774 7.19336 22.2129 7.19336 21.6451V18.5484C7.19336 17.9806 7.65788 17.5161 8.22562 17.5161H13.3869C13.9546 17.5161 14.4192 17.9806 14.4192 18.5484V21.6451C14.4192 22.2129 13.9546 22.6774 13.3869 22.6774Z" stroke="#32B4C3" stroke-width="1.5" stroke-miterlimit="10" stroke-linecap="round" stroke-linejoin="round"/>
<path d="M13.9034 20.0967H11.8389V18.0322" stroke="#32B4C3" stroke-width="1.5" stroke-miterlimit="10" stroke-linejoin="round"/>
<path d="M7.70996 20.0967H9.77448V22.1612" stroke="#32B4C3" stroke-width="1.5" stroke-miterlimit="10" stroke-linejoin="round"/>
<path d="M7.70898 26.8066H10.8058" stroke="#32B4C3" stroke-width="1.5" stroke-miterlimit="10" stroke-linecap="round" stroke-linejoin="round"/>
<path d="M13.9023 26.8066H16.9991" stroke="#32B4C3" stroke-width="1.5" stroke-miterlimit="10" stroke-linecap="round" stroke-linejoin="round"/>
<path d="M20.0957 26.8066H23.1925" stroke="#32B4C3" stroke-width="1.5" stroke-miterlimit="10" stroke-linecap="round" stroke-linejoin="round"/>
<path d="M26.29 26.8066H29.3868" stroke="#32B4C3" stroke-width="1.5" stroke-miterlimit="10" stroke-linecap="round" stroke-linejoin="round"/>
<path d="M7.70898 29.9033H13.3864" stroke="#32B4C3" stroke-width="1.5" stroke-miterlimit="10" stroke-linecap="round" stroke-linejoin="round"/>
<path d="M16.4834 29.9033H29.3866" stroke="#32B4C3" stroke-width="1.5" stroke-miterlimit="10" stroke-linecap="round" stroke-linejoin="round"/>
<path d="M2.54839 19.5806C1.67097 19.5806 1 18.9097 1 18.0323V2.54839C1 1.67097 1.67097 1 2.54839 1H28.3548C29.2323 1 29.9032 1.67097 29.9032 2.54839V12.871" stroke="#32B4C3" stroke-width="1.5" stroke-miterlimit="10" stroke-linejoin="round"/>
<path d="M1.5166 5.12915H29.3876" stroke="#32B4C3" stroke-width="1.5" stroke-miterlimit="10" stroke-linecap="square" stroke-linejoin="round"/>
<path d="M1.5166 8.74194H29.3876" stroke="#32B4C3" stroke-width="1.5" stroke-miterlimit="10" stroke-linecap="square" stroke-linejoin="round"/>
</svg>
