<svg width="160" height="47" viewBox="0 0 160 47" fill="none" xmlns="http://www.w3.org/2000/svg">
<rect width="160" height="38" rx="5" fill="#323232"/>
<path d="M19 26.9839C23.4094 26.9839 26.9839 23.4094 26.9839 19C26.9839 14.5906 23.4094 11.0161 19 11.0161C14.5906 11.0161 11.0161 14.5906 11.0161 19C11.0161 23.4094 14.5906 26.9839 19 26.9839Z" fill="white" stroke="#FA0303" stroke-width="2" stroke-miterlimit="10" stroke-linecap="round" stroke-linejoin="round"/>
<path d="M23.5329 16.0382L16.0383 23.5328C16.8882 24.0994 17.9184 24.4342 19.0001 24.4342C21.9876 24.4342 24.4085 22.0133 24.4085 19.0257C24.4085 17.8926 24.0995 16.8881 23.5329 16.0382Z" fill="#FA0303"/>
<path d="M19 13.5916C16.0125 13.5916 13.5916 16.0125 13.5916 19C13.5916 20.1074 13.9264 21.1118 14.493 21.9617L21.9875 14.4672C21.1376 13.9263 20.1074 13.5916 19 13.5916Z" fill="#FA0303"/>
<path d="M42.043 20.341C42.225 19.9337 42.4113 19.4917 42.602 19.015C42.7927 18.5297 42.979 18.0313 43.161 17.52C43.343 17 43.512 16.4843 43.668 15.973C43.8327 15.453 43.9757 14.959 44.097 14.491H45.033C44.8597 15.089 44.682 15.6567 44.5 16.194C44.3267 16.7227 44.1447 17.2383 43.954 17.741C43.772 18.235 43.5813 18.7247 43.382 19.21C43.1827 19.6867 42.9747 20.1677 42.758 20.653C42.6193 20.965 42.4677 21.2943 42.303 21.641C42.1383 21.9877 41.9347 22.3083 41.692 22.603C41.4493 22.889 41.1503 23.1273 40.795 23.318C40.4483 23.5 40.0193 23.591 39.508 23.591C39.2827 23.591 39.0833 23.565 38.91 23.513C38.7453 23.4697 38.624 23.4263 38.546 23.383L38.715 22.655C38.7757 22.6897 38.8753 22.733 39.014 22.785C39.1527 22.8283 39.3347 22.85 39.56 22.85C39.8547 22.85 40.1103 22.8067 40.327 22.72C40.5523 22.6247 40.743 22.5033 40.899 22.356C41.0637 22.2087 41.2067 22.0353 41.328 21.836C41.4493 21.6367 41.5577 21.4287 41.653 21.212C41.2543 20.6053 40.8817 19.9943 40.535 19.379C40.197 18.7637 39.885 18.1657 39.599 17.585C39.3217 17.0043 39.066 16.454 38.832 15.934C38.6067 15.4053 38.4073 14.9243 38.234 14.491H39.222C39.5167 15.2883 39.898 16.1983 40.366 17.221C40.8427 18.2437 41.4017 19.2837 42.043 20.341ZM51.4072 16.636C51.6672 16.636 51.9575 16.6533 52.2782 16.688C52.6075 16.714 52.9152 16.7877 53.2012 16.909C53.4872 17.0217 53.7255 17.2037 53.9162 17.455C54.1155 17.6977 54.2152 18.0313 54.2152 18.456C54.2152 18.7853 54.1198 19.08 53.9292 19.34C53.7385 19.5913 53.4785 19.7777 53.1492 19.899C53.6345 20.029 53.9855 20.237 54.2022 20.523C54.4188 20.809 54.5272 21.16 54.5272 21.576C54.5272 22.0267 54.4362 22.3907 54.2542 22.668C54.0722 22.9367 53.8295 23.1447 53.5262 23.292C53.2315 23.4307 52.8935 23.5217 52.5122 23.565C52.1395 23.6083 51.7582 23.63 51.3682 23.63C50.9002 23.63 50.4885 23.5997 50.1332 23.539C49.7865 23.4783 49.4875 23.4133 49.2362 23.344V16.922C49.4528 16.8527 49.7388 16.7877 50.0942 16.727C50.4495 16.6663 50.8872 16.636 51.4072 16.636ZM50.0812 19.6H51.6152C52.1352 19.6 52.5555 19.5133 52.8762 19.34C53.1968 19.1667 53.3572 18.8763 53.3572 18.469C53.3572 18.209 53.3008 18.0053 53.1882 17.858C53.0755 17.7107 52.9282 17.6023 52.7462 17.533C52.5642 17.455 52.3562 17.4073 52.1222 17.39C51.8882 17.364 51.6542 17.351 51.4202 17.351C51.1342 17.351 50.8612 17.3683 50.6012 17.403C50.3412 17.429 50.1678 17.455 50.0812 17.481V19.6ZM50.0812 20.302V22.772C50.1245 22.7893 50.1938 22.8067 50.2892 22.824C50.3932 22.8327 50.5058 22.8457 50.6272 22.863C50.7572 22.8717 50.8915 22.8803 51.0302 22.889C51.1775 22.8977 51.3162 22.902 51.4462 22.902C51.7408 22.902 52.0225 22.8847 52.2912 22.85C52.5598 22.8153 52.7938 22.7503 52.9932 22.655C53.1925 22.551 53.3528 22.4167 53.4742 22.252C53.5955 22.0787 53.6562 21.8533 53.6562 21.576C53.6562 21.3333 53.6042 21.1297 53.5002 20.965C53.4048 20.8003 53.2662 20.6703 53.0842 20.575C52.9108 20.4797 52.7028 20.4103 52.4602 20.367C52.2262 20.3237 51.9705 20.302 51.6932 20.302H50.0812ZM57.1778 22.291C57.2558 22.3517 57.3512 22.4167 57.4638 22.486C57.5852 22.5553 57.7238 22.6203 57.8798 22.681C58.0358 22.7417 58.2048 22.7937 58.3868 22.837C58.5688 22.8717 58.7595 22.889 58.9588 22.889C59.3748 22.889 59.7215 22.8197 59.9988 22.681C60.2848 22.5337 60.5145 22.3387 60.6878 22.096C60.8612 21.8447 60.9868 21.5543 61.0648 21.225C61.1428 20.887 61.1818 20.5317 61.1818 20.159C61.1818 19.275 60.9608 18.599 60.5188 18.131C60.0768 17.6543 59.4918 17.416 58.7638 17.416C58.3478 17.416 58.0098 17.4377 57.7498 17.481C57.4985 17.5157 57.3078 17.5547 57.1778 17.598V22.291ZM57.1778 25.905H56.3328V17.013C56.5842 16.9263 56.9048 16.844 57.2948 16.766C57.6848 16.688 58.1788 16.649 58.7768 16.649C59.2708 16.649 59.7172 16.7313 60.1158 16.896C60.5232 17.052 60.8698 17.2817 61.1558 17.585C61.4505 17.8883 61.6758 18.2567 61.8318 18.69C61.9965 19.1233 62.0788 19.613 62.0788 20.159C62.0788 20.6703 62.0095 21.1427 61.8708 21.576C61.7408 22.0007 61.5458 22.369 61.2858 22.681C61.0258 22.9843 60.7052 23.2227 60.3238 23.396C59.9512 23.5693 59.5222 23.656 59.0368 23.656C58.5948 23.656 58.2092 23.5953 57.8798 23.474C57.5592 23.344 57.3252 23.2227 57.1778 23.11V25.905ZM66.0309 22.889C66.3603 22.889 66.6463 22.8803 66.8889 22.863C67.1403 22.837 67.3526 22.8067 67.5259 22.772V20.406C67.4306 20.3627 67.2789 20.3193 67.0709 20.276C66.8629 20.224 66.5769 20.198 66.2129 20.198C66.0049 20.198 65.7883 20.2153 65.5629 20.25C65.3376 20.276 65.1296 20.341 64.9389 20.445C64.7483 20.5403 64.5923 20.6747 64.4709 20.848C64.3496 21.0213 64.2889 21.251 64.2889 21.537C64.2889 21.7883 64.3279 22.0007 64.4059 22.174C64.4926 22.3473 64.6096 22.486 64.7569 22.59C64.9129 22.694 65.0949 22.772 65.3029 22.824C65.5196 22.8673 65.7623 22.889 66.0309 22.889ZM65.9529 16.623C66.3949 16.623 66.7676 16.688 67.0709 16.818C67.3829 16.9393 67.6343 17.1127 67.8249 17.338C68.0156 17.5547 68.1543 17.8147 68.2409 18.118C68.3276 18.4213 68.3709 18.7507 68.3709 19.106V23.344C68.2843 23.37 68.1586 23.4003 67.9939 23.435C67.8293 23.461 67.6386 23.4913 67.4219 23.526C67.2053 23.5607 66.9626 23.5867 66.6939 23.604C66.4339 23.63 66.1653 23.643 65.8879 23.643C65.5326 23.643 65.2033 23.604 64.8999 23.526C64.6053 23.448 64.3453 23.3267 64.1199 23.162C63.9033 22.9887 63.7299 22.772 63.5999 22.512C63.4786 22.2433 63.4179 21.9183 63.4179 21.537C63.4179 21.173 63.4873 20.861 63.6259 20.601C63.7646 20.341 63.9596 20.1287 64.2109 19.964C64.4623 19.7907 64.7613 19.665 65.1079 19.587C65.4546 19.509 65.8316 19.47 66.2389 19.47C66.3603 19.47 66.4859 19.4787 66.6159 19.496C66.7546 19.5047 66.8846 19.522 67.0059 19.548C67.1359 19.5653 67.2443 19.587 67.3309 19.613C67.4263 19.6303 67.4913 19.6477 67.5259 19.665V19.249C67.5259 19.015 67.5086 18.7897 67.4739 18.573C67.4393 18.3477 67.3613 18.1483 67.2399 17.975C67.1273 17.793 66.9626 17.65 66.7459 17.546C66.5379 17.4333 66.2606 17.377 65.9139 17.377C65.4199 17.377 65.0516 17.4117 64.8089 17.481C64.5663 17.5503 64.3886 17.6067 64.2759 17.65L64.1589 16.909C64.3063 16.8397 64.5316 16.7747 64.8349 16.714C65.1469 16.6533 65.5196 16.623 65.9529 16.623ZM70.0322 16.779H70.8772V18.599C70.8772 19.223 71.0159 19.652 71.2932 19.886C71.5792 20.12 71.9865 20.237 72.5152 20.237C72.9572 20.237 73.2995 20.2153 73.5422 20.172C73.7935 20.1287 74.0059 20.0767 74.1792 20.016V16.779H75.0242V23.5H74.1792V20.731C74.1185 20.7483 74.0275 20.7743 73.9062 20.809C73.7935 20.835 73.6592 20.861 73.5032 20.887C73.3472 20.913 73.1782 20.939 72.9962 20.965C72.8229 20.9823 72.6452 20.991 72.4632 20.991C72.0905 20.991 71.7525 20.952 71.4492 20.874C71.1545 20.796 70.8989 20.666 70.6822 20.484C70.4742 20.302 70.3139 20.0637 70.2012 19.769C70.0885 19.4657 70.0322 19.093 70.0322 18.651V16.779ZM79.3737 22.889C79.7031 22.889 79.9891 22.8803 80.2317 22.863C80.4831 22.837 80.6954 22.8067 80.8687 22.772V20.406C80.7734 20.3627 80.6217 20.3193 80.4137 20.276C80.2057 20.224 79.9197 20.198 79.5557 20.198C79.3477 20.198 79.1311 20.2153 78.9057 20.25C78.6804 20.276 78.4724 20.341 78.2817 20.445C78.0911 20.5403 77.9351 20.6747 77.8137 20.848C77.6924 21.0213 77.6317 21.251 77.6317 21.537C77.6317 21.7883 77.6707 22.0007 77.7487 22.174C77.8354 22.3473 77.9524 22.486 78.0997 22.59C78.2557 22.694 78.4377 22.772 78.6457 22.824C78.8624 22.8673 79.1051 22.889 79.3737 22.889ZM79.2957 16.623C79.7377 16.623 80.1104 16.688 80.4137 16.818C80.7257 16.9393 80.9771 17.1127 81.1677 17.338C81.3584 17.5547 81.4971 17.8147 81.5837 18.118C81.6704 18.4213 81.7137 18.7507 81.7137 19.106V23.344C81.6271 23.37 81.5014 23.4003 81.3367 23.435C81.1721 23.461 80.9814 23.4913 80.7647 23.526C80.5481 23.5607 80.3054 23.5867 80.0367 23.604C79.7767 23.63 79.5081 23.643 79.2307 23.643C78.8754 23.643 78.5461 23.604 78.2427 23.526C77.9481 23.448 77.6881 23.3267 77.4627 23.162C77.2461 22.9887 77.0727 22.772 76.9427 22.512C76.8214 22.2433 76.7607 21.9183 76.7607 21.537C76.7607 21.173 76.8301 20.861 76.9687 20.601C77.1074 20.341 77.3024 20.1287 77.5537 19.964C77.8051 19.7907 78.1041 19.665 78.4507 19.587C78.7974 19.509 79.1744 19.47 79.5817 19.47C79.7031 19.47 79.8287 19.4787 79.9587 19.496C80.0974 19.5047 80.2274 19.522 80.3487 19.548C80.4787 19.5653 80.5871 19.587 80.6737 19.613C80.7691 19.6303 80.8341 19.6477 80.8687 19.665V19.249C80.8687 19.015 80.8514 18.7897 80.8167 18.573C80.7821 18.3477 80.7041 18.1483 80.5827 17.975C80.4701 17.793 80.3054 17.65 80.0887 17.546C79.8807 17.4333 79.6034 17.377 79.2567 17.377C78.7627 17.377 78.3944 17.4117 78.1517 17.481C77.9091 17.5503 77.7314 17.6067 77.6187 17.65L77.5017 16.909C77.6491 16.8397 77.8744 16.7747 78.1777 16.714C78.4897 16.6533 78.8624 16.623 79.2957 16.623ZM88.998 16.636C89.258 16.636 89.5483 16.6533 89.869 16.688C90.1983 16.714 90.506 16.7877 90.792 16.909C91.078 17.0217 91.3163 17.2037 91.507 17.455C91.7063 17.6977 91.806 18.0313 91.806 18.456C91.806 18.7853 91.7107 19.08 91.52 19.34C91.3293 19.5913 91.0693 19.7777 90.74 19.899C91.2253 20.029 91.5763 20.237 91.793 20.523C92.0097 20.809 92.118 21.16 92.118 21.576C92.118 22.0267 92.027 22.3907 91.845 22.668C91.663 22.9367 91.4203 23.1447 91.117 23.292C90.8223 23.4307 90.4843 23.5217 90.103 23.565C89.7303 23.6083 89.349 23.63 88.959 23.63C88.491 23.63 88.0793 23.5997 87.724 23.539C87.3773 23.4783 87.0783 23.4133 86.827 23.344V16.922C87.0437 16.8527 87.3297 16.7877 87.685 16.727C88.0403 16.6663 88.478 16.636 88.998 16.636ZM87.672 19.6H89.206C89.726 19.6 90.1463 19.5133 90.467 19.34C90.7877 19.1667 90.948 18.8763 90.948 18.469C90.948 18.209 90.8917 18.0053 90.779 17.858C90.6663 17.7107 90.519 17.6023 90.337 17.533C90.155 17.455 89.947 17.4073 89.713 17.39C89.479 17.364 89.245 17.351 89.011 17.351C88.725 17.351 88.452 17.3683 88.192 17.403C87.932 17.429 87.7587 17.455 87.672 17.481V19.6ZM87.672 20.302V22.772C87.7153 22.7893 87.7847 22.8067 87.88 22.824C87.984 22.8327 88.0967 22.8457 88.218 22.863C88.348 22.8717 88.4823 22.8803 88.621 22.889C88.7683 22.8977 88.907 22.902 89.037 22.902C89.3317 22.902 89.6133 22.8847 89.882 22.85C90.1507 22.8153 90.3847 22.7503 90.584 22.655C90.7833 22.551 90.9437 22.4167 91.065 22.252C91.1863 22.0787 91.247 21.8533 91.247 21.576C91.247 21.3333 91.195 21.1297 91.091 20.965C90.9957 20.8003 90.857 20.6703 90.675 20.575C90.5017 20.4797 90.2937 20.4103 90.051 20.367C89.817 20.3237 89.5613 20.302 89.284 20.302H87.672ZM96.7057 23.643C96.1857 23.643 95.7263 23.5607 95.3277 23.396C94.929 23.2313 94.5953 22.9973 94.3267 22.694C94.0667 22.382 93.8673 22.0137 93.7287 21.589C93.59 21.1557 93.5207 20.679 93.5207 20.159C93.5207 19.6303 93.59 19.1493 93.7287 18.716C93.876 18.2827 94.084 17.91 94.3527 17.598C94.6213 17.286 94.9463 17.0477 95.3277 16.883C95.709 16.7097 96.138 16.623 96.6147 16.623C96.9787 16.623 97.3167 16.6533 97.6287 16.714C97.9493 16.7747 98.1963 16.8527 98.3697 16.948L98.1487 17.676C97.9753 17.5893 97.7803 17.52 97.5637 17.468C97.347 17.416 97.0567 17.39 96.6927 17.39C95.9473 17.39 95.3797 17.6327 94.9897 18.118C94.6083 18.5947 94.4177 19.275 94.4177 20.159C94.4177 20.5577 94.461 20.926 94.5477 21.264C94.6343 21.5933 94.773 21.8793 94.9637 22.122C95.163 22.356 95.4143 22.5423 95.7177 22.681C96.0297 22.811 96.4067 22.876 96.8487 22.876C97.2127 22.876 97.516 22.837 97.7587 22.759C98.01 22.6723 98.192 22.5987 98.3047 22.538L98.4867 23.266C98.3307 23.3527 98.0837 23.435 97.7457 23.513C97.4163 23.5997 97.0697 23.643 96.7057 23.643ZM99.5002 20.133C99.5002 19.5437 99.5825 19.0323 99.7472 18.599C99.9205 18.157 100.141 17.7887 100.41 17.494C100.687 17.1993 100.999 16.9827 101.346 16.844C101.701 16.6967 102.065 16.623 102.438 16.623C103.261 16.623 103.916 16.8917 104.401 17.429C104.895 17.9663 105.142 18.794 105.142 19.912C105.142 19.9813 105.138 20.0507 105.129 20.12C105.129 20.1893 105.125 20.2543 105.116 20.315H100.397C100.423 21.1383 100.627 21.771 101.008 22.213C101.389 22.655 101.996 22.876 102.828 22.876C103.287 22.876 103.651 22.8327 103.92 22.746C104.189 22.6593 104.384 22.5857 104.505 22.525L104.661 23.253C104.54 23.3223 104.31 23.4047 103.972 23.5C103.643 23.5953 103.253 23.643 102.802 23.643C102.213 23.643 101.71 23.5563 101.294 23.383C100.878 23.2097 100.536 22.967 100.267 22.655C99.9985 22.343 99.8035 21.9747 99.6822 21.55C99.5608 21.1167 99.5002 20.6443 99.5002 20.133ZM104.271 19.6C104.254 18.898 104.089 18.352 103.777 17.962C103.465 17.572 103.023 17.377 102.451 17.377C102.148 17.377 101.875 17.4377 101.632 17.559C101.398 17.6803 101.19 17.845 101.008 18.053C100.835 18.2523 100.696 18.4863 100.592 18.755C100.497 19.0237 100.44 19.3053 100.423 19.6H104.271ZM101.905 14.751C101.905 14.9417 101.849 15.0933 101.736 15.206C101.623 15.3187 101.48 15.375 101.307 15.375C101.134 15.375 100.991 15.3187 100.878 15.206C100.765 15.0933 100.709 14.9417 100.709 14.751C100.709 14.5603 100.765 14.4087 100.878 14.296C100.991 14.1833 101.134 14.127 101.307 14.127C101.48 14.127 101.623 14.1833 101.736 14.296C101.849 14.4087 101.905 14.5603 101.905 14.751ZM104.141 14.751C104.141 14.9417 104.085 15.0933 103.972 15.206C103.859 15.3187 103.716 15.375 103.543 15.375C103.37 15.375 103.227 15.3187 103.114 15.206C103.001 15.0933 102.945 14.9417 102.945 14.751C102.945 14.5603 103.001 14.4087 103.114 14.296C103.227 14.1833 103.37 14.127 103.543 14.127C103.716 14.127 103.859 14.1833 103.972 14.296C104.085 14.4087 104.141 14.5603 104.141 14.751ZM111.543 22.889C112.15 22.889 112.627 22.7893 112.973 22.59C113.32 22.382 113.493 22.0743 113.493 21.667C113.493 21.3723 113.428 21.1383 113.298 20.965C113.168 20.7917 113.004 20.6573 112.804 20.562C112.614 20.4667 112.406 20.406 112.18 20.38C111.964 20.3453 111.764 20.328 111.582 20.328H110.646V19.613H111.517C111.673 19.613 111.851 19.6 112.05 19.574C112.258 19.548 112.449 19.496 112.622 19.418C112.796 19.34 112.943 19.2317 113.064 19.093C113.186 18.9457 113.246 18.755 113.246 18.521C113.246 18.2957 113.194 18.1093 113.09 17.962C112.995 17.8147 112.865 17.6977 112.7 17.611C112.536 17.5243 112.345 17.4637 112.128 17.429C111.92 17.3943 111.708 17.377 111.491 17.377C110.997 17.377 110.607 17.429 110.321 17.533C110.035 17.6283 109.84 17.702 109.736 17.754L109.541 17C109.663 16.9393 109.892 16.8657 110.23 16.779C110.568 16.6837 110.989 16.636 111.491 16.636C112.349 16.636 112.999 16.792 113.441 17.104C113.883 17.416 114.104 17.8797 114.104 18.495C114.104 18.8763 113.992 19.1883 113.766 19.431C113.541 19.665 113.277 19.8297 112.973 19.925C113.398 20.0463 113.736 20.25 113.987 20.536C114.239 20.822 114.364 21.199 114.364 21.667C114.364 22.3343 114.126 22.8327 113.649 23.162C113.173 23.4913 112.475 23.656 111.556 23.656C110.941 23.656 110.447 23.604 110.074 23.5C109.702 23.396 109.463 23.318 109.359 23.266L109.58 22.499C109.606 22.5163 109.663 22.5467 109.749 22.59C109.845 22.6247 109.975 22.668 110.139 22.72C110.304 22.7633 110.503 22.8023 110.737 22.837C110.971 22.8717 111.24 22.889 111.543 22.889ZM118.298 22.889C118.627 22.889 118.913 22.8803 119.156 22.863C119.407 22.837 119.619 22.8067 119.793 22.772V20.406C119.697 20.3627 119.546 20.3193 119.338 20.276C119.13 20.224 118.844 20.198 118.48 20.198C118.272 20.198 118.055 20.2153 117.83 20.25C117.604 20.276 117.396 20.341 117.206 20.445C117.015 20.5403 116.859 20.6747 116.738 20.848C116.616 21.0213 116.556 21.251 116.556 21.537C116.556 21.7883 116.595 22.0007 116.673 22.174C116.759 22.3473 116.876 22.486 117.024 22.59C117.18 22.694 117.362 22.772 117.57 22.824C117.786 22.8673 118.029 22.889 118.298 22.889ZM118.22 16.623C118.662 16.623 119.034 16.688 119.338 16.818C119.65 16.9393 119.901 17.1127 120.092 17.338C120.282 17.5547 120.421 17.8147 120.508 18.118C120.594 18.4213 120.638 18.7507 120.638 19.106V23.344C120.551 23.37 120.425 23.4003 120.261 23.435C120.096 23.461 119.905 23.4913 119.689 23.526C119.472 23.5607 119.229 23.5867 118.961 23.604C118.701 23.63 118.432 23.643 118.155 23.643C117.799 23.643 117.47 23.604 117.167 23.526C116.872 23.448 116.612 23.3267 116.387 23.162C116.17 22.9887 115.997 22.772 115.867 22.512C115.745 22.2433 115.685 21.9183 115.685 21.537C115.685 21.173 115.754 20.861 115.893 20.601C116.031 20.341 116.226 20.1287 116.478 19.964C116.729 19.7907 117.028 19.665 117.375 19.587C117.721 19.509 118.098 19.47 118.506 19.47C118.627 19.47 118.753 19.4787 118.883 19.496C119.021 19.5047 119.151 19.522 119.273 19.548C119.403 19.5653 119.511 19.587 119.598 19.613C119.693 19.6303 119.758 19.6477 119.793 19.665V19.249C119.793 19.015 119.775 18.7897 119.741 18.573C119.706 18.3477 119.628 18.1483 119.507 17.975C119.394 17.793 119.229 17.65 119.013 17.546C118.805 17.4333 118.527 17.377 118.181 17.377C117.687 17.377 117.318 17.4117 117.076 17.481C116.833 17.5503 116.655 17.6067 116.543 17.65L116.426 16.909C116.573 16.8397 116.798 16.7747 117.102 16.714C117.414 16.6533 117.786 16.623 118.22 16.623ZM128.136 23.5H127.291V20.367H123.638V23.5H122.793V16.779H123.638V19.652H127.291V16.779H128.136V23.5ZM132.114 20.757C131.984 20.9563 131.841 21.173 131.685 21.407C131.538 21.641 131.39 21.8793 131.243 22.122C131.104 22.3647 130.97 22.6073 130.84 22.85C130.71 23.084 130.602 23.3007 130.515 23.5H129.644C129.869 22.9887 130.142 22.473 130.463 21.953C130.784 21.433 131.083 20.978 131.36 20.588C131.187 20.536 131.018 20.4623 130.853 20.367C130.697 20.2717 130.554 20.1503 130.424 20.003C130.303 19.8557 130.203 19.6823 130.125 19.483C130.047 19.275 130.008 19.041 130.008 18.781C130.008 18.4083 130.077 18.0877 130.216 17.819C130.363 17.5503 130.558 17.3293 130.801 17.156C131.052 16.9827 131.347 16.8527 131.685 16.766C132.032 16.6793 132.4 16.636 132.79 16.636C132.963 16.636 133.154 16.6447 133.362 16.662C133.579 16.6793 133.791 16.7053 133.999 16.74C134.216 16.766 134.415 16.7963 134.597 16.831C134.779 16.8657 134.931 16.9003 135.052 16.935V23.5H134.207V20.796H132.998C132.807 20.796 132.634 20.796 132.478 20.796C132.331 20.7873 132.209 20.7743 132.114 20.757ZM134.207 17.507C134.103 17.481 133.934 17.455 133.7 17.429C133.466 17.3943 133.167 17.377 132.803 17.377C132.56 17.377 132.322 17.403 132.088 17.455C131.863 17.4983 131.659 17.5763 131.477 17.689C131.295 17.8017 131.148 17.949 131.035 18.131C130.931 18.3043 130.879 18.521 130.879 18.781C130.879 19.0323 130.927 19.2447 131.022 19.418C131.117 19.5827 131.252 19.717 131.425 19.821C131.598 19.9163 131.806 19.9857 132.049 20.029C132.3 20.0723 132.578 20.094 132.881 20.094H134.207V17.507ZM141.62 16.779V17.494H139.41V23.5H138.565V17.494H136.368V16.779H141.62ZM148.661 20.146C148.661 20.6747 148.583 21.1557 148.427 21.589C148.279 22.0223 148.067 22.3907 147.79 22.694C147.521 22.9973 147.2 23.2357 146.828 23.409C146.455 23.5737 146.043 23.656 145.593 23.656C145.142 23.656 144.73 23.5737 144.358 23.409C143.985 23.2357 143.66 22.9973 143.383 22.694C143.114 22.3907 142.902 22.0223 142.746 21.589C142.598 21.1557 142.525 20.6747 142.525 20.146C142.525 19.6173 142.598 19.1363 142.746 18.703C142.902 18.2697 143.114 17.9013 143.383 17.598C143.66 17.286 143.985 17.0477 144.358 16.883C144.73 16.7097 145.142 16.623 145.593 16.623C146.043 16.623 146.455 16.7097 146.828 16.883C147.2 17.0477 147.521 17.286 147.79 17.598C148.067 17.9013 148.279 18.2697 148.427 18.703C148.583 19.1363 148.661 19.6173 148.661 20.146ZM147.764 20.146C147.764 19.3053 147.569 18.638 147.179 18.144C146.789 17.6413 146.26 17.39 145.593 17.39C144.925 17.39 144.397 17.6413 144.007 18.144C143.617 18.638 143.422 19.3053 143.422 20.146C143.422 20.9867 143.617 21.654 144.007 22.148C144.397 22.642 144.925 22.889 145.593 22.889C146.26 22.889 146.789 22.642 147.179 22.148C147.569 21.654 147.764 20.9867 147.764 20.146Z" fill="white"/>
<path d="M18.7292 45.7685C18.6456 45.7246 18.574 45.6611 18.5205 45.5833L13.2705 38H24.7295L19.4795 45.5833C19.426 45.6611 19.3544 45.7246 19.2709 45.7685C19.1873 45.8124 19.0944 45.8354 19 45.8354C18.9056 45.8354 18.8127 45.8124 18.7292 45.7685Z" fill="#323232"/>
</svg>
