<svg width="59" height="60" viewBox="0 0 59 60" fill="none" xmlns="http://www.w3.org/2000/svg">
<path d="M35.4194 12.8387V9.22581C35.4194 7.69032 34.2452 6.51613 32.7097 6.51613H30.9033V2H16.4517V6.51613H14.6452C13.1097 6.51613 11.9355 7.69032 11.9355 9.22581V12.8387H35.4194Z" stroke="#98D7DC" stroke-width="3" stroke-miterlimit="10" stroke-linecap="round" stroke-linejoin="round"/>
<path d="M20.9677 6.51617V8.32263H26.387V6.51617" stroke="#98D7DC" stroke-width="2" stroke-miterlimit="10" stroke-linecap="square" stroke-linejoin="round"/>
<path d="M35.6075 9.22577H42.6828C43.6556 9.22577 44.4516 10.0387 44.4516 11.0322V56.1935C44.4516 57.1871 43.6556 58 42.6828 58H3.76882C2.79597 58 2 57.1871 2 56.1935V11.0322C2 10.0387 2.79597 9.22577 3.76882 9.22577H8.19086" stroke="#98D7DC" stroke-width="3" stroke-miterlimit="10" stroke-linecap="square" stroke-linejoin="round"/>
<path d="M19.1613 29.0968V31.8065H9.22583V21.871H13.742" stroke="#98D7DC" stroke-width="2" stroke-miterlimit="10" stroke-linecap="round" stroke-linejoin="round"/>
<path d="M19.1613 39.0322H9.22583V48.9677H19.1613V39.0322Z" stroke="#98D7DC" stroke-width="2" stroke-miterlimit="10" stroke-linecap="round" stroke-linejoin="round"/>
<path d="M12.8387 26.3871L14.6452 28.1936L19.1613 22.7742" stroke="#98D7DC" stroke-width="2" stroke-miterlimit="10" stroke-linecap="round" stroke-linejoin="round"/>
<path d="M24.5806 26.3871H31.8064" stroke="#98D7DC" stroke-width="2" stroke-miterlimit="10" stroke-linecap="round" stroke-linejoin="round"/>
<path d="M24.5806 31.8065H37.2257" stroke="#98D7DC" stroke-width="2" stroke-miterlimit="10" stroke-linecap="round" stroke-linejoin="round"/>
<path d="M24.5806 42.6451H31.8064" stroke="#98D7DC" stroke-width="2" stroke-miterlimit="10" stroke-linecap="round" stroke-linejoin="round"/>
<path d="M24.5806 48.0645H37.2257" stroke="#98D7DC" stroke-width="2" stroke-miterlimit="10" stroke-linecap="round" stroke-linejoin="round"/>
<path d="M57.9999 30.9032H48.9677V15.5484C48.9677 13.0193 50.9547 11.0322 53.4838 11.0322C56.0128 11.0322 57.9999 13.0193 57.9999 15.5484V30.9032Z" stroke="#98D7DC" stroke-width="2" stroke-miterlimit="10" stroke-linecap="round" stroke-linejoin="round"/>
<path d="M57.0968 30.9033V48.0645L54.3871 54.3871H52.5806L49.871 48.0645V34.5162" stroke="#98D7DC" stroke-width="2" stroke-miterlimit="10" stroke-linecap="square" stroke-linejoin="round"/>
<path d="M53.4839 48.0645H56.1936" stroke="#98D7DC" stroke-width="2" stroke-miterlimit="10" stroke-linecap="round" stroke-linejoin="round"/>
<path d="M53.4839 54.3871V56.1935" stroke="#98D7DC" stroke-width="2" stroke-miterlimit="10" stroke-linecap="round" stroke-linejoin="round"/>
<path d="M53.4839 11.0322V24.5806" stroke="#98D7DC" stroke-width="2" stroke-miterlimit="10" stroke-linecap="round" stroke-linejoin="round"/>
<path d="M53.4838 26.3871C54.4815 26.3871 55.2903 25.5784 55.2903 24.5807C55.2903 23.583 54.4815 22.7742 53.4838 22.7742C52.4861 22.7742 51.6774 23.583 51.6774 24.5807C51.6774 25.5784 52.4861 26.3871 53.4838 26.3871Z" fill="#98D7DC"/>
</svg>
