<svg width="24" height="24" viewBox="0 0 24 24" fill="none" xmlns="http://www.w3.org/2000/svg">
<rect x="0.75" y="0.75" width="22.5" height="22.5" rx="4.25" stroke="black" stroke-width="1.5"/>
<path d="M11.136 6.40039C12.7467 6.40039 13.9787 6.69372 14.832 7.28039C15.696 7.86706 16.128 8.78439 16.128 10.0324C16.128 10.6831 16.0107 11.2431 15.776 11.7124C15.552 12.1711 15.2213 12.5497 14.784 12.8484C14.3467 13.1364 13.8133 13.3497 13.184 13.4884C12.5547 13.6271 11.8347 13.6964 11.024 13.6964H10.016V17.6004H8V6.67239C8.46933 6.56572 8.98667 6.49639 9.552 6.46439C10.128 6.42172 10.656 6.40039 11.136 6.40039ZM11.28 8.14439C10.768 8.14439 10.3467 8.16039 10.016 8.19239V11.9684H10.992C11.9627 11.9684 12.7093 11.8351 13.232 11.5684C13.7547 11.2911 14.016 10.7737 14.016 10.0164C14.016 9.65372 13.9467 9.34972 13.808 9.10439C13.6693 8.85906 13.4773 8.66706 13.232 8.52839C12.9867 8.38972 12.6933 8.29372 12.352 8.24039C12.0213 8.17639 11.664 8.14439 11.28 8.14439Z" fill="black"/>
</svg>
