<svg width="153" height="47" viewBox="0 0 153 47" fill="none" xmlns="http://www.w3.org/2000/svg">
<rect width="153" height="38" rx="5" fill="#323232"/>
<path d="M19 26.9839C23.4094 26.9839 26.9839 23.4094 26.9839 19C26.9839 14.5906 23.4094 11.0161 19 11.0161C14.5906 11.0161 11.0161 14.5906 11.0161 19C11.0161 23.4094 14.5906 26.9839 19 26.9839Z" fill="white" stroke="#FA0303" stroke-width="2" stroke-miterlimit="10" stroke-linecap="round" stroke-linejoin="round"/>
<path d="M23.5329 16.0382L16.0383 23.5328C16.8882 24.0994 17.9184 24.4342 19.0001 24.4342C21.9876 24.4342 24.4085 22.0133 24.4085 19.0257C24.4085 17.8926 24.0995 16.8881 23.5329 16.0382Z" fill="#FA0303"/>
<path d="M19 13.5916C16.0125 13.5916 13.5916 16.0125 13.5916 19C13.5916 20.1074 13.9264 21.1118 14.493 21.9617L21.9875 14.4672C21.1376 13.9263 20.1074 13.5916 19 13.5916Z" fill="#FA0303"/>
<path d="M41.328 23.578C41.1807 23.578 41.0073 23.5693 40.808 23.552C40.6173 23.5433 40.418 23.526 40.21 23.5C40.0107 23.4827 39.82 23.461 39.638 23.435C39.456 23.4003 39.3 23.3657 39.17 23.331V14.66C39.326 14.6167 39.4993 14.582 39.69 14.556C39.8807 14.5213 40.0757 14.4953 40.275 14.478C40.483 14.452 40.6823 14.4347 40.873 14.426C41.0723 14.4173 41.2543 14.413 41.419 14.413C41.9043 14.413 42.3637 14.452 42.797 14.53C43.239 14.608 43.6247 14.738 43.954 14.92C44.2833 15.102 44.5433 15.3447 44.734 15.648C44.9333 15.9427 45.033 16.311 45.033 16.753C45.033 17.2383 44.9073 17.6543 44.656 18.001C44.4133 18.339 44.084 18.573 43.668 18.703C43.928 18.7637 44.1663 18.8503 44.383 18.963C44.5997 19.0757 44.7903 19.223 44.955 19.405C45.1197 19.5783 45.2453 19.795 45.332 20.055C45.4273 20.3063 45.475 20.6097 45.475 20.965C45.475 21.8143 45.137 22.4643 44.461 22.915C43.785 23.357 42.7407 23.578 41.328 23.578ZM40.054 19.184V22.733C40.184 22.7503 40.379 22.772 40.639 22.798C40.899 22.8153 41.1633 22.824 41.432 22.824C41.8307 22.824 42.2163 22.798 42.589 22.746C42.9703 22.694 43.304 22.5987 43.59 22.46C43.876 22.3213 44.1057 22.1307 44.279 21.888C44.4523 21.6453 44.539 21.3333 44.539 20.952C44.539 20.6053 44.4783 20.3193 44.357 20.094C44.2357 19.86 44.0623 19.678 43.837 19.548C43.6117 19.4093 43.3343 19.314 43.005 19.262C42.6843 19.21 42.3247 19.184 41.926 19.184H40.054ZM40.054 18.43H41.77C42.0907 18.43 42.394 18.4083 42.68 18.365C42.966 18.313 43.213 18.2263 43.421 18.105C43.6377 17.975 43.8067 17.806 43.928 17.598C44.0493 17.3813 44.11 17.1083 44.11 16.779C44.11 16.4843 44.045 16.2373 43.915 16.038C43.785 15.83 43.5987 15.661 43.356 15.531C43.122 15.401 42.8403 15.31 42.511 15.258C42.1817 15.1973 41.8177 15.167 41.419 15.167C41.0983 15.167 40.8253 15.1757 40.6 15.193C40.3833 15.2103 40.2013 15.232 40.054 15.258V18.43ZM48.1515 22.291C48.2295 22.3517 48.3248 22.4167 48.4375 22.486C48.5588 22.5553 48.6975 22.6203 48.8535 22.681C49.0095 22.7417 49.1785 22.7937 49.3605 22.837C49.5425 22.8717 49.7331 22.889 49.9325 22.889C50.3485 22.889 50.6951 22.8197 50.9725 22.681C51.2585 22.5337 51.4881 22.3387 51.6615 22.096C51.8348 21.8447 51.9605 21.5543 52.0385 21.225C52.1165 20.887 52.1555 20.5317 52.1555 20.159C52.1555 19.275 51.9345 18.599 51.4925 18.131C51.0505 17.6543 50.4655 17.416 49.7375 17.416C49.3215 17.416 48.9835 17.4377 48.7235 17.481C48.4721 17.5157 48.2815 17.5547 48.1515 17.598V22.291ZM48.1515 25.905H47.3065V17.013C47.5578 16.9263 47.8785 16.844 48.2685 16.766C48.6585 16.688 49.1525 16.649 49.7505 16.649C50.2445 16.649 50.6908 16.7313 51.0895 16.896C51.4968 17.052 51.8435 17.2817 52.1295 17.585C52.4241 17.8883 52.6495 18.2567 52.8055 18.69C52.9701 19.1233 53.0525 19.613 53.0525 20.159C53.0525 20.6703 52.9831 21.1427 52.8445 21.576C52.7145 22.0007 52.5195 22.369 52.2595 22.681C51.9995 22.9843 51.6788 23.2227 51.2975 23.396C50.9248 23.5693 50.4958 23.656 50.0105 23.656C49.5685 23.656 49.1828 23.5953 48.8535 23.474C48.5328 23.344 48.2988 23.2227 48.1515 23.11V25.905ZM57.0046 22.889C57.3339 22.889 57.6199 22.8803 57.8626 22.863C58.1139 22.837 58.3262 22.8067 58.4996 22.772V20.406C58.4042 20.3627 58.2526 20.3193 58.0446 20.276C57.8366 20.224 57.5506 20.198 57.1866 20.198C56.9786 20.198 56.7619 20.2153 56.5366 20.25C56.3112 20.276 56.1032 20.341 55.9126 20.445C55.7219 20.5403 55.5659 20.6747 55.4446 20.848C55.3232 21.0213 55.2626 21.251 55.2626 21.537C55.2626 21.7883 55.3016 22.0007 55.3796 22.174C55.4662 22.3473 55.5832 22.486 55.7306 22.59C55.8866 22.694 56.0686 22.772 56.2766 22.824C56.4932 22.8673 56.7359 22.889 57.0046 22.889ZM56.9266 16.623C57.3686 16.623 57.7412 16.688 58.0446 16.818C58.3566 16.9393 58.6079 17.1127 58.7986 17.338C58.9892 17.5547 59.1279 17.8147 59.2146 18.118C59.3012 18.4213 59.3446 18.7507 59.3446 19.106V23.344C59.2579 23.37 59.1322 23.4003 58.9676 23.435C58.8029 23.461 58.6122 23.4913 58.3956 23.526C58.1789 23.5607 57.9362 23.5867 57.6676 23.604C57.4076 23.63 57.1389 23.643 56.8616 23.643C56.5062 23.643 56.1769 23.604 55.8736 23.526C55.5789 23.448 55.3189 23.3267 55.0936 23.162C54.8769 22.9887 54.7036 22.772 54.5736 22.512C54.4522 22.2433 54.3916 21.9183 54.3916 21.537C54.3916 21.173 54.4609 20.861 54.5996 20.601C54.7382 20.341 54.9332 20.1287 55.1846 19.964C55.4359 19.7907 55.7349 19.665 56.0816 19.587C56.4282 19.509 56.8052 19.47 57.2126 19.47C57.3339 19.47 57.4596 19.4787 57.5896 19.496C57.7282 19.5047 57.8582 19.522 57.9796 19.548C58.1096 19.5653 58.2179 19.587 58.3046 19.613C58.3999 19.6303 58.4649 19.6477 58.4996 19.665V19.249C58.4996 19.015 58.4822 18.7897 58.4476 18.573C58.4129 18.3477 58.3349 18.1483 58.2136 17.975C58.1009 17.793 57.9362 17.65 57.7196 17.546C57.5116 17.4333 57.2342 17.377 56.8876 17.377C56.3936 17.377 56.0252 17.4117 55.7826 17.481C55.5399 17.5503 55.3622 17.6067 55.2496 17.65L55.1326 16.909C55.2799 16.8397 55.5052 16.7747 55.8086 16.714C56.1206 16.6533 56.4932 16.623 56.9266 16.623ZM61.0058 16.779H61.8508V18.599C61.8508 19.223 61.9895 19.652 62.2668 19.886C62.5528 20.12 62.9602 20.237 63.4888 20.237C63.9308 20.237 64.2732 20.2153 64.5158 20.172C64.7672 20.1287 64.9795 20.0767 65.1528 20.016V16.779H65.9978V23.5H65.1528V20.731C65.0922 20.7483 65.0012 20.7743 64.8798 20.809C64.7672 20.835 64.6328 20.861 64.4768 20.887C64.3208 20.913 64.1518 20.939 63.9698 20.965C63.7965 20.9823 63.6188 20.991 63.4368 20.991C63.0642 20.991 62.7262 20.952 62.4228 20.874C62.1282 20.796 61.8725 20.666 61.6558 20.484C61.4478 20.302 61.2875 20.0637 61.1748 19.769C61.0622 19.4657 61.0058 19.093 61.0058 18.651V16.779ZM76.5294 23.5H75.6844V20.367H72.0314V23.5H71.1864V16.779H72.0314V19.652H75.6844V16.779H76.5294V23.5ZM78.3625 20.133C78.3625 19.5437 78.4448 19.0323 78.6095 18.599C78.7828 18.157 79.0038 17.7887 79.2725 17.494C79.5498 17.1993 79.8618 16.9827 80.2085 16.844C80.5638 16.6967 80.9278 16.623 81.3005 16.623C82.1238 16.623 82.7781 16.8917 83.2635 17.429C83.7575 17.9663 84.0045 18.794 84.0045 19.912C84.0045 19.9813 84.0001 20.0507 83.9915 20.12C83.9915 20.1893 83.9871 20.2543 83.9785 20.315H79.2595C79.2855 21.1383 79.4891 21.771 79.8705 22.213C80.2518 22.655 80.8585 22.876 81.6905 22.876C82.1498 22.876 82.5138 22.8327 82.7825 22.746C83.0511 22.6593 83.2461 22.5857 83.3675 22.525L83.5235 23.253C83.4021 23.3223 83.1725 23.4047 82.8345 23.5C82.5051 23.5953 82.1151 23.643 81.6645 23.643C81.0751 23.643 80.5725 23.5563 80.1565 23.383C79.7405 23.2097 79.3981 22.967 79.1295 22.655C78.8608 22.343 78.6658 21.9747 78.5445 21.55C78.4231 21.1167 78.3625 20.6443 78.3625 20.133ZM83.1335 19.6C83.1161 18.898 82.9515 18.352 82.6395 17.962C82.3275 17.572 81.8855 17.377 81.3135 17.377C81.0101 17.377 80.7371 17.4377 80.4945 17.559C80.2605 17.6803 80.0525 17.845 79.8705 18.053C79.6971 18.2523 79.5585 18.4863 79.4545 18.755C79.3591 19.0237 79.3028 19.3053 79.2855 19.6H83.1335ZM89.6905 22.291C89.7685 22.3517 89.8639 22.4167 89.9765 22.486C90.0979 22.5553 90.2365 22.6203 90.3925 22.681C90.5485 22.7417 90.7175 22.7937 90.8995 22.837C91.0815 22.8717 91.2722 22.889 91.4715 22.889C91.8875 22.889 92.2342 22.8197 92.5115 22.681C92.7975 22.5337 93.0272 22.3387 93.2005 22.096C93.3739 21.8447 93.4995 21.5543 93.5775 21.225C93.6555 20.887 93.6945 20.5317 93.6945 20.159C93.6945 19.275 93.4735 18.599 93.0315 18.131C92.5895 17.6543 92.0045 17.416 91.2765 17.416C90.8605 17.416 90.5225 17.4377 90.2625 17.481C90.0112 17.5157 89.8205 17.5547 89.6905 17.598V22.291ZM89.6905 25.905H88.8455V17.013C89.0969 16.9263 89.4175 16.844 89.8075 16.766C90.1975 16.688 90.6915 16.649 91.2895 16.649C91.7835 16.649 92.2299 16.7313 92.6285 16.896C93.0359 17.052 93.3825 17.2817 93.6685 17.585C93.9632 17.8883 94.1885 18.2567 94.3445 18.69C94.5092 19.1233 94.5915 19.613 94.5915 20.159C94.5915 20.6703 94.5222 21.1427 94.3835 21.576C94.2535 22.0007 94.0585 22.369 93.7985 22.681C93.5385 22.9843 93.2179 23.2227 92.8365 23.396C92.4639 23.5693 92.0349 23.656 91.5495 23.656C91.1075 23.656 90.7219 23.5953 90.3925 23.474C90.0719 23.344 89.8379 23.2227 89.6905 23.11V25.905ZM98.5436 22.889C98.873 22.889 99.159 22.8803 99.4016 22.863C99.653 22.837 99.8653 22.8067 100.039 22.772V20.406C99.9433 20.3627 99.7916 20.3193 99.5836 20.276C99.3756 20.224 99.0896 20.198 98.7256 20.198C98.5176 20.198 98.301 20.2153 98.0756 20.25C97.8503 20.276 97.6423 20.341 97.4516 20.445C97.261 20.5403 97.105 20.6747 96.9836 20.848C96.8623 21.0213 96.8016 21.251 96.8016 21.537C96.8016 21.7883 96.8406 22.0007 96.9186 22.174C97.0053 22.3473 97.1223 22.486 97.2696 22.59C97.4256 22.694 97.6076 22.772 97.8156 22.824C98.0323 22.8673 98.275 22.889 98.5436 22.889ZM98.4656 16.623C98.9076 16.623 99.2803 16.688 99.5836 16.818C99.8956 16.9393 100.147 17.1127 100.338 17.338C100.528 17.5547 100.667 17.8147 100.754 18.118C100.84 18.4213 100.884 18.7507 100.884 19.106V23.344C100.797 23.37 100.671 23.4003 100.507 23.435C100.342 23.461 100.151 23.4913 99.9346 23.526C99.718 23.5607 99.4753 23.5867 99.2066 23.604C98.9466 23.63 98.678 23.643 98.4006 23.643C98.0453 23.643 97.716 23.604 97.4126 23.526C97.118 23.448 96.858 23.3267 96.6326 23.162C96.416 22.9887 96.2426 22.772 96.1126 22.512C95.9913 22.2433 95.9306 21.9183 95.9306 21.537C95.9306 21.173 96 20.861 96.1386 20.601C96.2773 20.341 96.4723 20.1287 96.7236 19.964C96.975 19.7907 97.274 19.665 97.6206 19.587C97.9673 19.509 98.3443 19.47 98.7516 19.47C98.873 19.47 98.9986 19.4787 99.1286 19.496C99.2673 19.5047 99.3973 19.522 99.5186 19.548C99.6486 19.5653 99.757 19.587 99.8436 19.613C99.939 19.6303 100.004 19.6477 100.039 19.665V19.249C100.039 19.015 100.021 18.7897 99.9866 18.573C99.952 18.3477 99.874 18.1483 99.7526 17.975C99.64 17.793 99.4753 17.65 99.2586 17.546C99.0506 17.4333 98.7733 17.377 98.4266 17.377C97.9326 17.377 97.5643 17.4117 97.3216 17.481C97.079 17.5503 96.9013 17.6067 96.7886 17.65L96.6716 16.909C96.819 16.8397 97.0443 16.7747 97.3476 16.714C97.6596 16.6533 98.0323 16.623 98.4656 16.623ZM103.689 17.793C103.828 17.637 103.988 17.4983 104.17 17.377C104.352 17.2557 104.543 17.156 104.742 17.078C104.941 17 105.136 16.9437 105.327 16.909C105.526 16.8657 105.708 16.844 105.873 16.844C106.376 16.844 106.809 16.9263 107.173 17.091C107.546 17.247 107.849 17.4767 108.083 17.78C108.326 18.0747 108.503 18.43 108.616 18.846C108.729 19.262 108.785 19.7257 108.785 20.237C108.785 20.6183 108.737 21.0127 108.642 21.42C108.547 21.8273 108.382 22.1957 108.148 22.525C107.923 22.8543 107.615 23.1273 107.225 23.344C106.844 23.552 106.363 23.656 105.782 23.656C105.158 23.656 104.647 23.5347 104.248 23.292C103.849 23.0407 103.537 22.7157 103.312 22.317C103.095 21.9097 102.944 21.4547 102.857 20.952C102.779 20.4407 102.74 19.925 102.74 19.405C102.74 18.6943 102.783 18.014 102.87 17.364C102.957 16.714 103.134 16.1333 103.403 15.622C103.68 15.1107 104.075 14.686 104.586 14.348C105.106 14.0013 105.799 13.776 106.666 13.672C106.926 13.646 107.143 13.62 107.316 13.594C107.489 13.568 107.632 13.5463 107.745 13.529C107.866 13.5117 107.966 13.4943 108.044 13.477C108.122 13.451 108.196 13.4293 108.265 13.412L108.369 14.179C108.282 14.2137 108.135 14.2483 107.927 14.283C107.719 14.3177 107.372 14.361 106.887 14.413C106.367 14.4737 105.916 14.582 105.535 14.738C105.154 14.8853 104.833 15.0933 104.573 15.362C104.322 15.6307 104.122 15.9643 103.975 16.363C103.836 16.7617 103.741 17.2383 103.689 17.793ZM103.637 18.742C103.628 18.8113 103.624 18.924 103.624 19.08C103.624 19.236 103.624 19.379 103.624 19.509C103.624 19.925 103.65 20.3367 103.702 20.744C103.763 21.1513 103.871 21.5153 104.027 21.836C104.192 22.148 104.413 22.4037 104.69 22.603C104.976 22.7937 105.34 22.889 105.782 22.889C106.163 22.889 106.484 22.8197 106.744 22.681C107.013 22.5337 107.229 22.3387 107.394 22.096C107.567 21.8447 107.693 21.5587 107.771 21.238C107.849 20.9173 107.888 20.5793 107.888 20.224C107.888 19.886 107.858 19.561 107.797 19.249C107.736 18.9283 107.624 18.651 107.459 18.417C107.303 18.1743 107.082 17.9793 106.796 17.832C106.51 17.6847 106.142 17.611 105.691 17.611C105.483 17.611 105.271 17.6457 105.054 17.715C104.846 17.7757 104.651 17.8623 104.469 17.975C104.287 18.079 104.122 18.2003 103.975 18.339C103.828 18.469 103.715 18.6033 103.637 18.742ZM116.351 20.146C116.351 20.6747 116.273 21.1557 116.117 21.589C115.97 22.0223 115.757 22.3907 115.48 22.694C115.211 22.9973 114.891 23.2357 114.518 23.409C114.145 23.5737 113.734 23.656 113.283 23.656C112.832 23.656 112.421 23.5737 112.048 23.409C111.675 23.2357 111.35 22.9973 111.073 22.694C110.804 22.3907 110.592 22.0223 110.436 21.589C110.289 21.1557 110.215 20.6747 110.215 20.146C110.215 19.6173 110.289 19.1363 110.436 18.703C110.592 18.2697 110.804 17.9013 111.073 17.598C111.35 17.286 111.675 17.0477 112.048 16.883C112.421 16.7097 112.832 16.623 113.283 16.623C113.734 16.623 114.145 16.7097 114.518 16.883C114.891 17.0477 115.211 17.286 115.48 17.598C115.757 17.9013 115.97 18.2697 116.117 18.703C116.273 19.1363 116.351 19.6173 116.351 20.146ZM115.454 20.146C115.454 19.3053 115.259 18.638 114.869 18.144C114.479 17.6413 113.95 17.39 113.283 17.39C112.616 17.39 112.087 17.6413 111.697 18.144C111.307 18.638 111.112 19.3053 111.112 20.146C111.112 20.9867 111.307 21.654 111.697 22.148C112.087 22.642 112.616 22.889 113.283 22.889C113.95 22.889 114.479 22.642 114.869 22.148C115.259 21.654 115.454 20.9867 115.454 20.146ZM122.513 16.779V17.494H120.303V23.5H119.458V17.494H117.261V16.779H122.513ZM125.94 22.889C126.269 22.889 126.555 22.8803 126.798 22.863C127.049 22.837 127.262 22.8067 127.435 22.772V20.406C127.34 20.3627 127.188 20.3193 126.98 20.276C126.772 20.224 126.486 20.198 126.122 20.198C125.914 20.198 125.697 20.2153 125.472 20.25C125.247 20.276 125.039 20.341 124.848 20.445C124.657 20.5403 124.501 20.6747 124.38 20.848C124.259 21.0213 124.198 21.251 124.198 21.537C124.198 21.7883 124.237 22.0007 124.315 22.174C124.402 22.3473 124.519 22.486 124.666 22.59C124.822 22.694 125.004 22.772 125.212 22.824C125.429 22.8673 125.671 22.889 125.94 22.889ZM125.862 16.623C126.304 16.623 126.677 16.688 126.98 16.818C127.292 16.9393 127.543 17.1127 127.734 17.338C127.925 17.5547 128.063 17.8147 128.15 18.118C128.237 18.4213 128.28 18.7507 128.28 19.106V23.344C128.193 23.37 128.068 23.4003 127.903 23.435C127.738 23.461 127.548 23.4913 127.331 23.526C127.114 23.5607 126.872 23.5867 126.603 23.604C126.343 23.63 126.074 23.643 125.797 23.643C125.442 23.643 125.112 23.604 124.809 23.526C124.514 23.448 124.254 23.3267 124.029 23.162C123.812 22.9887 123.639 22.772 123.509 22.512C123.388 22.2433 123.327 21.9183 123.327 21.537C123.327 21.173 123.396 20.861 123.535 20.601C123.674 20.341 123.869 20.1287 124.12 19.964C124.371 19.7907 124.67 19.665 125.017 19.587C125.364 19.509 125.741 19.47 126.148 19.47C126.269 19.47 126.395 19.4787 126.525 19.496C126.664 19.5047 126.794 19.522 126.915 19.548C127.045 19.5653 127.153 19.587 127.24 19.613C127.335 19.6303 127.4 19.6477 127.435 19.665V19.249C127.435 19.015 127.418 18.7897 127.383 18.573C127.348 18.3477 127.27 18.1483 127.149 17.975C127.036 17.793 126.872 17.65 126.655 17.546C126.447 17.4333 126.17 17.377 125.823 17.377C125.329 17.377 124.961 17.4117 124.718 17.481C124.475 17.5503 124.298 17.6067 124.185 17.65L124.068 16.909C124.215 16.8397 124.441 16.7747 124.744 16.714C125.056 16.6533 125.429 16.623 125.862 16.623ZM130.032 20.133C130.032 19.5437 130.115 19.0323 130.279 18.599C130.453 18.157 130.674 17.7887 130.942 17.494C131.22 17.1993 131.532 16.9827 131.878 16.844C132.234 16.6967 132.598 16.623 132.97 16.623C133.794 16.623 134.448 16.8917 134.933 17.429C135.427 17.9663 135.674 18.794 135.674 19.912C135.674 19.9813 135.67 20.0507 135.661 20.12C135.661 20.1893 135.657 20.2543 135.648 20.315H130.929C130.955 21.1383 131.159 21.771 131.54 22.213C131.922 22.655 132.528 22.876 133.36 22.876C133.82 22.876 134.184 22.8327 134.452 22.746C134.721 22.6593 134.916 22.5857 135.037 22.525L135.193 23.253C135.072 23.3223 134.842 23.4047 134.504 23.5C134.175 23.5953 133.785 23.643 133.334 23.643C132.745 23.643 132.242 23.5563 131.826 23.383C131.41 23.2097 131.068 22.967 130.799 22.655C130.531 22.343 130.336 21.9747 130.214 21.55C130.093 21.1167 130.032 20.6443 130.032 20.133ZM134.803 19.6C134.786 18.898 134.621 18.352 134.309 17.962C133.997 17.572 133.555 17.377 132.983 17.377C132.68 17.377 132.407 17.4377 132.164 17.559C131.93 17.6803 131.722 17.845 131.54 18.053C131.367 18.2523 131.228 18.4863 131.124 18.755C131.029 19.0237 130.973 19.3053 130.955 19.6H134.803ZM141.886 16.779V17.494H139.676V23.5H138.831V17.494H136.634V16.779H141.886Z" fill="white"/>
<path d="M18.7292 45.7685C18.6456 45.7246 18.574 45.6611 18.5205 45.5833L13.2705 38H24.7295L19.4795 45.5833C19.426 45.6611 19.3544 45.7246 19.2709 45.7685C19.1873 45.8124 19.0944 45.8354 19 45.8354C18.9056 45.8354 18.8127 45.8124 18.7292 45.7685Z" fill="#323232"/>
</svg>
