<svg width="107" height="57" viewBox="0 0 107 57" fill="none" xmlns="http://www.w3.org/2000/svg">
<g filter="url(#filter0_d)">
<path d="M8 12C8 9.23858 10.2386 7 13 7H94C96.7614 7 99 9.23858 99 12V37C99 39.7614 96.7667 42 94.0053 42C65.5443 42 27 42 27 42C27 42 21.1038 42 18 42C16.3659 42 14.7005 42 13.0001 42C10.2387 42 8 39.7614 8 37V12Z" fill="white"/>
<path d="M22.2873 47.9488C22.2217 47.9152 22.1654 47.8665 22.1234 47.807L18 42H27L22.8766 47.807C22.8346 47.8665 22.7783 47.9152 22.7127 47.9488C22.6471 47.9824 22.5741 48 22.5 48C22.4259 48 22.3529 47.9824 22.2873 47.9488Z" fill="white"/>
</g>
<path d="M24.942 19.991H25.826V29H24.942V24.671H20.054V29H19.17V19.991H20.054V23.904H24.942V19.991ZM27.716 25.633C27.716 25.0437 27.7983 24.5323 27.963 24.099C28.1363 23.657 28.3573 23.2887 28.626 22.994C28.9033 22.6993 29.2153 22.4827 29.562 22.344C29.9173 22.1967 30.2813 22.123 30.654 22.123C31.4773 22.123 32.1316 22.3917 32.617 22.929C33.111 23.4663 33.358 24.294 33.358 25.412C33.358 25.4813 33.3536 25.5507 33.345 25.62C33.345 25.6893 33.3406 25.7543 33.332 25.815H28.613C28.639 26.6383 28.8426 27.271 29.224 27.713C29.6053 28.155 30.212 28.376 31.044 28.376C31.5033 28.376 31.8673 28.3327 32.136 28.246C32.4046 28.1593 32.5996 28.0857 32.721 28.025L32.877 28.753C32.7556 28.8223 32.526 28.9047 32.188 29C31.8586 29.0953 31.4686 29.143 31.018 29.143C30.4286 29.143 29.926 29.0563 29.51 28.883C29.094 28.7097 28.7516 28.467 28.483 28.155C28.2143 27.843 28.0193 27.4747 27.898 27.05C27.7766 26.6167 27.716 26.1443 27.716 25.633ZM32.487 25.1C32.4696 24.398 32.305 23.852 31.993 23.462C31.681 23.072 31.239 22.877 30.667 22.877C30.3636 22.877 30.0906 22.9377 29.848 23.059C29.614 23.1803 29.406 23.345 29.224 23.553C29.0506 23.7523 28.912 23.9863 28.808 24.255C28.7126 24.5237 28.6563 24.8053 28.639 25.1H32.487ZM39.57 22.279V22.994H37.36V29H36.515V22.994H34.318V22.279H39.57ZM49.0228 29H48.1778V22.994H44.6808V29H43.8358V22.279H49.0228V29ZM52.1075 27.791C52.1855 27.8517 52.2809 27.9167 52.3935 27.986C52.5149 28.0553 52.6535 28.1203 52.8095 28.181C52.9655 28.2417 53.1345 28.2937 53.3165 28.337C53.4985 28.3717 53.6892 28.389 53.8885 28.389C54.3045 28.389 54.6512 28.3197 54.9285 28.181C55.2145 28.0337 55.4442 27.8387 55.6175 27.596C55.7909 27.3447 55.9165 27.0543 55.9945 26.725C56.0725 26.387 56.1115 26.0317 56.1115 25.659C56.1115 24.775 55.8905 24.099 55.4485 23.631C55.0065 23.1543 54.4215 22.916 53.6935 22.916C53.2775 22.916 52.9395 22.9377 52.6795 22.981C52.4282 23.0157 52.2375 23.0547 52.1075 23.098V27.791ZM52.1075 31.405H51.2625V22.513C51.5139 22.4263 51.8345 22.344 52.2245 22.266C52.6145 22.188 53.1085 22.149 53.7065 22.149C54.2005 22.149 54.6469 22.2313 55.0455 22.396C55.4529 22.552 55.7995 22.7817 56.0855 23.085C56.3802 23.3883 56.6055 23.7567 56.7615 24.19C56.9262 24.6233 57.0085 25.113 57.0085 25.659C57.0085 26.1703 56.9392 26.6427 56.8005 27.076C56.6705 27.5007 56.4755 27.869 56.2155 28.181C55.9555 28.4843 55.6349 28.7227 55.2535 28.896C54.8809 29.0693 54.4519 29.156 53.9665 29.156C53.5245 29.156 53.1389 29.0953 52.8095 28.974C52.4889 28.844 52.2549 28.7227 52.1075 28.61V31.405ZM63.4176 23.358C63.1576 23.67 62.8543 24.0643 62.5076 24.541C62.1696 25.0177 61.823 25.5203 61.4676 26.049C61.121 26.5777 60.7873 27.102 60.4666 27.622C60.146 28.142 59.8686 28.6013 59.6346 29H58.8416V22.279H59.6736V27.661C59.8816 27.2883 60.1373 26.8593 60.4406 26.374C60.7526 25.88 61.082 25.386 61.4286 24.892C61.7753 24.3893 62.122 23.9083 62.4686 23.449C62.824 22.9897 63.1533 22.5997 63.4566 22.279H64.2496V29H63.4176V23.358ZM66.0812 25.633C66.0812 25.0437 66.1635 24.5323 66.3282 24.099C66.5015 23.657 66.7225 23.2887 66.9912 22.994C67.2685 22.6993 67.5805 22.4827 67.9272 22.344C68.2825 22.1967 68.6465 22.123 69.0192 22.123C69.8425 22.123 70.4969 22.3917 70.9822 22.929C71.4762 23.4663 71.7232 24.294 71.7232 25.412C71.7232 25.4813 71.7189 25.5507 71.7102 25.62C71.7102 25.6893 71.7059 25.7543 71.6972 25.815H66.9782C67.0042 26.6383 67.2079 27.271 67.5892 27.713C67.9705 28.155 68.5772 28.376 69.4092 28.376C69.8685 28.376 70.2325 28.3327 70.5012 28.246C70.7699 28.1593 70.9649 28.0857 71.0862 28.025L71.2422 28.753C71.1209 28.8223 70.8912 28.9047 70.5532 29C70.2239 29.0953 69.8339 29.143 69.3832 29.143C68.7939 29.143 68.2912 29.0563 67.8752 28.883C67.4592 28.7097 67.1169 28.467 66.8482 28.155C66.5795 27.843 66.3845 27.4747 66.2632 27.05C66.1419 26.6167 66.0812 26.1443 66.0812 25.633ZM70.8522 25.1C70.8349 24.398 70.6702 23.852 70.3582 23.462C70.0462 23.072 69.6042 22.877 69.0322 22.877C68.7289 22.877 68.4559 22.9377 68.2132 23.059C67.9792 23.1803 67.7712 23.345 67.5892 23.553C67.4159 23.7523 67.2772 23.9863 67.1732 24.255C67.0779 24.5237 67.0215 24.8053 67.0042 25.1H70.8522ZM68.4862 20.251C68.4862 20.4417 68.4299 20.5933 68.3172 20.706C68.2045 20.8187 68.0615 20.875 67.8882 20.875C67.7149 20.875 67.5719 20.8187 67.4592 20.706C67.3465 20.5933 67.2902 20.4417 67.2902 20.251C67.2902 20.0603 67.3465 19.9087 67.4592 19.796C67.5719 19.6833 67.7149 19.627 67.8882 19.627C68.0615 19.627 68.2045 19.6833 68.3172 19.796C68.4299 19.9087 68.4862 20.0603 68.4862 20.251ZM70.7222 20.251C70.7222 20.4417 70.6659 20.5933 70.5532 20.706C70.4405 20.8187 70.2975 20.875 70.1242 20.875C69.9509 20.875 69.8079 20.8187 69.6952 20.706C69.5825 20.5933 69.5262 20.4417 69.5262 20.251C69.5262 20.0603 69.5825 19.9087 69.6952 19.796C69.8079 19.6833 69.9509 19.627 70.1242 19.627C70.2975 19.627 70.4405 19.6833 70.5532 19.796C70.6659 19.9087 70.7222 20.0603 70.7222 20.251ZM76.7913 28.064C76.7393 27.934 76.6613 27.7563 76.5573 27.531C76.4533 27.297 76.3363 27.0413 76.2063 26.764C76.0849 26.478 75.9506 26.179 75.8033 25.867C75.6559 25.5463 75.5086 25.2387 75.3613 24.944C75.2226 24.6493 75.0883 24.372 74.9583 24.112C74.8283 23.852 74.7156 23.6397 74.6203 23.475C74.5076 24.4717 74.4253 25.4207 74.3733 26.322C74.3213 27.2147 74.2779 28.1073 74.2433 29H73.4503C73.4849 27.882 73.5413 26.7553 73.6193 25.62C73.7059 24.4847 73.8143 23.371 73.9443 22.279H74.8153C74.9279 22.461 75.0709 22.721 75.2443 23.059C75.4263 23.397 75.6213 23.7827 75.8293 24.216C76.0459 24.6407 76.2669 25.1043 76.4923 25.607C76.7263 26.101 76.9603 26.6037 77.1943 27.115C77.4283 26.6037 77.6579 26.101 77.8833 25.607C78.1173 25.1043 78.3383 24.6407 78.5463 24.216C78.7629 23.7827 78.9579 23.397 79.1313 23.059C79.3046 22.721 79.4519 22.461 79.5733 22.279H80.4313C80.5613 23.371 80.6653 24.4847 80.7433 25.62C80.8299 26.7553 80.8906 27.882 80.9253 29H80.1193C80.0846 28.1073 80.0413 27.2147 79.9893 26.322C79.9373 25.4207 79.8549 24.4717 79.7423 23.475C79.6469 23.6483 79.5343 23.865 79.4043 24.125C79.2743 24.3763 79.1356 24.6493 78.9883 24.944C78.8496 25.2387 78.7066 25.5463 78.5593 25.867C78.4119 26.179 78.2733 26.478 78.1433 26.764C78.0219 27.0413 77.9093 27.297 77.8053 27.531C77.7013 27.7563 77.6233 27.934 77.5713 28.064H76.7913ZM85.1198 28.389C85.4491 28.389 85.7351 28.3803 85.9778 28.363C86.2291 28.337 86.4415 28.3067 86.6148 28.272V25.906C86.5195 25.8627 86.3678 25.8193 86.1598 25.776C85.9518 25.724 85.6658 25.698 85.3018 25.698C85.0938 25.698 84.8771 25.7153 84.6518 25.75C84.4265 25.776 84.2185 25.841 84.0278 25.945C83.8371 26.0403 83.6811 26.1747 83.5598 26.348C83.4385 26.5213 83.3778 26.751 83.3778 27.037C83.3778 27.2883 83.4168 27.5007 83.4948 27.674C83.5815 27.8473 83.6985 27.986 83.8458 28.09C84.0018 28.194 84.1838 28.272 84.3918 28.324C84.6085 28.3673 84.8511 28.389 85.1198 28.389ZM85.0418 22.123C85.4838 22.123 85.8565 22.188 86.1598 22.318C86.4718 22.4393 86.7231 22.6127 86.9138 22.838C87.1045 23.0547 87.2431 23.3147 87.3298 23.618C87.4165 23.9213 87.4598 24.2507 87.4598 24.606V28.844C87.3731 28.87 87.2475 28.9003 87.0828 28.935C86.9181 28.961 86.7275 28.9913 86.5108 29.026C86.2941 29.0607 86.0515 29.0867 85.7828 29.104C85.5228 29.13 85.2541 29.143 84.9768 29.143C84.6215 29.143 84.2921 29.104 83.9888 29.026C83.6941 28.948 83.4341 28.8267 83.2088 28.662C82.9921 28.4887 82.8188 28.272 82.6888 28.012C82.5675 27.7433 82.5068 27.4183 82.5068 27.037C82.5068 26.673 82.5761 26.361 82.7148 26.101C82.8535 25.841 83.0485 25.6287 83.2998 25.464C83.5511 25.2907 83.8501 25.165 84.1968 25.087C84.5435 25.009 84.9205 24.97 85.3278 24.97C85.4491 24.97 85.5748 24.9787 85.7048 24.996C85.8435 25.0047 85.9735 25.022 86.0948 25.048C86.2248 25.0653 86.3331 25.087 86.4198 25.113C86.5151 25.1303 86.5801 25.1477 86.6148 25.165V24.749C86.6148 24.515 86.5975 24.2897 86.5628 24.073C86.5281 23.8477 86.4501 23.6483 86.3288 23.475C86.2161 23.293 86.0515 23.15 85.8348 23.046C85.6268 22.9333 85.3495 22.877 85.0028 22.877C84.5088 22.877 84.1405 22.9117 83.8978 22.981C83.6551 23.0503 83.4775 23.1067 83.3648 23.15L83.2478 22.409C83.3951 22.3397 83.6205 22.2747 83.9238 22.214C84.2358 22.1533 84.6085 22.123 85.0418 22.123Z" fill="#E795AC"/>
<defs>
<filter id="filter0_d" x="0" y="0" width="107" height="57" filterUnits="userSpaceOnUse" color-interpolation-filters="sRGB">
<feFlood flood-opacity="0" result="BackgroundImageFix"/>
<feColorMatrix in="SourceAlpha" type="matrix" values="0 0 0 0 0 0 0 0 0 0 0 0 0 0 0 0 0 0 127 0"/>
<feOffset dy="1"/>
<feGaussianBlur stdDeviation="4"/>
<feColorMatrix type="matrix" values="0 0 0 0 0 0 0 0 0 0 0 0 0 0 0 0 0 0 0.17 0"/>
<feBlend mode="normal" in2="BackgroundImageFix" result="effect1_dropShadow"/>
<feBlend mode="normal" in="SourceGraphic" in2="effect1_dropShadow" result="shape"/>
</filter>
</defs>
</svg>
