<svg width="26" height="24" viewBox="0 0 26 24" fill="none" xmlns="http://www.w3.org/2000/svg">
<path d="M10.29 18.8066C10.29 18.8066 10.6771 20.7421 10.29 21.1292C9.51577 21.9034 4.87061 22.6776 4.87061 22.6776" stroke="black" stroke-width="1.5" stroke-miterlimit="10" stroke-linecap="round" stroke-linejoin="round"/>
<path d="M15.7096 18.8066C15.7096 18.8066 15.3225 20.7421 15.7096 21.1292C16.4838 21.9034 21.129 22.6776 21.129 22.6776" stroke="black" stroke-width="1.5" stroke-miterlimit="10" stroke-linecap="round" stroke-linejoin="round"/>
<path d="M11.451 19.1936C9.12846 18.8065 8.35427 15.3226 8.35427 15.3226C8.12201 14.3936 7.88975 12.8838 7.77362 11.9548C7.65749 10.8709 7.65749 10.2904 7.77362 9.51616C8.0833 7.271 10.251 5.60645 12.9994 5.60645C15.7478 5.60645 17.9156 7.271 18.2252 9.51616C18.3414 10.2904 18.3414 10.8709 18.2252 11.9548C18.1091 12.8838 17.8768 14.3936 17.6446 15.3226C17.6446 15.3226 16.8704 18.8065 14.5478 19.1936" stroke="black" stroke-width="1.5" stroke-miterlimit="10" stroke-linecap="round" stroke-linejoin="round"/>
<path d="M10.6774 4.48387C10.6774 4.32903 10.6387 4.21287 10.6387 4.05803C10.4064 2.27738 8.5871 1 6.41936 1C4.25161 1 2.4323 2.27738 2.20004 4.05803C2.12262 4.63867 2.08391 5.14186 2.20004 5.95476C2.27746 6.69025 2.39359 7.92911 2.58713 8.62588C2.78068 9.43878 3.36133 10.9097 4.13552 11.2968C4.13552 11.2968 4.48391 12.8065 4.13552 13.1935C3.51617 13.929 1 14.5096 1 14.5096" stroke="black" stroke-width="1.5" stroke-miterlimit="10" stroke-linecap="round" stroke-linejoin="round"/>
<path d="M25.0002 14.5477C25.0002 14.5477 22.5227 13.9671 21.8647 13.2316C21.5163 12.8058 21.8647 11.3349 21.8647 11.3349C22.6388 10.9478 23.2195 9.47668 23.413 8.66378C23.5679 7.92829 23.7227 6.72833 23.8001 5.99285C23.9163 5.14124 23.8776 4.67676 23.8001 4.09611C23.5679 2.31547 21.7486 1.03809 19.5808 1.03809C17.4131 1.03809 15.5938 2.31547 15.3615 4.09611C15.3228 4.25095 15.3228 4.36712 15.3228 4.52196" stroke="black" stroke-width="1.5" stroke-miterlimit="10" stroke-linecap="round" stroke-linejoin="round"/>
</svg>
