<svg width="34" height="34" viewBox="0 0 34 34" fill="none" xmlns="http://www.w3.org/2000/svg">
<path d="M11.62 15.79C13.06 18.62 15.38 20.94 18.21 22.38L20.41 20.18C20.69 19.9 21.08 19.82 21.43 19.93C22.55 20.3 23.75 20.5 25 20.5C25.2652 20.5 25.5196 20.6054 25.7071 20.7929C25.8946 20.9804 26 21.2348 26 21.5V25C26 25.2652 25.8946 25.5196 25.7071 25.7071C25.5196 25.8946 25.2652 26 25 26C20.4913 26 16.1673 24.2089 12.9792 21.0208C9.79107 17.8327 8 13.5087 8 9C8 8.73478 8.10536 8.48043 8.29289 8.29289C8.48043 8.10536 8.73478 8 9 8H12.5C12.7652 8 13.0196 8.10536 13.2071 8.29289C13.3946 8.48043 13.5 8.73478 13.5 9C13.5 10.25 13.7 11.45 14.07 12.57C14.18 12.92 14.1 13.31 13.82 13.59L11.62 15.79Z" fill="#98D7DC"/>
<circle cx="17" cy="17" r="16" stroke="#98D7DC" stroke-width="2"/>
</svg>
