<svg width="34" height="34" viewBox="0 0 34 34" fill="none" xmlns="http://www.w3.org/2000/svg">
<path d="M32.9999 10.1743V1H23.8081" stroke="black" stroke-width="2" stroke-linecap="round" stroke-linejoin="round"/>
<path d="M22.2764 11.7033L33.0001 1" stroke="black" stroke-width="2" stroke-linecap="round" stroke-linejoin="round"/>
<path d="M31.4679 25.3425V29.9296C31.4696 30.3555 31.3822 30.777 31.2113 31.1672C31.0404 31.5573 30.7897 31.9076 30.4753 32.1955C30.1609 32.4834 29.7897 32.7025 29.3856 32.839C28.9814 32.9754 28.5531 33.026 28.1282 32.9877C23.4141 32.4765 18.8859 30.8687 14.9074 28.2935C11.2059 25.9459 8.06765 22.8137 5.71557 19.1193C3.12651 15.1303 1.51529 10.5887 1.01243 5.8624C0.974151 5.43957 1.0245 5.01342 1.16027 4.61107C1.29604 4.20872 1.51426 3.839 1.80104 3.52544C2.08781 3.21188 2.43686 2.96136 2.82596 2.78982C3.21506 2.61828 3.63568 2.52948 4.06104 2.52908H8.65694C9.40041 2.52178 10.1212 2.78455 10.6849 3.26842C11.2486 3.7523 11.6168 4.42425 11.7209 5.15904C11.9148 6.62703 12.2746 8.0684 12.7932 9.45567C12.9994 10.003 13.044 10.5977 12.9218 11.1695C12.7996 11.7414 12.5157 12.2662 12.1039 12.682L10.1583 14.6238C12.3391 18.4519 15.5147 21.6215 19.3501 23.7981L21.2956 21.8562C21.7122 21.4451 22.238 21.1618 22.8109 21.0399C23.3838 20.9179 23.9798 20.9625 24.5281 21.1682C25.918 21.6858 27.3621 22.0449 28.8329 22.2385C29.5771 22.3433 30.2567 22.7174 30.7426 23.2897C31.2284 23.862 31.4865 24.5926 31.4679 25.3425Z" stroke="black" stroke-width="2" stroke-linecap="round" stroke-linejoin="round"/>
</svg>
