<svg width="25" height="24" viewBox="0 0 25 24" fill="none" xmlns="http://www.w3.org/2000/svg">
<path d="M16.4027 12.6452V17.8065L12.1473 22H2.65467C2.2946 22 2 21.7097 2 21.3548V2.64516C2 2.29032 2.2946 2 2.65467 2H15.748C16.1081 2 16.4027 2.29032 16.4027 2.64516V3.93548" stroke="black" stroke-miterlimit="10" stroke-linecap="square" stroke-linejoin="round"/>
<path d="M16.0752 17.8064H12.4745C12.2781 17.8064 12.1472 17.9354 12.1472 18.129V19.4193" stroke="black" stroke-miterlimit="10" stroke-linecap="round" stroke-linejoin="round"/>
<path d="M13.1293 6.83875H4.61865" stroke="black" stroke-miterlimit="10" stroke-linecap="round" stroke-linejoin="round"/>
<path d="M10.5106 9.74194H4.61865" stroke="black" stroke-miterlimit="10" stroke-linecap="round" stroke-linejoin="round"/>
<path d="M4.61865 12.6451H8.54665" stroke="black" stroke-miterlimit="10" stroke-linecap="round" stroke-linejoin="round"/>
<path d="M4.94604 17.1613L5.92804 18.7742L8.87404 15.871" stroke="black" stroke-miterlimit="10" stroke-linecap="round" stroke-linejoin="round"/>
<path d="M17.5811 9.54839L15.2571 7.25804L19.1851 3.38707C19.8397 2.74191 20.8544 2.74191 21.5091 3.38707C22.1638 4.03223 22.1638 5.03226 21.5091 5.67742L17.5811 9.54839Z" stroke="black" stroke-miterlimit="10" stroke-linecap="round" stroke-linejoin="round"/>
<path d="M17.3519 9.32263L12.9657 13.6452L10.6416 14.5806L10.1833 14.1291L11.0998 11.8387L14.5696 8.41931" stroke="black" stroke-miterlimit="10" stroke-linecap="square" stroke-linejoin="round"/>
<path d="M12.0493 12.7419L12.7367 13.4193" stroke="black" stroke-miterlimit="10" stroke-linecap="round" stroke-linejoin="round"/>
<path d="M10.4124 14.3548L9.9541 14.8065" stroke="black" stroke-miterlimit="10" stroke-linecap="round" stroke-linejoin="round"/>
<path d="M21.5418 3.38702L18.072 6.80641" stroke="black" stroke-miterlimit="10" stroke-linecap="round" stroke-linejoin="round"/>
<path d="M18.0392 7.48393C18.4007 7.48393 18.6939 7.19508 18.6939 6.83876C18.6939 6.48245 18.4007 6.1936 18.0392 6.1936C17.6776 6.1936 17.3845 6.48245 17.3845 6.83876C17.3845 7.19508 17.6776 7.48393 18.0392 7.48393Z" fill="black"/>
</svg>
