<svg width="32" height="32" viewBox="0 0 32 32" fill="none" xmlns="http://www.w3.org/2000/svg">
<path d="M29.3333 19.871C29.3333 23.3119 24.172 29.3334 24.172 29.3334C24.172 29.3334 19.0107 23.3119 19.0107 19.871C19.0107 17.0323 21.3333 14.7097 24.172 14.7097C27.0107 14.7097 29.3333 17.0323 29.3333 19.871Z" stroke="#32B4C3" stroke-width="1.3" stroke-miterlimit="10" stroke-linecap="round" stroke-linejoin="round"/>
<path d="M24.172 22.4516C25.5972 22.4516 26.7526 21.2962 26.7526 19.871C26.7526 18.4457 25.5972 17.2903 24.172 17.2903C22.7467 17.2903 21.5913 18.4457 21.5913 19.871C21.5913 21.2962 22.7467 22.4516 24.172 22.4516Z" stroke="#32B4C3" stroke-width="1.3" stroke-miterlimit="10" stroke-linecap="round" stroke-linejoin="round"/>
<path d="M11.2689 6.96776C11.2689 9.97851 6.96782 15.1398 6.96782 15.1398C6.96782 15.1398 2.66675 9.97851 2.66675 6.96776C2.66675 4.60217 4.60223 2.66669 6.96782 2.66669C9.33341 2.66669 11.2689 4.60217 11.2689 6.96776Z" stroke="#32B4C3" stroke-width="1.3" stroke-miterlimit="10" stroke-linecap="round" stroke-linejoin="round"/>
<path d="M6.96768 9.11828C8.15539 9.11828 9.11821 8.15545 9.11821 6.96774C9.11821 5.78003 8.15539 4.8172 6.96768 4.8172C5.77997 4.8172 4.81714 5.78003 4.81714 6.96774C4.81714 8.15545 5.77997 9.11828 6.96768 9.11828Z" stroke="#32B4C3" stroke-width="1.3" stroke-miterlimit="10" stroke-linecap="round" stroke-linejoin="round"/>
<path d="M20.7313 29.3334H6.96782C4.60223 29.3334 2.66675 27.3979 2.66675 25.0323C2.66675 22.6667 4.60223 20.7312 6.96782 20.7312H13.6345C15.1829 20.7312 16.4302 19.4839 16.4302 17.9355C16.4302 16.3871 15.1829 15.1398 13.6345 15.1398H9.97858" stroke="#32B4C3" stroke-width="1.3" stroke-miterlimit="10" stroke-linecap="round" stroke-linejoin="round"/>
</svg>
