<svg width="28" height="28" viewBox="0 0 28 28" fill="none" xmlns="http://www.w3.org/2000/svg">
<path d="M27.3333 17.871C27.3333 21.3119 22.172 27.3334 22.172 27.3334C22.172 27.3334 17.0107 21.3119 17.0107 17.871C17.0107 15.0323 19.3333 12.7097 22.172 12.7097C25.0107 12.7097 27.3333 15.0323 27.3333 17.871Z" stroke="#9DD4B3" stroke-width="1.3" stroke-miterlimit="10" stroke-linecap="round" stroke-linejoin="round"/>
<path d="M22.1721 20.4516C23.5973 20.4516 24.7527 19.2962 24.7527 17.871C24.7527 16.4457 23.5973 15.2903 22.1721 15.2903C20.7468 15.2903 19.5914 16.4457 19.5914 17.871C19.5914 19.2962 20.7468 20.4516 22.1721 20.4516Z" stroke="#9DD4B3" stroke-width="1.3" stroke-miterlimit="10" stroke-linecap="round" stroke-linejoin="round"/>
<path d="M9.26878 4.96776C9.26878 7.97851 4.9677 13.1398 4.9677 13.1398C4.9677 13.1398 0.666626 7.97851 0.666626 4.96776C0.666626 2.60217 2.60211 0.666687 4.9677 0.666687C7.33329 0.666687 9.26878 2.60217 9.26878 4.96776Z" stroke="#9DD4B3" stroke-width="1.3" stroke-miterlimit="10" stroke-linecap="round" stroke-linejoin="round"/>
<path d="M4.96768 7.11828C6.15539 7.11828 7.11821 6.15545 7.11821 4.96774C7.11821 3.78003 6.15539 2.8172 4.96768 2.8172C3.77997 2.8172 2.81714 3.78003 2.81714 4.96774C2.81714 6.15545 3.77997 7.11828 4.96768 7.11828Z" stroke="#9DD4B3" stroke-width="1.3" stroke-miterlimit="10" stroke-linecap="round" stroke-linejoin="round"/>
<path d="M18.7311 27.3334H4.9677C2.60211 27.3334 0.666626 25.3979 0.666626 23.0323C0.666626 20.6667 2.60211 18.7312 4.9677 18.7312H11.6344C13.1828 18.7312 14.4301 17.4839 14.4301 15.9355C14.4301 14.3871 13.1828 13.1398 11.6344 13.1398H7.97845" stroke="#9DD4B3" stroke-width="1.3" stroke-miterlimit="10" stroke-linecap="round" stroke-linejoin="round"/>
</svg>
