<svg width="48" height="48" viewBox="0 0 48 48" fill="none" xmlns="http://www.w3.org/2000/svg">
<circle cx="24" cy="24" r="23" stroke="#32B4C3" stroke-width="2"/>
<g clip-path="url(#clip0)">
<path d="M32.4219 15.5314C31.4148 14.5169 30.2162 13.7127 28.8957 13.1653C27.5752 12.6179 26.1591 12.3384 24.7296 12.3428C18.7378 12.3428 13.861 17.2196 13.861 23.2155C13.861 25.1314 14.363 27.0048 15.3134 28.6505L13.7705 34.2857L19.5346 32.773C21.1282 33.641 22.9136 34.0965 24.7282 34.0978H24.7323C30.7241 34.0978 35.605 29.221 35.605 23.2251C35.6087 21.7961 35.3291 20.3806 34.7825 19.0603C34.236 17.74 33.4332 16.541 32.4206 15.5328L32.4219 15.5314ZM24.7323 32.2628C23.1129 32.2631 21.5232 31.8278 20.1298 31.0025L19.7993 30.805L16.379 31.7005L17.2923 28.3666L17.0784 28.0237C16.1702 26.5848 15.6902 24.9171 15.6946 23.2155C15.6975 20.8184 16.6514 18.5203 18.3468 16.8257C20.0422 15.131 22.3407 14.1782 24.7378 14.1764C27.1502 14.1764 29.4226 15.12 31.1273 16.8247C31.9686 17.6629 32.6354 18.6594 33.0892 19.7569C33.543 20.8543 33.7749 22.0307 33.7714 23.2183C33.7673 28.2061 29.7134 32.2615 24.7323 32.2615V32.2628ZM29.6873 25.4921C29.4171 25.3549 28.08 24.6994 27.8318 24.6089C27.5835 24.5184 27.4025 24.4717 27.2187 24.746C27.0391 25.0162 26.5166 25.6292 26.3575 25.813C26.1984 25.9927 26.0407 26.0187 25.7705 25.8816C25.5003 25.7444 24.6213 25.4578 23.5845 24.5321C22.7781 23.8121 22.2309 22.9207 22.0718 22.6505C21.9127 22.3803 22.0539 22.2308 22.1925 22.0978C22.3173 21.9771 22.4626 21.781 22.5998 21.6219C22.7369 21.4628 22.7794 21.3517 22.8699 21.168C22.9605 20.9883 22.9166 20.8292 22.848 20.6921C22.7794 20.5549 22.235 19.2178 22.0128 18.6733C21.7947 18.1412 21.5671 18.2153 21.3998 18.2057C21.2407 18.1975 21.061 18.1975 20.8814 18.1975C20.7017 18.1975 20.4055 18.266 20.1573 18.5362C19.909 18.8064 19.2055 19.466 19.2055 20.8032C19.2055 22.1403 20.1778 23.4308 20.315 23.6146C20.4521 23.7943 22.2309 26.5412 24.9559 27.7165C25.6032 27.9949 26.1093 28.1623 26.5029 28.2912C27.1543 28.4969 27.7454 28.4667 28.213 28.3981C28.7355 28.3213 29.8203 27.7426 30.048 27.1076C30.2757 26.4727 30.2757 25.9296 30.2071 25.8171C30.1426 25.6964 29.963 25.6292 29.6887 25.4907L29.6873 25.4921Z" fill="#32B4C3"/>
</g>
<defs>
<clipPath id="clip0">
<rect width="21.9429" height="21.9429" fill="white" transform="translate(13.7144 12.3428)"/>
</clipPath>
</defs>
</svg>
