<svg width="48" height="48" viewBox="0 0 48 48" fill="none" xmlns="http://www.w3.org/2000/svg">
<circle cx="24" cy="24" r="23" stroke="#32B4C3" stroke-width="2"/>
<path fill-rule="evenodd" clip-rule="evenodd" d="M23.6858 32.8988H25.4079C25.6992 32.8655 25.9734 32.7454 26.1941 32.5543C26.3521 32.3325 26.4347 32.0668 26.4302 31.7955C26.4302 31.7955 26.3969 29.4528 27.4691 29.1115C28.5262 28.7752 29.8837 31.3511 31.3227 32.342C31.5886 32.5559 31.8948 32.7153 32.2236 32.8108C32.5524 32.9063 32.8971 32.9361 33.2376 32.8983L37.0851 32.9016C37.0851 32.9016 39.0975 32.7485 38.1434 31.1618C38.0652 31.0318 37.5893 29.9877 35.2827 27.8425C32.8696 25.5969 33.1932 25.9601 36.0994 22.0757C37.8691 19.71 38.5766 18.266 38.3556 17.6476C38.145 17.0584 36.8524 17.1599 36.8524 17.1599H32.5112C32.3179 17.1438 32.124 17.1819 31.9515 17.2696C31.7821 17.4011 31.6503 17.5741 31.5692 17.7716C31.1246 18.9508 30.5897 20.0945 29.9691 21.193C28.0403 24.4772 27.269 24.6494 26.9538 24.447C26.2202 23.9713 26.4036 22.5377 26.4036 21.5183C26.4036 18.3362 26.8851 17.0079 25.4655 16.6645C24.8044 16.5041 24.1239 16.4362 23.4437 16.4626C21.8978 16.4467 20.5902 16.4675 19.8494 16.8313C19.3563 17.0732 18.9762 17.6125 19.2078 17.6438C19.7016 17.688 20.1593 17.9187 20.486 18.2879C20.9293 18.8942 20.9149 20.2537 20.9149 20.2537C20.9149 20.2537 21.1698 24.0015 20.3193 24.4667C19.7353 24.786 18.9341 24.1343 17.2164 21.154C16.6289 20.1072 16.1123 19.0229 15.67 17.9082C15.5912 17.7214 15.4689 17.5556 15.3132 17.4243C15.1124 17.2906 14.8862 17.1989 14.6483 17.155H10.5315C10.2259 17.1559 9.92909 17.2565 9.68708 17.4414C9.63274 17.5561 9.60319 17.6808 9.60033 17.8075C9.59747 17.9342 9.62135 18.0601 9.67046 18.1771C9.67046 18.1771 12.8935 25.7955 16.541 29.6059C19.8865 33.1024 23.6858 32.8988 23.6858 32.8988Z" fill="#32B4C3"/>
</svg>
