<svg width="48" height="48" viewBox="0 0 48 48" fill="none" xmlns="http://www.w3.org/2000/svg">
<circle cx="24" cy="24" r="23" stroke="#32B4C3" stroke-width="2"/>
<path d="M33.6002 19.1636C32.9445 19.4465 32.231 19.65 31.496 19.7293C32.2591 19.276 32.8305 18.5597 33.1031 17.715C32.387 18.141 31.6026 18.4397 30.7845 18.5979C30.4426 18.2324 30.0291 17.9412 29.5698 17.7425C29.1104 17.5438 28.615 17.4418 28.1145 17.4429C26.0895 17.4429 24.461 19.0843 24.461 21.0986C24.461 21.3815 24.4952 21.6643 24.551 21.9365C21.5188 21.7779 18.8145 20.3293 17.0167 18.1115C16.6891 18.671 16.5174 19.3081 16.5195 19.9565C16.5195 21.225 17.1645 22.3436 18.1481 23.0015C17.5685 22.9786 17.0024 22.8193 16.496 22.5365V22.5815C16.496 24.3579 17.7517 25.83 19.4252 26.1686C19.111 26.2502 18.7878 26.292 18.4631 26.2929C18.2252 26.2929 18.0002 26.2693 17.7731 26.2372C18.236 27.6857 19.5838 28.7379 21.1888 28.7722C19.9331 29.7557 18.3602 30.3343 16.6524 30.3343C16.346 30.3343 16.0631 30.3236 15.7695 30.2893C17.3895 31.3286 19.3117 31.9286 21.3817 31.9286C28.1017 31.9286 31.7788 26.3615 31.7788 21.5293C31.7788 21.3707 31.7788 21.2122 31.7681 21.0536C32.4795 20.5329 33.1031 19.8879 33.6002 19.1636Z" fill="#32B4C3"/>
</svg>
