<svg width="48" height="48" viewBox="0 0 48 48" fill="none" xmlns="http://www.w3.org/2000/svg">
<circle cx="24" cy="24" r="23" stroke="#32B4C3" stroke-width="2"/>
<path fill-rule="evenodd" clip-rule="evenodd" d="M12.3565 16.2347C12.3565 15.871 12.501 15.5222 12.7582 15.265C13.0154 15.0078 13.3642 14.8633 13.7279 14.8633H35.6571C36.0208 14.8633 36.3696 15.0078 36.6268 15.265C36.884 15.5222 37.0285 15.871 37.0285 16.2347V31.7648C37.0285 32.4922 36.7395 33.1899 36.2251 33.7043C35.7107 34.2186 35.0131 34.5076 34.2856 34.5076H15.0856C14.3582 34.5076 13.6605 34.2186 13.1461 33.7043C12.6318 33.1899 12.3428 32.4922 12.3428 31.7648V16.6791C12.3428 16.6132 12.3469 16.5501 12.3565 16.4871V16.2347ZM15.0856 19.2848V31.7648H34.2856V19.2848L27.5944 25.976C26.8229 26.7473 25.7766 27.1806 24.6856 27.1806C23.5947 27.1806 22.5484 26.7473 21.7768 25.976L15.0856 19.282V19.2848ZM17.2415 17.5623H32.1297L25.6566 24.0354C25.5292 24.1629 25.378 24.2641 25.2115 24.3331C25.045 24.4021 24.8665 24.4376 24.6863 24.4376C24.5061 24.4376 24.3276 24.4021 24.1611 24.3331C23.9947 24.2641 23.8434 24.1629 23.716 24.0354L17.2429 17.5623H17.2415Z" fill="#32B4C3"/>
</svg>
