<svg width="48" height="48" viewBox="0 0 48 48" fill="none" xmlns="http://www.w3.org/2000/svg">
<circle cx="24" cy="24" r="23" stroke="#32B4C3" stroke-width="2"/>
<path d="M15.3332 27.9998C16.5465 27.9998 17.6438 27.5225 18.4758 26.7598L26.8225 31.5292C26.7237 31.9004 26.6713 32.2824 26.6665 32.6665C26.6665 35.2398 28.7598 37.3332 31.3332 37.3332C33.9065 37.3332 35.9998 35.2398 35.9998 32.6665C35.9998 30.0932 33.9065 27.9998 31.3332 27.9998C30.1198 27.9998 29.0225 28.4772 28.1905 29.2398L19.8438 24.4705C19.9278 24.1412 19.9812 23.8012 19.9878 23.4465L28.1892 18.7598C29.0225 19.5225 30.1198 19.9998 31.3332 19.9998C33.9065 19.9998 35.9998 17.9065 35.9998 15.3332C35.9998 12.7598 33.9065 10.6665 31.3332 10.6665C28.7598 10.6665 26.6665 12.7598 26.6665 15.3332C26.6665 15.7278 26.7305 16.1038 26.8225 16.4705L19.2438 20.8025C18.8222 20.1483 18.2434 19.6101 17.5603 19.2369C16.8772 18.8638 16.1115 18.6677 15.3332 18.6665C12.7598 18.6665 10.6665 20.7598 10.6665 23.3332C10.6665 25.9065 12.7598 27.9998 15.3332 27.9998ZM31.3332 30.6665C32.4358 30.6665 33.3332 31.5638 33.3332 32.6665C33.3332 33.7692 32.4358 34.6665 31.3332 34.6665C30.2305 34.6665 29.3332 33.7692 29.3332 32.6665C29.3332 31.5638 30.2305 30.6665 31.3332 30.6665ZM31.3332 13.3332C32.4358 13.3332 33.3332 14.2305 33.3332 15.3332C33.3332 16.4358 32.4358 17.3332 31.3332 17.3332C30.2305 17.3332 29.3332 16.4358 29.3332 15.3332C29.3332 14.2305 30.2305 13.3332 31.3332 13.3332ZM15.3332 21.3332C16.4358 21.3332 17.3332 22.2305 17.3332 23.3332C17.3332 24.4358 16.4358 25.3332 15.3332 25.3332C14.2305 25.3332 13.3332 24.4358 13.3332 23.3332C13.3332 22.2305 14.2305 21.3332 15.3332 21.3332Z" fill="#32B4C3"/>
</svg>
