<svg width="15" height="21" viewBox="0 0 15 21" fill="none" xmlns="http://www.w3.org/2000/svg">
<path d="M0.536006 20.886C0.697771 20.9702 0.879397 21.0087 1.06139 20.9974C1.24338 20.9861 1.41886 20.9255 1.56901 20.822L14.569 11.822C14.7018 11.73 14.8104 11.6071 14.8854 11.464C14.9604 11.3208 14.9995 11.1616 14.9995 11C14.9995 10.8384 14.9604 10.6792 14.8854 10.5361C14.8104 10.3929 14.7018 10.2701 14.569 10.178L1.56901 1.17803C1.41915 1.07348 1.24346 1.01209 1.0611 1.00053C0.878744 0.988979 0.696714 1.02771 0.534858 1.11251C0.373002 1.19731 0.237532 1.32491 0.143218 1.48141C0.0489047 1.63791 -0.000633163 1.8173 6.10981e-06 2.00003V20C-2.39712e-05 20.1826 0.0499091 20.3616 0.144393 20.5178C0.238878 20.674 0.374308 20.8013 0.536006 20.886ZM2.00001 3.90903L12.243 11L2.00001 18.091V3.90903Z" fill="#98D7DC"/>
</svg>
