<svg width="15" height="21" viewBox="0 0 15 21" fill="none" xmlns="http://www.w3.org/2000/svg">
<path d="M14.464 20.886C14.3022 20.9702 14.1206 21.0087 13.9386 20.9974C13.7566 20.9861 13.5811 20.9255 13.431 20.822L0.430994 11.822C0.298156 11.73 0.189601 11.6071 0.114624 11.464C0.0396471 11.3208 0.000482559 11.1616 0.000482559 11C0.000482559 10.8384 0.0396471 10.6792 0.114624 10.5361C0.189601 10.3929 0.298156 10.2701 0.430994 10.178L13.431 1.17803C13.5809 1.07348 13.7565 1.01209 13.9389 1.00053C14.1213 0.988979 14.3033 1.02771 14.4651 1.11251C14.627 1.19731 14.7625 1.32491 14.8568 1.48141C14.9511 1.63791 15.0006 1.8173 15 2.00003V20C15 20.1826 14.9501 20.3616 14.8556 20.5178C14.7611 20.674 14.6257 20.8013 14.464 20.886ZM13 3.90903L2.75699 11L13 18.091V3.90903Z" fill="#98D7DC"/>
</svg>
