<svg width="34" height="34" viewBox="0 0 34 34" fill="none" xmlns="http://www.w3.org/2000/svg">
<path d="M26.6771 24.742V30.0646C26.6771 31.1291 25.8061 32.0001 24.7416 32.0001H9.25775C8.19323 32.0001 7.32227 31.1291 7.32227 30.0646V19.9033" stroke="black" stroke-width="1.5" stroke-miterlimit="10" stroke-linecap="square" stroke-linejoin="round"/>
<path d="M7.32227 11.1935V3.93548C7.32227 2.87097 8.19323 2 9.25775 2H24.7416C25.8061 2 26.6771 2.87097 26.6771 3.93548V5.87097" stroke="black" stroke-width="1.5" stroke-miterlimit="10" stroke-linecap="square" stroke-linejoin="round"/>
<path d="M23.774 5.87106V4.90332H10.2256V8.29042" stroke="black" stroke-width="1.5" stroke-miterlimit="10" stroke-linecap="square" stroke-linejoin="round"/>
<path d="M10.2256 22.8066V26.1937H23.774V24.7421" stroke="black" stroke-width="1.5" stroke-miterlimit="10" stroke-linecap="square" stroke-linejoin="round"/>
<path d="M15.0649 29.0967H18.9359" stroke="black" stroke-width="1.5" stroke-miterlimit="10" stroke-linecap="round" stroke-linejoin="round"/>
<path d="M2 14.0957H3.93548" stroke="black" stroke-width="1.5" stroke-miterlimit="10" stroke-linecap="round" stroke-linejoin="round"/>
<path d="M6.83838 14.0957H11.1932" stroke="black" stroke-width="1.5" stroke-miterlimit="10" stroke-linecap="round" stroke-linejoin="round"/>
<path d="M3.45166 16.999H5.38714" stroke="black" stroke-width="1.5" stroke-miterlimit="10" stroke-linecap="round" stroke-linejoin="round"/>
<path d="M8.29053 16.999H12.6454" stroke="black" stroke-width="1.5" stroke-miterlimit="10" stroke-linecap="round" stroke-linejoin="round"/>
<path d="M31.0806 21.8389H15.4999C14.9676 21.8389 14.5806 21.4035 14.5806 20.9196V9.69372C14.5806 9.16146 15.016 8.77441 15.4999 8.77441H31.0806C31.6129 8.77441 31.9999 9.20985 31.9999 9.69372V20.9196C31.9999 21.4035 31.6129 21.8389 31.0806 21.8389Z" stroke="black" stroke-width="1.5" stroke-miterlimit="10" stroke-linecap="round" stroke-linejoin="round"/>
<path d="M17.6311 16.135C17.8519 16.135 18.0081 16.1135 18.0996 16.0704C18.1911 16.0273 18.2369 15.9438 18.2369 15.82C18.2369 15.7231 18.1777 15.6396 18.0592 15.5696C17.9407 15.4942 17.7604 15.4108 17.5181 15.3192C17.3296 15.2492 17.1573 15.1765 17.0011 15.1012C16.8504 15.0258 16.7211 14.9369 16.6134 14.8346C16.5057 14.7269 16.4223 14.6004 16.3631 14.455C16.3038 14.3096 16.2742 14.1346 16.2742 13.93C16.2742 13.5315 16.4223 13.2165 16.7184 12.985C17.0146 12.7535 17.4211 12.6377 17.9381 12.6377C18.1965 12.6377 18.4442 12.6619 18.6811 12.7104C18.9181 12.7535 19.1065 12.8019 19.2465 12.8558L19.0365 13.7927C18.8965 13.7442 18.7431 13.7012 18.5761 13.6635C18.4146 13.6258 18.2315 13.6069 18.0269 13.6069C17.65 13.6069 17.4615 13.7119 17.4615 13.9219C17.4615 13.9704 17.4696 14.0135 17.4857 14.0512C17.5019 14.0888 17.5342 14.1265 17.5827 14.1642C17.6311 14.1965 17.6957 14.2342 17.7765 14.2773C17.8627 14.315 17.9704 14.3581 18.0996 14.4065C18.3634 14.5035 18.5815 14.6004 18.7538 14.6973C18.9261 14.7888 19.0607 14.8912 19.1577 15.0042C19.26 15.1119 19.33 15.2331 19.3677 15.3677C19.4107 15.5023 19.4323 15.6585 19.4323 15.8362C19.4323 16.2562 19.2734 16.5738 18.9557 16.7892C18.6434 17.0046 18.1992 17.1123 17.6231 17.1123C17.2461 17.1123 16.9311 17.08 16.6781 17.0154C16.4304 16.9508 16.2581 16.8969 16.1611 16.8538L16.3631 15.8765C16.5677 15.9573 16.7777 16.0219 16.9931 16.0704C17.2084 16.1135 17.4211 16.135 17.6311 16.135Z" fill="black"/>
<path d="M22.6659 14.7458C22.6659 14.3581 22.6147 14.0835 22.5124 13.9219C22.4155 13.7604 22.2459 13.6796 22.0036 13.6796C21.9282 13.6796 21.8501 13.685 21.7694 13.6958C21.6886 13.7012 21.6105 13.7092 21.5351 13.72V16.9992H20.3317V12.8962C20.434 12.8692 20.5524 12.8423 20.687 12.8154C20.827 12.7831 20.9724 12.7562 21.1232 12.7346C21.2794 12.7077 21.4382 12.6888 21.5997 12.6781C21.7613 12.6619 21.9201 12.6538 22.0763 12.6538C22.3832 12.6538 22.6309 12.6942 22.8194 12.775C23.0132 12.8504 23.172 12.9419 23.2959 13.0496C23.4682 12.9258 23.6647 12.8288 23.8855 12.7588C24.1117 12.6888 24.319 12.6538 24.5074 12.6538C24.8467 12.6538 25.124 12.7023 25.3394 12.7992C25.5601 12.8908 25.7351 13.0227 25.8644 13.195C25.9936 13.3673 26.0824 13.5719 26.1309 13.8088C26.1794 14.0458 26.2036 14.3096 26.2036 14.6004V16.9992H25.0001V14.7458C25.0001 14.3581 24.949 14.0835 24.8467 13.9219C24.7497 13.7604 24.5801 13.6796 24.3378 13.6796C24.2732 13.6796 24.1817 13.6958 24.0632 13.7281C23.9501 13.7604 23.8559 13.8008 23.7805 13.8492C23.8182 13.9731 23.8424 14.105 23.8532 14.245C23.864 14.3796 23.8694 14.525 23.8694 14.6812V16.9992H22.6659V14.7458Z" fill="black"/>
<path d="M28.516 16.135C28.7368 16.135 28.893 16.1135 28.9845 16.0704C29.076 16.0273 29.1218 15.9438 29.1218 15.82C29.1218 15.7231 29.0626 15.6396 28.9441 15.5696C28.8257 15.4942 28.6453 15.4108 28.403 15.3192C28.2145 15.2492 28.0422 15.1765 27.886 15.1012C27.7353 15.0258 27.606 14.9369 27.4984 14.8346C27.3907 14.7269 27.3072 14.6004 27.248 14.455C27.1887 14.3096 27.1591 14.1346 27.1591 13.93C27.1591 13.5315 27.3072 13.2165 27.6034 12.985C27.8995 12.7535 28.306 12.6377 28.823 12.6377C29.0814 12.6377 29.3291 12.6619 29.566 12.7104C29.803 12.7535 29.9914 12.8019 30.1314 12.8558L29.9214 13.7927C29.7814 13.7442 29.628 13.7012 29.461 13.6635C29.2995 13.6258 29.1164 13.6069 28.9118 13.6069C28.5349 13.6069 28.3464 13.7119 28.3464 13.9219C28.3464 13.9704 28.3545 14.0135 28.3707 14.0512C28.3868 14.0888 28.4191 14.1265 28.4676 14.1642C28.516 14.1965 28.5807 14.2342 28.6614 14.2773C28.7476 14.315 28.8553 14.3581 28.9845 14.4065C29.2484 14.5035 29.4664 14.6004 29.6387 14.6973C29.811 14.7888 29.9457 14.8912 30.0426 15.0042C30.1449 15.1119 30.2149 15.2331 30.2526 15.3677C30.2957 15.5023 30.3172 15.6585 30.3172 15.8362C30.3172 16.2562 30.1584 16.5738 29.8407 16.7892C29.5284 17.0046 29.0841 17.1123 28.508 17.1123C28.131 17.1123 27.816 17.08 27.563 17.0154C27.3153 16.9508 27.143 16.8969 27.046 16.8538L27.248 15.8765C27.4526 15.9573 27.6626 16.0219 27.878 16.0704C28.0934 16.1135 28.306 16.135 28.516 16.135Z" fill="black"/>
</svg>
