<svg width="16" height="12" viewBox="0 0 16 12" fill="none" xmlns="http://www.w3.org/2000/svg">
<path d="M1.72022 4.61119L1.72023 4.61118C1.83714 4.49358 2.02553 4.49358 2.14244 4.61118L2.14246 4.61119L5.64543 8.13428L6 8.49088L6.35456 8.13428L13.8575 0.588191C13.9745 0.470603 14.1629 0.470603 14.2798 0.588191L15.4111 1.72607L15.7491 1.39008L15.4111 1.72607C15.5296 1.84523 15.5296 2.03965 15.4111 2.15888C15.4111 2.15888 15.4111 2.15889 15.4111 2.15889L6.21114 11.4118C6.09418 11.5294 5.9058 11.5294 5.78889 11.4118L5.43912 11.7595L5.78888 11.4118L0.58887 6.18188C0.470386 6.06271 0.470361 5.86828 0.588888 5.74906L1.72022 4.61119Z" stroke="#9DD4B3"/>
</svg>
