<svg width="18" height="14" viewBox="0 0 18 14" fill="none" xmlns="http://www.w3.org/2000/svg">
<g clip-path="url(#clip0)">
<path d="M15.0735 1.94044C13.5058 0.649094 12.0153 0.25 12.0153 0.25L9.00851 9.60608H8.98277L5.95031 0.25C5.95031 0.25 4.45974 0.637379 2.8921 1.94044C1.22165 3.32561 -0.217485 5.45041 0.0266493 8.81952C0.219404 11.4843 2.37813 13.75 2.37813 13.75L6.55426 13.7382C6.55426 13.7382 2.96922 12.0008 2.1083 9.26561C1.08032 6.03736 2.68652 3.79516 3.92009 2.72691C4.42123 2.32777 5.15364 2.23384 5.42346 3.09082C6.34864 5.82604 8.99564 13.656 8.99564 13.656L9.00851 13.6561C9.00851 13.6561 11.6427 5.82608 12.5807 3.09086C12.8634 2.23388 13.5958 2.32782 14.0841 2.72695C15.3176 3.79521 16.9238 6.03736 15.8958 9.26565C15.0349 12.0009 11.4499 13.7382 11.4499 13.7382L15.626 13.75C15.626 13.75 17.7976 11.4726 17.9775 8.81956C18.1959 5.45041 16.7568 3.32561 15.0735 1.94044Z" fill="#FD0505"/>
</g>
<defs>
<clipPath id="clip0">
<rect width="18" height="13.5" fill="white" transform="translate(0 0.25)"/>
</clipPath>
</defs>
</svg>
