<svg width="14" height="13" viewBox="0 0 14 13" fill="none" xmlns="http://www.w3.org/2000/svg">
<path d="M8.88968 4.39757L8.77337 4.16177L7.00039 0.567398C6.9997 0.567649 6.99928 0.56794 6.99917 0.56803C6.99916 0.568034 6.99916 0.568033 6.99916 0.568036C6.99914 0.568053 6.99914 0.568058 6.99915 0.568049L8.88968 4.39757ZM8.88968 4.39757L9.14987 4.43538M8.88968 4.39757L9.14987 4.43538M7.44834 0.345269C7.39991 0.246832 7.32022 0.167144 7.22178 0.118707L7.44834 0.345269ZM7.44834 0.345269L9.22178 3.94058L7.44834 0.345269ZM7.00086 0.567249C7.00095 0.567226 7.00103 0.567208 7.0011 0.567193C7.00147 0.567115 7.00155 0.56715 7.00128 0.567134C7.00123 0.567131 7.00118 0.567128 7.00113 0.567123C7.00086 0.567096 7.00062 0.567045 7.00047 0.567007C7.00044 0.567 7.00042 0.566994 7.0004 0.566988C7.00024 0.566949 7.00023 0.566943 7.00045 0.56705L7.00086 0.567252M7.00086 0.567249L7.00086 0.567252M7.00086 0.567249C7.00092 0.567279 7.00097 0.567308 7.00103 0.567336L7.00086 0.567252M7.00086 0.567249L7.00086 0.567252M9.14987 4.43538L13.1155 5.01172L13.1155 5.01172L13.1161 5.01186L13.116 5.01274L13.1156 5.01316M9.14987 4.43538L0.883146 5.01189L0.883293 5.01223L0.883325 5.01226L3.75364 7.8107L3.94185 7.9942L3.89739 8.25327L3.21942 12.2039L6.76723 10.3386L6.99991 10.2163L7.23259 10.3386L10.7804 12.2039L10.1024 8.25327L10.058 7.9942L10.2462 7.8107L13.1156 5.01316M13.1156 5.01316L13.1159 5.01362L13.1159 5.01349L13.1156 5.01316ZM10.7809 12.2042C10.7809 12.2041 10.7809 12.2041 10.7809 12.204M10.7809 12.2042L10.7807 12.2041C10.7808 12.2041 10.7808 12.2041 10.7809 12.204M10.7809 12.2042L10.7808 12.2042M10.7809 12.2042L10.7808 12.2041M10.7809 12.204C10.7812 12.204 10.7813 12.2039 10.7813 12.204C10.7813 12.204 10.7811 12.204 10.7808 12.2042M10.7809 12.204C10.7809 12.204 10.7809 12.2039 10.781 12.2039C10.781 12.2038 10.781 12.2038 10.7809 12.204C10.7808 12.2041 10.7808 12.2041 10.7808 12.2041M10.7808 12.2042L10.7808 12.2041M10.7808 12.2042C10.7808 12.2042 10.7808 12.2042 10.7808 12.2042C10.7807 12.2043 10.7806 12.2043 10.7806 12.2043C10.7806 12.2043 10.7807 12.2043 10.7808 12.2041M6.99876 0.568742L6.99988 0.566456L6.55147 0.345269L6.99868 0.568876L6.99876 0.568742ZM0.881556 5.01212L0.881688 5.0121L0.882014 5.01242L0.881556 5.01212Z" stroke="#FFB800"/>
</svg>
