<svg width="32" height="32" viewBox="0 0 32 32" fill="none" xmlns="http://www.w3.org/2000/svg">
<path d="M16.0003 26.6666C18.8293 26.6666 21.5424 25.5428 23.5428 23.5424C25.5432 21.542 26.667 18.8289 26.667 16C26.667 13.171 25.5432 10.4579 23.5428 8.45749C21.5424 6.4571 18.8293 5.33329 16.0003 5.33329C13.1713 5.33329 10.4582 6.4571 8.45785 8.45749C6.45747 10.4579 5.33366 13.171 5.33366 16C5.33366 18.8289 6.45747 21.542 8.45785 23.5424C10.4582 25.5428 13.1713 26.6666 16.0003 26.6666ZM16.0003 29.3333C8.63633 29.3333 2.66699 23.364 2.66699 16C2.66699 8.63596 8.63633 2.66663 16.0003 2.66663C23.3643 2.66663 29.3337 8.63596 29.3337 16C29.3337 23.364 23.3643 29.3333 16.0003 29.3333ZM11.8537 17.56L8.52299 16.5213C7.80299 16.3013 7.79899 15.8053 8.68433 15.4493L21.6617 10.436C22.415 10.1293 22.8417 10.5173 22.5977 11.4893L20.3883 21.916C20.2337 22.6586 19.787 22.836 19.167 22.4933L15.7657 19.976L14.1803 21.5066C14.0177 21.664 13.8857 21.7986 13.635 21.832C13.3857 21.8666 13.1803 21.792 13.0297 21.3786L11.8697 17.5506L11.8537 17.5613V17.56Z" fill="#73D8E6"/>
</svg>
