<svg width="26" height="24" viewBox="0 0 26 24" fill="none" xmlns="http://www.w3.org/2000/svg">
<path d="M11.9999 2.40002C17.3039 2.40002 21.5999 6.69602 21.5999 12C21.5999 17.304 17.3039 21.6 11.9999 21.6C6.6959 21.6 2.3999 17.304 2.3999 12C2.3999 6.69602 6.6959 2.40002 11.9999 2.40002ZM11.9999 19.2C15.9719 19.2 19.1999 15.972 19.1999 12C19.1999 8.02802 15.9719 4.80002 11.9999 4.80002C8.0279 4.80002 4.7999 8.02802 4.7999 12C4.7999 15.972 8.0279 19.2 11.9999 19.2ZM11.1479 12.852C11.2319 12.912 11.3159 12.972 11.4239 13.032L11.3999 13.056L16.7999 15.6L13.1639 11.772L11.9999 6.00002L10.8359 11.772H10.8479C10.8479 11.796 10.8359 11.832 10.8239 11.88C10.8119 11.928 10.7999 11.964 10.7999 12C10.7999 12.336 10.9199 12.624 11.1479 12.852Z" fill="black"/>
</svg>
