<svg width="24" height="24" viewBox="0 0 24 24" fill="none" xmlns="http://www.w3.org/2000/svg">
<path d="M12 2.40002C17.304 2.40002 21.6 6.69602 21.6 12C21.6 17.304 17.304 21.6 12 21.6C6.69602 21.6 2.40002 17.304 2.40002 12C2.40002 6.69602 6.69602 2.40002 12 2.40002ZM12 19.2C15.972 19.2 19.2 15.972 19.2 12C19.2 8.02802 15.972 4.80002 12 4.80002C8.02802 4.80002 4.80002 8.02802 4.80002 12C4.80002 15.972 8.02802 19.2 12 19.2ZM11.148 12.852C11.232 12.912 11.316 12.972 11.424 13.032L11.4 13.056L16.8 15.6L13.164 11.772L12 6.00002L10.836 11.772H10.848C10.848 11.796 10.836 11.832 10.824 11.88C10.812 11.928 10.8 11.964 10.8 12C10.8 12.336 10.92 12.624 11.148 12.852Z" fill="#32B4C3"/>
</svg>
