<svg width="28" height="34" viewBox="0 0 28 34" fill="none" xmlns="http://www.w3.org/2000/svg">
<path d="M13.9985 20.0994C16.4977 20.0994 16.9975 26.8077 16.9975 28.3558V30.9359C16.9975 32.0712 17.8972 33 18.9969 33C21.9959 33 22.9956 27.3237 22.9956 24.2276V23.9179C22.9956 21.5958 23.5455 19.3254 24.5452 17.3129C25.5948 15.1456 26.7944 12.617 26.9943 8.1792C27.1443 4.46382 24.2952 1.10972 20.6963 1.00651C19.6466 0.954911 18.597 1.21282 17.6972 1.67724C16.5476 2.24487 15.2481 2.55459 13.9985 2.55459C12.7489 2.55459 11.4493 2.24487 10.2997 1.67724C9.39998 1.21282 8.4003 1.00651 7.30064 1.00651C3.70179 1.10972 0.902628 4.46382 1.0026 8.1792C1.15255 12.617 2.35212 15.1456 3.45177 17.3129C4.45145 19.377 5.00133 21.6474 5.00133 23.9179V24.2276C5.00133 27.3237 6.00101 33 9.00006 33C10.0997 33 10.9994 32.0712 10.9994 30.9359V28.3558C10.9994 26.8077 11.4993 20.0994 13.9985 20.0994Z" stroke="#98D7DC" stroke-width="2" stroke-miterlimit="10" stroke-linecap="round" stroke-linejoin="round"/>
<path d="M9.3999 7.71486C10.3996 6.16679 12.099 5.13474 13.9984 5.13474C15.9478 5.13474 17.6472 6.16679 18.5969 7.71486" stroke="#98D7DC" stroke-width="2" stroke-miterlimit="10" stroke-linecap="round" stroke-linejoin="round"/>
<path d="M9.89971 7.04413C9.54983 5.96048 8.40017 5.13474 7.00061 5.13474" stroke="#98D7DC" stroke-width="2" stroke-miterlimit="10" stroke-linecap="round" stroke-linejoin="round"/>
<path d="M20.9961 5.13474C19.5966 5.13474 18.4469 5.96048 18.097 7.04413" stroke="#98D7DC" stroke-width="2" stroke-miterlimit="10" stroke-linecap="round" stroke-linejoin="round"/>
</svg>
