<svg width="40" height="40" viewBox="0 0 40 40" fill="none" xmlns="http://www.w3.org/2000/svg">
<path d="M26.2636 12.4733L26.3772 12.7144L26.6407 12.7545L38.6303 14.5792C38.6305 14.5792 38.6307 14.5793 38.6309 14.5793C39.1713 14.6637 39.5773 15.1992 39.4876 15.8075L39.4869 15.8128C39.4541 16.0534 39.3461 16.2712 39.185 16.4365C39.185 16.4365 39.185 16.4365 39.185 16.4365L30.5101 25.2932L30.3329 25.4741L30.3739 25.7239L32.4236 38.2314L32.4236 38.2317C32.524 38.8415 32.1302 39.3869 31.5955 39.4834L31.5948 39.4835C31.3816 39.5224 31.1594 39.4866 30.969 39.3804L30.9668 39.3792L20.2412 33.4741L20.0001 33.3414L19.7589 33.4741L9.03344 39.3792L9.03265 39.3796C8.86751 39.4709 8.68316 39.5111 8.49996 39.4974C8.31671 39.4837 8.13858 39.4164 7.986 39.3004C7.83319 39.1842 7.71165 39.0231 7.63814 38.8335C7.56458 38.6438 7.54295 38.4352 7.57652 38.232L7.57662 38.2314L9.62632 25.7239L9.66727 25.4741L9.4901 25.2932L0.814294 16.4356L0.814263 16.4355C0.61931 16.2365 0.503822 15.9599 0.500093 15.6651C0.496367 15.3705 0.604631 15.0907 0.79452 14.886C0.952272 14.7177 1.15313 14.6116 1.36701 14.5796L1.36826 14.5794L13.3595 12.7545L13.623 12.7144L13.7366 12.4733L19.0959 1.09578C19.096 1.09541 19.0962 1.09504 19.0964 1.09468C19.3549 0.554747 19.9598 0.358541 20.4411 0.607384L20.4417 0.607688C20.6382 0.708959 20.8021 0.878146 20.903 1.09298L20.9032 1.0934L26.2636 12.4733Z" stroke="#FFB800"/>
</svg>
