<svg width="32" height="32" viewBox="0 0 32 32" fill="none" xmlns="http://www.w3.org/2000/svg">
<path d="M16.0003 26.6666C18.8293 26.6666 21.5424 25.5428 23.5428 23.5424C25.5432 21.542 26.667 18.8289 26.667 16C26.667 13.171 25.5432 10.4579 23.5428 8.45749C21.5424 6.4571 18.8293 5.33329 16.0003 5.33329C13.1713 5.33329 10.4582 6.4571 8.45785 8.45749C6.45747 10.4579 5.33366 13.171 5.33366 16C5.33366 18.8289 6.45747 21.542 8.45785 23.5424C10.4582 25.5428 13.1713 26.6666 16.0003 26.6666ZM16.0003 29.3333C8.63633 29.3333 2.66699 23.364 2.66699 16C2.66699 8.63596 8.63633 2.66663 16.0003 2.66663C23.3643 2.66663 29.3337 8.63596 29.3337 16C29.3337 23.364 23.3643 29.3333 16.0003 29.3333Z" fill="#9909CB"/>
<path d="M20.8589 15.2053C20.8749 13.216 19.2336 11.392 17.2002 11.14L17.0669 11.12C16.9649 11.0997 16.8615 11.0882 16.7576 11.0853C16.3402 11.0853 16.2296 11.3867 16.2002 11.5667C16.1836 11.6414 16.1821 11.7187 16.1958 11.7941C16.2096 11.8694 16.2383 11.9413 16.2802 12.0053C16.4189 12.1987 16.6616 12.232 16.8562 12.2613C16.9136 12.2693 16.9682 12.276 17.0122 12.288C18.8402 12.708 19.4562 13.3707 19.7562 15.2413C19.7642 15.288 19.7669 15.344 19.7696 15.404C19.7829 15.6267 19.8109 16.092 20.2962 16.092C20.3362 16.092 20.3789 16.0893 20.4242 16.0813C20.8762 16.0107 20.8616 15.5853 20.8549 15.3813C20.8515 15.3321 20.8515 15.2826 20.8549 15.2333C20.8564 15.2245 20.8572 15.2156 20.8576 15.2067L20.8589 15.2053Z" fill="#9909CB"/>
<path d="M16.6405 10.4094C16.6938 10.4134 16.7472 10.4174 16.7885 10.4241C19.7885 10.9014 21.1698 12.3681 21.5525 15.4907C21.5592 15.5441 21.5592 15.6081 21.5605 15.6774C21.5645 15.9214 21.5725 16.4281 22.1005 16.4387H22.1165C22.189 16.4426 22.2615 16.4309 22.3291 16.4044C22.3967 16.378 22.4579 16.3374 22.5085 16.2854C22.6725 16.1081 22.6618 15.8454 22.6525 15.6321C22.6498 15.5814 22.6472 15.5321 22.6485 15.4894C22.6858 12.2961 20.0085 9.40006 16.9178 9.29339L16.8805 9.29472C16.8686 9.29648 16.8565 9.29737 16.8445 9.29739C16.8138 9.29739 16.7752 9.29472 16.7352 9.29206C16.682 9.2872 16.6286 9.28453 16.5752 9.28406C16.0832 9.28406 15.9898 9.64406 15.9778 9.86006C15.9512 10.3574 16.4165 10.3934 16.6405 10.4094ZM21.4072 19.5254C21.343 19.4751 21.2794 19.424 21.2165 19.3721C20.8885 19.1001 20.5392 18.8494 20.2032 18.6067C20.1329 18.5562 20.0626 18.5055 19.9925 18.4547C19.5605 18.1427 19.1725 17.9894 18.8058 17.9894C18.3125 17.9894 17.8818 18.2721 17.5258 18.8281C17.3685 19.0734 17.1765 19.1934 16.9418 19.1934C16.778 19.1875 16.6174 19.1461 16.4712 19.0721C15.0778 18.4187 14.0818 17.4187 13.5125 16.0987C13.2378 15.4587 13.3258 15.0427 13.8112 14.7027C14.0858 14.5107 14.5978 14.1521 14.5618 13.4654C14.5218 12.6854 12.8538 10.3387 12.1512 10.0721C11.8514 9.95894 11.5209 9.95799 11.2205 10.0694C10.4138 10.3494 9.83383 10.8427 9.5445 11.4921C9.2645 12.1214 9.27783 12.8587 9.58183 13.6267C10.4578 15.8481 11.6885 17.7841 13.2432 19.3814C14.7632 20.9454 16.6325 22.2254 18.7978 23.1881C18.9925 23.2747 19.1978 23.3214 19.3472 23.3561L19.4738 23.3881C19.4912 23.393 19.5091 23.3957 19.5272 23.3961H19.5445C20.5632 23.3961 21.7858 22.4361 22.1618 21.3401C22.4912 20.3801 21.8898 19.9067 21.4072 19.5267V19.5254ZM17.0912 12.9467C16.9178 12.9507 16.5538 12.9601 16.4258 13.3414C16.3672 13.5201 16.3738 13.6747 16.4472 13.8014C16.5552 13.9881 16.7632 14.0454 16.9512 14.0761C17.6338 14.1894 17.9858 14.5801 18.0552 15.3027C18.0885 15.6414 18.3085 15.8761 18.5912 15.8761C18.6125 15.8765 18.6339 15.8756 18.6552 15.8734C18.9952 15.8307 19.1592 15.5734 19.1445 15.1067C19.1498 14.6187 18.9032 14.0667 18.4832 13.6267C18.0618 13.1841 17.5538 12.9347 17.0912 12.9467Z" fill="#9909CB"/>
</svg>
