<svg width="32" height="32" viewBox="0 0 32 32" fill="none" xmlns="http://www.w3.org/2000/svg">
<path d="M15.355 2.68263C8.275 3.01596 2.68967 8.8693 2.711 15.9053C2.71451 17.9764 3.21036 20.0169 4.15767 21.8586L2.747 28.66C2.72979 28.745 2.73429 28.833 2.7601 28.9158C2.78591 28.9987 2.83219 29.0736 2.89466 29.1339C2.95712 29.1941 3.03376 29.2375 3.11749 29.2603C3.20121 29.283 3.28932 29.2843 3.37367 29.264L10.0857 27.6853C11.8634 28.5638 13.8149 29.0339 15.7977 29.0613C23.0337 29.172 29.0657 23.468 29.291 16.288C29.5337 8.58796 23.135 2.3133 15.355 2.6813V2.68263ZM23.3643 23.172C22.397 24.1359 21.2489 24.8994 19.9859 25.4187C18.723 25.9381 17.3699 26.2031 16.0043 26.1986C14.3977 26.2035 12.8119 25.8347 11.3723 25.1213L10.4377 24.6586L6.32167 25.6266L7.18833 21.452L6.727 20.556C5.97913 19.1063 5.59131 17.4978 5.59633 15.8666C5.59633 13.1066 6.679 10.5106 8.64433 8.55996C10.6033 6.6209 13.248 5.53282 16.0043 5.53196C18.7857 5.53196 21.399 6.60663 23.3643 8.55863C24.3326 9.51281 25.101 10.6504 25.6246 11.905C26.1481 13.1595 26.4164 14.5059 26.4137 15.8653C26.4137 18.6013 25.3137 21.2386 23.3643 23.1733V23.172Z" fill="#48B176"/>
<path d="M22.4559 18.7266L19.8812 17.9933C19.7151 17.9456 19.5391 17.9435 19.3719 17.9871C19.2046 18.0307 19.0522 18.1185 18.9305 18.2413L18.3012 18.8786C18.171 19.0105 18.0048 19.1011 17.8233 19.139C17.6419 19.177 17.4534 19.1606 17.2812 19.092C16.0639 18.6026 13.5012 16.3413 12.8465 15.2093C12.7548 15.0494 12.7128 14.8657 12.7261 14.6819C12.7394 14.498 12.8074 14.3223 12.9212 14.1773L13.4705 13.4706C13.5763 13.3352 13.6432 13.1736 13.6641 13.0031C13.685 12.8326 13.6591 12.6596 13.5892 12.5026L12.5065 10.0706C12.4453 9.93469 12.3534 9.81481 12.238 9.72042C12.1226 9.62602 11.9869 9.55967 11.8415 9.52659C11.6961 9.49351 11.5451 9.4946 11.4002 9.52977C11.2553 9.56494 11.1205 9.63324 11.0065 9.72929C10.2879 10.3333 9.43453 11.2493 9.33186 12.2666C9.14919 14.0573 9.92252 16.3146 12.8479 19.0266C16.2279 22.1586 18.9359 22.5733 20.6972 22.148C21.6972 21.908 22.4972 20.944 22.9999 20.156C23.0803 20.0308 23.1301 19.8885 23.1455 19.7405C23.1609 19.5926 23.1414 19.4431 23.0885 19.304C23.0355 19.165 22.9507 19.0403 22.8409 18.9401C22.731 18.8398 22.5991 18.7667 22.4559 18.7266Z" fill="#48B176"/>
</svg>
