<svg width="34" height="34" viewBox="0 0 34 34" fill="none" xmlns="http://www.w3.org/2000/svg">
<path d="M29.0968 31.9999H4.90323C3.30645 31.9999 2 30.6935 2 29.0967H13.6129V30.0644H20.3871V29.0967H32C32 30.6935 30.6935 31.9999 29.0968 31.9999Z" stroke="black" stroke-width="1.5" stroke-miterlimit="10" stroke-linecap="round" stroke-linejoin="round"/>
<path d="M24.7417 10.2256H28.1288C29.1933 10.2256 30.0643 11.0966 30.0643 12.1611V27.1611" stroke="black" stroke-width="1.5" stroke-miterlimit="10" stroke-linecap="square" stroke-linejoin="round"/>
<path d="M3.93555 27.1611V12.1611C3.93555 11.0966 4.80651 10.2256 5.87103 10.2256H9.25813" stroke="black" stroke-width="1.5" stroke-miterlimit="10" stroke-linecap="square" stroke-linejoin="round"/>
<path d="M26.3266 21.3545H24.3076" stroke="black" stroke-miterlimit="10" stroke-linecap="round" stroke-linejoin="round"/>
<path d="M27 24.0459H24.3081V18.6621H27" stroke="black" stroke-miterlimit="10" stroke-linecap="round" stroke-linejoin="round"/>
<path d="M20.9428 21.3545H18.9238" stroke="black" stroke-miterlimit="10" stroke-linecap="round" stroke-linejoin="round"/>
<path d="M21.6167 24.0459H18.9248V18.6621H21.6167" stroke="black" stroke-miterlimit="10" stroke-linecap="round" stroke-linejoin="round"/>
<path d="M16.2316 24.0459L14.8856 21.354C15.8278 21.354 16.2316 20.7483 16.2316 20.0081C16.2316 19.2678 15.8278 18.6621 14.8856 18.6621H12.8667V24.0459" stroke="black" stroke-miterlimit="10" stroke-linecap="round" stroke-linejoin="round"/>
<path d="M10.1758 18.6621H7.48389V24.0459" stroke="black" stroke-miterlimit="10" stroke-linecap="round" stroke-linejoin="round"/>
<path d="M9.50318 21.3545H8.15723" stroke="black" stroke-miterlimit="10" stroke-linecap="round" stroke-linejoin="round"/>
<path d="M17 14.58C17.8017 14.58 18.4516 13.9301 18.4516 13.1284C18.4516 12.3267 17.8017 11.6768 17 11.6768C16.1982 11.6768 15.5483 12.3267 15.5483 13.1284C15.5483 13.9301 16.1982 14.58 17 14.58Z" stroke="black" stroke-width="1.5" stroke-miterlimit="10" stroke-linecap="round" stroke-linejoin="round"/>
<path d="M13.6133 10.4186C14.3875 9.45081 15.6455 8.77344 17.0004 8.77344C18.3552 8.77344 19.6133 9.40242 20.3875 10.4186" stroke="black" stroke-width="1.5" stroke-miterlimit="10" stroke-linecap="round" stroke-linejoin="round"/>
<path d="M11.1938 8.00055C12.5971 6.40378 14.6777 5.3877 17.0003 5.3877C19.3229 5.3877 21.3551 6.40378 22.8068 8.00055" stroke="black" stroke-width="1.5" stroke-miterlimit="10" stroke-linecap="round" stroke-linejoin="round"/>
<path d="M8.82227 5.5806C10.8545 3.35479 13.7578 2 16.9997 2C20.2416 2 23.1449 3.40318 25.1771 5.5806" stroke="black" stroke-width="1.5" stroke-miterlimit="10" stroke-linecap="round" stroke-linejoin="round"/>
</svg>
