<svg width="31" height="32" viewBox="0 0 31 32" fill="none" xmlns="http://www.w3.org/2000/svg">
<path d="M9.33333 26.6667L15.1111 32L20.7976 26.6667H26.8186C28.6705 26.6667 30.2222 24.8942 30.2222 23.0761V3.29659C30.2222 1.47852 28.7161 0 26.8642 0H3.35802C1.50607 0 0 1.47852 0 3.29659V23.0761C0 24.8942 1.46044 26.6667 3.31239 26.6667H9.33333ZM1.77778 3.77778C1.77778 2.67321 2.67321 1.77778 3.77778 1.77778H26.4444C27.549 1.77778 28.4444 2.67321 28.4444 3.77778V22.8889C28.4444 23.9935 27.549 24.8889 26.4444 24.8889H19.453L15.1111 29.1514L10.7692 24.8889H3.77778C2.67321 24.8889 1.77778 23.9935 1.77778 22.8889V3.77778Z" fill="black"/>
<path fill-rule="evenodd" clip-rule="evenodd" d="M23.0817 8.53331L19.8221 5.33331L17.3411 7.77065L20.6008 10.9689L23.0817 8.53331ZM6.79077 18.1138L15.8037 9.27998L19.0597 12.4782L10.0504 21.312H6.79077V18.1138Z" fill="black"/>
</svg>
