<svg width="60" height="60" viewBox="0 0 60 60" fill="none" xmlns="http://www.w3.org/2000/svg">
<path d="M32.3226 10.6452V6H27.6774V10.6452H23.0322V15.2903H27.6774V19.9355H32.3226V15.2903H36.9677V10.6452H32.3226Z" stroke="#98D7DC" stroke-width="3" stroke-miterlimit="10" stroke-linecap="square" stroke-linejoin="round"/>
<path d="M19.1612 12.9678H16.0645V54" stroke="#98D7DC" stroke-width="3" stroke-miterlimit="10" stroke-linecap="square" stroke-linejoin="round"/>
<path d="M40.8389 12.9678H43.9356V54" stroke="#98D7DC" stroke-width="3" stroke-miterlimit="10" stroke-linecap="square" stroke-linejoin="round"/>
<path d="M25.3545 24.5811V54.0004" stroke="#98D7DC" stroke-width="2" stroke-miterlimit="10" stroke-linecap="square" stroke-linejoin="round"/>
<path d="M34.6455 24.5811V54.0004" stroke="#98D7DC" stroke-width="2" stroke-miterlimit="10" stroke-linecap="square" stroke-linejoin="round"/>
<path d="M25.3545 28.4512H34.6448" stroke="#98D7DC" stroke-width="2" stroke-miterlimit="10" stroke-linecap="square" stroke-linejoin="round"/>
<path d="M25.3545 39.29H34.6448" stroke="#98D7DC" stroke-width="2" stroke-miterlimit="10" stroke-linecap="square" stroke-linejoin="round"/>
<path d="M25.3545 50.1289H34.6448" stroke="#98D7DC" stroke-width="2" stroke-miterlimit="10" stroke-linecap="square" stroke-linejoin="round"/>
<path d="M12.1935 19.9355H6V54.0001" stroke="#98D7DC" stroke-width="3" stroke-miterlimit="10" stroke-linecap="square" stroke-linejoin="round"/>
<path d="M12.1937 40.8385H9.87109V36.1934H12.1937" stroke="#98D7DC" stroke-width="2" stroke-miterlimit="10" stroke-linecap="square" stroke-linejoin="round"/>
<path d="M12.1937 31.5485H9.87109V26.9033H12.1937" stroke="#98D7DC" stroke-width="2" stroke-miterlimit="10" stroke-linecap="square" stroke-linejoin="round"/>
<path d="M12.1937 50.1295H9.87109V45.4844H12.1937" stroke="#98D7DC" stroke-width="2" stroke-miterlimit="10" stroke-linecap="square" stroke-linejoin="round"/>
<path d="M47.8066 19.9355H54.0002V54.0001" stroke="#98D7DC" stroke-width="3" stroke-miterlimit="10" stroke-linecap="square" stroke-linejoin="round"/>
<path d="M47.8066 40.8385H50.1292V36.1934H47.8066" stroke="#98D7DC" stroke-width="2" stroke-miterlimit="10" stroke-linecap="square" stroke-linejoin="round"/>
<path d="M47.8066 31.5485H50.1292V26.9033H47.8066" stroke="#98D7DC" stroke-width="2" stroke-miterlimit="10" stroke-linecap="square" stroke-linejoin="round"/>
<path d="M47.8066 50.1295H50.1292V45.4844H47.8066" stroke="#98D7DC" stroke-width="2" stroke-miterlimit="10" stroke-linecap="square" stroke-linejoin="round"/>
</svg>
