<svg width="60" height="60" viewBox="0 0 60 60" fill="none" xmlns="http://www.w3.org/2000/svg">
<path d="M46.2576 13.7363L42.3866 16.0589C42.3866 16.0589 34.335 15.8267 31.7027 16.0589C30.0769 16.2137 26.5156 17.8396 24.6576 18.6912C23.9608 19.0009 23.4189 19.5428 23.1092 20.2396L20.0898 27.2847C20.0898 27.2847 20.0898 28.446 21.2511 29.6073C22.4124 30.7686 24.9673 30.3041 25.8963 29.6073C27.2124 28.5234 29.9995 23.8008 29.9995 23.8008H36.9673" stroke="#98D7DC" stroke-width="2" stroke-miterlimit="10" stroke-linecap="round" stroke-linejoin="round"/>
<path d="M53.9997 25.3489C53.9997 25.3489 52.761 19.3876 46.2578 13.736L53.9997 9.09082" stroke="#98D7DC" stroke-width="3" stroke-miterlimit="10" stroke-linecap="round" stroke-linejoin="round"/>
<path d="M49.3545 35.4135C49.3545 35.4135 50.9803 32.9361 51.3674 31.4651L53.9997 29.9941" stroke="#98D7DC" stroke-width="2" stroke-miterlimit="10" stroke-linecap="round" stroke-linejoin="round"/>
<path d="M38.5159 29.9941L47.8837 38.278C49.045 39.2845 49.1224 41.1425 48.1159 42.2264C47.1095 43.3877 45.3288 43.4651 44.1675 42.4586L36.1934 36.1877" stroke="#98D7DC" stroke-width="2" stroke-miterlimit="10" stroke-linecap="round" stroke-linejoin="round"/>
<path d="M45.2517 46.2518C45.1743 46.4841 45.0194 46.7163 44.8646 46.8712C43.8581 48.0325 42.0775 48.1099 40.9162 47.1034L34.7227 42.3809" stroke="#98D7DC" stroke-width="2" stroke-miterlimit="10" stroke-linecap="round" stroke-linejoin="round"/>
<path d="M38.5153 49.3492C37.5088 49.8911 36.1927 49.8137 35.2637 48.9621L33.8701 47.8008" stroke="#98D7DC" stroke-width="2" stroke-miterlimit="10" stroke-linecap="round" stroke-linejoin="round"/>
<path d="M6 9.09082L15.2903 16.0586C15.2903 16.0586 20.6323 14.9747 25.3548 15.2844" stroke="#98D7DC" stroke-width="3" stroke-miterlimit="10" stroke-linecap="round" stroke-linejoin="round"/>
<path d="M13.7419 19.9297C13.7419 19.9297 11.4194 27.9813 6 30.7684C6 30.7684 8.32258 32.8587 9.09677 33.8652" stroke="#98D7DC" stroke-width="3" stroke-miterlimit="10" stroke-linecap="round" stroke-linejoin="round"/>
<path d="M16.684 35.5682C16.8389 35.723 16.9163 35.8779 16.9937 36.0327C17.4583 36.9617 17.226 38.2004 16.3744 38.8972L13.5873 40.9876C12.5808 41.8392 11.1099 41.6843 10.2582 40.6779L9.87115 40.2134C9.01953 39.2069 9.17437 37.6585 10.1808 36.8843L12.9679 34.794C13.9744 33.9424 15.4453 34.0972 16.2969 35.1037L16.684 35.5682Z" stroke="#98D7DC" stroke-width="2" stroke-miterlimit="10" stroke-linecap="round" stroke-linejoin="round"/>
<path d="M20.71 36.1104C21.4068 36.1104 22.0261 36.42 22.4906 36.9619L22.8777 37.4264C23.7293 38.4329 23.5745 39.9813 22.5681 40.8329L18.0777 44.3942C17.0713 45.2458 15.5229 45.091 14.6713 44.0845L14.2842 43.62C13.5874 42.8458 13.51 41.6845 14.0519 40.8329" stroke="#98D7DC" stroke-width="2" stroke-miterlimit="10" stroke-linecap="round" stroke-linejoin="round"/>
<path d="M26.9035 39.207C27.1358 39.3619 27.368 39.5167 27.6003 39.7489L28.0648 40.2909C28.9164 41.2973 28.839 42.8457 27.7551 43.7747L22.7229 47.9554C21.7164 48.807 20.168 48.7296 19.239 47.6457L18.7745 47.1038C17.9229 46.0973 18.0777 44.5489 19.0841 43.6199" stroke="#98D7DC" stroke-width="2" stroke-miterlimit="10" stroke-linecap="round" stroke-linejoin="round"/>
<path d="M30.3097 45.5557C31.1613 46.5621 31.0065 48.0331 30 48.8073L28.0645 50.3557C27.0581 51.2073 25.5871 51.0525 24.8129 50.046L24.4258 49.5815C23.5742 48.575 23.7291 47.1041 24.7355 46.3299" stroke="#98D7DC" stroke-width="2" stroke-miterlimit="10" stroke-linecap="round" stroke-linejoin="round"/>
</svg>
