<svg width="60" height="60" viewBox="0 0 60 60" fill="none" xmlns="http://www.w3.org/2000/svg">
<path d="M30 54C43.2548 54 54 43.2548 54 30C54 16.7452 43.2548 6 30 6C16.7452 6 6 16.7452 6 30C6 43.2548 16.7452 54 30 54Z" stroke="#98D7DC" stroke-width="3" stroke-miterlimit="10" stroke-linecap="round" stroke-linejoin="round"/>
<path d="M30 12.1934V14.5159" stroke="#98D7DC" stroke-width="2" stroke-miterlimit="10" stroke-linecap="round"/>
<path d="M30 45.4834V47.806" stroke="#98D7DC" stroke-width="2" stroke-miterlimit="10" stroke-linecap="round"/>
<path d="M45.4834 30H47.806" stroke="#98D7DC" stroke-width="2" stroke-miterlimit="10" stroke-linecap="round"/>
<path d="M12.1934 30H14.5159" stroke="#98D7DC" stroke-width="2" stroke-miterlimit="10" stroke-linecap="round"/>
<path d="M29.999 19.9355V26.9033" stroke="#98D7DC" stroke-width="2" stroke-miterlimit="10" stroke-linecap="round" stroke-linejoin="round"/>
<path d="M39.29 39.29L32.3223 32.3223" stroke="#98D7DC" stroke-width="2" stroke-miterlimit="10" stroke-linecap="round" stroke-linejoin="round"/>
<path d="M29.9993 32.3229C31.2821 32.3229 32.3219 31.283 32.3219 30.0003C32.3219 28.7176 31.2821 27.6777 29.9993 27.6777C28.7166 27.6777 27.6768 28.7176 27.6768 30.0003C27.6768 31.283 28.7166 32.3229 29.9993 32.3229Z" stroke="#98D7DC" stroke-width="2" stroke-miterlimit="10" stroke-linecap="round" stroke-linejoin="round"/>
</svg>
