<svg width="60" height="60" viewBox="0 0 60 60" fill="none" xmlns="http://www.w3.org/2000/svg">
<path d="M50.6712 37.6645C52.7615 34.4129 54 30.6194 54 26.5161C54 15.2129 44.7871 6 33.4839 6C22.1807 6 12.9678 15.2129 12.9678 26.5161C12.9678 37.8194 22.1807 47.0323 33.4839 47.0323C37.5871 47.0323 41.458 45.7936 44.6322 43.7032L54 47.0323L50.6712 37.6645Z" stroke="#98D7DC" stroke-width="3" stroke-miterlimit="10" stroke-linecap="round" stroke-linejoin="round"/>
<path d="M32.0905 51.6777C29.5356 53.1487 26.5936 54.0003 23.4194 54.0003C19.9355 54.0003 16.6837 52.9939 13.974 51.2132L6 54.0003L8.78717 46.0261C7.00653 43.3165 6 40.0648 6 36.581C6 33.3293 6.92918 30.31 8.47757 27.6777" stroke="#98D7DC" stroke-width="3" stroke-miterlimit="10" stroke-linecap="round" stroke-linejoin="round"/>
<path d="M20.71 26.129H25.3551C27.91 24.1935 30.2325 22.4128 31.5487 19.3935C32.5551 17.0709 32.3229 16.1419 32.3229 13.7419C32.3229 13.7419 34.6454 12.1935 35.4196 16.8387C35.6519 18.387 35.4196 22.258 34.6454 23.8064" stroke="#98D7DC" stroke-width="2" stroke-miterlimit="10" stroke-linecap="round" stroke-linejoin="round"/>
<path d="M41.6128 26.9033C42.4645 26.9033 43.1612 27.6001 43.1612 28.4517C43.1612 29.3033 42.4645 30.0001 41.6128 30.0001H40.0645" stroke="#98D7DC" stroke-width="2" stroke-miterlimit="10" stroke-linecap="round" stroke-linejoin="round"/>
<path d="M40.8394 30C41.691 30 42.3878 30.6968 42.3878 31.5484C42.3878 32.4 41.691 33.0968 40.8394 33.0968H39.291" stroke="#98D7DC" stroke-width="2" stroke-miterlimit="10" stroke-linecap="round" stroke-linejoin="round"/>
<path d="M40.0649 33.0967C40.9165 33.0967 41.6133 33.7935 41.6133 34.6451C41.6133 35.4967 40.9165 36.1935 40.0649 36.1935H35.0327C33.252 36.1935 31.4715 36.0386 29.6908 35.6515L28.452 35.4193H24.5811" stroke="#98D7DC" stroke-width="2" stroke-miterlimit="10" stroke-linecap="round" stroke-linejoin="round"/>
<path d="M34.6455 23.8066H41.6132C42.4649 23.8066 43.1616 24.5034 43.1616 25.355C43.1616 26.2066 42.4649 26.9034 41.6132 26.9034H40.0649" stroke="#98D7DC" stroke-width="2" stroke-miterlimit="10" stroke-linecap="round" stroke-linejoin="round"/>
</svg>
