<svg width="203" height="203" viewBox="0 0 203 203" fill="none" xmlns="http://www.w3.org/2000/svg">
<path d="M85.5844 137.021C74.9756 129.627 63.0808 116.125 63.0808 101.659V88.7995" stroke="#E795AC" stroke-width="3" stroke-miterlimit="10" stroke-linecap="round" stroke-linejoin="round"/>
<path d="M140.236 88.7995V101.659C140.236 116.447 128.663 129.627 117.733 137.021" stroke="#E795AC" stroke-width="3" stroke-miterlimit="10" stroke-linecap="round" stroke-linejoin="round"/>
<path d="M140.236 72.7255C108.088 72.7255 101.658 59.8663 101.658 59.8663C101.658 59.8663 95.2288 72.7255 63.0808 72.7255" stroke="#E795AC" stroke-width="3" stroke-miterlimit="10" stroke-linecap="square" stroke-linejoin="round"/>
<path d="M47.007 140.236V72.7255C47.007 62.1167 49.9004 52.4723 54.7226 43.7924" stroke="#E795AC" stroke-width="3" stroke-miterlimit="10" stroke-linecap="round" stroke-linejoin="round"/>
<path d="M148.595 43.7924C153.417 52.4723 156.311 62.1167 156.311 72.7255V140.236" stroke="#E795AC" stroke-width="3" stroke-miterlimit="10" stroke-linecap="round" stroke-linejoin="round"/>
<path d="M127.377 130.592V146.666L163.705 159.525C181.065 165.633 194.566 179.778 200.032 197.459L201.318 201.317" stroke="#E795AC" stroke-width="3" stroke-miterlimit="10" stroke-linecap="round" stroke-linejoin="round"/>
<path d="M1.99997 201.317L3.28597 197.459C8.75112 179.778 22.253 165.633 39.6129 159.525L75.9403 146.666V130.592" stroke="#E795AC" stroke-width="3" stroke-miterlimit="10" stroke-linecap="round" stroke-linejoin="round"/>
<path d="M75.9406 146.666C75.9406 165.955 101.659 182.029 101.659 182.029C101.659 182.029 127.377 165.955 127.377 146.666" stroke="#E795AC" stroke-width="3" stroke-miterlimit="10" stroke-linecap="round" stroke-linejoin="round"/>
<path d="M140.236 53.4368L153.096 24.5036C153.096 24.5036 140.236 2 101.659 2C63.0813 2 50.2221 24.5036 50.2221 24.5036L63.0813 53.4368" stroke="#E795AC" stroke-width="3" stroke-miterlimit="10" stroke-linecap="round" stroke-linejoin="round"/>
<path d="M101.659 18.074V43.7924" stroke="#E795AC" stroke-width="3" stroke-miterlimit="10" stroke-linecap="round" stroke-linejoin="round"/>
<path d="M88.7994 30.9332H114.518" stroke="#E795AC" stroke-width="3" stroke-miterlimit="10" stroke-linecap="round" stroke-linejoin="round"/>
</svg>
