<svg width="203" height="204" viewBox="0 0 203 204" fill="none" xmlns="http://www.w3.org/2000/svg">
<path d="M85.5846 137.363C74.9758 129.969 63.0811 116.466 63.0811 102V89.1406" stroke="#32B4C3" stroke-width="3" stroke-miterlimit="10" stroke-linecap="round" stroke-linejoin="round"/>
<path d="M140.236 89.1406V102C140.236 116.788 128.663 129.969 117.732 137.363" stroke="#32B4C3" stroke-width="3" stroke-miterlimit="10" stroke-linecap="round" stroke-linejoin="round"/>
<path d="M140.236 73.0667C108.088 73.0667 101.659 60.2075 101.659 60.2075C101.659 60.2075 95.229 73.0667 63.0811 73.0667" stroke="#32B4C3" stroke-width="3" stroke-miterlimit="10" stroke-linecap="square" stroke-linejoin="round"/>
<path d="M47.0068 140.577V73.0665C47.0068 62.4576 49.9002 52.8133 54.7224 44.1333" stroke="#32B4C3" stroke-width="3" stroke-miterlimit="10" stroke-linecap="round" stroke-linejoin="round"/>
<path d="M148.595 44.1333C153.417 52.8133 156.311 62.4576 156.311 73.0665V140.577" stroke="#32B4C3" stroke-width="3" stroke-miterlimit="10" stroke-linecap="round" stroke-linejoin="round"/>
<path d="M127.377 130.933V147.007L163.705 159.866C181.065 165.974 194.567 180.118 200.032 197.8L201.318 201.658" stroke="#32B4C3" stroke-width="3" stroke-miterlimit="10" stroke-linecap="round" stroke-linejoin="round"/>
<path d="M2 201.658L3.286 197.8C8.75115 180.118 22.2531 165.974 39.613 159.866L75.9403 147.007V130.933" stroke="#32B4C3" stroke-width="3" stroke-miterlimit="10" stroke-linecap="round" stroke-linejoin="round"/>
<path d="M75.9404 147.007C75.9404 166.296 101.659 182.37 101.659 182.37C101.659 182.37 127.377 166.296 127.377 147.007" stroke="#32B4C3" stroke-width="3" stroke-miterlimit="10" stroke-linecap="round" stroke-linejoin="round"/>
<path d="M140.236 53.7776L153.096 24.8444C153.096 24.8444 140.236 2.34082 101.659 2.34082C63.0814 2.34082 50.2222 24.8444 50.2222 24.8444L63.0814 53.7776" stroke="#32B4C3" stroke-width="3" stroke-miterlimit="10" stroke-linecap="round" stroke-linejoin="round"/>
<path d="M101.659 18.415V44.1334" stroke="#32B4C3" stroke-width="3" stroke-miterlimit="10" stroke-linecap="round" stroke-linejoin="round"/>
<path d="M88.7993 31.2744H114.518" stroke="#32B4C3" stroke-width="3" stroke-miterlimit="10" stroke-linecap="round" stroke-linejoin="round"/>
</svg>
