<svg width="88" height="88" viewBox="0 0 88 88" fill="none" xmlns="http://www.w3.org/2000/svg">
<path d="M48.0646 10.129V2H39.9356V10.129H31.8066V18.2581H39.9356V26.3871H48.0646V18.2581H56.1937V10.129H48.0646Z" fill="#E795AC" stroke="#E795AC" stroke-width="3" stroke-miterlimit="10" stroke-linecap="square" stroke-linejoin="round"/>
<path d="M25.0324 14.1935H19.6131V86" stroke="#98D7DC" stroke-width="3" stroke-miterlimit="10" stroke-linecap="square" stroke-linejoin="round"/>
<path d="M62.9679 14.1935H68.3873V86" stroke="#98D7DC" stroke-width="3" stroke-miterlimit="10" stroke-linecap="square" stroke-linejoin="round"/>
<path d="M35.8712 34.5161V86" stroke="#98D7DC" stroke-width="2" stroke-miterlimit="10" stroke-linecap="square" stroke-linejoin="round"/>
<path d="M52.1291 34.5161V86" stroke="#98D7DC" stroke-width="2" stroke-miterlimit="10" stroke-linecap="square" stroke-linejoin="round"/>
<path d="M35.8712 41.2903H52.1293" stroke="#98D7DC" stroke-width="2" stroke-miterlimit="10" stroke-linecap="square" stroke-linejoin="round"/>
<path d="M35.8712 60.2581H52.1293" stroke="#98D7DC" stroke-width="2" stroke-miterlimit="10" stroke-linecap="square" stroke-linejoin="round"/>
<path d="M35.8712 79.2258H52.1293" stroke="#98D7DC" stroke-width="2" stroke-miterlimit="10" stroke-linecap="square" stroke-linejoin="round"/>
<path d="M12.8387 26.3871H2V86.0001" stroke="#98D7DC" stroke-width="3" stroke-miterlimit="10" stroke-linecap="square" stroke-linejoin="round"/>
<path d="M12.8387 62.9678H8.77419V54.8387H12.8387" stroke="#98D7DC" stroke-width="2" stroke-miterlimit="10" stroke-linecap="square" stroke-linejoin="round"/>
<path d="M12.8387 46.7097H8.77419V38.5807H12.8387" stroke="#98D7DC" stroke-width="2" stroke-miterlimit="10" stroke-linecap="square" stroke-linejoin="round"/>
<path d="M12.8387 79.2259H8.77419V71.0969H12.8387" stroke="#98D7DC" stroke-width="2" stroke-miterlimit="10" stroke-linecap="square" stroke-linejoin="round"/>
<path d="M75.1614 26.3871H86.0001V86.0001" stroke="#98D7DC" stroke-width="3" stroke-miterlimit="10" stroke-linecap="square" stroke-linejoin="round"/>
<path d="M75.1614 62.9678H79.2259V54.8387H75.1614" stroke="#98D7DC" stroke-width="2" stroke-miterlimit="10" stroke-linecap="square" stroke-linejoin="round"/>
<path d="M75.1614 46.7097H79.2259V38.5807H75.1614" stroke="#98D7DC" stroke-width="2" stroke-miterlimit="10" stroke-linecap="square" stroke-linejoin="round"/>
<path d="M75.1614 79.2259H79.2259V71.0969H75.1614" stroke="#98D7DC" stroke-width="2" stroke-miterlimit="10" stroke-linecap="square" stroke-linejoin="round"/>
</svg>
