<svg width="203" height="203" viewBox="0 0 203 203" fill="none" xmlns="http://www.w3.org/2000/svg">
<path d="M2.10616 201.318C2.10616 201.318 -1.1052 153.173 27.7971 143.545L75.9676 127.496V108.239" stroke="#32B4C3" stroke-width="3" stroke-miterlimit="10" stroke-linecap="round" stroke-linejoin="round"/>
<path d="M127.35 108.239V127.496L175.52 143.545C204.422 153.173 201.211 201.318 201.211 201.318" stroke="#32B4C3" stroke-width="3" stroke-miterlimit="10" stroke-linecap="round" stroke-linejoin="round"/>
<path d="M117.716 111.448C140.195 101.819 142.443 75.8221 145.012 55.9225C146.297 45.0098 146.618 33.4549 141.48 23.505C136.663 14.5181 127.992 8.09796 118.358 4.88834C113.22 2.96257 107.439 2 101.659 2C95.8784 2 90.0981 2.96257 84.9599 4.88834C75.3259 8.09796 66.6549 14.5181 61.8379 23.505C56.6997 33.4549 57.0209 45.0098 58.3055 55.9225C60.8746 75.8221 63.1225 101.819 85.6021 111.448" stroke="#32B4C3" stroke-width="3" stroke-miterlimit="10" stroke-linecap="round" stroke-linejoin="round"/>
<path d="M72.7568 47.2561C104.87 47.2561 111.293 40.8369 114.505 31.208C114.505 31.208 114.505 47.2561 130.561 47.2561" stroke="#32B4C3" stroke-width="3" stroke-miterlimit="10" stroke-linecap="square" stroke-linejoin="round"/>
<path d="M75.9678 127.496C75.9678 146.754 101.659 162.802 101.659 162.802C101.659 162.802 127.35 146.754 127.35 127.496" stroke="#32B4C3" stroke-width="3" stroke-miterlimit="10" stroke-linecap="round" stroke-linejoin="round"/>
</svg>
